<?xml version="1.0" standalone="no"?>
<!DOCTYPE svg PUBLIC "-//W3C//DTD SVG 1.1//EN" "http://www.w3.org/Graphics/SVG/1.1/DTD/svg11.dtd">
<svg xmlns="http://www.w3.org/2000/svg"><metadata>This SVG WebFont was generated by YouWorkForThem.
Copyright (c) 2018 by Typetype. Designer Ivan Gladkikh, technical designers Philipp Nurullin, Vika Usmanova, Nadyr Rakhimov, Marina Khodak. All rights reserved.</metadata><defs><font horiz-adv-x="1228" id="ywftsvg"><font-face ascent="1638" bbox="-891 -573 2945 2109" cap-height="1434" descent="-410" font-family="" font-stretch="normal" font-weight="300" panose-1="2 0 5 3 3 0 0 2 0 4" underline-position="0" underline-thickness="0" unicode-range="U+000D-FB02" units-per-em="2048" x-height="1024"/><missing-glyph horiz-adv-x="0"/><glyph d="M51 911v113h144v410h460v-113h-338v-297h502v410h461v-113h-338v-297h277v-113h-277v-911h-123v911h-502v-911h-122v911h-144z" glyph-name="uniFB00" horiz-adv-x="1239" unicode="ff"/><glyph d="M51 911v113h144v410h686v-113h-564v-297h625v-1024h-123v911h-502v-911h-122v911h-144z" glyph-name="uniFB01" horiz-adv-x="1105" unicode="fi"/><glyph d="M51 911v113h144v410h747v-1321h236v-113h-359v1321h-502v-297h277v-113h-277v-911h-122v911h-144z" glyph-name="uniFB02" horiz-adv-x="1208" unicode="fl"/><glyph d="M51 911v113h144v410h686v-113h-564v-297h625v-1413h-420v113h297v1187h-502v-911h-122v911h-144z" glyph-name="f_j.liga" horiz-adv-x="1105" unicode="fj"/><glyph d="M51 911v113h144v410h747v-410h338v-113h-338v-798h348v-113h-471v911h-502v-911h-122v911h-144zM317 1024h502v297h-502v-297z" glyph-name="f_t.liga" horiz-adv-x="1351" unicode="ft"/><glyph glyph-name=".notdef" horiz-adv-x="0"/><glyph glyph-name="glyph1" horiz-adv-x="0"/><glyph glyph-name="glyph1" horiz-adv-x="0"/><glyph glyph-name="glyph2" horiz-adv-x="681"/><glyph glyph-name="space" horiz-adv-x="573" unicode=" "/><glyph d="M225 686v748h123v-748l-20 -276h-82zM184 72q0 47 28 74.5t75 27.5q45 0 73.5 -27.5t28.5 -74.5t-28.5 -75t-73.5 -28t-74 29t-29 74z" glyph-name="exclam" horiz-adv-x="573" unicode="!"/><glyph d="M143 1167v267h123v-267l-20 -235h-82zM461 1167v267h123v-267l-21 -235h-82z" glyph-name="quotedbl" horiz-adv-x="727" unicode="&quot;"/><glyph d="M61 420v102h256l113 389h-246v103h277l123 420h123l-123 -420h358l123 420h123l-123 -420h225v-103h-256l-112 -389h245v-102h-276l-123 -420h-123l123 420h-358l-123 -420h-123l123 420h-226zM440 522h359l112 389h-358z" glyph-name="numbersign" horiz-adv-x="1351" unicode="#"/><glyph d="M92 379h133q4 -12 11.5 -31.5t41 -71t77.5 -91.5t127 -71.5t184 -31.5q190 0 294.5 82t104.5 205q0 90 -67.5 153.5t-169 94t-219 68.5t-219 78t-169 123t-67.5 199q0 150 119.5 261.5t320.5 126.5v186h133v-189q111 -12 200 -54t135 -95t76.5 -104.5t41.5 -86.5l8 -34 h-133q-2 10 -8.5 27.5t-36 61.5t-70.5 77.5t-119 61.5t-176 28q-170 0 -264 -77t-94 -190q0 -76 50 -132t131 -89t177 -61.5t193.5 -61t178.5 -76.5t131 -119t50 -177q0 -158 -127 -275t-344 -133v-186h-133v188q-121 10 -216 57.5t-146.5 105.5t-85 116.5t-44.5 97.5z" glyph-name="dollar" horiz-adv-x="1300" unicode="$"/><glyph d="M82 1116q0 137 100.5 237.5t237.5 100.5t237.5 -100.5t100.5 -237.5t-100.5 -237.5t-237.5 -100.5t-237.5 100.5t-100.5 237.5zM287 0l860 1434h133l-860 -1434h-133zM205 1116q0 -98 61.5 -161.5t153.5 -63.5t153.5 63.5t61.5 161.5t-61.5 161.5t-153.5 63.5 t-153.5 -63.5t-61.5 -161.5zM809 317.5q0 137.5 99.5 237.5t238.5 100t238.5 -100t99.5 -237.5t-99.5 -237.5t-238.5 -100t-238.5 100t-99.5 237.5zM932 317.5q0 -98.5 61.5 -162t153.5 -63.5t153.5 63.5t61.5 162t-61.5 162t-153.5 63.5t-153.5 -63.5t-61.5 -162z" glyph-name="percent" horiz-adv-x="1566" unicode="%"/><glyph d="M51 471q0 215 146.5 363.5t355.5 148.5q37 0 73 -8t54 -17l16 -6v2l-12 19l-223 338v123h799v-123h-646v-2l861 -1309h-154l-262 399l-12 21h-3q0 -193 -138 -327t-343 -134q-215 0 -363.5 148.5t-148.5 363.5zM195 471q0 -168 106.5 -278.5t262 -110.5t262 110.5 t106.5 278.5t-106.5 278.5t-262 110.5t-262 -110.5t-106.5 -278.5z" glyph-name="ampersand" horiz-adv-x="1433" unicode="&amp;"/><glyph d="M143 1167v267h123v-267l-20 -235h-82z" glyph-name="quotesingle" horiz-adv-x="409" unicode="'"/><glyph d="M164 594q0 127 26.5 249t68.5 214t94.5 174t103.5 138t93 97t68 62l27 18l72 -92q-16 -12 -45 -36.5t-101.5 -106.5t-128 -175.5t-100.5 -239.5t-45 -302t43 -301.5t105.5 -242.5t124 -172t104.5 -109l43 -35l-72 -92q-10 6 -27.5 19t-67.5 59.5t-95 99.5t-100.5 137 t-95.5 175t-67.5 213t-27.5 249z" glyph-name="parenleft" horiz-adv-x="747" unicode="("/><glyph d="M31 -266q16 12 44.5 36.5t101.5 106.5t128 175t100.5 239.5t45.5 302.5t-43 301t-104.5 242.5t-124 172t-105.5 109.5l-43 35l71 92q10 -6 27.5 -19.5t68 -59.5t95.5 -99t100.5 -137t95 -175t67.5 -213t28 -249q0 -174 -49.5 -337t-120 -269.5t-142 -188.5t-120.5 -118 l-50 -39z" glyph-name="parenright" horiz-adv-x="747" unicode=")"/><glyph d="M72 1085v103h245v246h103v-246h246v-103h-215l143 -215l-92 -51l-133 215l-133 -215l-93 51l144 215h-215z" glyph-name="asterisk" horiz-adv-x="737" unicode="*"/><glyph d="M113 573v113h338v358h122v-358h338v-113h-338v-358h-122v358h-338z" glyph-name="plus" horiz-adv-x="1024" unicode="+"/><glyph d="M92 61q0 45 27.5 74t75.5 29q49 0 80.5 -42t31.5 -122q0 -104 -55 -166.5t-150 -79.5v62q123 31 123 133l-10 41q-20 -10 -41 -10q-31 0 -56.5 25t-25.5 56z" glyph-name="comma" horiz-adv-x="399" unicode=","/><glyph d="M123 512v123h737v-123h-737z" glyph-name="hyphen" horiz-adv-x="983" unicode="-"/><glyph d="M92 72q0 47 27.5 74.5t75 27.5t75 -27.5t27.5 -74.5t-27.5 -75t-74.5 -28q-45 0 -74 29t-29 74z" glyph-name="period" horiz-adv-x="389" unicode="."/><glyph d="M10 0l563 1434h134l-564 -1434h-133z" glyph-name="slash" horiz-adv-x="716" unicode="/"/><glyph d="M123 717q0 344 182 551t452.5 207t453 -207t182.5 -551t-182.5 -551t-453 -207t-452.5 207t-182 551zM256 717q0 -297 142.5 -466t359.5 -169t359.5 169t142.5 466t-142.5 466t-359.5 169t-359.5 -169t-142.5 -466z" glyph-name="zero" horiz-adv-x="1515" unicode="0"/><glyph d="M51 1075v144l277 215h123v-1434h-134v1280z" glyph-name="one" horiz-adv-x="634" unicode="1"/><glyph d="M61 0v123l441 338q246 188 338 303t92 260q0 141 -99.5 234.5t-259.5 93.5q-86 0 -153.5 -33t-102 -80t-57 -93t-29.5 -79l-6 -33h-143q0 8 3 24.5t16.5 62.5t32 87t57 92.5t88 88t126 61.5t168.5 25q211 0 351.5 -132.5t140.5 -318.5q0 -172 -112.5 -318.5 t-338.5 -316.5l-327 -248l-21 -14v-6l21 2h778v-123h-1004z" glyph-name="two" horiz-adv-x="1167" unicode="2"/><glyph d="M51 369h133q2 -12 8.5 -32t36 -69t70.5 -87t119 -68.5t176 -30.5q172 0 275.5 93t103.5 234.5t-103.5 234.5t-275.5 93h-256v123l512 449v2h-727v123h911v-123l-491 -430l-21 -17v-4h72q225 0 368.5 -131t143.5 -319.5t-143.5 -319.5t-368.5 -131q-131 0 -235.5 42 t-160 102.5t-91 121t-46.5 103.5z" glyph-name="three" horiz-adv-x="1208" unicode="3"/><glyph d="M61 328v123l512 983h144l-512 -983h624v389h11h123v-389h215v-123h-215v-328h-134v328h-768z" glyph-name="four" horiz-adv-x="1198" unicode="4"/><glyph d="M123 369h133q2 -12 9 -32t37 -69t71 -87t115.5 -68.5t166.5 -30.5q168 0 273.5 103.5t105.5 265t-105.5 265t-273.5 103.5q-70 0 -130 -18.5t-99 -43t-66.5 -50t-40.5 -43.5l-12 -19h-123l62 789h829v-123h-717l-41 -490v-2q12 14 38 34.5t113 54.5t187 34 q221 0 366.5 -141.5t145.5 -350t-145 -350t-367 -141.5q-127 0 -227 42t-155.5 102.5t-91.5 121t-46 103.5z" glyph-name="five" horiz-adv-x="1259" unicode="5"/><glyph d="M82 461q0 39 6 76.5t11 65.5t23.5 65t28 55t38 59t39 54.5t49 62.5t51.5 64l368 471h154l-379 -480l-8 -10l-2 -2q51 20 174 21q215 0 363.5 -146.5t148.5 -355.5t-152.5 -355.5t-380 -146.5t-380 146.5t-152.5 355.5zM215 461q0 -162 112.5 -270.5t286.5 -108.5 t287 108.5t113 270.5t-113 270.5t-287 108.5t-286.5 -108.5t-112.5 -270.5z" glyph-name="six" horiz-adv-x="1239" unicode="6"/><glyph d="M20 1311v123h932v-123l-604 -1311h-143l604 1309v2h-789z" glyph-name="seven" horiz-adv-x="993" unicode="7"/><glyph d="M102 389q0 84 32 153.5t70 107.5t92 69t72.5 37t39.5 12v2q-16 6 -29.5 10t-58 32t-74 60.5t-56 92t-26.5 131.5q0 154 135 266.5t356.5 112.5t356.5 -113t135 -266q0 -72 -25.5 -132.5t-61.5 -94t-72 -57.5t-62 -34l-25 -8v-2q12 -2 32.5 -9t74 -36t94.5 -68 t73.5 -109.5t32.5 -156.5q0 -178 -150.5 -304t-402.5 -126t-402.5 126t-150.5 304zM297 1096q0 -109 96 -193t262 -84t262.5 84t96.5 193q0 106 -95.5 181t-263.5 75t-263 -75t-95 -181zM236 389q0 -131 110.5 -219t309 -88t309 88t110.5 219t-110.5 219t-309 88t-309 -88 t-110.5 -219z" glyph-name="eight" horiz-adv-x="1310" unicode="8"/><glyph d="M92 973q0 209 152.5 355.5t380 146.5t380 -146.5t152.5 -355.5q0 -39 -6 -77t-11 -65.5t-23.5 -64.5t-28 -55.5t-38 -59.5t-39 -54t-49 -62.5t-51.5 -63.5l-368 -471h-154l379 479l8 10l2 3q-51 -20 -174 -21q-215 0 -363.5 146.5t-148.5 355.5zM225 973 q0 -162 113 -270.5t287 -108.5t286.5 108.5t112.5 270.5t-112.5 270.5t-286.5 108.5t-287 -108.5t-113 -270.5z" glyph-name="nine" horiz-adv-x="1239" unicode="9"/><glyph d="M92 946q0 47 27.5 75t75 28t75 -29t27.5 -74t-27.5 -73.5t-74.5 -28.5q-45 0 -74 28.5t-29 73.5zM92 72q0 47 27.5 74.5t75 27.5t75 -27.5t27.5 -74.5t-27.5 -75t-74.5 -28q-45 0 -74 29t-29 74z" glyph-name="colon" horiz-adv-x="389" unicode=":"/><glyph d="M92 61q0 45 27.5 74t75.5 29q49 0 80.5 -42t31.5 -122q0 -104 -55 -166.5t-150 -79.5v62q123 31 123 133l-10 41q-20 -10 -41 -10q-31 0 -56.5 25t-25.5 56zM92 946q0 47 27.5 75t75 28t75 -29t27.5 -74t-27.5 -73.5t-74.5 -28.5q-45 0 -74 28.5t-29 73.5z" glyph-name="semicolon" horiz-adv-x="389" unicode=";"/><glyph d="M113 440v144l778 409v-123l-655 -348v-20l655 -348v-123z" glyph-name="less" horiz-adv-x="1024" unicode="&lt;"/><glyph d="M133 676v112h758v-112h-758zM133 297v113h758v-113h-758z" glyph-name="equal" horiz-adv-x="1024" unicode="="/><glyph d="M133 31v123l655 348v20l-655 348v123l778 -409v-144z" glyph-name="greater" horiz-adv-x="1024" unicode=">"/><glyph d="M31 1065q4 16 12 44t45 98.5t88 124.5t148.5 98.5t218.5 44.5q203 0 332 -117t129 -283q0 -76 -25 -137t-63.5 -100t-86 -74t-93.5 -68.5t-85 -71.5t-63.5 -95.5t-24.5 -129.5h-133q0 98 33 174t82 118t105.5 84t105.5 77t81.5 92t32.5 131q0 119 -89 198t-238 79 q-88 0 -160 -30t-111 -72t-65.5 -84t-34.5 -72l-8 -29h-133zM399 72q0 47 28 74.5t75 27.5t74.5 -27.5t27.5 -74.5t-27.5 -75t-74.5 -28q-45 0 -74 29t-29 74z" glyph-name="question" horiz-adv-x="1075" unicode="?"/><glyph d="M102 655q0 324 223.5 546t544.5 222q311 0 514 -186t203 -428q0 -219 -138 -345t-402 -126h-3v102h-2l-2 -6q-4 -4 -7 -9t-9 -13.5t-13 -16.5t-17.5 -18t-23 -18.5t-28.5 -15.5t-34.5 -13t-41 -9.5t-47.5 -3.5q-123 0 -215 97.5t-92 241t91 240.5t216 97q162 0 223 -123 h2v103h123v-522q135 0 216 93t81 265q0 203 -163.5 352.5t-430.5 149.5q-279 0 -467 -186.5t-188 -469.5q0 -291 184.5 -473t470.5 -182q102 0 199.5 25.5t142.5 52.5l48 24v-112q-18 -12 -50 -28.5t-134.5 -45.5t-205.5 -29q-330 0 -549 219t-219 549zM635 655.5 q0 -98.5 59.5 -162t145.5 -63.5t145 63.5t59 162t-59 162t-145 63.5t-145.5 -63.5t-59.5 -162z" glyph-name="at" horiz-adv-x="1669" unicode="@"/><glyph d="M51 0l379 1434h512l379 -1434h-133l-123 471h-758l-123 -471h-133zM338 594h696l-194 717h-308z" glyph-name="A" horiz-adv-x="1372" unicode="A"/><glyph d="M184 0v1434h666q182 0 296 -107.5t114 -271.5q0 -66 -20.5 -122t-48.5 -89t-56.5 -55.5t-49.5 -30.5l-20 -10v-11q10 -2 27.5 -8t61.5 -31.5t78 -59.5t61.5 -97.5t27.5 -141.5q0 -174 -127 -286.5t-344 -112.5h-666zM317 799h533q129 0 202.5 69.5t73.5 186t-73.5 186.5 t-202.5 70h-533v-512zM317 123h533q164 0 251 74.5t87 201.5t-87 202t-251 75h-533v-553z" glyph-name="B" horiz-adv-x="1433" unicode="B"/><glyph d="M102 716.5q0 327.5 211 543t527 215.5q115 0 215 -29t168.5 -74t126 -99t90.5 -108.5t56.5 -99.5t31.5 -74l8 -28h-133q-4 16 -15.5 41.5t-56.5 93t-102.5 119t-161.5 93.5t-227 42q-264 0 -434 -176.5t-170 -459t169.5 -458.5t434.5 -176q92 0 173 23.5t137 60.5t103 81 t76 89t48.5 82t27.5 61l8 23h133q-2 -12 -9 -31.5t-32.5 -76t-58.5 -107.5t-92.5 -113.5t-128 -108t-170 -76t-215.5 -30.5q-315 0 -526.5 215t-211.5 542.5z" glyph-name="C" horiz-adv-x="1638" unicode="C"/><glyph d="M184 0v1434h451q322 0 529.5 -204t207.5 -513t-208 -513t-529 -204h-451zM317 123h318q268 0 436 166t168 428t-168 428t-436 166h-318v-1188z" glyph-name="D" horiz-adv-x="1474" unicode="D"/><glyph d="M184 0v1434h973v-123h-840v-523h687v-122h-687v-543h840v-123h-973z" glyph-name="E" horiz-adv-x="1249" unicode="E"/><glyph d="M184 0v1434h953v-123h-820v-563h656v-123h-656v-625h-133z" glyph-name="F" horiz-adv-x="1187" unicode="F"/><glyph d="M102 716.5q0 327.5 211 543t527 215.5q113 0 212 -28t167.5 -72t126 -97t91 -107.5t57.5 -98.5t34 -73l8 -26h-133q-6 16 -17.5 40.5t-57.5 90t-104.5 116t-160.5 91.5t-223 41q-264 0 -434 -176.5t-170 -459t169.5 -458.5t434.5 -176q233 0 397 152.5t186 379.5h-286 v123h604v-123h-185q-47 -297 -238.5 -476t-477.5 -179q-315 0 -526.5 215t-211.5 542.5z" glyph-name="G" horiz-adv-x="1761" unicode="G"/><glyph d="M184 0v1434h133v-646h830v646h133v-1434h-133v666h-830v-666h-133z" glyph-name="H" horiz-adv-x="1464" unicode="H"/><glyph d="M184 0v1434h133v-1434h-133z" glyph-name="I" horiz-adv-x="501" unicode="I"/><glyph d="M0 317l133 31q2 -10 8 -28.5t32 -64.5t61.5 -81t101 -63.5t145.5 -28.5q156 0 247 97t91 272v983h133v-983q0 -229 -127 -360.5t-344 -131.5q-113 0 -203 37t-140 90t-82.5 105.5t-43.5 89.5z" glyph-name="J" horiz-adv-x="1126" unicode="J"/><glyph d="M184 0v1434h133v-646h318l461 646h164l-502 -697l522 -737h-164l-471 666h-328v-666h-133z" glyph-name="K" horiz-adv-x="1300" unicode="K"/><glyph d="M184 0v1434h133v-1311h779v-123h-912z" glyph-name="L" horiz-adv-x="1116" unicode="L"/><glyph d="M184 0v1434h215l471 -953h134l471 953h215v-1434h-134v1290l3 21h-3l-471 -953h-297l-471 953l-2 -2l2 -19v-1290h-133z" glyph-name="M" horiz-adv-x="1873" unicode="M"/><glyph d="M184 0v1434h205l778 -1301h2l-2 21v1280h133v-1434h-204l-779 1300h-2l2 -20v-1280h-133z" glyph-name="N" horiz-adv-x="1484" unicode="N"/><glyph d="M102 716.5q0 327.5 211 543t526.5 215.5t526.5 -215.5t211 -543t-211 -542.5t-526.5 -215t-526.5 215t-211 542.5zM236 716.5q0 -282.5 169.5 -458.5t434 -176t434.5 176t170 458.5t-170 459t-434.5 176.5t-434 -176.5t-169.5 -459z" glyph-name="O" horiz-adv-x="1679" unicode="O"/><glyph d="M184 0v1434h584q233 0 372.5 -129t139.5 -332t-139.5 -332t-372.5 -129h-451v-512h-133zM317 635h451q182 0 280.5 91t98.5 246.5t-98.5 247t-280.5 91.5h-451v-676z" glyph-name="P" horiz-adv-x="1361" unicode="P"/><glyph d="M102 717q0 328 211 543t526.5 215t526.5 -215.5t211 -542.5q0 -311 -189.5 -522t-476.5 -232v-373h-133v371q-295 23 -485.5 233t-190.5 523zM236 716.5q0 -282.5 169.5 -458.5t434 -176t434.5 176t170 458.5t-170 459t-434.5 176.5t-434 -176.5t-169.5 -459z" glyph-name="Q" horiz-adv-x="1679" unicode="Q"/><glyph d="M184 0v1434h594q233 0 367.5 -122t134.5 -319q0 -166 -99.5 -282.5t-279.5 -147.5l369 -563h-154l-358 553h-441v-553h-133zM317 676h461q180 0 274.5 84t94.5 233.5t-94.5 233.5t-274.5 84h-461v-635z" glyph-name="R" horiz-adv-x="1392" unicode="R"/><glyph d="M92 379h133q4 -12 11.5 -31.5t41 -71t77.5 -91.5t127 -71.5t184 -31.5q190 0 294.5 82t104.5 205q0 90 -67.5 153.5t-169 94t-219 68.5t-219 78t-169 123t-67.5 199q0 160 135 275t356 115q131 0 235.5 -39t160 -94.5t91 -111.5t46.5 -95l10 -39h-133q-2 10 -8.5 27.5 t-36 61.5t-70.5 77.5t-119 61.5t-176 28q-170 0 -264 -77t-94 -190q0 -76 50 -132t131 -89t177 -61.5t193.5 -61t178.5 -76.5t131 -119t50 -177q0 -170 -144.5 -290t-387.5 -120q-137 0 -247 43t-168 104.5t-97 124t-52 105.5z" glyph-name="S" horiz-adv-x="1300" unicode="S"/><glyph d="M20 1311v123h1158v-123h-512v-1311h-134v1311h-512z" glyph-name="T" horiz-adv-x="1198" unicode="T"/><glyph d="M174 532v902h133v-902q0 -213 112.5 -331.5t307.5 -118.5t307.5 118.5t112.5 331.5v902h133v-902q0 -260 -152.5 -416.5t-400.5 -156.5t-400.5 156.5t-152.5 416.5z" glyph-name="U" horiz-adv-x="1454" unicode="U"/><glyph d="M61 1434h144l338 -1311h297l338 1311h143l-379 -1434h-502z" glyph-name="V" horiz-adv-x="1382" unicode="V"/><glyph d="M82 1434h143l277 -1311h71l287 1311h246l287 -1311h71l277 1311h143l-317 -1434h-277l-276 1311h-62l-276 -1311h-277z" glyph-name="W" horiz-adv-x="1966" unicode="W"/><glyph d="M51 0l389 717l-368 717h143l338 -656h184l338 656h144l-369 -717l389 -717h-143l-359 655h-184l-358 -655h-144z" glyph-name="X" horiz-adv-x="1290" unicode="X"/><glyph d="M20 1434h164l461 -758h10l461 758h164l-563 -912v-522h-133v522z" glyph-name="Y" horiz-adv-x="1300" unicode="Y"/><glyph d="M72 0v123l901 1177v11h-871v123h1045v-123l-901 -1178v-10h911v-123h-1085z" glyph-name="Z" unicode="Z"/><glyph d="M184 -297v1782h430v-123h-297v-1536h297v-123h-430z" glyph-name="bracketleft" horiz-adv-x="665" unicode="["/><glyph d="M10 1434h133l564 -1434h-134z" glyph-name="backslash" horiz-adv-x="716" unicode="\"/><glyph d="M51 -297v123h297v1536h-297v123h430v-1782h-430z" glyph-name="bracketright" horiz-adv-x="665" unicode="]"/><glyph d="M92 788l297 646h164l297 -646h-123l-235 523h-41l-236 -523h-123z" glyph-name="asciicircum" horiz-adv-x="942" unicode="^"/><glyph d="M-41 -338v113h717v-113h-717z" glyph-name="underscore" horiz-adv-x="634" unicode="_"/><glyph d="M61 1421v2h154l184 -297h-102z" glyph-name="grave" horiz-adv-x="460" unicode="`"/><glyph d="M92 512q0 227 144.5 379.5t347.5 152.5q145 0 247.5 -70.5t139.5 -154.5h2v205h123v-1024h-123v205h-2q-37 -84 -139.5 -154.5t-247.5 -70.5q-203 0 -347.5 152.5t-144.5 379.5zM215 512q0 -180 111.5 -300t267.5 -120q152 0 265.5 120t113.5 300t-114 300t-265 120 q-156 0 -267.5 -120t-111.5 -300z" glyph-name="a" horiz-adv-x="1259" unicode="a"/><glyph d="M164 0v1434h123v-615h2q37 84 139 154.5t248 70.5q203 0 347 -152.5t144 -379.5t-144 -379.5t-347 -152.5q-145 0 -247.5 70.5t-139.5 154.5h-2v-205h-123zM287 512q0 -180 113.5 -300t265.5 -120q156 0 267 120t111 300t-111.5 300t-266.5 120q-152 0 -265.5 -120 t-113.5 -300z" glyph-name="b" horiz-adv-x="1259" unicode="b"/><glyph d="M92 512q0 227 146.5 379.5t355.5 152.5q109 0 199 -36.5t140 -90t84 -105.5t46 -89l12 -37h-123q-4 10 -11 26.5t-35.5 58.5t-65.5 75t-102.5 59.5t-143.5 26.5q-156 0 -267.5 -120t-111.5 -300t111.5 -300t267.5 -120q80 0 147.5 27.5t106.5 66.5t66.5 78t37.5 68l11 26 h122q-4 -16 -12 -40.5t-46 -90t-87 -116t-141 -91t-205 -40.5q-209 0 -355.5 152.5t-146.5 379.5z" glyph-name="c" horiz-adv-x="1167" unicode="c"/><glyph d="M92 512q0 227 144.5 379.5t347.5 152.5q145 0 247.5 -70.5t139.5 -154.5h2v615h123v-1434h-123v205h-2q-37 -84 -139.5 -154.5t-247.5 -70.5q-203 0 -347.5 152.5t-144.5 379.5zM215 512q0 -180 111.5 -300t267.5 -120q152 0 265.5 120t113.5 300t-114 300t-265 120 q-156 0 -267.5 -120t-111.5 -300z" glyph-name="d" horiz-adv-x="1259" unicode="d"/><glyph d="M92 512q0 229 147.5 380.5t364.5 151.5q215 0 363.5 -150.5t148.5 -371.5v-51h-901q8 -162 118.5 -270.5t270.5 -108.5q78 0 144.5 23.5t105.5 56.5t67.5 65.5t41.5 57.5l10 22h123q-4 -14 -14.5 -36.5t-50.5 -81t-90 -102.5t-140 -80.5t-197 -36.5q-217 0 -364.5 151.5 t-147.5 380.5zM215 584h768q-16 147 -121.5 247.5t-257.5 100.5q-150 0 -257 -99t-132 -249z" glyph-name="e" horiz-adv-x="1208" unicode="e"/><glyph d="M51 911v113h144v410h460v-113h-338v-297h277v-113h-277v-911h-122v911h-144z" glyph-name="f" horiz-adv-x="614" unicode="f"/><glyph d="M92 512q0 227 144.5 379.5t347.5 152.5q145 0 247.5 -70.5t139.5 -154.5h2v205h123v-1413h-871v113h748v481h-2q-37 -84 -139.5 -154.5t-247.5 -70.5q-203 0 -347.5 152.5t-144.5 379.5zM215 512q0 -180 111.5 -300t267.5 -120q152 0 265.5 120t113.5 300t-114 300 t-265 120q-156 0 -267.5 -120t-111.5 -300z" glyph-name="g" horiz-adv-x="1259" unicode="g"/><glyph d="M164 0v1434h123v-584h2q39 76 130 135t236 59q172 0 280.5 -118.5t108.5 -321.5v-604h-122v604q0 158 -77 243t-210 85q-147 0 -247.5 -104.5t-100.5 -264.5v-563h-123z" glyph-name="h" horiz-adv-x="1187" unicode="h"/><glyph d="M133 1331q0 39 26.5 65.5t65.5 26.5t65.5 -26.5t26.5 -65.5t-26.5 -65.5t-65.5 -26.5t-65.5 26.5t-26.5 65.5zM164 0v1024h123v-1024h-123z" glyph-name="i" horiz-adv-x="450" unicode="i"/><glyph d="M133 1331q0 39 26.5 65.5t65.5 26.5t65.5 -26.5t26.5 -65.5t-26.5 -65.5t-65.5 -26.5t-65.5 26.5t-26.5 65.5zM-133 -389v113h297v1300h123v-1413h-420z" glyph-name="j" horiz-adv-x="450" unicode="j"/><glyph d="M164 0v1434h123v-840h245l338 430h144l-379 -492l409 -532h-143l-369 481h-245v-481h-123z" glyph-name="k" horiz-adv-x="1054" unicode="k"/><glyph d="M164 0v1434h123v-1321h235v-113h-358z" glyph-name="l" horiz-adv-x="552" unicode="l"/><glyph d="M164 0v1024h123v-174h2q4 8 12 21.5t39 46t66.5 58t97 47t131.5 21.5t128 -23.5t94 -56t60.5 -65.5t34.5 -55l11 -25h10q4 8 12 23.5t39 54.5t70 68.5t108.5 54t149.5 24.5q158 0 263 -118.5t105 -321.5v-604h-123v604q0 158 -73.5 243t-192.5 85q-131 0 -229 -100.5 t-98 -237.5v-594h-123v604q0 158 -74 243t-193 85q-131 0 -229 -100.5t-98 -237.5v-594h-123z" glyph-name="m" horiz-adv-x="1863" unicode="m"/><glyph d="M164 0v1024h123v-174h2q39 76 130 135t236 59q172 0 280.5 -118.5t108.5 -321.5v-604h-122v604q0 158 -77 243t-210 85q-147 0 -247.5 -104.5t-100.5 -264.5v-563h-123z" glyph-name="n" horiz-adv-x="1187" unicode="n"/><glyph d="M92 512q0 229 149.5 380.5t373 151.5t373 -151.5t149.5 -380.5t-149.5 -380.5t-373 -151.5t-373 151.5t-149.5 380.5zM215 512q0 -182 114.5 -301t284.5 -119t285 119t115 301t-115 301t-285 119t-284.5 -119t-114.5 -301z" glyph-name="o" unicode="o"/><glyph d="M164 -389v1413h123v-205h2q37 84 139 154.5t248 70.5q203 0 347 -152.5t144 -379.5t-144 -379.5t-347 -152.5q-145 0 -247.5 70.5t-139.5 154.5h-2v-594h-123zM287 512q0 -180 113.5 -300t265.5 -120q156 0 267 120t111 300t-111.5 300t-266.5 120q-152 0 -265.5 -120 t-113.5 -300z" glyph-name="p" horiz-adv-x="1259" unicode="p"/><glyph d="M92 512q0 227 144.5 379.5t347.5 152.5q145 0 247.5 -70.5t139.5 -154.5h2v205h123v-1413h-123v594h-2q-37 -84 -139.5 -154.5t-247.5 -70.5q-203 0 -347.5 152.5t-144.5 379.5zM215 512q0 -180 111.5 -300t267.5 -120q152 0 265.5 120t113.5 300t-114 300t-265 120 q-156 0 -267.5 -120t-111.5 -300z" glyph-name="q" horiz-adv-x="1259" unicode="q"/><glyph d="M164 0v1024h123v-195h2q4 8 10 22.5t33.5 49.5t62.5 61.5t96.5 49t133.5 22.5h112v-112h-112q-147 0 -242.5 -99.5t-95.5 -259.5v-563h-123z" glyph-name="r" horiz-adv-x="757" unicode="r"/><glyph d="M82 307h133q2 -8 9 -22.5t34 -52t60.5 -65.5t97 -51.5t137.5 -23.5q139 0 207.5 51.5t68.5 132.5q0 61 -51 101.5t-129 58t-168 41t-167.5 50t-129 88t-51.5 153.5q0 115 101.5 195.5t277.5 80.5q100 0 181 -30.5t126 -73.5t75 -87t40 -75l8 -30h-133q-2 8 -8 20 t-28.5 44t-53.5 56.5t-86 44t-121 19.5q-123 0 -189.5 -48t-66.5 -116q0 -61 51 -101t129 -57.5t168 -41t168 -50t129 -88t51 -154.5q0 -129 -103.5 -212.5t-295.5 -83.5q-109 0 -198 33.5t-137 81.5t-81 96.5t-43 82.5z" glyph-name="s" horiz-adv-x="1044" unicode="s"/><glyph d="M51 911v113h144v225h122v-225h338v-113h-338v-798h349v-113h-471v911h-144z" glyph-name="t" horiz-adv-x="727" unicode="t"/><glyph d="M164 420v604h123v-604q0 -158 76.5 -243t209.5 -85q147 0 248 104.5t101 264.5v563h122v-1024h-122v174h-2q-39 -76 -130.5 -135t-236.5 -59q-172 0 -280.5 118.5t-108.5 321.5z" glyph-name="u" horiz-adv-x="1208" unicode="u"/><glyph d="M51 1024h133l246 -911h215l246 911h133l-287 -1024h-399z" glyph-name="v" horiz-adv-x="1075" unicode="v"/><glyph d="M72 1024h133l194 -911h72l184 911h267l184 -911h72l194 911h133l-225 -1024h-276l-185 911h-61l-185 -911h-276z" glyph-name="w" horiz-adv-x="1576" unicode="w"/><glyph d="M20 0l308 522l-287 502h143l246 -440h133l246 440h143l-286 -502l307 -522h-144l-266 471h-133l-266 -471h-144z" glyph-name="x" horiz-adv-x="993" unicode="x"/><glyph d="M51 1024h133l236 -911h194l267 911h133l-420 -1413h-133l123 389h-256z" glyph-name="y" horiz-adv-x="1034" unicode="y"/><glyph d="M61 0v113l656 796v2h-635v113h799v-113l-656 -796v-2h676v-113h-840z" glyph-name="z" horiz-adv-x="962" unicode="z"/><glyph d="M92 543v112h62q113 0 112 113v471q0 109 73 177.5t193 68.5h123v-123h-123q-61 0 -97 -34t-36 -89v-471q0 -63 -30.5 -104t-61.5 -50l-31 -10v-10q4 0 13.5 -3t30 -14.5t37 -26.5t29.5 -47t13 -73v-481q0 -55 36 -89t97 -34h123v-123h-123q-121 0 -193.5 68.5 t-72.5 177.5v481q0 113 -112 113h-62z" glyph-name="braceleft" horiz-adv-x="696" unicode="{"/><glyph d="M246 -205v1741h133v-1741h-133z" glyph-name="bar" horiz-adv-x="624" unicode="|"/><glyph d="M41 -297v123h123q61 0 97 34t36 89v481q0 63 30.5 104t61.5 52l31 8v10q-4 0 -13.5 3t-30 14.5t-36.5 27t-29.5 47t-13.5 72.5v471q0 55 -36 89t-97 34h-123v123h123q121 0 193.5 -68.5t72.5 -177.5v-471q0 -113 113 -113h61v-112h-61q-113 0 -113 -113v-481 q0 -109 -72.5 -177.5t-193.5 -68.5h-123z" glyph-name="braceright" horiz-adv-x="696" unicode="}"/><glyph d="M92 502v41q0 115 62.5 180t162.5 65q74 0 144.5 -40.5t130 -81.5t104.5 -41q113 0 113 123v40h123v-40q0 -115 -62.5 -180.5t-162.5 -65.5q-74 0 -144.5 41t-130 82t-104.5 41q-113 0 -113 -123v-41h-123z" glyph-name="asciitilde" horiz-adv-x="1024" unicode="~"/><glyph glyph-name="uni00A0" horiz-adv-x="573" unicode=" "/><glyph d="M184 942q0 45 29 73.5t74 28.5t73.5 -28.5t28.5 -73.5q0 -47 -27.5 -74.5t-74.5 -27.5q-45 0 -74 28.5t-29 73.5zM225 -389v717l21 276h82l20 -276v-717h-123z" glyph-name="exclamdown" horiz-adv-x="573" unicode="¡"/><glyph d="M92 512q0 211 126 360.5t314 171.5v164h123v-164q94 -12 172 -53t122 -91t75 -99t41 -82l10 -33h-123q-4 10 -11 26.5t-35.5 58.5t-65.5 75t-102.5 59.5t-143.5 26.5q-156 0 -267.5 -120t-111.5 -300t111.5 -300t267.5 -120q80 0 147.5 27.5t106.5 66.5t66.5 78t37.5 68 l11 26h122q-4 -14 -11 -36.5t-40 -83t-77 -108.5t-123.5 -93t-178.5 -57v-185h-123v185q-188 23 -314 172t-126 360z" glyph-name="cent" horiz-adv-x="1167" unicode="¢"/><glyph d="M61 0v123h31q164 0 164 184v400h-154v122h154v267q0 176 111.5 287.5t287.5 111.5q100 0 178 -34t118 -82t65.5 -96t32.5 -83l6 -33h-133q-2 8 -6.5 22.5t-24 49.5t-46 61.5t-76.5 49t-114 22.5q-123 0 -194.5 -73.5t-71.5 -202.5v-267h348v-122h-348v-400 q0 -63 -18.5 -107t-34.5 -57l-19 -10v-10h768v-123h-1024z" glyph-name="sterling" horiz-adv-x="1126" unicode="£"/><glyph d="M72 225v123h174v184h-174v123h174v779h522q233 0 372.5 -127t139.5 -324t-139.5 -324t-372.5 -127h-389v-184h522v-123h-522v-225h-133v225h-174zM379 655h389q180 0 279.5 89.5t99.5 239t-99.5 238.5t-279.5 89h-389v-656z" glyph-name="currency" horiz-adv-x="1361" unicode="¤"/><glyph d="M20 1434h164l461 -738h10l461 738h164l-553 -861h307v-122h-317v-144h317v-123h-317v-184h-133v184h-318v123h318v144h-318v122h307z" glyph-name="yen" horiz-adv-x="1300" unicode="¥"/><glyph d="M246 788v748h133v-748h-133zM246 -205v748h133v-748h-133z" glyph-name="brokenbar" horiz-adv-x="624" unicode="¦"/><glyph d="M113 256h133q2 -8 7 -20.5t28.5 -44t56.5 -56t95.5 -44t139.5 -19.5q158 0 233 47t75 117q0 59 -56.5 101t-140.5 63.5t-182.5 49t-182 57.5t-140 89t-56.5 141t60.5 146.5t154.5 89.5v2q-74 25 -129 87t-55 136q0 117 108.5 197t310.5 80q106 0 191.5 -30t131.5 -72 t78 -84t42 -72l8 -29h-133q-2 6 -7 18.5t-29 42t-55.5 53t-92 42t-134.5 18.5q-150 0 -223.5 -47t-73.5 -117q0 -59 55.5 -101t138.5 -63.5t180.5 -49.5t180 -57.5t138 -89t55.5 -141.5t-58.5 -146.5t-146.5 -88.5v-2q74 -25 129.5 -87.5t55.5 -135.5q0 -117 -110 -197 t-321 -80q-109 0 -196.5 30.5t-134.5 73.5t-79 87.5t-40 74.5zM246 737q0 -39 25.5 -68.5t80 -52t102.5 -37t129 -35t124 -32.5q84 14 139 68.5t55 115.5q0 39 -24.5 69t-78 52.5t-98.5 35.5t-126.5 34.5t-122.5 34.5q-90 -14 -147.5 -68t-57.5 -117z" glyph-name="section" horiz-adv-x="1146" unicode="§"/><glyph d="M410 1331q0 39 26.5 65.5t65.5 26.5t65.5 -26.5t26.5 -65.5t-26.5 -65.5t-65.5 -26.5t-65.5 26.5t-26.5 65.5zM61 1331q0 39 27 65.5t66 26.5t65.5 -26.5t26.5 -65.5t-26.5 -65.5t-65.5 -26.5t-66 26.5t-27 65.5z" glyph-name="dieresis" horiz-adv-x="655" unicode="¨"/><glyph d="M102 716.5q0 323.5 217.5 541t541 217.5t540.5 -217.5t217 -541t-217 -540.5t-540.5 -217t-541 217t-217.5 540.5zM225 716.5q0 -276.5 182.5 -460.5t452.5 -184t452.5 184t182.5 460.5t-182.5 461t-452.5 184.5t-452.5 -184.5t-182.5 -461zM512 717q0 168 101.5 273.5 t256.5 105.5q74 0 137.5 -27t100.5 -64.5t63.5 -74.5t36.5 -64l11 -26h-134q-2 6 -6 15t-22.5 33.5t-40 44t-61.5 35t-85 15.5q-102 0 -168.5 -72.5t-66.5 -193.5t66.5 -193.5t168.5 -72.5q74 0 127.5 35.5t71.5 70.5l16 37h134q-4 -10 -11.5 -27.5t-35 -61.5t-63.5 -78 t-100.5 -61.5t-138.5 -27.5q-156 0 -257 105.5t-101 273.5z" glyph-name="copyright" horiz-adv-x="1720" unicode="©"/><glyph d="M92 963q0 86 65.5 140t178.5 54h217v41q0 59 -41 101t-102 42q-59 0 -100.5 -23.5t-51.5 -45.5l-12 -23h-133q2 8 8 22.5t30.5 49.5t55.5 61.5t85 49t118 22.5q115 0 190.5 -73.5t75.5 -182.5v-430h-123v92h-10q-2 -4 -7.5 -11t-24.5 -24.5t-42 -31t-60.5 -24.5 t-80.5 -11q-104 0 -170 59.5t-66 145.5zM215 963q0 -41 34 -67t99 -26q82 0 143.5 56.5t61.5 128.5h-205q-66 0 -99.5 -25.5t-33.5 -66.5z" glyph-name="ordfeminine" horiz-adv-x="778" unicode="ª"/><glyph d="M481 512l420 481l82 -82l-348 -399l348 -399l-82 -82zM72 512l420 481l81 -82l-348 -399l348 -399l-81 -82z" glyph-name="guillemotleft" horiz-adv-x="1085" unicode="«"/><glyph d="M123 584v112h768v-338h-123v226h-645z" glyph-name="logicalnot" horiz-adv-x="1024" unicode="¬"/><glyph d="M123 512v123h737v-123h-737z" glyph-name="uni00AD" horiz-adv-x="983" unicode="­"/><glyph d="M82 952.5q0 223.5 151.5 373t381 149.5t381 -149.5t151.5 -373t-151.5 -373t-381 -149.5t-381 149.5t-151.5 373zM184 952.5q0 -184.5 120 -302.5t310.5 -118t310 118t119.5 302.5t-119.5 302t-310 117.5t-310.5 -117.5t-120 -302zM420 707v501h225q98 0 151.5 -48 t53.5 -126q0 -55 -27.5 -93t-56.5 -48l-29 -12l113 -174h-113l-102 153h-113v-153h-102zM522 963h123q102 0 102.5 71.5t-102.5 71.5h-123v-143z" glyph-name="registered" unicode="®"/><glyph d="M61 1311v112h523v-112h-523z" glyph-name="macron" horiz-adv-x="645" unicode="¯"/><glyph d="M72 1177.5q0 106.5 78.5 181.5t187 75t187.5 -75t79 -181.5t-79 -181t-187.5 -74.5t-187 74.5t-78.5 181zM184 1177.5q0 -67.5 45 -110.5t108.5 -43t109 43t45.5 110.5t-45.5 110.5t-109 43t-108.5 -43t-45 -110.5z" glyph-name="degree" horiz-adv-x="675" unicode="°"/><glyph d="M113 61v113h338v348h-338v113h338v358h122v-358h338v-113h-338v-348h338v-113h-798z" glyph-name="plusminus" horiz-adv-x="1024" unicode="±"/><glyph d="M72 942v113l174 102q145 86 205.5 145.5t60.5 120.5q0 55 -40 89t-114 34q-57 0 -98 -30.5t-53 -61.5l-12 -31h-123q2 10 6 25.5t24.5 56.5t49 72t84 56.5t122.5 25.5q127 0 202 -66.5t75 -169.5q0 -201 -348 -358l-11 -6l-10 -4v-2l21 2h358v-113h-573z" glyph-name="uni00B2" horiz-adv-x="716" unicode="²"/><glyph d="M61 1137h134q2 -4 4 -11.5t15 -25t29.5 -30.5t47.5 -24.5t67 -11.5q74 0 114 34t40 89q0 49 -41 81t-121 32h-145v102l215 154v2l-21 -2h-297v112h492v-112l-195 -140l-20 -12v-2h10q106 0 176 -65.5t70 -159.5q0 -96 -75 -160.5t-202 -64.5q-72 0 -129 22.5t-86.5 53 t-49 62.5t-25.5 54z" glyph-name="uni00B3" horiz-adv-x="706" unicode="³"/><glyph d="M61 1126l185 297h153v-2l-235 -295h-103z" glyph-name="acute" horiz-adv-x="460" unicode="´"/><glyph d="M164 -410v1434h123v-604q0 -160 79.5 -244t227.5 -84q133 0 230.5 105.5t97.5 263.5v563h122v-1024h-122v174h-2q-37 -76 -122 -135t-204 -59q-63 0 -117.5 14t-88.5 35.5t-57.5 43t-33.5 36.5l-10 14h-2l2 -21v-512h-123z" glyph-name="uni00B5" horiz-adv-x="1208" unicode="µ"/><glyph d="M61 1075q0 156 109 257.5t285 101.5h282v-123h-174v-1700h-133v1106q-158 0 -263.5 107.5t-105.5 250.5z" glyph-name="paragraph" horiz-adv-x="788" unicode="¶"/><glyph d="M184 543q0 47 28 74.5t75 27.5q45 0 73.5 -27.5t28.5 -74.5t-28.5 -75t-73.5 -28t-74 29t-29 74z" glyph-name="periodcentered" horiz-adv-x="573" unicode="·"/><glyph d="M61 -440v92q51 -41 144 -41q53 0 82.5 27.5t29.5 74.5q0 41 -31.5 66.5t-90.5 25.5h-72l102 215h92l-61 -133q70 -8 117 -57t47 -117q0 -86 -58.5 -140t-156.5 -54q-41 0 -77 10t-50 20z" glyph-name="cedilla" horiz-adv-x="481" unicode="¸"/><glyph d="M113 942v113h204v450l-184 -112v133l195 112h112v-583h195v-113h-522z" glyph-name="uni00B9" horiz-adv-x="696" unicode="¹"/><glyph d="M72 1106q0 145 101 246.5t246.5 101.5t247 -101.5t101.5 -246.5t-101.5 -246.5t-247 -101.5t-246.5 101.5t-101 246.5zM195 1105.5q0 -106.5 62 -171t162.5 -64.5t163 64.5t62.5 171t-62.5 171t-163 64.5t-162.5 -64.5t-62 -171z" glyph-name="ordmasculine" horiz-adv-x="839" unicode="º"/><glyph d="M512 113l348 399l-348 399l82 82l420 -481l-420 -481zM102 113l349 399l-349 399l82 82l420 -481l-420 -481z" glyph-name="guillemotright" horiz-adv-x="1085" unicode="»"/><glyph d="M113 737v113h204v450l-184 -112v133l195 113h112v-584h195v-113h-522zM328 0l880 1434h123l-880 -1434h-123zM891 154v112l276 430h133l-276 -430h225v144h123v-144h103v-112h-103v-154h-123v154h-358z" glyph-name="onequarter" horiz-adv-x="1505" unicode="¼"/><glyph d="M113 737v113h204v450l-184 -112v133l195 113h112v-584h195v-113h-522zM328 0l880 1434h123l-880 -1434h-123zM973 0v113l174 102q145 86 205.5 145.5t60.5 120.5q0 55 -40 89t-113 34q-57 0 -98.5 -30.5t-53.5 -61.5l-12 -31h-123q2 10 6 25.5t24.5 56.5t49 72t84 56.5 t123.5 25.5q127 0 201.5 -66.5t74.5 -169.5q0 -201 -348 -358l-10 -6l-11 -4v-2l21 2h358v-113h-573z" glyph-name="onehalf" horiz-adv-x="1617" unicode="½"/><glyph d="M61 932h134q2 -4 4 -11.5t15 -24.5t29.5 -30.5t47.5 -25t67 -11.5q74 0 114 34t40 89q0 49 -41 81t-121 32h-145v102l215 154v2l-21 -2h-297v113h492v-113l-195 -139l-20 -13v-2h10q106 0 176 -65.5t70 -159.5q0 -96 -75 -160.5t-202 -64.5q-72 0 -129 22.5t-86.5 53 t-49 62.5t-25.5 54zM317 0l881 1434h123l-881 -1434h-123zM881 154v112l276 430h133l-276 -430h225v144h123v-144h102v-112h-102v-154h-123v154h-358z" glyph-name="threequarters" horiz-adv-x="1495" unicode="¾"/><glyph d="M461 942q0 45 27.5 73.5t74.5 28.5q45 0 74 -28.5t29 -73.5q0 -47 -28 -74.5t-75 -27.5t-74.5 28.5t-27.5 73.5zM61 -20q0 104 45.5 174.5t111 110.5t130 79t109.5 105.5t45 164.5h133q0 -98 -33 -170.5t-82 -110.5t-105.5 -75t-105.5 -66.5t-81.5 -84t-32.5 -127.5 q0 -119 89 -198t238 -79q88 0 160 29.5t110.5 71.5t65.5 84t35 71l8 31h133q-4 -16 -12 -44t-45 -98.5t-88 -125t-148.5 -98.5t-218.5 -44q-203 0 -332 117t-129 283z" glyph-name="questiondown" horiz-adv-x="1075" unicode="¿"/><glyph d="M51 0l379 1434h512l379 -1434h-133l-123 471h-758l-123 -471h-133zM338 594h696l-194 717h-308zM399 1913v2h154l184 -297h-102z" glyph-name="Agrave" horiz-adv-x="1372" unicode="À"/><glyph d="M51 0l379 1434h512l379 -1434h-133l-123 471h-758l-123 -471h-133zM338 594h696l-194 717h-308zM625 1618l184 297h154v-2l-236 -295h-102z" glyph-name="Aacute" horiz-adv-x="1372" unicode="Á"/><glyph d="M51 0l379 1434h512l379 -1434h-133l-123 471h-758l-123 -471h-133zM338 594h696l-194 717h-308zM389 1618v2l225 295h134l225 -295v-2h-123l-154 205h-30l-154 -205h-123z" glyph-name="Acircumflex" horiz-adv-x="1372" unicode="Â"/><glyph d="M51 0l379 1434h512l379 -1434h-133l-123 471h-758l-123 -471h-133zM338 594h696l-194 717h-308zM379 1638v54q0 76 49 124t125 48q45 0 86 -20.5t66.5 -46t56.5 -46t57 -20.5q31 0 51.5 20.5t20.5 50.5v51h102v-53q0 -76 -49 -124t-125 -48q-57 0 -106 34t-88 66.5 t-72 32.5q-31 0 -51.5 -20.5t-20.5 -50.5v-52h-102z" glyph-name="Atilde" horiz-adv-x="1372" unicode="Ã"/><glyph d="M51 0l379 1434h512l379 -1434h-133l-123 471h-758l-123 -471h-133zM338 594h696l-194 717h-308zM768 1741q0 39 26.5 65.5t65.5 26.5t65.5 -26.5t26.5 -65.5t-26.5 -65.5t-65.5 -26.5t-65.5 26.5t-26.5 65.5zM420 1741q0 39 26.5 65.5t65.5 26.5t65.5 -26.5t26.5 -65.5 t-26.5 -65.5t-65.5 -26.5t-65.5 26.5t-26.5 65.5z" glyph-name="Adieresis" horiz-adv-x="1372" unicode="Ä"/><glyph d="M51 0l379 1434h512l379 -1434h-133l-123 471h-758l-123 -471h-133zM338 594h696l-194 717h-308zM481 1761q0 84 60.5 144.5t144.5 60.5t144.5 -60.5t60.5 -144.5t-60.5 -144.5t-144.5 -60.5t-144.5 60.5t-60.5 144.5zM573 1761q0 -45 33 -78.5t80 -33.5t80 33.5t33 78.5 t-33 79t-80 34t-80 -34t-33 -79z" glyph-name="Aring" horiz-adv-x="1372" unicode="Å"/><glyph d="M51 0l379 1434h1454v-123h-799v-523h646v-122h-646v-543h799v-123h-932v471h-645l-123 -471h-133zM338 594h614v717h-420z" glyph-name="AE" horiz-adv-x="1976" unicode="Æ"/><glyph d="M102 717q0 328 211 543t527 215q115 0 215 -29t168.5 -74t126 -99t90.5 -108.5t56.5 -99.5t31.5 -74l8 -28h-133q-4 16 -15.5 41.5t-56.5 93t-102.5 119t-161.5 93.5t-227 42q-264 0 -434 -176.5t-170 -459t169.5 -458.5t434.5 -176q92 0 173 23.5t137 60.5t103 81t76 89 t48.5 82t27.5 61l8 23h133q-2 -10 -9 -29.5t-31.5 -75t-57.5 -105.5t-89 -112.5t-124 -107.5t-166 -78t-209 -35l-31 -72q70 -8 117 -57t47 -117q0 -86 -58 -140t-157 -54q-41 0 -76.5 10t-50.5 20l-16 11v92q51 -41 143 -41q53 0 83 27.5t30 74.5q0 41 -32 66.5t-91 25.5 h-72l74 158q-291 25 -479.5 235t-188.5 519z" glyph-name="Ccedilla" horiz-adv-x="1638" unicode="Ç"/><glyph d="M184 0v1434h973v-123h-840v-523h687v-122h-687v-543h840v-123h-973zM420 1913v2h153l185 -297h-103z" glyph-name="Egrave" horiz-adv-x="1249" unicode="È"/><glyph d="M184 0v1434h973v-123h-840v-523h687v-122h-687v-543h840v-123h-973zM604 1618l184 297h154v-2l-235 -295h-103z" glyph-name="Eacute" horiz-adv-x="1249" unicode="É"/><glyph d="M184 0v1434h973v-123h-840v-523h687v-122h-687v-543h840v-123h-973zM389 1618v2l225 295h134l225 -295v-2h-123l-154 205h-30l-154 -205h-123z" glyph-name="Ecircumflex" horiz-adv-x="1249" unicode="Ê"/><glyph d="M184 0v1434h973v-123h-840v-523h687v-122h-687v-543h840v-123h-973zM758 1741q0 39 26.5 65.5t65.5 26.5t65.5 -26.5t26.5 -65.5t-26.5 -65.5t-65.5 -26.5t-65.5 26.5t-26.5 65.5zM410 1741q0 39 26.5 65.5t65.5 26.5t65.5 -26.5t26.5 -65.5t-26.5 -65.5t-65.5 -26.5 t-65.5 26.5t-26.5 65.5z" glyph-name="Edieresis" horiz-adv-x="1249" unicode="Ë"/><glyph d="M184 0v1434h133v-1434h-133zM-31 1913v2h154l184 -297h-102z" glyph-name="Igrave" horiz-adv-x="501" unicode="Ì"/><glyph d="M184 0v1434h133v-1434h-133zM205 1618l184 297h154v-2l-236 -295h-102z" glyph-name="Iacute" horiz-adv-x="501" unicode="Í"/><glyph d="M184 0v1434h133v-1434h-133zM-41 1618v2l225 295h133l226 -295v-2h-123l-154 205h-30l-154 -205h-123z" glyph-name="Icircumflex" horiz-adv-x="501" unicode="Î"/><glyph d="M184 0v1434h133v-1434h-133zM338 1741q0 39 26.5 65.5t65.5 26.5t65.5 -26.5t26.5 -65.5t-26.5 -65.5t-65.5 -26.5t-65.5 26.5t-26.5 65.5zM-10 1741q0 39 26.5 65.5t65.5 26.5t65.5 -26.5t26.5 -65.5t-26.5 -65.5t-65.5 -26.5t-65.5 26.5t-26.5 65.5z" glyph-name="Idieresis" horiz-adv-x="501" unicode="Ï"/><glyph d="M51 645v133h154v656h450q322 0 530 -204t208 -513t-208 -513t-530 -204h-450v645h-154zM338 123h317q268 0 436.5 166t168.5 428t-168 428t-437 166h-317v-533h379v-133h-379v-522z" glyph-name="Eth" horiz-adv-x="1495" unicode="Ð"/><glyph d="M184 0v1434h205l778 -1301h2l-2 21v1280h133v-1434h-204l-779 1300h-2l2 -20v-1280h-133zM451 1638v54q0 76 49 124t125 48q45 0 86 -20.5t66.5 -46t56 -46t57.5 -20.5q31 0 51.5 20.5t20.5 50.5v51h102v-53q0 -76 -49 -124t-125 -48q-57 0 -106.5 34t-88.5 66.5 t-71 32.5q-31 0 -51.5 -20.5t-20.5 -50.5v-52h-102z" glyph-name="Ntilde" horiz-adv-x="1484" unicode="Ñ"/><glyph d="M102 716.5q0 327.5 211 543t526.5 215.5t526.5 -215.5t211 -543t-211 -542.5t-526.5 -215t-526.5 215t-211 542.5zM236 716.5q0 -282.5 169.5 -458.5t434 -176t434.5 176t170 458.5t-170 459t-434.5 176.5t-434 -176.5t-169.5 -459zM563 1913v2h154l184 -297h-102z" glyph-name="Ograve" horiz-adv-x="1679" unicode="Ò"/><glyph d="M102 716.5q0 327.5 211 543t526.5 215.5t526.5 -215.5t211 -543t-211 -542.5t-526.5 -215t-526.5 215t-211 542.5zM236 716.5q0 -282.5 169.5 -458.5t434 -176t434.5 176t170 458.5t-170 459t-434.5 176.5t-434 -176.5t-169.5 -459zM778 1618l185 297h153v-2l-235 -295 h-103z" glyph-name="Oacute" horiz-adv-x="1679" unicode="Ó"/><glyph d="M102 716.5q0 327.5 211 543t526.5 215.5t526.5 -215.5t211 -543t-211 -542.5t-526.5 -215t-526.5 215t-211 542.5zM236 716.5q0 -282.5 169.5 -458.5t434 -176t434.5 176t170 458.5t-170 459t-434.5 176.5t-434 -176.5t-169.5 -459zM553 1618v2l225 295h133l226 -295v-2 h-123l-154 205h-31l-153 -205h-123z" glyph-name="Ocircumflex" horiz-adv-x="1679" unicode="Ô"/><glyph d="M102 716.5q0 327.5 211 543t526.5 215.5t526.5 -215.5t211 -543t-211 -542.5t-526.5 -215t-526.5 215t-211 542.5zM236 716.5q0 -282.5 169.5 -458.5t434 -176t434.5 176t170 458.5t-170 459t-434.5 176.5t-434 -176.5t-169.5 -459zM543 1638v54q0 76 49 124t125 48 q45 0 86 -20.5t66.5 -46t56 -46t57.5 -20.5q31 0 51.5 20.5t20.5 50.5v51h102v-53q0 -76 -49 -124t-125 -48q-57 0 -106.5 34t-88 66.5t-71.5 32.5q-31 0 -51.5 -20.5t-20.5 -50.5v-52h-102z" glyph-name="Otilde" horiz-adv-x="1679" unicode="Õ"/><glyph d="M102 716.5q0 327.5 211 543t526.5 215.5t526.5 -215.5t211 -543t-211 -542.5t-526.5 -215t-526.5 215t-211 542.5zM236 716.5q0 -282.5 169.5 -458.5t434 -176t434.5 176t170 458.5t-170 459t-434.5 176.5t-434 -176.5t-169.5 -459zM922 1741q0 39 26.5 65.5t65.5 26.5 t65.5 -26.5t26.5 -65.5t-26.5 -65.5t-65.5 -26.5t-65.5 26.5t-26.5 65.5zM573 1741q0 39 27 65.5t66 26.5t65.5 -26.5t26.5 -65.5t-26.5 -65.5t-65.5 -26.5t-66 26.5t-27 65.5z" glyph-name="Odieresis" horiz-adv-x="1679" unicode="Ö"/><glyph d="M164 338l266 266l-266 266l82 82l266 -266l266 266l82 -82l-266 -266l266 -266l-82 -82l-266 266l-266 -266z" glyph-name="multiply" horiz-adv-x="1024" unicode="×"/><glyph d="M51 -10v153l172 142q-121 193 -121 432q0 328 211 543t527 215q330 0 542 -234l246 203v-154l-174 -143q123 -188 123 -430q0 -328 -211 -543t-526 -215q-334 0 -545 231zM236 717q0 -199 88 -350l962 794q-172 190 -446 191q-264 0 -434 -176t-170 -459zM393 272 q172 -190 447 -190q264 0 434 176t170 459q0 195 -88 348z" glyph-name="Oslash" horiz-adv-x="1679" unicode="Ø"/><glyph d="M174 532v902h133v-902q0 -213 112.5 -331.5t307.5 -118.5t307.5 118.5t112.5 331.5v902h133v-902q0 -260 -152.5 -416.5t-400.5 -156.5t-400.5 156.5t-152.5 416.5zM451 1913v2h153l184 -297h-102z" glyph-name="Ugrave" horiz-adv-x="1454" unicode="Ù"/><glyph d="M174 532v902h133v-902q0 -213 112.5 -331.5t307.5 -118.5t307.5 118.5t112.5 331.5v902h133v-902q0 -260 -152.5 -416.5t-400.5 -156.5t-400.5 156.5t-152.5 416.5zM666 1618l184 297h154v-2l-236 -295h-102z" glyph-name="Uacute" horiz-adv-x="1454" unicode="Ú"/><glyph d="M174 532v902h133v-902q0 -213 112.5 -331.5t307.5 -118.5t307.5 118.5t112.5 331.5v902h133v-902q0 -260 -152.5 -416.5t-400.5 -156.5t-400.5 156.5t-152.5 416.5zM430 1618v2l225 295h133l226 -295v-2h-123l-154 205h-30l-154 -205h-123z" glyph-name="Ucircumflex" horiz-adv-x="1454" unicode="Û"/><glyph d="M174 532v902h133v-902q0 -213 112.5 -331.5t307.5 -118.5t307.5 118.5t112.5 331.5v902h133v-902q0 -260 -152.5 -416.5t-400.5 -156.5t-400.5 156.5t-152.5 416.5zM809 1741q0 39 26.5 65.5t65.5 26.5t65.5 -26.5t26.5 -65.5t-26.5 -65.5t-65.5 -26.5t-65.5 26.5 t-26.5 65.5zM461 1741q0 39 26.5 65.5t65.5 26.5t65.5 -26.5t26.5 -65.5t-26.5 -65.5t-65.5 -26.5t-65.5 26.5t-26.5 65.5z" glyph-name="Udieresis" horiz-adv-x="1454" unicode="Ü"/><glyph d="M20 1434h164l461 -758h10l461 758h164l-563 -912v-522h-133v522zM594 1618l184 297h154v-2l-236 -295h-102z" glyph-name="Yacute" horiz-adv-x="1300" unicode="Ý"/><glyph d="M184 0v1434h133v-287h553q225 0 358.5 -119t133.5 -301t-133 -301t-359 -119h-553v-307h-133zM317 430h553q172 0 265.5 81t93.5 216t-93.5 216t-265.5 81h-553v-594z" glyph-name="Thorn" horiz-adv-x="1433" unicode="Þ"/><glyph d="M164 0v1085q0 156 112.5 262.5t286.5 106.5t287 -104.5t113 -253.5q0 -70 -21.5 -126.5t-51.5 -89t-59.5 -54t-52.5 -29.5l-20 -9v-10q12 -2 33.5 -6t77 -29.5t96.5 -61.5t75.5 -107.5t34.5 -163.5q0 -178 -119.5 -294t-310.5 -116h-123v113h123q137 0 222 83t85 214 q0 125 -90 211t-227 86h-111v112q141 0 228.5 79t87.5 198q0 102 -78 173.5t-199 71.5q-123 0 -199.5 -74.5t-76.5 -191.5v-1075h-123z" glyph-name="germandbls" horiz-adv-x="1167" unicode="ß"/><glyph d="M92 512q0 227 144.5 379.5t347.5 152.5q145 0 247.5 -70.5t139.5 -154.5h2v205h123v-1024h-123v205h-2q-37 -84 -139.5 -154.5t-247.5 -70.5q-203 0 -347.5 152.5t-144.5 379.5zM215 512q0 -180 111.5 -300t267.5 -120q152 0 265.5 120t113.5 300t-114 300t-265 120 q-156 0 -267.5 -120t-111.5 -300zM317 1524v2h154l184 -297h-102z" glyph-name="agrave" horiz-adv-x="1259" unicode="à"/><glyph d="M92 512q0 227 144.5 379.5t347.5 152.5q145 0 247.5 -70.5t139.5 -154.5h2v205h123v-1024h-123v205h-2q-37 -84 -139.5 -154.5t-247.5 -70.5q-203 0 -347.5 152.5t-144.5 379.5zM215 512q0 -180 111.5 -300t267.5 -120q152 0 265.5 120t113.5 300t-114 300t-265 120 q-156 0 -267.5 -120t-111.5 -300zM502 1229l184 297h154v-2l-236 -295h-102z" glyph-name="aacute" horiz-adv-x="1259" unicode="á"/><glyph d="M92 512q0 227 144.5 379.5t347.5 152.5q145 0 247.5 -70.5t139.5 -154.5h2v205h123v-1024h-123v205h-2q-37 -84 -139.5 -154.5t-247.5 -70.5q-203 0 -347.5 152.5t-144.5 379.5zM215 512q0 -180 111.5 -300t267.5 -120q152 0 265.5 120t113.5 300t-114 300t-265 120 q-156 0 -267.5 -120t-111.5 -300zM307 1229v2l225 295h134l225 -295v-2h-123l-154 205h-30l-154 -205h-123z" glyph-name="acircumflex" horiz-adv-x="1259" unicode="â"/><glyph d="M92 512q0 227 144.5 379.5t347.5 152.5q145 0 247.5 -70.5t139.5 -154.5h2v205h123v-1024h-123v205h-2q-37 -84 -139.5 -154.5t-247.5 -70.5q-203 0 -347.5 152.5t-144.5 379.5zM215 512q0 -180 111.5 -300t267.5 -120q152 0 265.5 120t113.5 300t-114 300t-265 120 q-156 0 -267.5 -120t-111.5 -300zM297 1239v53q0 76 49 124t125 48q57 0 106.5 -33.5t88.5 -66.5t71 -33q31 0 51.5 20.5t20.5 51.5v51h102v-53q0 -76 -49 -124t-125 -48q-45 0 -86 20.5t-66.5 46t-56 46t-57.5 20.5q-31 0 -51.5 -20.5t-20.5 -51.5v-51h-102z" glyph-name="atilde" horiz-adv-x="1259" unicode="ã"/><glyph d="M92 512q0 227 144.5 379.5t347.5 152.5q145 0 247.5 -70.5t139.5 -154.5h2v205h123v-1024h-123v205h-2q-37 -84 -139.5 -154.5t-247.5 -70.5q-203 0 -347.5 152.5t-144.5 379.5zM215 512q0 -180 111.5 -300t267.5 -120q152 0 265.5 120t113.5 300t-114 300t-265 120 q-156 0 -267.5 -120t-111.5 -300zM676 1352q0 39 26.5 65.5t65.5 26.5t65.5 -26.5t26.5 -65.5t-26.5 -65.5t-65.5 -26.5t-65.5 26.5t-26.5 65.5zM328 1352q0 39 26.5 65.5t65.5 26.5t65.5 -26.5t26.5 -65.5t-26.5 -65.5t-65.5 -26.5t-65.5 26.5t-26.5 65.5z" glyph-name="adieresis" horiz-adv-x="1259" unicode="ä"/><glyph d="M92 512q0 227 144.5 379.5t347.5 152.5q145 0 247.5 -70.5t139.5 -154.5h2v205h123v-1024h-123v205h-2q-37 -84 -139.5 -154.5t-247.5 -70.5q-203 0 -347.5 152.5t-144.5 379.5zM215 512q0 -180 111.5 -300t267.5 -120q152 0 265.5 120t113.5 300t-114 300t-265 120 q-156 0 -267.5 -120t-111.5 -300zM389 1403q0 84 60.5 144.5t144.5 60.5t144.5 -60.5t60.5 -144.5t-60.5 -144.5t-144.5 -60.5t-144.5 60.5t-60.5 144.5zM481 1403q0 -47 34 -80t79 -33t79 33t34 80t-34 80t-79 33t-79 -33t-34 -80z" glyph-name="aring" horiz-adv-x="1259" unicode="å"/><glyph d="M123 287q0 135 101.5 221t287.5 86h369v68q0 127 -73 198.5t-204 71.5q-72 0 -131 -22.5t-92 -54.5t-55.5 -62.5t-30.5 -53.5l-8 -22h-123q2 14 9 35.5t40 78t77 99.5t128 78.5t186 35.5q78 0 143.5 -22.5t103.5 -53t64.5 -62.5t36.5 -54l11 -23h10q4 8 14 22.5t47 52.5 t80 65.5t116 51t152 23.5q215 0 358.5 -145t143.5 -367v-51h-880q8 -168 116.5 -278.5t261.5 -110.5q74 0 138.5 23.5t103.5 56.5t66.5 65.5t38.5 57.5l12 22h123q-4 -14 -14.5 -36.5t-49.5 -81t-89 -102.5t-138 -80.5t-191 -36.5q-88 0 -165.5 27.5t-123.5 66.5t-80 77.5 t-46 65.5l-15 29h-10q-4 -10 -15.5 -28.5t-50 -65t-87 -81t-131.5 -63t-177 -28.5q-166 0 -262 87t-96 220zM1004 594h747q-16 147 -116.5 242.5t-252 95.5t-252.5 -94t-126 -244zM246 287q0 -88 64.5 -141.5t191.5 -53.5q166 0 272.5 112.5t106.5 276.5h-369 q-133 0 -199.5 -53t-66.5 -141z" glyph-name="ae" horiz-adv-x="1976" unicode="æ"/><glyph d="M92 512q0 227 146.5 379.5t355.5 152.5q109 0 199 -36.5t140 -90t84 -105.5t46 -89l12 -37h-123q-4 10 -11 26.5t-35.5 58.5t-65.5 75t-102.5 59.5t-143.5 26.5q-156 0 -267.5 -120t-111.5 -300t111.5 -300t267.5 -120q80 0 147.5 27.5t106.5 66.5t66.5 78t37.5 68l11 26 h122q-4 -14 -12 -38.5t-43 -87t-81 -111.5t-132 -91t-190 -48l-43 -95q70 -8 117 -57t47 -117q0 -86 -58.5 -140t-157.5 -54q-41 0 -76.5 10t-49.5 20l-17 11v92q51 -41 143 -41q53 0 83 27.5t30 74.5q0 41 -31.5 66.5t-91.5 25.5h-71l84 179q-188 23 -315.5 170t-127.5 358 z" glyph-name="ccedilla" horiz-adv-x="1167" unicode="ç"/><glyph d="M92 512q0 229 147.5 380.5t364.5 151.5q215 0 363.5 -150.5t148.5 -371.5v-51h-901q8 -162 118.5 -270.5t270.5 -108.5q78 0 144.5 23.5t105.5 56.5t67.5 65.5t41.5 57.5l10 22h123q-4 -14 -14.5 -36.5t-50.5 -81t-90 -102.5t-140 -80.5t-197 -36.5q-217 0 -364.5 151.5 t-147.5 380.5zM215 584h768q-16 147 -121.5 247.5t-257.5 100.5q-150 0 -257 -99t-132 -249zM328 1524v2h153l185 -297h-103z" glyph-name="egrave" horiz-adv-x="1208" unicode="è"/><glyph d="M92 512q0 229 147.5 380.5t364.5 151.5q215 0 363.5 -150.5t148.5 -371.5v-51h-901q8 -162 118.5 -270.5t270.5 -108.5q78 0 144.5 23.5t105.5 56.5t67.5 65.5t41.5 57.5l10 22h123q-4 -14 -14.5 -36.5t-50.5 -81t-90 -102.5t-140 -80.5t-197 -36.5q-217 0 -364.5 151.5 t-147.5 380.5zM215 584h768q-16 147 -121.5 247.5t-257.5 100.5q-150 0 -257 -99t-132 -249zM553 1229l184 297h154v-2l-236 -295h-102z" glyph-name="eacute" horiz-adv-x="1208" unicode="é"/><glyph d="M92 512q0 229 147.5 380.5t364.5 151.5q215 0 363.5 -150.5t148.5 -371.5v-51h-901q8 -162 118.5 -270.5t270.5 -108.5q78 0 144.5 23.5t105.5 56.5t67.5 65.5t41.5 57.5l10 22h123q-4 -14 -14.5 -36.5t-50.5 -81t-90 -102.5t-140 -80.5t-197 -36.5q-217 0 -364.5 151.5 t-147.5 380.5zM215 584h768q-16 147 -121.5 247.5t-257.5 100.5q-150 0 -257 -99t-132 -249zM307 1229v2l225 295h134l225 -295v-2h-123l-154 205h-30l-154 -205h-123z" glyph-name="ecircumflex" horiz-adv-x="1208" unicode="ê"/><glyph d="M92 512q0 229 147.5 380.5t364.5 151.5q215 0 363.5 -150.5t148.5 -371.5v-51h-901q8 -162 118.5 -270.5t270.5 -108.5q78 0 144.5 23.5t105.5 56.5t67.5 65.5t41.5 57.5l10 22h123q-4 -14 -14.5 -36.5t-50.5 -81t-90 -102.5t-140 -80.5t-197 -36.5q-217 0 -364.5 151.5 t-147.5 380.5zM215 584h768q-16 147 -121.5 247.5t-257.5 100.5q-150 0 -257 -99t-132 -249zM676 1352q0 39 26.5 65.5t65.5 26.5t65.5 -26.5t26.5 -65.5t-26.5 -65.5t-65.5 -26.5t-65.5 26.5t-26.5 65.5zM328 1352q0 39 26.5 65.5t65.5 26.5t65.5 -26.5t26.5 -65.5 t-26.5 -65.5t-65.5 -26.5t-65.5 26.5t-26.5 65.5z" glyph-name="edieresis" horiz-adv-x="1208" unicode="ë"/><glyph d="M164 0v1024h123v-1024h-123zM-61 1524v2h153l184 -297h-102z" glyph-name="igrave" horiz-adv-x="450" unicode="ì"/><glyph d="M164 0v1024h123v-1024h-123zM174 1229l184 297h154v-2l-236 -295h-102z" glyph-name="iacute" horiz-adv-x="450" unicode="í"/><glyph d="M164 0v1024h123v-1024h-123zM-72 1217v2l226 294h133l225 -294v-2h-123l-153 204h-31l-154 -204h-123z" glyph-name="icircumflex" horiz-adv-x="450" unicode="î"/><glyph d="M164 0v1024h123v-1024h-123zM307 1352q0 39 26.5 65.5t65.5 26.5t66 -26.5t27 -65.5t-27 -65.5t-66 -26.5t-65.5 26.5t-26.5 65.5zM-41 1352q0 39 26.5 65.5t65.5 26.5t65.5 -26.5t26.5 -65.5t-26.5 -65.5t-65.5 -26.5t-65.5 26.5t-26.5 65.5z" glyph-name="idieresis" horiz-adv-x="450" unicode="ï"/><glyph d="M92 461q0 207 137.5 344t343.5 137q74 0 139.5 -19.5t105.5 -46t68.5 -53t41.5 -45.5l12 -20h2q-29 113 -104.5 212t-200.5 216l-2 2l-246 -164v113l184 123q-94 90 -194 174h145q102 -86 131 -113l267 174v-113l-195 -133q178 -178 263 -341t85 -416q0 -229 -137 -370.5 t-354 -141.5q-215 0 -353.5 136t-138.5 345zM215 461q0 -162 103.5 -265.5t265 -103.5t265 103.5t103.5 265.5q0 160 -103.5 264t-265 104t-265 -103t-103.5 -265z" glyph-name="eth" horiz-adv-x="1177" unicode="ð"/><glyph d="M164 0v1024h123v-174h2q39 76 130 135t236 59q172 0 280.5 -118.5t108.5 -321.5v-604h-122v604q0 158 -77 243t-210 85q-147 0 -247.5 -104.5t-100.5 -264.5v-563h-123zM287 1239v53q0 76 49 124t125 48q57 0 106 -33.5t88 -66.5t72 -33q31 0 51.5 20.5t20.5 51.5v51h102 v-53q0 -76 -49 -124t-125 -48q-45 0 -86 20.5t-66.5 46t-56.5 46t-57 20.5q-31 0 -51.5 -20.5t-20.5 -51.5v-51h-102z" glyph-name="ntilde" horiz-adv-x="1187" unicode="ñ"/><glyph d="M92 512q0 229 149.5 380.5t373 151.5t373 -151.5t149.5 -380.5t-149.5 -380.5t-373 -151.5t-373 151.5t-149.5 380.5zM215 512q0 -182 114.5 -301t284.5 -119t285 119t115 301t-115 301t-285 119t-284.5 -119t-114.5 -301zM338 1524v2h154l184 -297h-103z" glyph-name="ograve" unicode="ò"/><glyph d="M92 512q0 229 149.5 380.5t373 151.5t373 -151.5t149.5 -380.5t-149.5 -380.5t-373 -151.5t-373 151.5t-149.5 380.5zM215 512q0 -182 114.5 -301t284.5 -119t285 119t115 301t-115 301t-285 119t-284.5 -119t-114.5 -301zM553 1229l184 297h154v-2l-236 -295h-102z" glyph-name="oacute" unicode="ó"/><glyph d="M92 512q0 229 149.5 380.5t373 151.5t373 -151.5t149.5 -380.5t-149.5 -380.5t-373 -151.5t-373 151.5t-149.5 380.5zM215 512q0 -182 114.5 -301t284.5 -119t285 119t115 301t-115 301t-285 119t-284.5 -119t-114.5 -301zM317 1229v2l226 295h133l225 -295v-2h-123 l-153 205h-31l-154 -205h-123z" glyph-name="ocircumflex" unicode="ô"/><glyph d="M92 512q0 229 149.5 380.5t373 151.5t373 -151.5t149.5 -380.5t-149.5 -380.5t-373 -151.5t-373 151.5t-149.5 380.5zM215 512q0 -182 114.5 -301t284.5 -119t285 119t115 301t-115 301t-285 119t-284.5 -119t-114.5 -301zM307 1239v53q0 76 49.5 124t124.5 48 q57 0 106.5 -33.5t88.5 -66.5t72 -33q31 0 51 20.5t20 51.5v51h103v-53q0 -76 -49.5 -124t-124.5 -48q-45 0 -86 20.5t-67 46t-56.5 46t-57.5 20.5q-31 0 -51 -20.5t-20 -51.5v-51h-103z" glyph-name="otilde" unicode="õ"/><glyph d="M92 512q0 229 149.5 380.5t373 151.5t373 -151.5t149.5 -380.5t-149.5 -380.5t-373 -151.5t-373 151.5t-149.5 380.5zM215 512q0 -182 114.5 -301t284.5 -119t285 119t115 301t-115 301t-285 119t-284.5 -119t-114.5 -301zM696 1352q0 39 27 65.5t65.5 26.5t65.5 -26.5 t27 -65.5t-27 -65.5t-65.5 -26.5t-65.5 26.5t-27 65.5zM348 1352q0 39 26.5 65.5t65.5 26.5t65.5 -26.5t26.5 -65.5t-26.5 -65.5t-65.5 -26.5t-65.5 26.5t-26.5 65.5z" glyph-name="odieresis" unicode="ö"/><glyph d="M410 911q0 41 28.5 72t73.5 31t73.5 -31t28.5 -72t-28.5 -71.5t-73.5 -30.5t-73.5 30.5t-28.5 71.5zM123 492v122h778v-122h-778zM410 195q0 41 28.5 71.5t73.5 30.5t73.5 -30.5t28.5 -71.5t-28.5 -72t-73.5 -31t-73.5 31t-28.5 72z" glyph-name="divide" horiz-adv-x="1024" unicode="÷"/><glyph d="M82 -10v153l90 76q-80 127 -80 293q0 229 149.5 380.5t372.5 151.5q217 0 369 -147l164 137v-153l-90 -76q80 -131 80 -293q0 -229 -149.5 -380.5t-373.5 -151.5q-221 0 -368 147zM215 512q0 -119 51 -215l625 524q-111 111 -277 111q-170 0 -284.5 -119t-114.5 -301z M336 203q115 -111 278 -111q170 0 285 119t115 301q0 117 -51 213z" glyph-name="oslash" unicode="ø"/><glyph d="M164 420v604h123v-604q0 -158 76.5 -243t209.5 -85q147 0 248 104.5t101 264.5v563h122v-1024h-122v174h-2q-39 -76 -130.5 -135t-236.5 -59q-172 0 -280.5 118.5t-108.5 321.5zM338 1524v2h154l184 -297h-103z" glyph-name="ugrave" horiz-adv-x="1208" unicode="ù"/><glyph d="M164 420v604h123v-604q0 -158 76.5 -243t209.5 -85q147 0 248 104.5t101 264.5v563h122v-1024h-122v174h-2q-39 -76 -130.5 -135t-236.5 -59q-172 0 -280.5 118.5t-108.5 321.5zM543 1229l184 297h154v-2l-236 -295h-102z" glyph-name="uacute" horiz-adv-x="1208" unicode="ú"/><glyph d="M164 420v604h123v-604q0 -158 76.5 -243t209.5 -85q147 0 248 104.5t101 264.5v563h122v-1024h-122v174h-2q-39 -76 -130.5 -135t-236.5 -59q-172 0 -280.5 118.5t-108.5 321.5zM317 1229v2l226 295h133l225 -295v-2h-123l-153 205h-31l-154 -205h-123z" glyph-name="ucircumflex" horiz-adv-x="1208" unicode="û"/><glyph d="M164 420v604h123v-604q0 -158 76.5 -243t209.5 -85q147 0 248 104.5t101 264.5v563h122v-1024h-122v174h-2q-39 -76 -130.5 -135t-236.5 -59q-172 0 -280.5 118.5t-108.5 321.5zM686 1352q0 39 26.5 65.5t65.5 26.5t65.5 -26.5t26.5 -65.5t-26.5 -65.5t-65.5 -26.5 t-65.5 26.5t-26.5 65.5zM338 1352q0 39 26.5 65.5t65.5 26.5t65.5 -26.5t26.5 -65.5t-26.5 -65.5t-65.5 -26.5t-65.5 26.5t-26.5 65.5z" glyph-name="udieresis" horiz-adv-x="1208" unicode="ü"/><glyph d="M51 1024h133l236 -911h194l267 911h133l-420 -1413h-133l123 389h-256zM471 1229l184 297h154v-2l-236 -295h-102z" glyph-name="yacute" horiz-adv-x="1034" unicode="ý"/><glyph d="M164 -389v1823h123v-615h2q37 84 139 154.5t248 70.5q203 0 347 -152.5t144 -379.5t-144 -379.5t-347 -152.5q-145 0 -247.5 70.5t-139.5 154.5h-2v-594h-123zM287 512q0 -180 113.5 -300t265.5 -120q156 0 267 120t111 300t-111.5 300t-266.5 120q-152 0 -265.5 -120 t-113.5 -300z" glyph-name="thorn" horiz-adv-x="1259" unicode="þ"/><glyph d="M51 1024h133l236 -911h194l267 911h133l-420 -1413h-133l123 389h-256zM614 1341.5q0 38.5 27 65.5t65.5 27t65.5 -27t27 -65.5t-27 -65.5t-65.5 -27t-65.5 27t-27 65.5zM266 1341.5q0 38.5 26.5 65.5t65.5 27t66 -27t27 -65.5t-27 -65.5t-66 -27t-65.5 27t-26.5 65.5z " glyph-name="ydieresis" horiz-adv-x="1034" unicode="ÿ"/><glyph d="M51 0l379 1434h512l379 -1434h-133l-123 471h-758l-123 -471h-133zM338 594h696l-194 717h-308zM430 1679v113h522v-113h-522z" glyph-name="Amacron" horiz-adv-x="1372" unicode="Ā"/><glyph d="M92 512q0 227 144.5 379.5t347.5 152.5q145 0 247.5 -70.5t139.5 -154.5h2v205h123v-1024h-123v205h-2q-37 -84 -139.5 -154.5t-247.5 -70.5q-203 0 -347.5 152.5t-144.5 379.5zM215 512q0 -180 111.5 -300t267.5 -120q152 0 265.5 120t113.5 300t-114 300t-265 120 q-156 0 -267.5 -120t-111.5 -300zM338 1280v113h522v-113h-522z" glyph-name="amacron" horiz-adv-x="1259" unicode="ā"/><glyph d="M51 0l379 1434h512l379 -1434h-133l-123 471h-758l-123 -471h-133zM338 594h696l-194 717h-308zM399 1864h113q0 -63 44 -103.5t120 -40.5t120 40t44 104h112q0 -102 -77.5 -174t-198.5 -72t-199 72t-78 174z" glyph-name="Abreve" horiz-adv-x="1372" unicode="Ă"/><glyph d="M92 512q0 227 144.5 379.5t347.5 152.5q145 0 247.5 -70.5t139.5 -154.5h2v205h123v-1024h-123v205h-2q-37 -84 -139.5 -154.5t-247.5 -70.5q-203 0 -347.5 152.5t-144.5 379.5zM215 512q0 -180 111.5 -300t267.5 -120q152 0 265.5 120t113.5 300t-114 300t-265 120 q-156 0 -267.5 -120t-111.5 -300zM307 1485h113q0 -63 44 -103.5t119.5 -40.5t120 40t44.5 104h112q0 -102 -77.5 -174t-198.5 -72t-199 72t-78 174z" glyph-name="abreve" horiz-adv-x="1259" unicode="ă"/><glyph d="M51 0l379 1434h512l379 -1434q-10 -4 -26.5 -12t-58.5 -35t-75 -55.5t-59.5 -73.5t-26.5 -90q0 -39 29 -65.5t74 -26.5q33 0 68.5 7t56.5 15l18 8v-92q-61 -41 -143 -41q-90 0 -147.5 53.5t-57.5 131t54 146.5t108 99l55 31h-2l-123 471h-758l-123 -471h-133zM338 594 h696l-194 717h-308z" glyph-name="Aogonek" horiz-adv-x="1372" unicode="Ą"/><glyph d="M92 512q0 227 144.5 379.5t347.5 152.5q145 0 247.5 -70.5t139.5 -154.5h2v205h123v-1024q-10 -4 -26.5 -12t-58.5 -35t-75 -55.5t-59.5 -73.5t-26.5 -90q0 -39 28.5 -65.5t73.5 -26.5q33 0 69 7t56 15l19 8v-92q-61 -41 -144 -41q-90 0 -147 53.5t-57 131t56 148.5 t114 103l55 33v4v193h-2q-37 -84 -139.5 -154.5t-247.5 -70.5q-203 0 -347.5 152.5t-144.5 379.5zM215 512q0 -180 111.5 -300t267.5 -120q152 0 265.5 120t113.5 300t-114 300t-265 120q-156 0 -267.5 -120t-111.5 -300z" glyph-name="aogonek" horiz-adv-x="1259" unicode="ą"/><glyph d="M102 716.5q0 327.5 211 543t527 215.5q115 0 215 -29t168.5 -74t126 -99t90.5 -108.5t56.5 -99.5t31.5 -74l8 -28h-133q-4 16 -15.5 41.5t-56.5 93t-102.5 119t-161.5 93.5t-227 42q-264 0 -434 -176.5t-170 -459t169.5 -458.5t434.5 -176q92 0 173 23.5t137 60.5t103 81 t76 89t48.5 82t27.5 61l8 23h133q-2 -12 -9 -31.5t-32.5 -76t-58.5 -107.5t-92.5 -113.5t-128 -108t-170 -76t-215.5 -30.5q-315 0 -526.5 215t-211.5 542.5zM758 1618l184 297h154v-2l-236 -295h-102z" glyph-name="Cacute" horiz-adv-x="1638" unicode="Ć"/><glyph d="M92 512q0 227 146.5 379.5t355.5 152.5q109 0 199 -36.5t140 -90t84 -105.5t46 -89l12 -37h-123q-4 10 -11 26.5t-35.5 58.5t-65.5 75t-102.5 59.5t-143.5 26.5q-156 0 -267.5 -120t-111.5 -300t111.5 -300t267.5 -120q80 0 147.5 27.5t106.5 66.5t66.5 78t37.5 68l11 26 h122q-4 -16 -12 -40.5t-46 -90t-87 -116t-141 -91t-205 -40.5q-209 0 -355.5 152.5t-146.5 379.5zM522 1229l185 297h153v-2l-235 -295h-103z" glyph-name="cacute" horiz-adv-x="1167" unicode="ć"/><glyph d="M102 716.5q0 327.5 211 543t527 215.5q115 0 215 -29t168.5 -74t126 -99t90.5 -108.5t56.5 -99.5t31.5 -74l8 -28h-133q-4 16 -15.5 41.5t-56.5 93t-102.5 119t-161.5 93.5t-227 42q-264 0 -434 -176.5t-170 -459t169.5 -458.5t434.5 -176q92 0 173 23.5t137 60.5t103 81 t76 89t48.5 82t27.5 61l8 23h133q-2 -12 -9 -31.5t-32.5 -76t-58.5 -107.5t-92.5 -113.5t-128 -108t-170 -76t-215.5 -30.5q-315 0 -526.5 215t-211.5 542.5zM532 1618v2l226 295h133l225 -295v-2h-123l-153 205h-31l-154 -205h-123z" glyph-name="Ccircumflex" horiz-adv-x="1638" unicode="Ĉ"/><glyph d="M92 512q0 227 146.5 379.5t355.5 152.5q109 0 199 -36.5t140 -90t84 -105.5t46 -89l12 -37h-123q-4 10 -11 26.5t-35.5 58.5t-65.5 75t-102.5 59.5t-143.5 26.5q-156 0 -267.5 -120t-111.5 -300t111.5 -300t267.5 -120q80 0 147.5 27.5t106.5 66.5t66.5 78t37.5 68l11 26 h122q-4 -16 -12 -40.5t-46 -90t-87 -116t-141 -91t-205 -40.5q-209 0 -355.5 152.5t-146.5 379.5zM297 1229v2l225 295h133l226 -295v-2h-123l-154 205h-31l-153 -205h-123z" glyph-name="ccircumflex" horiz-adv-x="1167" unicode="ĉ"/><glyph d="M102 716.5q0 327.5 211 543t527 215.5q115 0 215 -29t168.5 -74t126 -99t90.5 -108.5t56.5 -99.5t31.5 -74l8 -28h-133q-4 16 -15.5 41.5t-56.5 93t-102.5 119t-161.5 93.5t-227 42q-264 0 -434 -176.5t-170 -459t169.5 -458.5t434.5 -176q92 0 173 23.5t137 60.5t103 81 t76 89t48.5 82t27.5 61l8 23h133q-2 -12 -9 -31.5t-32.5 -76t-58.5 -107.5t-92.5 -113.5t-128 -108t-170 -76t-215.5 -30.5q-315 0 -526.5 215t-211.5 542.5zM532 1913v2h123l154 -205h31l153 205h123v-2l-225 -295h-133z" glyph-name="Ccaron" horiz-adv-x="1638" unicode="Č"/><glyph d="M92 512q0 227 146.5 379.5t355.5 152.5q109 0 199 -36.5t140 -90t84 -105.5t46 -89l12 -37h-123q-4 10 -11 26.5t-35.5 58.5t-65.5 75t-102.5 59.5t-143.5 26.5q-156 0 -267.5 -120t-111.5 -300t111.5 -300t267.5 -120q80 0 147.5 27.5t106.5 66.5t66.5 78t37.5 68l11 26 h122q-4 -16 -12 -40.5t-46 -90t-87 -116t-141 -91t-205 -40.5q-209 0 -355.5 152.5t-146.5 379.5zM297 1524v2h123l153 -205h31l154 205h123v-2l-226 -295h-133z" glyph-name="ccaron" horiz-adv-x="1167" unicode="č"/><glyph d="M184 0v1434h451q322 0 529.5 -204t207.5 -513t-208 -513t-529 -204h-451zM317 123h318q268 0 436 166t168 428t-168 428t-436 166h-318v-1188zM410 1913v2h122l154 -205h31l153 205h123v-2l-225 -295h-133z" glyph-name="Dcaron" horiz-adv-x="1474" unicode="Ď"/><glyph d="M92 512q0 227 144.5 379.5t347.5 152.5q145 0 247.5 -70.5t139.5 -154.5h2v615h123v-1434h-123v205h-2q-37 -84 -139.5 -154.5t-247.5 -70.5q-203 0 -347.5 152.5t-144.5 379.5zM215 512q0 -180 111.5 -300t267.5 -120q152 0 265.5 120t113.5 300t-114 300t-265 120 q-156 0 -267.5 -120t-111.5 -300zM1198 1368q0 31 27.5 56.5t64.5 25.5q49 0 81 -40t32 -114q0 -90 -54.5 -148t-140.5 -67v62q113 16 113 112l-10 41q-10 -10 -31 -10q-82 0 -82 82z" glyph-name="dcaron" horiz-adv-x="1351" unicode="ď"/><glyph d="M51 645v133h154v656h450q322 0 530 -204t208 -513t-208 -513t-530 -204h-450v645h-154zM338 123h317q268 0 436.5 166t168.5 428t-168 428t-437 166h-317v-533h379v-133h-379v-522z" glyph-name="Dcroat" horiz-adv-x="1495" unicode="Đ"/><glyph d="M92 481q0 221 134 361.5t337 140.5q78 0 145.5 -21.5t107.5 -51t69.5 -59.5t42.5 -52l12 -21h2v379h-276v113h276v164h123v-164h143v-113h-143v-1157h-123v184h-2q-4 -8 -12 -22.5t-41 -49t-72 -61t-106.5 -49t-145.5 -22.5q-203 0 -337 140t-134 361zM215 481 q0 -176 103.5 -282.5t265.5 -106.5q156 0 257 107.5t101 281.5t-101.5 281.5t-256.5 107.5q-162 0 -265.5 -106.5t-103.5 -282.5z" glyph-name="dcroat" horiz-adv-x="1249" unicode="đ"/><glyph d="M184 0v1434h973v-123h-840v-523h687v-122h-687v-543h840v-123h-973zM410 1700v112h522v-112h-522z" glyph-name="Emacron" horiz-adv-x="1249" unicode="Ē"/><glyph d="M92 512q0 229 147.5 380.5t364.5 151.5q215 0 363.5 -150.5t148.5 -371.5v-51h-901q8 -162 118.5 -270.5t270.5 -108.5q78 0 144.5 23.5t105.5 56.5t67.5 65.5t41.5 57.5l10 22h123q-4 -14 -14.5 -36.5t-50.5 -81t-90 -102.5t-140 -80.5t-197 -36.5q-217 0 -364.5 151.5 t-147.5 380.5zM215 584h768q-16 147 -121.5 247.5t-257.5 100.5q-150 0 -257 -99t-132 -249zM348 1280v113h522v-113h-522z" glyph-name="emacron" horiz-adv-x="1208" unicode="ē"/><glyph d="M184 0v1434h973v-123h-840v-523h687v-122h-687v-543h840v-123h-973zM594 1741q0 39 26.5 65.5t65.5 26.5t65.5 -26.5t26.5 -65.5t-26.5 -65.5t-65.5 -26.5t-65.5 26.5t-26.5 65.5z" glyph-name="Edotaccent" horiz-adv-x="1249" unicode="Ė"/><glyph d="M92 512q0 229 147.5 380.5t364.5 151.5q215 0 363.5 -150.5t148.5 -371.5v-51h-901q8 -162 118.5 -270.5t270.5 -108.5q78 0 144.5 23.5t105.5 56.5t67.5 65.5t41.5 57.5l10 22h123q-4 -14 -14.5 -36.5t-50.5 -81t-90 -102.5t-140 -80.5t-197 -36.5q-217 0 -364.5 151.5 t-147.5 380.5zM215 584h768q-16 147 -121.5 247.5t-257.5 100.5q-150 0 -257 -99t-132 -249zM502 1341.5q0 38.5 26.5 65.5t65.5 27t65.5 -27t26.5 -65.5t-26.5 -65.5t-65.5 -27t-65.5 27t-26.5 65.5z" glyph-name="edotaccent" horiz-adv-x="1208" unicode="ė"/><glyph d="M184 0v1434h973v-123h-840v-523h687v-122h-687v-543h840v-123q-10 -4 -26.5 -12t-58.5 -35t-74.5 -55.5t-59.5 -73.5t-27 -90q0 -39 29 -65.5t74 -26.5q33 0 68.5 7t56.5 15l18 8v-92q-61 -41 -143 -41q-90 0 -147.5 53.5t-57.5 131t54.5 146.5t107.5 99l53 31h-840z" glyph-name="Eogonek" horiz-adv-x="1249" unicode="Ę"/><glyph d="M92 512q0 229 147.5 380.5t364.5 151.5q215 0 363.5 -150.5t148.5 -371.5v-51h-901q8 -162 118.5 -270.5t270.5 -108.5q78 0 144.5 23.5t105.5 56.5t67.5 65.5t41.5 57.5l10 22h123q-2 -8 -8.5 -22t-30 -54t-52 -76t-78.5 -77t-108 -68q-10 -4 -28.5 -13t-64.5 -39.5 t-81 -62.5t-63.5 -79t-28.5 -92q0 -39 28.5 -65.5t73.5 -26.5q33 0 69 7t54 15l21 8v-92q-61 -41 -144 -41q-90 0 -147 53.5t-57 131.5q0 139 182 258q-6 0 -14.5 -1t-14.5 -1q-217 0 -364.5 151.5t-147.5 380.5zM215 584h768q-16 147 -121.5 247.5t-257.5 100.5 q-150 0 -257 -99t-132 -249z" glyph-name="eogonek" horiz-adv-x="1208" unicode="ę"/><glyph d="M184 0v1434h973v-123h-840v-523h687v-122h-687v-543h840v-123h-973zM389 1913v2h123l154 -205h30l154 205h123v-2l-225 -295h-134z" glyph-name="Ecaron" horiz-adv-x="1249" unicode="Ě"/><glyph d="M92 512q0 229 147.5 380.5t364.5 151.5q215 0 363.5 -150.5t148.5 -371.5v-51h-901q8 -162 118.5 -270.5t270.5 -108.5q78 0 144.5 23.5t105.5 56.5t67.5 65.5t41.5 57.5l10 22h123q-4 -14 -14.5 -36.5t-50.5 -81t-90 -102.5t-140 -80.5t-197 -36.5q-217 0 -364.5 151.5 t-147.5 380.5zM215 584h768q-16 147 -121.5 247.5t-257.5 100.5q-150 0 -257 -99t-132 -249zM307 1524v2h123l154 -205h30l154 205h123v-2l-225 -295h-134z" glyph-name="ecaron" horiz-adv-x="1208" unicode="ě"/><glyph d="M102 716.5q0 327.5 211 543t527 215.5q113 0 212 -28t167.5 -72t126 -97t91 -107.5t57.5 -98.5t34 -73l8 -26h-133q-6 16 -17.5 40.5t-57.5 90t-104.5 116t-160.5 91.5t-223 41q-264 0 -434 -176.5t-170 -459t169.5 -458.5t434.5 -176q233 0 397 152.5t186 379.5h-286 v123h604v-123h-185q-47 -297 -238.5 -476t-477.5 -179q-315 0 -526.5 215t-211.5 542.5zM604 1864h113q0 -63 44 -103.5t119.5 -40.5t119.5 40t44 104h113q0 -102 -78 -174t-198.5 -72t-198.5 72t-78 174z" glyph-name="Gbreve" horiz-adv-x="1761" unicode="Ğ"/><glyph d="M92 512q0 227 144.5 379.5t347.5 152.5q145 0 247.5 -70.5t139.5 -154.5h2v205h123v-1413h-871v113h748v481h-2q-37 -84 -139.5 -154.5t-247.5 -70.5q-203 0 -347.5 152.5t-144.5 379.5zM215 512q0 -180 111.5 -300t267.5 -120q152 0 265.5 120t113.5 300t-114 300 t-265 120q-156 0 -267.5 -120t-111.5 -300zM307 1485h113q0 -63 44 -103.5t119.5 -40.5t120 40t44.5 104h112q0 -102 -77.5 -174t-198.5 -72t-199 72t-78 174z" glyph-name="gbreve" horiz-adv-x="1259" unicode="ğ"/><glyph d="M102 716.5q0 327.5 211 543t527 215.5q113 0 212 -28t167.5 -72t126 -97t91 -107.5t57.5 -98.5t34 -73l8 -26h-133q-6 16 -17.5 40.5t-57.5 90t-104.5 116t-160.5 91.5t-223 41q-264 0 -434 -176.5t-170 -459t169.5 -458.5t434.5 -176q233 0 397 152.5t186 379.5h-286 v123h604v-123h-185q-47 -297 -238.5 -476t-477.5 -179q-315 0 -526.5 215t-211.5 542.5zM727 -287q0 31 27.5 56.5t64.5 25.5q49 0 81 -40t32 -113q0 -90 -54.5 -148.5t-140.5 -66.5v61q113 16 113 113l-10 41q-10 -10 -31 -11q-82 0 -82 82z" glyph-name="Gcommaaccent" horiz-adv-x="1761" unicode="Ģ"/><glyph d="M481 1362q0 90 54.5 148.5t140.5 66.5v-61q-113 -16 -113 -113l10 -41q10 10 31 10q82 0 82 -82q0 -31 -27.5 -56.5t-64.5 -25.5q-49 0 -81 40t-32 114zM92 512q0 227 144.5 379.5t347.5 152.5q145 0 247.5 -70.5t139.5 -154.5h2v205h123v-1413h-871v113h748v481h-2 q-37 -84 -139.5 -154.5t-247.5 -70.5q-203 0 -347.5 152.5t-144.5 379.5zM215 512q0 -180 111.5 -300t267.5 -120q152 0 265.5 120t113.5 300t-114 300t-265 120q-156 0 -267.5 -120t-111.5 -300z" glyph-name="gcommaaccent" horiz-adv-x="1259" unicode="ģ"/><glyph d="M184 0v1434h133v-1434h-133zM-10 1679v113h522v-113h-522z" glyph-name="Imacron" horiz-adv-x="501" unicode="Ī"/><glyph d="M164 0v1024h123v-1024h-123zM-41 1280v113h522v-113h-522z" glyph-name="imacron" horiz-adv-x="450" unicode="ī"/><glyph d="M-31 -276.5q0 77.5 54.5 146.5t107.5 99l55 31h-2v1434h133v-1434q-10 -4 -26.5 -12t-58.5 -35t-74.5 -55.5t-59 -73.5t-26.5 -90q0 -39 28.5 -65.5t73.5 -26.5q33 0 69 7t56 15l18 8v-92q-61 -41 -143 -41q-90 0 -147.5 53.5t-57.5 131z" glyph-name="Iogonek" horiz-adv-x="501" unicode="Į"/><glyph d="M-61 -276q0 49 23.5 96t56 79.5t65.5 59.5t55 39l25 12v2v1012h123v-1024q-10 -4 -26.5 -12t-58.5 -35t-75 -55.5t-59.5 -73.5t-26.5 -90q0 -39 28.5 -65.5t73.5 -26.5q33 0 69 7t54 15l21 8v-92q-61 -41 -144 -41q-90 0 -147 53.5t-57 131.5zM133 1331q0 39 26.5 66.5 t65.5 27.5t65.5 -27.5t26.5 -66.5q0 -37 -26.5 -63.5t-65.5 -26.5t-65.5 26.5t-26.5 63.5z" glyph-name="iogonek" horiz-adv-x="450" unicode="į"/><glyph d="M184 0v1434h133v-1434h-133zM164 1743q0 39 26.5 65.5t65.5 26.5t65.5 -26.5t26.5 -65.5t-26.5 -65.5t-65.5 -26.5t-65.5 26.5t-26.5 65.5z" glyph-name="Idotaccent" horiz-adv-x="501" unicode="İ"/><glyph d="M164 0v1024h123v-1024h-123z" glyph-name="dotlessi" horiz-adv-x="450" unicode="ı"/><glyph d="M184 0v1434h133v-646h318l461 646h164l-502 -697l522 -737h-164l-471 666h-328v-666h-133zM594 -287q0 31 27.5 56.5t64.5 25.5q49 0 81 -40t32 -113q0 -90 -54.5 -148.5t-140.5 -66.5v61q113 16 113 113l-10 41q-10 -10 -31 -11q-82 0 -82 82z" glyph-name="Kcommaaccent" horiz-adv-x="1300" unicode="Ķ"/><glyph d="M164 0v1434h123v-840h245l338 430h144l-379 -492l409 -532h-143l-369 481h-245v-481h-123zM471 -287q0 31 27.5 56.5t64.5 25.5q49 0 81 -40t32 -113q0 -90 -54.5 -148.5t-140.5 -66.5v61q113 16 113 113l-10 41q-10 -10 -31 -11q-82 0 -82 82z" glyph-name="kcommaaccent" horiz-adv-x="1054" unicode="ķ"/><glyph d="M184 0v1434h133v-1311h779v-123h-912zM205 1618l184 297h154v-2l-236 -295h-102z" glyph-name="Lacute" horiz-adv-x="1116" unicode="Ĺ"/><glyph d="M164 0v1434h123v-1321h235v-113h-358zM174 1618l184 297h154v-2l-236 -295h-102z" glyph-name="lacute" horiz-adv-x="552" unicode="ĺ"/><glyph d="M184 0v1434h133v-1311h779v-123h-912zM553 -287q0 31 27.5 56.5t64.5 25.5q49 0 81 -40t32 -113q0 -90 -54.5 -148.5t-140.5 -66.5v61q113 16 113 113l-10 41q-10 -10 -31 -11q-82 0 -82 82z" glyph-name="Lcommaaccent" horiz-adv-x="1116" unicode="Ļ"/><glyph d="M164 0v1434h123v-1321h235v-113h-358zM244 -287q0 31 27.5 56.5t64.5 25.5q49 0 81 -40t32 -113q0 -90 -54.5 -148.5t-140.5 -66.5v61q113 16 113 113l-11 41q-10 -10 -30 -11q-82 0 -82 82z" glyph-name="lcommaaccent" horiz-adv-x="552" unicode="ļ"/><glyph d="M184 0v1434h133v-1311h779v-123h-912zM512 1372q0 31 27.5 56.5t64.5 25.5q49 0 81 -40t32 -114q0 -90 -54.5 -148t-140.5 -67v62q113 16 113 113l-10 40q-10 -10 -31 -10q-82 0 -82 82z" glyph-name="Lcaron" horiz-adv-x="1116" unicode="Ľ"/><glyph d="M164 0v1434h123v-1321h235v-113h-358zM399 1372q0 31 28 56.5t65 25.5q49 0 80.5 -40t31.5 -114q0 -90 -54 -148t-140 -67v62q113 16 112 113l-10 40q-10 -10 -31 -10q-82 0 -82 82z" glyph-name="lcaron" horiz-adv-x="552" unicode="ľ"/><glyph d="M51 502v133l133 61v738h133v-676l308 143v-133l-308 -143v-502h779v-123h-912v563z" glyph-name="Lslash" horiz-adv-x="1116" unicode="Ł"/><glyph d="M10 502v123l174 82v727h123v-676l195 92v-123l-195 -92v-522h236v-113h-359v584z" glyph-name="lslash" horiz-adv-x="573" unicode="ł"/><glyph d="M184 0v1434h205l778 -1301h2l-2 21v1280h133v-1434h-204l-779 1300h-2l2 -20v-1280h-133zM686 1618l184 297h154v-2l-236 -295h-102z" glyph-name="Nacute" horiz-adv-x="1484" unicode="Ń"/><glyph d="M164 0v1024h123v-174h2q39 76 130 135t236 59q172 0 280.5 -118.5t108.5 -321.5v-604h-122v604q0 158 -77 243t-210 85q-147 0 -247.5 -104.5t-100.5 -264.5v-563h-123zM543 1229l184 297h154v-2l-236 -295h-102z" glyph-name="nacute" horiz-adv-x="1187" unicode="ń"/><glyph d="M184 0v1434h205l778 -1301h2l-2 21v1280h133v-1434h-204l-779 1300h-2l2 -20v-1280h-133zM645 -287q0 31 27.5 56.5t64.5 25.5q49 0 81 -40t32 -113q0 -90 -54.5 -148.5t-140.5 -66.5v61q113 16 113 113l-10 41q-10 -10 -31 -11q-82 0 -82 82z" glyph-name="Ncommaaccent" horiz-adv-x="1484" unicode="Ņ"/><glyph d="M164 0v1024h123v-174h2q39 76 130 135t236 59q172 0 280.5 -118.5t108.5 -321.5v-604h-122v604q0 158 -77 243t-210 85q-147 0 -247.5 -104.5t-100.5 -264.5v-563h-123zM510 -287q0 31 27.5 56.5t64.5 25.5q49 0 81 -40t32 -113q0 -90 -54.5 -148.5t-140.5 -66.5v61 q113 16 113 113l-10 41q-10 -10 -31 -11q-82 0 -82 82z" glyph-name="ncommaaccent" horiz-adv-x="1187" unicode="ņ"/><glyph d="M184 0v1434h205l778 -1301h2l-2 21v1280h133v-1434h-204l-779 1300h-2l2 -20v-1280h-133zM471 1913v2h123l154 -205h30l154 205h123v-2l-226 -295h-133z" glyph-name="Ncaron" horiz-adv-x="1484" unicode="Ň"/><glyph d="M164 0v1024h123v-174h2q39 76 130 135t236 59q172 0 280.5 -118.5t108.5 -321.5v-604h-122v604q0 158 -77 243t-210 85q-147 0 -247.5 -104.5t-100.5 -264.5v-563h-123zM307 1524v2h123l154 -205h30l154 205h123v-2l-225 -295h-134z" glyph-name="ncaron" horiz-adv-x="1187" unicode="ň"/><glyph d="M102 716.5q0 327.5 211 543t526.5 215.5t526.5 -215.5t211 -543t-211 -542.5t-526.5 -215t-526.5 215t-211 542.5zM236 716.5q0 -282.5 169.5 -458.5t434 -176t434.5 176t170 458.5t-170 459t-434.5 176.5t-434 -176.5t-169.5 -459zM584 1679v113h522v-113h-522z" glyph-name="Omacron" horiz-adv-x="1679" unicode="Ō"/><glyph d="M92 512q0 229 149.5 380.5t373 151.5t373 -151.5t149.5 -380.5t-149.5 -380.5t-373 -151.5t-373 151.5t-149.5 380.5zM215 512q0 -182 114.5 -301t284.5 -119t285 119t115 301t-115 301t-285 119t-284.5 -119t-114.5 -301zM348 1280v113h522v-113h-522z" glyph-name="omacron" unicode="ō"/><glyph d="M102 716.5q0 327.5 211 543t526.5 215.5t526.5 -215.5t211 -543t-211 -542.5t-526.5 -215t-526.5 215t-211 542.5zM236 716.5q0 -282.5 169.5 -458.5t434 -176t434.5 176t170 458.5t-170 459t-434.5 176.5t-434 -176.5t-169.5 -459zM932 1618l153 297h144v-2l-205 -295 h-92zM635 1618l153 297h144v-2l-205 -295h-92z" glyph-name="Ohungarumlaut" horiz-adv-x="1679" unicode="Ő"/><glyph d="M92 512q0 229 149.5 380.5t373 151.5t373 -151.5t149.5 -380.5t-149.5 -380.5t-373 -151.5t-373 151.5t-149.5 380.5zM215 512q0 -182 114.5 -301t284.5 -119t285 119t115 301t-115 301t-285 119t-284.5 -119t-114.5 -301zM707 1229l153 297h144v-2l-205 -295h-92z M410 1229l153 297h144v-2l-205 -295h-92z" glyph-name="ohungarumlaut" unicode="ő"/><glyph d="M102 717q0 332 205 545t502 213q354 0 573 -308v267h942v-123h-808v-523h655v-122h-655v-543h808v-123h-942v264q-195 -272 -505 -301q-33 -4 -68 -4q-297 0 -502 213t-205 545zM236 717q0 -287 161.5 -461t411.5 -174t411.5 174t161.5 461t-161.5 461t-411.5 174 t-411.5 -174t-161.5 -461z" glyph-name="OE" horiz-adv-x="2416" unicode="Œ"/><glyph d="M92 512q0 227 146.5 379.5t355.5 152.5q86 0 163 -27.5t125 -66.5t85 -77.5t53 -65.5l14 -29h2q4 10 14.5 28.5t48.5 65t82 81t120.5 63t162.5 28.5q213 0 357.5 -149.5t144.5 -372.5v-51h-870q8 -162 111.5 -270.5t256.5 -108.5q76 0 141.5 23.5t103.5 56.5t65.5 65.5 t37.5 57.5l11 22h123q-4 -14 -13.5 -36.5t-48.5 -81t-89 -102.5t-138 -80.5t-193 -36.5q-86 0 -161.5 27.5t-122.5 66.5t-82 77.5t-49 65.5l-15 29h-2q-6 -10 -16 -28.5t-49 -65t-85 -81t-124 -63t-164 -28.5q-209 0 -355.5 152.5t-146.5 379.5zM1096 584h737 q-16 147 -120.5 247.5t-248.5 100.5q-137 0 -241 -100.5t-127 -247.5zM215 512q0 -180 111.5 -300t267.5 -120t267.5 120t111.5 300t-111.5 300t-267.5 120t-267.5 -120t-111.5 -300z" glyph-name="oe" horiz-adv-x="2058" unicode="œ"/><glyph d="M184 0v1434h594q233 0 367.5 -122t134.5 -319q0 -166 -99.5 -282.5t-279.5 -147.5l369 -563h-154l-358 553h-441v-553h-133zM317 676h461q180 0 274.5 84t94.5 233.5t-94.5 233.5t-274.5 84h-461v-635zM604 1618l184 297h154v-2l-235 -295h-103z" glyph-name="Racute" horiz-adv-x="1392" unicode="Ŕ"/><glyph d="M164 0v1024h123v-195h2q4 8 10 22.5t33.5 49.5t62.5 61.5t96.5 49t133.5 22.5h112v-112h-112q-147 0 -242.5 -99.5t-95.5 -259.5v-563h-123zM379 1229l184 297h154v-2l-236 -295h-102z" glyph-name="racute" horiz-adv-x="757" unicode="ŕ"/><glyph d="M184 0v1434h594q233 0 367.5 -122t134.5 -319q0 -166 -99.5 -282.5t-279.5 -147.5l369 -563h-154l-358 553h-441v-553h-133zM317 676h461q180 0 274.5 84t94.5 233.5t-94.5 233.5t-274.5 84h-461v-635zM604 -287q0 31 27.5 56.5t64.5 25.5q49 0 81 -40t32 -113 q0 -90 -54.5 -148.5t-140.5 -66.5v61q113 16 113 113l-10 41q-10 -10 -31 -11q-82 0 -82 82z" glyph-name="Rcommaaccent" horiz-adv-x="1392" unicode="Ŗ"/><glyph d="M164 0v1024h123v-195h2q4 8 10 22.5t33.5 49.5t62.5 61.5t96.5 49t133.5 22.5h112v-112h-112q-147 0 -242.5 -99.5t-95.5 -259.5v-563h-123zM123 -287q0 31 27.5 56.5t64.5 25.5q49 0 81 -40t32 -113q0 -90 -54.5 -148.5t-140.5 -66.5v61q113 16 113 113l-10 41 q-10 -10 -31 -11q-82 0 -82 82z" glyph-name="rcommaaccent" horiz-adv-x="757" unicode="ŗ"/><glyph d="M184 0v1434h594q233 0 367.5 -122t134.5 -319q0 -166 -99.5 -282.5t-279.5 -147.5l369 -563h-154l-358 553h-441v-553h-133zM317 676h461q180 0 274.5 84t94.5 233.5t-94.5 233.5t-274.5 84h-461v-635zM410 1913v2h122l154 -205h31l153 205h123v-2l-225 -295h-133z" glyph-name="Rcaron" horiz-adv-x="1392" unicode="Ř"/><glyph d="M164 0v1024h123v-195h2q4 8 10 22.5t33.5 49.5t62.5 61.5t96.5 49t133.5 22.5h112v-112h-112q-147 0 -242.5 -99.5t-95.5 -259.5v-563h-123zM164 1524v2h123l153 -205h31l154 205h123v-2l-226 -295h-133z" glyph-name="rcaron" horiz-adv-x="757" unicode="ř"/><glyph d="M92 379h133q4 -12 11.5 -31.5t41 -71t77.5 -91.5t127 -71.5t184 -31.5q190 0 294.5 82t104.5 205q0 90 -67.5 153.5t-169 94t-219 68.5t-219 78t-169 123t-67.5 199q0 160 135 275t356 115q131 0 235.5 -39t160 -94.5t91 -111.5t46.5 -95l10 -39h-133q-2 10 -8.5 27.5 t-36 61.5t-70.5 77.5t-119 61.5t-176 28q-170 0 -264 -77t-94 -190q0 -76 50 -132t131 -89t177 -61.5t193.5 -61t178.5 -76.5t131 -119t50 -177q0 -170 -144.5 -290t-387.5 -120q-137 0 -247 43t-168 104.5t-97 124t-52 105.5zM594 1618l184 297h154v-2l-236 -295h-102z" glyph-name="Sacute" horiz-adv-x="1300" unicode="Ś"/><glyph d="M82 307h133q2 -8 9 -22.5t34 -52t60.5 -65.5t97 -51.5t137.5 -23.5q139 0 207.5 51.5t68.5 132.5q0 61 -51 101.5t-129 58t-168 41t-167.5 50t-129 88t-51.5 153.5q0 115 101.5 195.5t277.5 80.5q100 0 181 -30.5t126 -73.5t75 -87t40 -75l8 -30h-133q-2 8 -8 20 t-28.5 44t-53.5 56.5t-86 44t-121 19.5q-123 0 -189.5 -48t-66.5 -116q0 -61 51 -101t129 -57.5t168 -41t168 -50t129 -88t51 -154.5q0 -129 -103.5 -212.5t-295.5 -83.5q-109 0 -198 33.5t-137 81.5t-81 96.5t-43 82.5zM461 1229l184 297h154v-2l-236 -295h-102z" glyph-name="sacute" horiz-adv-x="1044" unicode="ś"/><glyph d="M92 379h133q4 -12 11.5 -31.5t41 -71t77.5 -91.5t127 -71.5t184 -31.5q190 0 294.5 82t104.5 205q0 90 -67.5 153.5t-169 94t-219 68.5t-219 78t-169 123t-67.5 199q0 160 135 275t356 115q131 0 235.5 -39t160 -94.5t91 -111.5t46.5 -95l10 -39h-133q-2 10 -8.5 27.5 t-36 61.5t-70.5 77.5t-119 61.5t-176 28q-170 0 -264 -77t-94 -190q0 -76 50 -132t131 -89t177 -61.5t193.5 -61t178.5 -76.5t131 -119t50 -177q0 -162 -132 -279t-357 -129l-33 -74q70 -8 117 -57t47 -117q0 -86 -58.5 -140t-156.5 -54q-41 0 -77 10t-52 20l-15 11v92 q51 -41 144 -41q53 0 82.5 27.5t29.5 74.5q0 41 -31.5 66.5t-91.5 25.5h-71l73 156q-125 8 -225 53t-153.5 105.5t-89 119t-46.5 99.5z" glyph-name="Scedilla" horiz-adv-x="1300" unicode="Ş"/><glyph d="M82 307h133q2 -8 9 -22.5t34 -52t60.5 -65.5t97 -51.5t137.5 -23.5q139 0 207.5 51.5t68.5 132.5q0 61 -51 101.5t-129 58t-168 41t-167.5 50t-129 88t-51.5 153.5q0 115 101.5 195.5t277.5 80.5q100 0 181 -30.5t126 -73.5t75 -87t40 -75l8 -30h-133q-2 8 -8 20 t-28.5 44t-53.5 56.5t-86 44t-121 19.5q-123 0 -189.5 -48t-66.5 -116q0 -61 51 -101t129 -57.5t168 -41t168 -50t129 -88t51 -154.5q0 -123 -95 -204.5t-271 -89.5l-43 -95q70 -8 117 -57t47 -117q0 -86 -58.5 -140t-156.5 -54q-41 0 -77 10t-50 20l-17 11v92 q51 -41 144 -41q53 0 82.5 27.5t29.5 74.5q0 41 -31.5 66.5t-91.5 25.5h-71l84 177q-94 8 -172 44.5t-120 83t-72 91.5t-40 75z" glyph-name="scedilla" horiz-adv-x="1044" unicode="ş"/><glyph d="M92 379h133q4 -12 11.5 -31.5t41 -71t77.5 -91.5t127 -71.5t184 -31.5q190 0 294.5 82t104.5 205q0 90 -67.5 153.5t-169 94t-219 68.5t-219 78t-169 123t-67.5 199q0 160 135 275t356 115q131 0 235.5 -39t160 -94.5t91 -111.5t46.5 -95l10 -39h-133q-2 10 -8.5 27.5 t-36 61.5t-70.5 77.5t-119 61.5t-176 28q-170 0 -264 -77t-94 -190q0 -76 50 -132t131 -89t177 -61.5t193.5 -61t178.5 -76.5t131 -119t50 -177q0 -170 -144.5 -290t-387.5 -120q-137 0 -247 43t-168 104.5t-97 124t-52 105.5zM348 1913v2h123l154 -205h30l154 205h123v-2 l-225 -295h-134z" glyph-name="Scaron" horiz-adv-x="1300" unicode="Š"/><glyph d="M82 307h133q2 -8 9 -22.5t34 -52t60.5 -65.5t97 -51.5t137.5 -23.5q139 0 207.5 51.5t68.5 132.5q0 61 -51 101.5t-129 58t-168 41t-167.5 50t-129 88t-51.5 153.5q0 115 101.5 195.5t277.5 80.5q100 0 181 -30.5t126 -73.5t75 -87t40 -75l8 -30h-133q-2 8 -8 20 t-28.5 44t-53.5 56.5t-86 44t-121 19.5q-123 0 -189.5 -48t-66.5 -116q0 -61 51 -101t129 -57.5t168 -41t168 -50t129 -88t51 -154.5q0 -129 -103.5 -212.5t-295.5 -83.5q-109 0 -198 33.5t-137 81.5t-81 96.5t-43 82.5zM225 1524v2h123l154 -205h30l154 205h123v-2 l-225 -295h-133z" glyph-name="scaron" horiz-adv-x="1044" unicode="š"/><glyph d="M20 1311v123h1158v-123h-512v-1311h-134v1311h-512zM492 -287q0 31 27.5 56.5t64.5 25.5q49 0 80.5 -40t31.5 -113q0 -90 -54 -148.5t-140 -66.5v61q113 16 112 113l-10 41q-10 -10 -31 -11q-81 0 -81 82z" glyph-name="Tcommaaccent" horiz-adv-x="1198" unicode="Ţ"/><glyph d="M51 911v113h144v225h122v-225h338v-113h-338v-798h349v-113h-471v911h-144zM338 -287q0 31 27.5 56.5t64.5 25.5q49 0 81 -40t32 -113q0 -90 -54.5 -148.5t-140.5 -66.5v61q113 16 113 113l-10 41q-10 -10 -31 -11q-82 0 -82 82z" glyph-name="tcommaaccent" horiz-adv-x="727" unicode="ţ"/><glyph d="M20 1311v123h1158v-123h-512v-1311h-134v1311h-512zM297 1913v2h123l153 -205h31l154 205h123v-2l-226 -295h-133z" glyph-name="Tcaron" horiz-adv-x="1198" unicode="Ť"/><glyph d="M430 1176q0 31 27.5 56t64.5 25q49 0 81 -39.5t32 -113.5q0 -90 -54.5 -148.5t-140.5 -66.5v61q113 16 113 113l-10 41q-10 -10 -31 -10q-82 0 -82 82zM51 911v113h144v225h122v-1136h349v-113h-471v911h-144z" glyph-name="tcaron" horiz-adv-x="727" unicode="ť"/><glyph d="M174 532v902h133v-902q0 -213 112.5 -331.5t307.5 -118.5t307.5 118.5t112.5 331.5v902h133v-902q0 -260 -152.5 -416.5t-400.5 -156.5t-400.5 156.5t-152.5 416.5zM471 1679v113h522v-113h-522z" glyph-name="Umacron" horiz-adv-x="1454" unicode="Ū"/><glyph d="M164 420v604h123v-604q0 -158 76.5 -243t209.5 -85q147 0 248 104.5t101 264.5v563h122v-1024h-122v174h-2q-39 -76 -130.5 -135t-236.5 -59q-172 0 -280.5 118.5t-108.5 321.5zM348 1280v113h522v-113h-522z" glyph-name="umacron" horiz-adv-x="1208" unicode="ū"/><glyph d="M174 532v902h133v-902q0 -213 112.5 -331.5t307.5 -118.5t307.5 118.5t112.5 331.5v902h133v-902q0 -260 -152.5 -416.5t-400.5 -156.5t-400.5 156.5t-152.5 416.5zM522 1761q0 84 60.5 144.5t144.5 60.5t144.5 -60.5t60.5 -144.5t-60.5 -144.5t-144.5 -60.5t-144.5 60.5 t-60.5 144.5zM614 1761q0 -45 33 -78.5t80 -33.5t80 33.5t33 78.5t-33 79t-80 34t-80 -34t-33 -79z" glyph-name="Uring" horiz-adv-x="1454" unicode="Ů"/><glyph d="M164 420v604h123v-604q0 -158 76.5 -243t209.5 -85q147 0 248 104.5t101 264.5v563h122v-1024h-122v174h-2q-39 -76 -130.5 -135t-236.5 -59q-172 0 -280.5 118.5t-108.5 321.5zM399 1403q0 84 60.5 144.5t144.5 60.5t144.5 -60.5t60.5 -144.5t-60.5 -144.5t-144.5 -60.5 t-144.5 60.5t-60.5 144.5zM492 1403q0 -47 32.5 -80t79.5 -33t80 33t33 80t-33 80t-80 33t-79.5 -33t-32.5 -80z" glyph-name="uring" horiz-adv-x="1208" unicode="ů"/><glyph d="M174 532v902h133v-902q0 -213 112.5 -331.5t307.5 -118.5t307.5 118.5t112.5 331.5v902h133v-902q0 -260 -152.5 -416.5t-400.5 -156.5t-400.5 156.5t-152.5 416.5zM819 1618l154 297h143v-2l-205 -295h-92zM522 1618l154 297h143v-2l-205 -295h-92z" glyph-name="Uhungarumlaut" horiz-adv-x="1454" unicode="Ű"/><glyph d="M164 420v604h123v-604q0 -158 76.5 -243t209.5 -85q147 0 248 104.5t101 264.5v563h122v-1024h-122v174h-2q-39 -76 -130.5 -135t-236.5 -59q-172 0 -280.5 118.5t-108.5 321.5zM707 1229l153 297h144v-2l-205 -295h-92zM410 1229l153 297h144v-2l-205 -295h-92z" glyph-name="uhungarumlaut" horiz-adv-x="1208" unicode="ű"/><glyph d="M174 532v902h133v-902q0 -213 112.5 -331.5t307.5 -118.5t307.5 118.5t112.5 331.5v902h133v-902q0 -227 -109.5 -365t-289.5 -187q-205 -111 -205 -246q0 -39 28.5 -65.5t73.5 -26.5q33 0 69 7t54 15l21 8v-92q-61 -41 -144 -41q-90 0 -147.5 53.5t-57.5 131.5 q0 125 156 235h-2q-248 0 -400.5 156.5t-152.5 416.5z" glyph-name="Uogonek" horiz-adv-x="1454" unicode="Ų"/><glyph d="M164 420v604h123v-604q0 -158 76.5 -243t209.5 -85q147 0 248 104.5t101 264.5v563h122v-1024q-10 -4 -26.5 -12t-58 -35t-74.5 -55.5t-59.5 -73.5t-26.5 -90q0 -39 28.5 -65.5t73.5 -26.5q33 0 69 7t54 15l20 8v-92q-61 -41 -143 -41q-90 0 -147.5 53.5t-57.5 131.5 q0 49 23.5 96t56.5 79.5t65.5 59.5t55.5 39l25 12v4v160h-2q-39 -76 -130.5 -135t-236.5 -59q-172 0 -280.5 118.5t-108.5 321.5z" glyph-name="uogonek" horiz-adv-x="1208" unicode="ų"/><glyph d="M20 1434h164l461 -758h10l461 758h164l-563 -912v-522h-133v522zM727 1741q0 39 26.5 65.5t65.5 26.5t65.5 -26.5t26.5 -65.5t-26.5 -65.5t-65.5 -26.5t-65.5 26.5t-26.5 65.5zM379 1741q0 39 26.5 65.5t65.5 26.5t65.5 -26.5t26.5 -65.5t-26.5 -65.5t-65.5 -26.5 t-65.5 26.5t-26.5 65.5z" glyph-name="Ydieresis" horiz-adv-x="1300" unicode="Ÿ"/><glyph d="M72 0v123l901 1177v11h-871v123h1045v-123l-901 -1178v-10h911v-123h-1085zM543 1618l184 297h154v-2l-236 -295h-102z" glyph-name="Zacute" unicode="Ź"/><glyph d="M61 0v113l656 796v2h-635v113h799v-113l-656 -796v-2h676v-113h-840zM420 1229l184 297h154v-2l-236 -295h-102z" glyph-name="zacute" horiz-adv-x="962" unicode="ź"/><glyph d="M72 0v123l901 1177v11h-871v123h1045v-123l-901 -1178v-10h911v-123h-1085zM532 1741q0 39 27 65.5t66 26.5t65.5 -26.5t26.5 -65.5t-26.5 -65.5t-65.5 -26.5t-66 26.5t-27 65.5z" glyph-name="Zdotaccent" unicode="Ż"/><glyph d="M61 0v113l656 796v2h-635v113h799v-113l-656 -796v-2h676v-113h-840zM399 1352q0 39 27 65.5t65.5 26.5t65.5 -26.5t27 -65.5t-27 -65.5t-65.5 -26.5t-65.5 26.5t-27 65.5z" glyph-name="zdotaccent" horiz-adv-x="962" unicode="ż"/><glyph d="M72 0v123l901 1177v11h-871v123h1045v-123l-901 -1178v-10h911v-123h-1085zM328 1913v2h123l153 -205h31l153 205h123v-2l-225 -295h-133z" glyph-name="Zcaron" unicode="Ž"/><glyph d="M61 0v113l656 796v2h-635v113h799v-113l-656 -796v-2h676v-113h-840zM195 1524v2h122l154 -205h31l153 205h123v-2l-225 -295h-133z" glyph-name="zcaron" horiz-adv-x="962" unicode="ž"/><glyph d="M-154 -389v113h308l174 1187h-123v113h143l62 410h430v-113h-328l-41 -297h266v-113h-286l-195 -1300h-410z" glyph-name="florin" horiz-adv-x="727" unicode="ƒ"/><glyph d="M481 1761q0 80 55.5 138.5t133.5 64.5l88 145h123v-2l-123 -155q59 -23 96 -75t37 -116q0 -84 -60.5 -144.5t-144.5 -60.5t-144.5 60.5t-60.5 144.5zM573 1761q0 -45 33 -78.5t80 -33.5t80 33.5t33 78.5t-33 79t-80 34t-80 -34t-33 -79zM51 0l379 1434h512l379 -1434 h-133l-123 471h-758l-123 -471h-133zM338 594h696l-194 717h-308z" glyph-name="Aringacute" horiz-adv-x="1372" unicode="Ǻ"/><glyph d="M389 1403q0 80 55.5 138t133.5 65l88 145h122v-2l-122 -156q59 -23 96 -75t37 -115q0 -84 -60.5 -144.5t-144.5 -60.5t-144.5 60.5t-60.5 144.5zM481 1403q0 -47 34 -80t79 -33t79 33t34 80t-34 80t-79 33t-79 -33t-34 -80zM92 512q0 227 144.5 379.5t347.5 152.5 q145 0 247.5 -70.5t139.5 -154.5h2v205h123v-1024h-123v205h-2q-37 -84 -139.5 -154.5t-247.5 -70.5q-203 0 -347.5 152.5t-144.5 379.5zM215 512q0 -180 111.5 -300t267.5 -120q152 0 265.5 120t113.5 300t-114 300t-265 120q-156 0 -267.5 -120t-111.5 -300z" glyph-name="aringacute" horiz-adv-x="1259" unicode="ǻ"/><glyph d="M51 0l379 1434h1454v-123h-799v-523h646v-122h-646v-543h799v-123h-932v471h-645l-123 -471h-133zM338 594h614v717h-420zM973 1618l184 297h154v-2l-236 -295h-102z" glyph-name="AEacute" horiz-adv-x="1976" unicode="Ǽ"/><glyph d="M123 287q0 135 101.5 221t287.5 86h369v68q0 127 -73 198.5t-204 71.5q-72 0 -131 -22.5t-92 -54.5t-55.5 -62.5t-30.5 -53.5l-8 -22h-123q2 14 9 35.5t40 78t77 99.5t128 78.5t186 35.5q78 0 143.5 -22.5t103.5 -53t64.5 -62.5t36.5 -54l11 -23h10q4 8 14 22.5t47 52.5 t80 65.5t116 51t152 23.5q215 0 358.5 -145t143.5 -367v-51h-880q8 -168 116.5 -278.5t261.5 -110.5q74 0 138.5 23.5t103.5 56.5t66.5 65.5t38.5 57.5l12 22h123q-4 -14 -14.5 -36.5t-49.5 -81t-89 -102.5t-138 -80.5t-191 -36.5q-88 0 -165.5 27.5t-123.5 66.5t-80 77.5 t-46 65.5l-15 29h-10q-4 -10 -15.5 -28.5t-50 -65t-87 -81t-131.5 -63t-177 -28.5q-166 0 -262 87t-96 220zM1004 594h747q-16 147 -116.5 242.5t-252 95.5t-252.5 -94t-126 -244zM246 287q0 -88 64.5 -141.5t191.5 -53.5q166 0 272.5 112.5t106.5 276.5h-369 q-133 0 -199.5 -53t-66.5 -141zM911 1229l185 297h153v-2l-235 -295h-103z" glyph-name="aeacute" horiz-adv-x="1976" unicode="ǽ"/><glyph d="M51 -10v153l172 142q-121 193 -121 432q0 328 211 543t527 215q330 0 542 -234l246 203v-154l-174 -143q123 -188 123 -430q0 -328 -211 -543t-526 -215q-334 0 -545 231zM236 717q0 -199 88 -350l962 794q-172 190 -446 191q-264 0 -434 -176t-170 -459zM393 272 q172 -190 447 -190q264 0 434 176t170 459q0 195 -88 348zM778 1618l185 297h153v-2l-235 -295h-103z" glyph-name="Oslashacute" horiz-adv-x="1679" unicode="Ǿ"/><glyph d="M82 -10v153l90 76q-80 127 -80 293q0 229 149.5 380.5t372.5 151.5q217 0 369 -147l164 137v-153l-90 -76q80 -131 80 -293q0 -229 -149.5 -380.5t-373.5 -151.5q-221 0 -368 147zM215 512q0 -119 51 -215l625 524q-111 111 -277 111q-170 0 -284.5 -119t-114.5 -301z M336 203q115 -111 278 -111q170 0 285 119t115 301q0 117 -51 213zM553 1229l184 297h154v-2l-236 -295h-102z" glyph-name="oslashacute" unicode="ǿ"/><glyph d="M92 379h133q4 -12 11.5 -31.5t41 -71t77.5 -91.5t127 -71.5t184 -31.5q190 0 294.5 82t104.5 205q0 90 -67.5 153.5t-169 94t-219 68.5t-219 78t-169 123t-67.5 199q0 160 135 275t356 115q131 0 235.5 -39t160 -94.5t91 -111.5t46.5 -95l10 -39h-133q-2 10 -8.5 27.5 t-36 61.5t-70.5 77.5t-119 61.5t-176 28q-170 0 -264 -77t-94 -190q0 -76 50 -132t131 -89t177 -61.5t193.5 -61t178.5 -76.5t131 -119t50 -177q0 -170 -144.5 -290t-387.5 -120q-137 0 -247 43t-168 104.5t-97 124t-52 105.5zM553 -287q0 31 27.5 56.5t64.5 25.5 q49 0 81 -40t32 -113q0 -90 -54.5 -148.5t-140.5 -66.5v61q113 16 113 113l-10 41q-10 -10 -31 -11q-82 0 -82 82z" glyph-name="Scommaaccent" horiz-adv-x="1300" unicode="Ș"/><glyph d="M82 307h133q2 -8 9 -22.5t34 -52t60.5 -65.5t97 -51.5t137.5 -23.5q139 0 207.5 51.5t68.5 132.5q0 61 -51 101.5t-129 58t-168 41t-167.5 50t-129 88t-51.5 153.5q0 115 101.5 195.5t277.5 80.5q100 0 181 -30.5t126 -73.5t75 -87t40 -75l8 -30h-133q-2 8 -8 20 t-28.5 44t-53.5 56.5t-86 44t-121 19.5q-123 0 -189.5 -48t-66.5 -116q0 -61 51 -101t129 -57.5t168 -41t168 -50t129 -88t51 -154.5q0 -129 -103.5 -212.5t-295.5 -83.5q-109 0 -198 33.5t-137 81.5t-81 96.5t-43 82.5zM430 -287q0 31 27.5 56.5t64.5 25.5q49 0 81 -40 t32 -113q0 -90 -54.5 -148.5t-140.5 -66.5v61q113 16 113 113l-10 41q-10 -10 -31 -11q-82 0 -82 82z" glyph-name="scommaaccent" horiz-adv-x="1044" unicode="ș"/><glyph d="M20 1311v123h1158v-123h-512v-1311h-134v1311h-512zM492 -287q0 31 27.5 56.5t64.5 25.5q49 0 80.5 -40t31.5 -113q0 -90 -54 -148.5t-140 -66.5v61q113 16 112 113l-10 41q-10 -10 -31 -11q-81 0 -81 82z" glyph-name="uni021A" horiz-adv-x="1198" unicode="Ț"/><glyph d="M51 911v113h144v225h122v-225h338v-113h-338v-798h349v-113h-471v911h-144zM338 -287q0 31 27.5 56.5t64.5 25.5q49 0 81 -40t32 -113q0 -90 -54.5 -148.5t-140.5 -66.5v61q113 16 113 113l-10 41q-10 -10 -31 -11q-82 0 -82 82z" glyph-name="uni021B" horiz-adv-x="727" unicode="ț"/><glyph d="M61 1352q0 31 28 56.5t65 25.5q49 0 80.5 -40t31.5 -114q0 -90 -54 -148.5t-140 -66.5v61q113 16 112 113l-10 41q-10 -10 -31 -10q-82 0 -82 82z" glyph-name="afii57929" horiz-adv-x="327" unicode="ʼ"/><glyph d="M61 1126v2l226 295h133l225 -295v-2h-123l-153 205h-31l-154 -205h-123z" glyph-name="circumflex" horiz-adv-x="706" unicode="ˆ"/><glyph d="M61 1421v2h123l154 -204h31l153 204h123v-2l-225 -295h-133z" glyph-name="caron" horiz-adv-x="706" unicode="ˇ"/><glyph d="M61 1393h113q0 -63 44 -103.5t120 -40.5t120 40t44 104h112q0 -102 -77.5 -174t-198.5 -72t-199 72t-78 174z" glyph-name="breve" horiz-adv-x="675" unicode="˘"/><glyph d="M61 1331q0 39 27 65.5t66 26.5t65.5 -26.5t26.5 -65.5t-26.5 -65.5t-65.5 -26.5t-66 26.5t-27 65.5z" glyph-name="dotaccent" horiz-adv-x="307" unicode="˙"/><glyph d="M61 1219q0 84 60.5 144t144.5 60t144.5 -60t60.5 -144t-60.5 -144.5t-144.5 -60.5t-144.5 60.5t-60.5 144.5zM154 1218.5q0 -47.5 33.5 -80t78.5 -32.5t79 32.5t34 80t-34 80t-79 32.5t-78.5 -32.5t-33.5 -80z" glyph-name="ring" horiz-adv-x="532" unicode="˚"/><glyph d="M61 -276q0 51 27 101t63.5 84t74.5 60.5t65 38.5l26 12l93 -20q-10 -4 -26.5 -12t-58.5 -35t-75 -55.5t-59.5 -73.5t-26.5 -90q0 -39 28.5 -65.5t73.5 -26.5q33 0 69 7t54 15l21 8v-92q-61 -41 -144 -41q-90 0 -147.5 53.5t-57.5 131.5z" glyph-name="ogonek" horiz-adv-x="471" unicode="˛"/><glyph d="M61 1188v53q0 76 49.5 124t125.5 48q45 0 85.5 -20.5t66.5 -46t56.5 -46t57.5 -20.5q31 0 51 20.5t20 51.5v51h103v-53q0 -76 -49 -124t-125 -48q-57 0 -106.5 33.5t-88.5 66.5t-71 33q-31 0 -51.5 -20.5t-20.5 -51.5v-51h-103z" glyph-name="tilde" horiz-adv-x="737" unicode="˜"/><glyph d="M358 1126l154 297h143v-2l-204 -295h-93zM61 1126l154 297h143v-2l-204 -295h-93z" glyph-name="hungarumlaut" horiz-adv-x="716" unicode="˝"/><glyph d="M-840 1690l144 235h123v-2l-185 -233h-82z" glyph-name="acutecomb" horiz-adv-x="0" unicode="́"/><glyph d="M-891 1556.5q0 83.5 60.5 144t144.5 60.5t144.5 -60.5t60.5 -144t-60.5 -144t-144.5 -60.5t-144.5 60.5t-60.5 144zM-799 1556.5q0 -45.5 33 -79t80 -33.5t80 33.5t33 79t-33 79t-80 33.5t-80 -33.5t-33 -79z" glyph-name="uni030A" horiz-adv-x="0" unicode="̊"/><glyph d="M184 0v1434h973v-123h-840v-523h687v-122h-687v-543h840v-123h-973zM766 1696q0 39 26.5 65.5t65.5 26.5t65.5 -26.5t26.5 -65.5t-26.5 -65.5t-65.5 -26.5t-65.5 26.5t-26.5 65.5zM418 1696q0 39 26.5 65.5t65.5 26.5t65.5 -26.5t26.5 -65.5t-26.5 -65.5t-65.5 -26.5 t-65.5 26.5t-26.5 65.5z" glyph-name="afii10023" horiz-adv-x="1249" unicode="Ё"/><glyph d="M20 1311v123h1065v-123h-491v-451h389q227 0 364.5 -131t137.5 -340v-573h-430v123h297v450q0 162 -96.5 255t-272.5 93h-389v-737h-133v1311h-441z" glyph-name="afii10051" horiz-adv-x="1587" unicode="Ђ"/><glyph d="M184 0v1434h901v-123h-768v-1311h-133zM584 1587l184 297h154v-2l-236 -295h-102z" glyph-name="afii10052" horiz-adv-x="1126" unicode="Ѓ"/><glyph d="M102 716.5q0 327.5 211 543t527 215.5q115 0 215 -29t168.5 -74t126 -99t90.5 -108.5t56.5 -99.5t31.5 -74l8 -28h-133q-4 16 -15.5 41.5t-56.5 93t-102.5 119t-161.5 93.5t-227 42q-250 0 -416 -157t-188 -407h645v-122h-645q16 -256 184 -420t420 -164q92 0 173 23.5 t137 60.5t103 81t76 89t48.5 82t27.5 61l8 23h133q-2 -12 -9 -31.5t-32.5 -76t-58.5 -107.5t-92.5 -113.5t-128 -108t-170 -76t-215.5 -30.5q-315 0 -526.5 215t-211.5 542.5z" glyph-name="afii10053" horiz-adv-x="1638" unicode="Є"/><glyph d="M92 379h133q4 -12 11.5 -31.5t41 -71t77.5 -91.5t127 -71.5t184 -31.5q190 0 294.5 82t104.5 205q0 90 -67.5 153.5t-169 94t-219 68.5t-219 78t-169 123t-67.5 199q0 160 135 275t356 115q131 0 235.5 -39t160 -94.5t91 -111.5t46.5 -95l10 -39h-133q-2 10 -8.5 27.5 t-36 61.5t-70.5 77.5t-119 61.5t-176 28q-170 0 -264 -77t-94 -190q0 -76 50 -132t131 -89t177 -61.5t193.5 -61t178.5 -76.5t131 -119t50 -177q0 -170 -144.5 -290t-387.5 -120q-137 0 -247 43t-168 104.5t-97 124t-52 105.5z" glyph-name="afii10054" horiz-adv-x="1300" unicode="Ѕ"/><glyph d="M184 0v1434h133v-1434h-133z" glyph-name="afii10055" horiz-adv-x="501" unicode="І"/><glyph d="M184 0v1434h133v-1434h-133zM338 1696q0 39 26.5 65.5t65.5 26.5t65.5 -26.5t26.5 -65.5t-26.5 -65.5t-65.5 -26.5t-65.5 26.5t-26.5 65.5zM-10 1696q0 39 26.5 65.5t65.5 26.5t65.5 -26.5t26.5 -65.5t-26.5 -65.5t-65.5 -26.5t-65.5 26.5t-26.5 65.5z" glyph-name="afii10056" horiz-adv-x="501" unicode="Ї"/><glyph d="M0 317l133 31q2 -10 8 -28.5t32 -64.5t61.5 -81t101 -63.5t145.5 -28.5q156 0 247 97t91 272v983h133v-983q0 -229 -127 -360.5t-344 -131.5q-113 0 -203 37t-140 90t-82.5 105.5t-43.5 89.5z" glyph-name="afii10057" horiz-adv-x="1126" unicode="Ј"/><glyph d="M51 0l369 1434h696v-512h420q233 0 372.5 -129t139.5 -332t-139.5 -332t-372.5 -129h-553v1311h-471l-328 -1311h-133zM1116 123h420q182 0 280.5 91t98.5 246.5t-98.5 247t-280.5 91.5h-420v-676z" glyph-name="afii10058" horiz-adv-x="2119" unicode="Љ"/><glyph d="M184 0v1434h133v-574h809v574h134v-574h450q233 0 367.5 -121t134.5 -309t-134 -309t-368 -121h-584v737h-809v-737h-133zM1260 123h450q180 0 274.5 83t94.5 224t-94.5 224t-274.5 83h-450v-614z" glyph-name="afii10059" horiz-adv-x="2283" unicode="Њ"/><glyph d="M20 1311v123h1065v-123h-491v-451h389q227 0 364.5 -131t137.5 -340v-389h-133v389q0 162 -96.5 255t-272.5 93h-389v-737h-133v1311h-441z" glyph-name="afii10060" horiz-adv-x="1587" unicode="Ћ"/><glyph d="M184 0v1434h133v-646h318l461 646h164l-502 -697l522 -737h-164l-471 666h-328v-666h-133zM625 1587l184 297h154v-2l-236 -295h-102z" glyph-name="afii10061" horiz-adv-x="1300" unicode="Ќ"/><glyph d="M31 1434h143l297 -768h297l307 768h144l-574 -1434h-143l215 543h-338zM317 1864h113q0 -78 52.5 -126t142.5 -48t142 48t52 126h113q0 -117 -86 -197t-221.5 -80t-221.5 80t-86 197z" glyph-name="afii10062" unicode="Ў"/><glyph d="M184 0v1434h133v-1311h830v1311h133v-1434h-481v-287h-133v287h-482z" glyph-name="afii10145" horiz-adv-x="1464" unicode="Џ"/><glyph d="M51 0l379 1434h512l379 -1434h-133l-123 471h-758l-123 -471h-133zM338 594h696l-194 717h-308z" glyph-name="afii10017" horiz-adv-x="1372" unicode="А"/><glyph d="M184 0v1434h983v-123h-850v-430h451q225 0 363.5 -126t138.5 -314.5t-138.5 -314.5t-363.5 -126h-584zM317 123h451q172 0 270.5 88t98.5 229.5t-98.5 229.5t-270.5 88h-451v-635z" glyph-name="afii10018" horiz-adv-x="1372" unicode="Б"/><glyph d="M184 0v1434h666q182 0 296 -107.5t114 -271.5q0 -66 -20.5 -122t-48.5 -89t-56.5 -55.5t-49.5 -30.5l-20 -10v-11q10 -2 27.5 -8t61.5 -31.5t78 -59.5t61.5 -97.5t27.5 -141.5q0 -174 -127 -286.5t-344 -112.5h-666zM317 799h533q129 0 202.5 69.5t73.5 186t-73.5 186.5 t-202.5 70h-533v-512zM317 123h533q164 0 251 74.5t87 201.5t-87 202t-251 75h-533v-553z" glyph-name="afii10019" horiz-adv-x="1433" unicode="В"/><glyph d="M184 0v1434h901v-123h-768v-1311h-133z" glyph-name="afii10020" horiz-adv-x="1126" unicode="Г"/><glyph d="M10 -287v410h164l328 1311h491l328 -1311h164v-410h-133v287h-1209v-287h-133zM307 123h881l-297 1188h-287z" glyph-name="afii10021" horiz-adv-x="1495" unicode="Д"/><glyph d="M184 0v1434h973v-123h-840v-523h687v-122h-687v-543h840v-123h-973z" glyph-name="afii10022" horiz-adv-x="1249" unicode="Е"/><glyph d="M31 0l501 737l-481 697h164l440 -646h287v646h133v-646h287l440 646h164l-481 -697l502 -737h-164l-451 666h-297v-666h-133v666h-297l-450 -666h-164z" glyph-name="afii10024" horiz-adv-x="2017" unicode="Ж"/><glyph d="M72 399h133q2 -12 9 -33.5t38 -77t76 -96t132 -75.5t195 -35q193 0 296.5 84t103.5 213t-103.5 213t-296.5 84h-184v123h184q172 0 265.5 79.5t93.5 206.5q0 113 -94.5 190t-264.5 77q-94 0 -170.5 -30t-119.5 -72t-72 -84t-39 -72l-8 -29h-133q4 16 13 44t49 98.5 t94.5 124.5t156.5 98.5t229 44.5q221 0 356.5 -115t135.5 -275q0 -74 -25.5 -136t-61.5 -98t-72 -60.5t-62 -32.5l-25 -10v-11q12 -2 31.5 -8t69 -32.5t87 -62.5t68.5 -103.5t31 -151.5q0 -176 -144.5 -298t-388.5 -122q-102 0 -189 24.5t-145.5 63.5t-104.5 85t-72.5 93 t-44 86t-21.5 64z" glyph-name="afii10025" horiz-adv-x="1300" unicode="З"/><glyph d="M184 0v1434h133v-1260l-2 -20h2l799 1280h184v-1434h-133v1260l2 20h-2l-798 -1280h-185z" glyph-name="afii10026" horiz-adv-x="1484" unicode="И"/><glyph d="M184 0v1434h133v-1260l-2 -20h2l799 1280h184v-1434h-133v1260l2 20h-2l-798 -1280h-185zM446 1864h113q0 -78 52.5 -126t142.5 -48t142 48t52 126h113q0 -117 -86 -197t-221.5 -80t-221.5 80t-86 197z" glyph-name="afii10027" horiz-adv-x="1484" unicode="Й"/><glyph d="M184 0v1434h133v-646h318l461 646h164l-502 -697l522 -737h-164l-471 666h-328v-666h-133z" glyph-name="afii10028" horiz-adv-x="1300" unicode="К"/><glyph d="M51 0l369 1434h502l368 -1434h-133l-338 1311h-297l-338 -1311h-133z" glyph-name="afii10029" horiz-adv-x="1341" unicode="Л"/><glyph d="M184 0v1434h215l471 -953h134l471 953h215v-1434h-134v1290l3 21h-3l-471 -953h-297l-471 953l-2 -2l2 -19v-1290h-133z" glyph-name="afii10030" horiz-adv-x="1873" unicode="М"/><glyph d="M184 0v1434h133v-646h830v646h133v-1434h-133v666h-830v-666h-133z" glyph-name="afii10031" horiz-adv-x="1464" unicode="Н"/><glyph d="M102 716.5q0 327.5 211 543t526.5 215.5t526.5 -215.5t211 -543t-211 -542.5t-526.5 -215t-526.5 215t-211 542.5zM236 716.5q0 -282.5 169.5 -458.5t434 -176t434.5 176t170 458.5t-170 459t-434.5 176.5t-434 -176.5t-169.5 -459z" glyph-name="afii10032" horiz-adv-x="1679" unicode="О"/><glyph d="M184 0v1434h1096v-1434h-133v1311h-830v-1311h-133z" glyph-name="afii10033" horiz-adv-x="1464" unicode="П"/><glyph d="M184 0v1434h584q233 0 372.5 -129t139.5 -332t-139.5 -332t-372.5 -129h-451v-512h-133zM317 635h451q182 0 280.5 91t98.5 246.5t-98.5 247t-280.5 91.5h-451v-676z" glyph-name="afii10034" horiz-adv-x="1361" unicode="Р"/><glyph d="M102 716.5q0 327.5 211 543t527 215.5q115 0 215 -29t168.5 -74t126 -99t90.5 -108.5t56.5 -99.5t31.5 -74l8 -28h-133q-4 16 -15.5 41.5t-56.5 93t-102.5 119t-161.5 93.5t-227 42q-264 0 -434 -176.5t-170 -459t169.5 -458.5t434.5 -176q92 0 173 23.5t137 60.5t103 81 t76 89t48.5 82t27.5 61l8 23h133q-2 -12 -9 -31.5t-32.5 -76t-58.5 -107.5t-92.5 -113.5t-128 -108t-170 -76t-215.5 -30.5q-315 0 -526.5 215t-211.5 542.5z" glyph-name="afii10035" horiz-adv-x="1638" unicode="С"/><glyph d="M20 1311v123h1158v-123h-512v-1311h-134v1311h-512z" glyph-name="afii10036" horiz-adv-x="1198" unicode="Т"/><glyph d="M31 1434h143l297 -768h297l307 768h144l-574 -1434h-143l215 543h-338z" glyph-name="afii10037" unicode="У"/><glyph d="M92 727q0 260 204 443.5t533 191.5v164h134v-164q330 -8 533.5 -191.5t203.5 -443.5t-204 -443.5t-533 -191.5v-164h-134v164q-330 8 -533.5 191.5t-203.5 443.5zM963 215q276 8 440 153.5t164 358.5t-164 358.5t-440 153.5v-1024zM225 727q0 -213 164 -358.5t440 -153.5 v1024q-276 -8 -440 -153.5t-164 -358.5z" glyph-name="afii10038" horiz-adv-x="1792" unicode="Ф"/><glyph d="M51 0l389 717l-368 717h143l338 -656h184l338 656h144l-369 -717l389 -717h-143l-359 655h-184l-358 -655h-144z" glyph-name="afii10039" horiz-adv-x="1290" unicode="Х"/><glyph d="M184 0v1434h135v-1311h766v1311h134v-1311h184v-410h-133v287h-1086z" glyph-name="afii10040" horiz-adv-x="1454" unicode="Ц"/><glyph d="M154 952v482h133v-482q0 -170 100 -269t268 -99q109 0 209.5 33.5t145.5 66.5l45 33v717h133v-1434h-133v584q-18 -14 -52 -35t-143.5 -54.5t-224.5 -33.5q-215 0 -348 135t-133 356z" glyph-name="afii10041" horiz-adv-x="1372" unicode="Ч"/><glyph d="M184 0v1434h135v-1311h633v1311h133v-1311h635v1311h133v-1434h-1669z" glyph-name="afii10042" horiz-adv-x="2037" unicode="Ш"/><glyph d="M184 0v1434h135v-1311h633v1311h133v-1311h635v1311h133v-1311h185v-410h-133v287h-1721z" glyph-name="afii10043" horiz-adv-x="2088" unicode="Щ"/><glyph d="M0 1311v123h461v-512h430q233 0 372.5 -129t139.5 -332t-139.5 -332t-372.5 -129h-563v1311h-328zM461 123h430q182 0 280.5 91t98.5 246.5t-98.5 247t-280.5 91.5h-430v-676z" glyph-name="afii10044" horiz-adv-x="1474" unicode="Ъ"/><glyph d="M1434 0v1434h133v-1434h-133zM184 0v1434h133v-512h410q233 0 372.5 -129t139.5 -332t-139 -332t-373 -129h-543zM317 123h410q182 0 280.5 91t98.5 246.5t-98.5 247t-280.5 91.5h-410v-676z" glyph-name="afii10045" horiz-adv-x="1751" unicode="Ы"/><glyph d="M184 0v1434h133v-512h451q233 0 372.5 -129t139.5 -332t-139.5 -332t-372.5 -129h-584zM317 123h451q182 0 280.5 91t98.5 246.5t-98.5 247t-280.5 91.5h-451v-676z" glyph-name="afii10046" horiz-adv-x="1351" unicode="Ь"/><glyph d="M82 502h133q4 -16 15.5 -45t57.5 -101.5t104.5 -128t164 -100.5t231.5 -45q252 0 420 164t185 420h-645v122h645q-23 250 -189 407t-416 157q-123 0 -226 -40t-162.5 -97.5t-101.5 -115t-56 -95.5l-17 -41h-133q6 20 18.5 55t65.5 123t124 155.5t201 123t287 55.5 q315 0 526.5 -215.5t211.5 -543t-211 -542.5t-527 -215q-158 0 -288.5 56.5t-204.5 135t-125 158.5t-70 137z" glyph-name="afii10047" horiz-adv-x="1628" unicode="Э"/><glyph d="M184 0v1434h133v-646h256q23 293 223.5 490t483.5 197q295 0 501 -216.5t206 -542t-206 -541.5t-501 -216q-285 0 -484.5 199.5t-222.5 507.5h-256v-666h-133zM707 717q0 -279 165.5 -457t407.5 -178t407.5 178t165.5 457q0 274 -165.5 454.5t-407.5 180.5t-407.5 -180.5 t-165.5 -454.5z" glyph-name="afii10048" horiz-adv-x="2088" unicode="Ю"/><glyph d="M123 993q0 197 134 319t368 122h594v-1434h-136v553h-469l-327 -553h-154l338 573q-152 33 -250 144.5t-98 275.5zM256 993.5q0 -149.5 94 -233.5t275 -84h458v635h-458q-180 0 -274.5 -84t-94.5 -233.5z" glyph-name="afii10049" horiz-adv-x="1402" unicode="Я"/><glyph d="M92 512q0 227 144.5 379.5t347.5 152.5q145 0 247.5 -70.5t139.5 -154.5h2v205h123v-1024h-123v205h-2q-37 -84 -139.5 -154.5t-247.5 -70.5q-203 0 -347.5 152.5t-144.5 379.5zM215 512q0 -180 111.5 -300t267.5 -120q152 0 265.5 120t113.5 300t-114 300t-265 120 q-156 0 -267.5 -120t-111.5 -300z" glyph-name="afii10065" horiz-adv-x="1259" unicode="а"/><glyph d="M102 584q0 446 162 648t473 202h256v-113h-245q-242 0 -372 -139.5t-153 -433.5h2q4 8 12.5 21t41 46t72.5 58.5t107.5 47t145.5 21.5q193 0 332 -141.5t139 -339.5q0 -201 -142 -341t-349 -140q-223 0 -352.5 152.5t-129.5 451.5zM225 485q0 -176 101.5 -284.5 t257.5 -108.5q154 0 261 108.5t107 264.5q0 152 -107.5 258t-260.5 106q-152 0 -255.5 -100.5t-103.5 -243.5z" glyph-name="afii10066" horiz-adv-x="1146" unicode="б"/><glyph d="M164 0v1024h481q143 0 225 -73.5t82 -192.5q0 -57 -20.5 -101.5t-52 -67t-49 -31.5t-31.5 -13v-2q8 -2 24.5 -7.5t48 -23.5t57 -45t45 -74t19.5 -106q0 -127 -91 -207t-255 -80h-483zM287 594h358q90 0 137 41t47 113q0 164 -184 163h-358v-317zM287 113h358 q113 0 169 49t56 135t-56 135t-169 49h-358v-368z" glyph-name="afii10067" horiz-adv-x="1085" unicode="в"/><glyph d="M164 0v1024h686v-113h-563v-911h-123z" glyph-name="afii10068" horiz-adv-x="870" unicode="г"/><glyph d="M10 -246v359h113l246 911h389l246 -911h112v-359h-112v246h-881v-246h-113zM246 113h635l-215 798h-205z" glyph-name="afii10069" horiz-adv-x="1126" unicode="д"/><glyph d="M92 512q0 229 147.5 380.5t364.5 151.5q215 0 363.5 -150.5t148.5 -371.5v-51h-901q8 -162 118.5 -270.5t270.5 -108.5q78 0 144.5 23.5t105.5 56.5t67.5 65.5t41.5 57.5l10 22h123q-4 -14 -14.5 -36.5t-50.5 -81t-90 -102.5t-140 -80.5t-197 -36.5q-217 0 -364.5 151.5 t-147.5 380.5zM215 584h768q-16 147 -121.5 247.5t-257.5 100.5q-150 0 -257 -99t-132 -249z" glyph-name="afii10070" horiz-adv-x="1208" unicode="е"/><glyph d="M10 0l400 532l-369 492h143l328 -430h205v430h123v-430h204l328 430h144l-369 -492l399 -532h-143l-359 481h-204v-481h-123v481h-205l-358 -481h-144z" glyph-name="afii10072" horiz-adv-x="1556" unicode="ж"/><glyph d="M51 297h123q2 -8 6 -22.5t26.5 -49.5t53.5 -61.5t92.5 -49t139.5 -22.5q139 0 212.5 56.5t73.5 138.5t-70.5 133t-215.5 51h-123v113h123q256 0 256 174q0 74 -66 124t-190 50q-68 0 -122.5 -18.5t-83 -44t-49 -50t-26.5 -43.5l-6 -18h-123q2 12 8 31.5t36 68.5t71 87 t118.5 68.5t176.5 30.5q176 0 277 -80.5t101 -195.5q0 -61 -25.5 -109.5t-62.5 -73t-59.5 -35.5t-36.5 -15v-3q215 -72 215 -256q0 -129 -105.5 -212.5t-303.5 -83.5q-109 0 -195 32.5t-130 79.5t-72.5 93t-37.5 79z" glyph-name="afii10073" horiz-adv-x="993" unicode="з"/><glyph d="M164 0v1024h123v-829l-2 -21h2l594 850h143v-1024h-123v829l2 21h-2l-594 -850h-143z" glyph-name="afii10074" horiz-adv-x="1187" unicode="и"/><glyph d="M164 0v1024h123v-829l-2 -21h2l594 850h143v-1024h-123v829l2 21h-2l-594 -850h-143zM307 1413h113q0 -63 46 -103t128 -40t128 40t46 103h113q0 -102 -80 -174t-207 -72t-207 72t-80 174z" glyph-name="afii10075" horiz-adv-x="1187" unicode="й"/><glyph d="M164 0v1024h123v-430h245l338 430h144l-379 -492l409 -532h-143l-369 481h-245v-481h-123z" glyph-name="afii10076" horiz-adv-x="1054" unicode="к"/><glyph d="M41 0l287 1024h399l287 -1024h-123l-256 911h-215l-256 -911h-123z" glyph-name="afii10077" horiz-adv-x="1054" unicode="л"/><glyph d="M164 0v1024h184l338 -655h62l337 655h185v-1024h-123v860l2 21h-2l-328 -635h-205l-327 635h-2l2 -21v-860h-123z" glyph-name="afii10078" horiz-adv-x="1433" unicode="м"/><glyph d="M164 0v1024h123v-451h614v451h123v-1024h-123v461h-614v-461h-123z" glyph-name="afii10079" horiz-adv-x="1187" unicode="н"/><glyph d="M92 512q0 229 149.5 380.5t373 151.5t373 -151.5t149.5 -380.5t-149.5 -380.5t-373 -151.5t-373 151.5t-149.5 380.5zM215 512q0 -182 114.5 -301t284.5 -119t285 119t115 301t-115 301t-285 119t-284.5 -119t-114.5 -301z" glyph-name="afii10080" unicode="о"/><glyph d="M164 0v1024h850v-1024h-123v911h-604v-911h-123z" glyph-name="afii10081" horiz-adv-x="1177" unicode="п"/><glyph d="M164 -389v1413h123v-205h2q37 84 139 154.5t248 70.5q203 0 347 -152.5t144 -379.5t-144 -379.5t-347 -152.5q-145 0 -247.5 70.5t-139.5 154.5h-2v-594h-123zM287 512q0 -180 113.5 -300t265.5 -120q156 0 267 120t111 300t-111.5 300t-266.5 120q-152 0 -265.5 -120 t-113.5 -300z" glyph-name="afii10082" horiz-adv-x="1259" unicode="р"/><glyph d="M92 512q0 227 146.5 379.5t355.5 152.5q109 0 199 -36.5t140 -90t84 -105.5t46 -89l12 -37h-123q-4 10 -11 26.5t-35.5 58.5t-65.5 75t-102.5 59.5t-143.5 26.5q-156 0 -267.5 -120t-111.5 -300t111.5 -300t267.5 -120q80 0 147.5 27.5t106.5 66.5t66.5 78t37.5 68l11 26 h122q-4 -16 -12 -40.5t-46 -90t-87 -116t-141 -91t-205 -40.5q-209 0 -355.5 152.5t-146.5 379.5z" glyph-name="afii10083" horiz-adv-x="1167" unicode="с"/><glyph d="M10 911v113h860v-113h-368v-911h-123v911h-369z" glyph-name="afii10084" horiz-adv-x="880" unicode="т"/><glyph d="M51 1024h133l236 -911h194l267 911h133l-420 -1413h-133l123 389h-256z" glyph-name="afii10085" horiz-adv-x="1034" unicode="у"/><glyph d="M82 512q0 215 151.5 364.5t380.5 157.5v400h123v-400q229 -8 381 -157.5t152 -364.5t-151.5 -364.5t-381.5 -157.5v-379h-123v379q-229 8 -380.5 157.5t-151.5 364.5zM737 102q172 8 291 122t119 288t-119 287.5t-291 122.5v-820zM205 512q0 -174 118.5 -287.5 t290.5 -122.5v820q-172 -8 -290.5 -122t-118.5 -288z" glyph-name="afii10086" horiz-adv-x="1351" unicode="ф"/><glyph d="M20 0l308 522l-287 502h143l246 -440h133l246 440h143l-286 -502l307 -522h-144l-266 471h-133l-266 -471h-144z" glyph-name="afii10087" horiz-adv-x="993" unicode="х"/><glyph d="M164 0v1024h123v-911h573v911h123v-911h154v-359h-123v246h-850z" glyph-name="afii10088" horiz-adv-x="1177" unicode="ц"/><glyph d="M133 666v358h123v-358q0 -246 256 -246q86 0 166 23.5t117 45.5l34 23v512h123v-1024h-123v399q-14 -10 -39.5 -25.5t-108.5 -41t-169 -25.5q-176 0 -277.5 98.5t-101.5 260.5z" glyph-name="afii10089" horiz-adv-x="1116" unicode="ч"/><glyph d="M164 0v1024h123v-911h461v911h122v-911h461v911h123v-1024h-1290z" glyph-name="afii10090" horiz-adv-x="1617" unicode="ш"/><glyph d="M164 0v1024h123v-911h461v911h122v-911h461v911h123v-911h154v-359h-123v246h-1321z" glyph-name="afii10091" horiz-adv-x="1648" unicode="щ"/><glyph d="M0 911v113h358v-369h297q166 0 267.5 -93t101.5 -234.5t-101.5 -234.5t-267.5 -93h-419v911h-236zM358 113h297q113 0 179.5 60t66.5 154.5t-66.5 155t-179.5 60.5h-297v-430z" glyph-name="afii10092" horiz-adv-x="1085" unicode="ъ"/><glyph d="M1085 0v1024h123v-1024h-123zM164 0v1024h123v-369h276q166 0 267.5 -93t101.5 -234.5t-101.5 -234.5t-267.5 -93h-399zM287 113h276q113 0 179.5 60t66.5 154.5t-66.5 155t-179.5 60.5h-276v-430z" glyph-name="afii10093" horiz-adv-x="1372" unicode="ы"/><glyph d="M164 0v1024h123v-369h317q166 0 267.5 -93t101.5 -234.5t-101.5 -234.5t-267.5 -93h-440zM287 113h317q113 0 179.5 60t66.5 154.5t-66.5 155t-179.5 60.5h-317v-430z" glyph-name="afii10094" horiz-adv-x="1034" unicode="ь"/><glyph d="M72 358h123q4 -10 11 -28.5t36.5 -64.5t66.5 -80.5t105.5 -63.5t148.5 -29q145 0 251 103.5t128 265.5h-461v112h461q-23 156 -128 257.5t-251 101.5q-78 0 -142.5 -25.5t-102 -61.5t-65.5 -72t-38 -60l-10 -27h-123q4 14 12 39t45 86t86 108.5t139.5 86t198.5 38.5 q209 0 355.5 -152.5t146.5 -379.5t-146.5 -379.5t-355.5 -152.5q-113 0 -204 38.5t-142 94t-86 112t-47 94.5z" glyph-name="afii10095" horiz-adv-x="1157" unicode="э"/><glyph d="M164 0v1024h123v-461h184q23 209 163 345t339 136q209 0 355.5 -152.5t146.5 -379.5t-146.5 -379.5t-355.5 -152.5q-197 0 -338 134t-164 337h-184v-451h-123zM594 512q0 -180 111.5 -300t267 -120t267.5 120t112 300t-112 300t-267.5 120t-267 -120t-111.5 -300z" glyph-name="afii10096" horiz-adv-x="1566" unicode="ю"/><glyph d="M123 0l215 379q-84 25 -149.5 108.5t-65.5 198.5q0 141 106.5 239.5t272.5 98.5h450v-1024h-123v348h-378l-185 -348h-143zM246 686q0 -94 71.5 -159.5t184.5 -65.5h327v450h-327q-113 0 -184.5 -65.5t-71.5 -159.5z" glyph-name="afii10097" horiz-adv-x="1116" unicode="я"/><glyph d="M92 512q0 229 147.5 380.5t364.5 151.5q215 0 363.5 -150.5t148.5 -371.5v-51h-901q8 -162 118.5 -270.5t270.5 -108.5q78 0 144.5 23.5t105.5 56.5t67.5 65.5t41.5 57.5l10 22h123q-4 -14 -14.5 -36.5t-50.5 -81t-90 -102.5t-140 -80.5t-197 -36.5q-217 0 -364.5 151.5 t-147.5 380.5zM215 584h768q-16 147 -121.5 247.5t-257.5 100.5q-150 0 -257 -99t-132 -249zM676 1280q0 39 26.5 65.5t65.5 26.5t65.5 -26.5t26.5 -65.5t-26.5 -65.5t-65.5 -26.5t-65.5 26.5t-26.5 65.5zM328 1280q0 39 26.5 65.5t65.5 26.5t65.5 -26.5t26.5 -65.5 t-26.5 -65.5t-65.5 -26.5t-65.5 26.5t-26.5 65.5z" glyph-name="afii10071" horiz-adv-x="1208" unicode="ё"/><glyph d="M31 1085v113h143v236h123v-236h266v-113h-266v-399h2q39 76 130 135.5t237 59.5q172 0 280.5 -119t108.5 -322v-829h-430v113h307v716q0 158 -77 243t-210 85q-147 0 -247.5 -104.5t-100.5 -264.5v-399h-123v1085h-143z" glyph-name="afii10099" horiz-adv-x="1177" unicode="ђ"/><glyph d="M164 0v1024h686v-113h-563v-911h-123zM451 1167l184 297h153v-2l-235 -295h-102z" glyph-name="afii10100" horiz-adv-x="870" unicode="ѓ"/><glyph d="M92 512q0 227 146.5 379.5t355.5 152.5q109 0 199 -36.5t140 -90t84 -105.5t46 -89l12 -37h-123q-4 10 -11 26.5t-35.5 58.5t-65.5 75t-102.5 59.5t-143.5 26.5q-143 0 -249.5 -101.5t-129.5 -257.5h461v-112h-461q23 -162 128.5 -265.5t250.5 -103.5q80 0 147.5 27.5 t106.5 66.5t66.5 78t37.5 68l11 26h122q-4 -16 -12 -40.5t-46 -90t-87 -116t-141 -91t-205 -40.5q-209 0 -355.5 152.5t-146.5 379.5z" glyph-name="afii10101" horiz-adv-x="1167" unicode="є"/><glyph d="M82 307h133q2 -8 9 -22.5t34 -52t60.5 -65.5t97 -51.5t137.5 -23.5q139 0 207.5 51.5t68.5 132.5q0 61 -51 101.5t-129 58t-168 41t-167.5 50t-129 88t-51.5 153.5q0 115 101.5 195.5t277.5 80.5q100 0 181 -30.5t126 -73.5t75 -87t40 -75l8 -30h-133q-2 8 -8 20 t-28.5 44t-53.5 56.5t-86 44t-121 19.5q-123 0 -189.5 -48t-66.5 -116q0 -61 51 -101t129 -57.5t168 -41t168 -50t129 -88t51 -154.5q0 -129 -103.5 -212.5t-295.5 -83.5q-109 0 -198 33.5t-137 81.5t-81 96.5t-43 82.5z" glyph-name="afii10102" horiz-adv-x="1044" unicode="ѕ"/><glyph d="M133 1331q0 39 26.5 65.5t65.5 26.5t65.5 -26.5t26.5 -65.5t-26.5 -65.5t-65.5 -26.5t-65.5 26.5t-26.5 65.5zM164 0v1024h123v-1024h-123z" glyph-name="afii10103" horiz-adv-x="450" unicode="і"/><glyph d="M164 0v1024h123v-1024h-123zM307 1290q0 39 26.5 65.5t65.5 26.5t66 -26.5t27 -65.5t-27 -65.5t-66 -26.5t-65.5 26.5t-26.5 65.5zM-41 1290q0 39 26.5 65.5t65.5 26.5t65.5 -26.5t26.5 -65.5t-26.5 -65.5t-65.5 -26.5t-65.5 26.5t-26.5 65.5z" glyph-name="afii10104" horiz-adv-x="450" unicode="ї"/><glyph d="M133 1331q0 39 26.5 65.5t65.5 26.5t65.5 -26.5t26.5 -65.5t-26.5 -65.5t-65.5 -26.5t-65.5 26.5t-26.5 65.5zM-133 -389v113h297v1300h123v-1413h-420z" glyph-name="afii10105" horiz-adv-x="450" unicode="ј"/><glyph d="M41 0l287 1024h532v-369h297q166 0 267.5 -93t101.5 -234.5t-101.5 -234.5t-267.5 -93h-420v911h-317l-256 -911h-123zM860 113h297q113 0 179.5 60t66.5 154.5t-66.5 155t-179.5 60.5h-297v-430z" glyph-name="afii10106" horiz-adv-x="1587" unicode="љ"/><glyph d="M164 0v1024h123v-410h594v410h123v-410h317q158 0 253 -87t95 -220t-95 -220t-253 -87h-440v502h-594v-502h-123zM1004 113h317q104 0 164.5 54t60.5 140t-60.5 140.5t-164.5 54.5h-317v-389z" glyph-name="afii10107" horiz-adv-x="1730" unicode="њ"/><glyph d="M31 1085v113h143v236h123v-236h266v-113h-266v-399h2q39 76 130 135.5t237 59.5q172 0 280.5 -119t108.5 -322v-440h-123v440q0 158 -77 243t-210 85q-147 0 -247.5 -104.5t-100.5 -264.5v-399h-123v1085h-143z" glyph-name="afii10108" horiz-adv-x="1177" unicode="ћ"/><glyph d="M164 0v1024h123v-430h245l338 430h144l-379 -492l409 -532h-143l-369 481h-245v-481h-123zM487 1149l185 297h153v-2l-235 -295h-103z" glyph-name="afii10109" horiz-adv-x="1054" unicode="ќ"/><glyph d="M51 1024h133l236 -911h194l267 911h133l-420 -1413h-133l123 389h-256zM246 1413h112q0 -63 46.5 -103t128 -40t128 40t46.5 103h112q0 -102 -80 -174t-206.5 -72t-206.5 72t-80 174z" glyph-name="afii10110" horiz-adv-x="1034" unicode="ў"/><glyph d="M164 0v1024h123v-911h604v911h123v-1024h-359v-246h-123v246h-368z" glyph-name="afii10193" horiz-adv-x="1177" unicode="џ"/><glyph d="M184 0v1434h768v204h133v-327h-768v-1311h-133z" glyph-name="afii10050" horiz-adv-x="1126" unicode="Ґ"/><glyph d="M164 0v1024h563v184h123v-297h-563v-911h-123z" glyph-name="afii10098" horiz-adv-x="870" unicode="ґ"/><glyph d="M174 0v942q0 236 136 364t407 128h526v-125l-383 -418v-10q227 -14 354 -134t127 -307q0 -190 -144 -315t-398 -125h-144v123h144q193 0 301 90t108 227.5t-108.5 227.5t-300.5 90h-103v133l369 409h-348q-221 0 -315.5 -87t-94.5 -279v-934h-133z" glyph-name="uni1E9E" horiz-adv-x="1433" unicode="ẞ"/><glyph d="M123 492v112h1116v-112h-1116z" glyph-name="endash" horiz-adv-x="1361" unicode="–"/><glyph d="M123 492v112h1505v-112h-1505z" glyph-name="emdash" horiz-adv-x="1751" unicode="—"/><glyph d="M92 1208q0 104 55.5 167t149.5 79v-61q-123 -31 -123 -133l10 -41q20 10 41 10q31 0 56.5 -25.5t25.5 -56.5q0 -45 -28.5 -74t-73.5 -29q-49 0 -81 42t-32 122z" glyph-name="quoteleft" horiz-adv-x="399" unicode="‘"/><glyph d="M92 1352q0 45 27.5 73.5t75.5 28.5q49 0 80.5 -42t31.5 -122q0 -104 -55 -166.5t-150 -79.5v62q123 31 123 133l-10 41q-20 -10 -41 -10q-31 0 -56.5 25.5t-25.5 56.5z" glyph-name="quoteright" horiz-adv-x="399" unicode="’"/><glyph d="M92 61q0 45 27.5 74t75.5 29q49 0 80.5 -42t31.5 -122q0 -104 -55 -166.5t-150 -79.5v62q123 31 123 133l-10 41q-20 -10 -41 -10q-31 0 -56.5 25t-25.5 56z" glyph-name="quotesinglbase" horiz-adv-x="399" unicode="‚"/><glyph d="M92 1208q0 104 55.5 167t149.5 79v-61q-123 -31 -123 -133l10 -41q20 10 41 10q31 0 56.5 -25.5t25.5 -56.5q0 -45 -28.5 -74t-73.5 -29q-49 0 -81 42t-32 122zM379 1208q0 104 55 167t150 79v-61q-123 -31 -123 -133l10 -41q20 10 41 10q31 0 56.5 -25.5t25.5 -56.5 q0 -45 -28.5 -74t-73.5 -29q-49 0 -81 42t-32 122z" glyph-name="quotedblleft" horiz-adv-x="686" unicode="“"/><glyph d="M92 1352q0 45 27.5 73.5t75.5 28.5q49 0 80.5 -42t31.5 -122q0 -104 -55 -166.5t-150 -79.5v62q123 31 123 133l-10 41q-20 -10 -41 -10q-31 0 -56.5 25.5t-25.5 56.5zM379 1352q0 45 27.5 73.5t74.5 28.5q49 0 81 -42t32 -122q0 -104 -55.5 -166.5t-149.5 -79.5v62 q123 31 123 133l-10 41q-20 -10 -41 -10q-31 0 -56.5 25.5t-25.5 56.5z" glyph-name="quotedblright" horiz-adv-x="686" unicode="”"/><glyph d="M92 61q0 45 27.5 74t75.5 29q49 0 80.5 -42t31.5 -122q0 -104 -55 -166.5t-150 -79.5v62q123 31 123 133l-10 41q-20 -10 -41 -10q-31 0 -56.5 25t-25.5 56zM379 61q0 45 27.5 74t74.5 29q49 0 81 -42t32 -122q0 -104 -55.5 -166.5t-149.5 -79.5v62q123 31 123 133 l-10 41q-20 -10 -41 -10q-31 0 -56.5 25t-25.5 56z" glyph-name="quotedblbase" horiz-adv-x="686" unicode="„"/><glyph d="M102 901v123h308v410h122v-410h308v-123h-308v-901h-122v901h-308z" glyph-name="dagger" horiz-adv-x="942" unicode="†"/><glyph d="M102 328v123h308v532h-308v123h308v328h122v-328h308v-123h-308v-532h308v-123h-308v-328h-122v328h-308z" glyph-name="daggerdbl" horiz-adv-x="942" unicode="‡"/><glyph d="M246 573.5q0 53.5 40 93.5t93 40t93 -40t40 -93.5t-40 -93.5t-93 -40t-93 40t-40 93.5z" glyph-name="bullet" horiz-adv-x="757" unicode="•"/><glyph d="M92 72q0 47 27.5 74.5t75 27.5t75 -27.5t27.5 -74.5t-27.5 -75t-74.5 -28q-45 0 -74 29t-29 74zM532 72q0 47 28 74.5t75 27.5q45 0 73.5 -27.5t28.5 -74.5t-28.5 -75t-73.5 -28t-74 29t-29 74zM973 72q0 47 27.5 74.5t74.5 27.5t75 -27.5t28 -74.5t-28 -75t-75 -28 q-45 0 -73.5 29t-28.5 74z" glyph-name="ellipsis" horiz-adv-x="1269" unicode="…"/><glyph d="M82 1116q0 137 100.5 237.5t237.5 100.5t237.5 -100.5t100.5 -237.5t-100.5 -237.5t-237.5 -100.5t-237.5 100.5t-100.5 237.5zM287 0l860 1434h133l-860 -1434h-133zM205 1116q0 -98 61.5 -161.5t153.5 -63.5t153.5 63.5t61.5 161.5t-61.5 161.5t-153.5 63.5 t-153.5 -63.5t-61.5 -161.5zM1556 317.5q0 137.5 100.5 237.5t238 100t237.5 -100t100 -237.5t-100 -237.5t-237.5 -100t-238 100t-100.5 237.5zM799 317.5q0 137.5 100 237.5t237.5 100t238 -100t100.5 -237.5t-100.5 -237.5t-238 -100t-237.5 100t-100 237.5zM1679 317.5 q0 -98.5 61.5 -162t154 -63.5t153.5 63.5t61 162t-61 162t-153.5 63.5t-154 -63.5t-61.5 -162zM922 317.5q0 -98.5 61 -162t153.5 -63.5t154 63.5t61.5 162t-61.5 162t-154 63.5t-153.5 -63.5t-61 -162z" glyph-name="perthousand" horiz-adv-x="2314" unicode="‰"/><glyph d="M82 512l471 481l82 -82l-389 -399l389 -399l-82 -82z" glyph-name="guilsinglleft" horiz-adv-x="727" unicode="‹"/><glyph d="M92 113l389 399l-389 399l82 82l471 -481l-471 -481z" glyph-name="guilsinglright" horiz-adv-x="727" unicode="›"/><glyph d="M-358 0l880 1434h123l-881 -1434h-122z" glyph-name="fraction" horiz-adv-x="286" unicode="⁄"/><glyph d="M61 1290q0 166 91.5 267.5t226.5 101.5q133 0 225 -101.5t92 -267.5t-92 -267t-225 -101q-135 0 -226.5 101t-91.5 267zM184 1290q0 -121 54.5 -188.5t140.5 -67.5t140 67.5t54 188.5t-54 188.5t-140 67.5t-140.5 -67.5t-54.5 -188.5z" glyph-name="uni2070" horiz-adv-x="757" unicode="⁰"/><glyph d="M41 1096v112l276 430h134l-277 -430h225v144h123v-144h103v-112h-103v-154h-123v154h-358z" glyph-name="uni2074" horiz-adv-x="655" unicode="⁴"/><glyph d="M82 1137h133q2 -4 4 -11.5t14.5 -25t27.5 -30.5t44 -24.5t64 -11.5q164 0 163 133q0 49 -45 86t-118 37q-41 0 -77 -15t-50 -30l-17 -16l-112 20l20 389h461v-112h-348l-13 -174h3q51 51 153 51q121 0 193.5 -66.5t72.5 -169.5q0 -111 -74.5 -178t-203.5 -67 q-72 0 -128 22.5t-86 53t-49.5 62.5t-25.5 54z" glyph-name="uni2075" horiz-adv-x="706" unicode="⁵"/><glyph d="M51 1167q0 123 103 246l184 225h143l-153 -186l-62 -49v-10q41 20 72 20q127 0 207 -71.5t80 -174t-80 -174t-207 -71.5t-207 71.5t-80 173.5zM174 1167.5q0 -55.5 45 -94.5t119 -39t119 39t45 94.5t-45 94t-119 38.5t-119 -38.5t-45 -94z" glyph-name="uni2076" horiz-adv-x="675" unicode="⁶"/><glyph d="M41 1526v112h522v-112l-307 -584h-133l307 582v2h-389z" glyph-name="uni2077" horiz-adv-x="583" unicode="⁷"/><glyph d="M72 1126q0 59 35.5 102.5t72.5 57.5l35 14v11q-4 2 -12 5t-27.5 16.5t-34 29.5t-27 44t-12.5 58q0 82 73 138.5t204 56.5t203.5 -56.5t72.5 -138.5q0 -49 -28.5 -88t-57.5 -53l-26 -12v-11l15 -5t33.5 -17t44 -32.5t35 -50.5t15.5 -69q0 -84 -81 -144t-226.5 -60t-226 60 t-80.5 144zM236 1456q0 -94 143 -94t143 94q0 90 -143 90t-143 -90zM195 1137q0 -43 46 -73t138 -30t138 30t46 73t-46 72.5t-138 29.5t-138 -29.5t-46 -72.5z" glyph-name="uni2078" horiz-adv-x="757" unicode="⁸"/><glyph d="M51 1413.5q0 102.5 80 174t207 71.5t207 -71.5t80 -174.5q0 -123 -103 -246l-184 -225h-143l153 186l62 50v10q-41 -20 -72 -21q-127 0 -207 72t-80 174.5zM174 1413q0 -55 45 -94t119 -39t119 39t45 94t-45 94t-119 39t-119 -39t-45 -94z" glyph-name="uni2079" horiz-adv-x="675" unicode="⁹"/><glyph d="M61 143q0 166 91.5 267.5t226.5 101.5q133 0 225 -101.5t92 -267.5t-92 -267t-225 -101q-135 0 -226.5 101t-91.5 267zM184 143.5q0 -120.5 54.5 -188.5t140.5 -68t140 68t54 188.5t-54 188t-140 67.5t-140.5 -67.5t-54.5 -188z" glyph-name="uni2080" horiz-adv-x="757" unicode="₀"/><glyph d="M113 -205v113h204v450l-184 -112v133l195 113h112v-584h195v-113h-522z" glyph-name="uni2081" horiz-adv-x="696" unicode="₁"/><glyph d="M72 -205v113l174 102q145 86 205.5 145.5t60.5 120.5q0 55 -40 89t-114 34q-57 0 -98 -30.5t-53 -61.5l-12 -31h-123q2 10 6 25.5t24.5 56.5t49 72t84 56.5t122.5 25.5q127 0 202 -66.5t75 -169.5q0 -201 -348 -358l-11 -6l-10 -4v-2l21 2h358v-113h-573z" glyph-name="uni2082" horiz-adv-x="716" unicode="₂"/><glyph d="M61 -10h134q2 -4 4 -11.5t15 -24.5t29.5 -30.5t47.5 -25t67 -11.5q74 0 114 34t40 89q0 49 -41 81t-121 32h-145v102l215 154v2l-21 -2h-297v113h492v-113l-195 -139l-20 -13v-2h10q106 0 176 -65.5t70 -159.5q0 -96 -75 -160.5t-202 -64.5q-72 0 -129 22.5t-86.5 53 t-49 62.5t-25.5 54z" glyph-name="uni2083" horiz-adv-x="706" unicode="₃"/><glyph d="M41 -51v112l276 431h134l-277 -431h225v144h123v-144h103v-112h-103v-154h-123v154h-358z" glyph-name="uni2084" horiz-adv-x="655" unicode="₄"/><glyph d="M82 -10h133q2 -4 4 -11.5t14.5 -24.5t27.5 -30.5t44 -25t64 -11.5q164 0 163 133q0 49 -45 86t-118 37q-41 0 -77 -15t-50 -30l-17 -16l-112 20l20 390h461v-113h-348l-13 -174h3q51 51 153 51q121 0 193.5 -66.5t72.5 -169.5q0 -111 -74.5 -178t-203.5 -67 q-72 0 -128 22.5t-86 53t-49.5 62.5t-25.5 54z" glyph-name="uni2085" horiz-adv-x="706" unicode="₅"/><glyph d="M51 20q0 123 103 246l184 226h143l-153 -187l-62 -49v-10q41 20 72 20q127 0 207 -71.5t80 -174t-80 -174t-207 -71.5t-207 71.5t-80 173.5zM174 20.5q0 -55.5 45 -94.5t119 -39t119 39t45 94.5t-45 94.5t-119 39t-119 -39t-45 -94.5z" glyph-name="uni2086" horiz-adv-x="675" unicode="₆"/><glyph d="M41 379v113h522v-113l-307 -584h-133l307 582v2h-389z" glyph-name="uni2087" horiz-adv-x="583" unicode="₇"/><glyph d="M72 -20q0 59 35.5 102t72.5 57l35 15v10q-4 2 -12 5t-27.5 16.5t-34 29.5t-27 44t-12.5 58q0 82 73 138.5t204 56.5t203.5 -56.5t72.5 -138.5q0 -49 -28.5 -88t-57.5 -53l-26 -12v-10q6 -2 15 -5.5t33.5 -17.5t44 -32.5t35 -50.5t15.5 -68q0 -84 -81 -144.5t-226.5 -60.5 t-226 60.5t-80.5 144.5zM236 309q0 -94 143 -94t143 94q0 90 -143 90t-143 -90zM195 -10q0 -43 46 -73t138 -30t138 30t46 73t-46 72.5t-138 29.5t-138 -29.5t-46 -72.5z" glyph-name="uni2088" horiz-adv-x="757" unicode="₈"/><glyph d="M51 266.5q0 102.5 80 174t207 71.5t207 -71.5t80 -174.5q0 -123 -103 -246l-184 -225h-143l153 187l62 49v10q-41 -20 -72 -21q-127 0 -207 72t-80 174.5zM174 266.5q0 -55.5 45 -94.5t119 -39t119 39t45 94.5t-45 94t-119 38.5t-119 -38.5t-45 -94z" glyph-name="uni2089" horiz-adv-x="675" unicode="₉"/><glyph d="M41 512v113h127q-4 57 -4 92q0 31 4 92h-127v113h147q61 250 256 401.5t457 151.5q115 0 215.5 -29t169 -74t125.5 -99t90 -108.5t56.5 -99.5t31.5 -74l8 -28h-133q-4 16 -15 41.5t-56 93t-102.5 119t-162 93.5t-227.5 42q-209 0 -364.5 -117t-212.5 -313h577v-113h-600 q-4 -61 -4 -92q0 -35 4 -92h600v-113h-577q57 -199 211.5 -314.5t365.5 -115.5q92 0 173 23.5t137.5 60.5t103.5 81t75.5 89t48 82t27.5 61l9 23h133q-2 -12 -9.5 -31.5t-33 -76t-58 -107.5t-92 -113.5t-128 -108t-170 -76t-216.5 -30.5q-262 0 -456.5 151.5t-256.5 401.5 h-147z" glyph-name="Euro" horiz-adv-x="1699" unicode="€"/><glyph d="M113 799v123h809q10 6 25.5 20t41 61.5t25.5 102.5q0 106 -91.5 176t-267.5 70q-88 0 -160.5 -24.5t-113.5 -59.5t-68.5 -69t-38.5 -58l-8 -25h-133q4 14 12.5 39t46 86.5t90 108.5t151.5 86t222 39q227 0 359.5 -107.5t132.5 -261.5q0 -113 -72 -184h123v-123h-1085z M113 512v123h1085v-123h-809q-10 -6 -25.5 -20.5t-41 -61.5t-25.5 -102q0 -106 91 -176t267 -70q88 0 161 24.5t114 59.5t68.5 68.5t37.5 58.5l8 24h134q-4 -14 -12.5 -38.5t-46.5 -86t-90 -108.5t-151.5 -86t-222.5 -39q-227 0 -359 107.5t-132 261.5q0 115 69 184h-120z " glyph-name="uni20B4" horiz-adv-x="1310" unicode="₴"/><glyph d="M72 225v123h174v184h-174v123h174v779h522q233 0 372.5 -127t139.5 -324t-139.5 -324t-372.5 -127h-389v-184h522v-123h-522v-225h-133v225h-174zM379 655h389q180 0 279.5 89.5t99.5 239t-99.5 238.5t-279.5 89h-389v-656z" glyph-name="uni20BD" horiz-adv-x="1361" unicode="₽"/><glyph d="M1454 1126.5q0 139.5 94 233.5t233.5 94t233.5 -94t94 -233.5t-94 -233.5t-233.5 -94t-233.5 94t-94 233.5zM184 0v1434h205l737 -1270l11 -21h2l-2 21v1270h133v-1434h-205l-737 1270l-11 20h-2l2 -20v-1270h-133zM1577 1126.5q0 -92.5 59.5 -154t145.5 -61.5 t145.5 61.5t59.5 154t-59.5 153.5t-145.5 61t-145.5 -61t-59.5 -153.5zM1505 502v123h553v-123h-553z" glyph-name="afii61352" horiz-adv-x="2170" unicode="№"/><glyph d="M676 778v656h174l174 -369h41l174 369h174v-656h-113v522l3 21h-3l-174 -369h-163l-175 369h-2l2 -21v-522h-112zM20 1321v113h584v-113h-235v-543h-113v543h-236z" glyph-name="trademark" horiz-adv-x="1525" unicode="™"/><glyph d="M184 686v21l359 348h30v-307h1086v-103h-1086v-307h-30z" glyph-name="arrowleft" horiz-adv-x="1843" unicode="←"/><glyph d="M563 1075v31l348 358h21l348 -358v-31h-307v-1075h-103v1075h-307z" glyph-name="arrowup" horiz-adv-x="1843" unicode="↑"/><glyph d="M184 645v103h1086v307h30l359 -348v-21l-359 -348h-30v307h-1086z" glyph-name="arrowright" horiz-adv-x="1843" unicode="→"/><glyph d="M563 328v30h307v1076h103v-1076h307v-30l-348 -359h-21z" glyph-name="arrowdown" horiz-adv-x="1843" unicode="↓"/><glyph d="M379 737v512l20 21h512v-31l-215 -215l779 -778l-72 -72l-778 778l-215 -215h-31z" glyph-name="uni2196" horiz-adv-x="1843" unicode="↖"/><glyph d="M379 246l778 778l-215 215v31h512l21 -21v-512h-31l-215 215l-778 -778z" glyph-name="uni2197" horiz-adv-x="1843" unicode="↗"/><glyph d="M379 1198l72 72l778 -778l215 215h31v-512l-21 -21h-512v31l215 215z" glyph-name="uni2198" horiz-adv-x="1843" unicode="↘"/><glyph d="M379 195v512h31l215 -215l778 778l72 -72l-779 -778l215 -215v-31h-512z" glyph-name="uni2199" horiz-adv-x="1843" unicode="↙"/><glyph d="M123 522v123h778v-123h-778z" glyph-name="minus" horiz-adv-x="1024" unicode="−"/><glyph d="M113 594v31q0 100 64.5 162.5t170.5 62.5q55 0 104.5 -23.5t79 -53.5t68.5 -53.5t76 -23.5q113 0 112 113v31h123v-31q0 -100 -64.5 -162.5t-170.5 -62.5q-55 0 -104.5 23.5t-79 53t-68.5 53t-76 23.5q-113 0 -112 -112v-31h-123zM113 256v31q0 100 64.5 162.5 t170.5 62.5q70 0 128.5 -39t106.5 -77t93 -38q113 0 112 113v31h123v-31q0 -100 -64.5 -162.5t-170.5 -62.5q-70 0 -128.5 39t-106.5 76.5t-93 37.5q-113 0 -112 -112v-31h-123z" glyph-name="approxequal" horiz-adv-x="1024" unicode="≈"/><glyph d="M133 297v113h246l143 266h-389v112h451l164 297h122l-163 -297h184v-112h-246l-143 -266h389v-113h-451l-164 -297h-122l163 297h-184z" glyph-name="notequal" horiz-adv-x="1024" unicode="≠"/><glyph d="M113 573v134l778 358v-123l-655 -297v-10l655 -297v-123zM113 338v113l778 -359v-112z" glyph-name="lessequal" horiz-adv-x="1024" unicode="≤"/><glyph d="M133 215v123l655 297v10l-655 297v123l778 -358v-134zM133 -20v112l778 359v-113z" glyph-name="greaterequal" horiz-adv-x="1024" unicode="≥"/><glyph d="M61 -287q0 31 28 56.5t65 25.5q49 0 80.5 -40t31.5 -113q0 -90 -54 -148.5t-140 -66.5v61q113 16 112 113l-10 41q-10 -10 -31 -11q-82 0 -82 82z" glyph-name="uniF6C3" horiz-adv-x="327" unicode=""/><glyph d="M61 1853h113q0 -78 52.5 -126t142.5 -48t142 48.5t52 125.5h113q0 -117 -86 -196.5t-221.5 -79.5t-221.5 79.5t-86 196.5z" glyph-name="uniF6D1" horiz-adv-x="737" unicode=""/><glyph d="M61 1393h113q0 -63 46 -103.5t128 -40.5t128 40t46 104h113q0 -102 -80 -174t-207 -72t-207 72t-80 174z" glyph-name="uniF6D4" horiz-adv-x="696" unicode=""/><glyph d="M92 512q0 229 149.5 380.5t373 151.5t373 -151.5t149.5 -380.5t-149.5 -380.5t-373 -151.5t-373 151.5t-149.5 380.5zM215 512q0 -182 114.5 -301t284.5 -119t285 119t115 301t-115 301t-285 119t-284.5 -119t-114.5 -301z" glyph-name="uniF730" unicode=""/><glyph d="M72 666v143l235 215h113v-1024h-123v870z" glyph-name="uniF731" horiz-adv-x="583" unicode=""/><glyph d="M61 717q2 14 9.5 35.5t39 78t74.5 99.5t128 78.5t190 35.5q195 0 307.5 -98t112.5 -250q0 -131 -80 -227t-238 -182l-297 -164l-20 -10v-2l20 2h645v-113h-880v113l420 235q160 90 233.5 171t73.5 177q0 104 -78 170t-219 66q-72 0 -129.5 -22.5t-89 -54.5t-53 -62.5 t-29.5 -53.5l-6 -22h-134z" glyph-name="uniF732" horiz-adv-x="1013" unicode=""/><glyph d="M20 -20h134q2 -10 8 -30t32.5 -67t62.5 -84t103.5 -66.5t151.5 -29.5q158 0 248 82t90 215q0 127 -92 207t-256 80h-174v112h174q143 0 225 74t82 193q0 111 -82 188.5t-215 77.5q-72 0 -132.5 -22.5t-94 -54.5t-58 -62.5t-34.5 -53.5l-9 -22h-123q4 14 11.5 35.5t41 78 t80 99.5t131.5 78.5t187 35.5q186 0 303 -111.5t117 -266.5q0 -109 -54.5 -186t-107.5 -99l-53 -23v-10q10 -2 27.5 -9t61.5 -33.5t78 -62.5t61.5 -100.5t27.5 -142.5q0 -180 -125 -295t-336 -115q-115 0 -208 40t-143 97.5t-84 115t-44 96.5z" glyph-name="uniF733" horiz-adv-x="1054" unicode=""/><glyph d="M20 0v113l512 911h144l-512 -911h532v409h123v-409h215v-113h-215v-389h-123v389h-676z" glyph-name="uniF734" horiz-adv-x="1044" unicode=""/><glyph d="M92 -10h133q2 -12 7.5 -31.5t30 -69t59 -87.5t101 -68.5t150.5 -30.5q154 0 251.5 97.5t97.5 251t-100.5 256t-248.5 102.5q-63 0 -117.5 -18.5t-88 -43t-57 -50.5t-34.5 -44l-10 -18h-123l52 788h757v-113h-645l-33 -512h2q4 4 11.5 13.5t36 30t61.5 37t89 29.5t120 13 q186 0 318 -136t132 -335q0 -201 -132 -331t-339 -130q-86 0 -158.5 22.5t-120.5 57.5t-86 78t-58.5 85t-35 77t-18.5 57z" glyph-name="uniF735" horiz-adv-x="1085" unicode=""/><glyph d="M92 461q0 135 49 235.5t166 255.5l369 482h143l-368 -471l-52 -62v-10q74 61 205 61q207 0 349.5 -142t142.5 -349q0 -201 -144.5 -341t-357.5 -140t-357.5 140t-144.5 341zM215 461q0 -154 109.5 -261.5t269.5 -107.5t269.5 107.5t109.5 261.5q0 162 -108.5 270.5 t-270.5 108.5t-270.5 -107.5t-108.5 -271.5z" glyph-name="uniF736" horiz-adv-x="1187" unicode=""/><glyph d="M10 911v113h881v-113l-563 -1300h-133l563 1298v2h-748z" glyph-name="uniF737" horiz-adv-x="901" unicode=""/><glyph d="M92 389q0 84 31 152.5t75 106.5t87 64.5t73 37.5l31 8v10q-10 2 -25.5 9t-56.5 33t-71.5 57.5t-56 90t-25.5 127.5q0 152 127 260.5t333.5 108.5t333.5 -108.5t127 -260.5q0 -70 -24.5 -127t-58.5 -90.5t-68.5 -57.5t-59.5 -32l-24 -10v-10q12 -2 31.5 -9.5t70.5 -36 t91 -65.5t72 -105.5t32 -152.5q0 -168 -142.5 -288.5t-380 -120.5t-380 120.5t-142.5 288.5zM276 1085q0 -109 89.5 -187.5t249 -78.5t248.5 79t89 187q0 104 -91 180t-246.5 76t-247 -76t-91.5 -180zM215 389q0 -123 107.5 -210t292 -87t292 87t107.5 210 q0 129 -110.5 223.5t-289 94.5t-289 -94.5t-110.5 -223.5z" glyph-name="uniF738" unicode=""/><glyph d="M92 563q0 201 144.5 341t357.5 140t357.5 -140t144.5 -341q0 -135 -49.5 -235.5t-165.5 -255.5l-359 -461h-143l358 450l51 62v10q-74 -61 -204 -61q-207 0 -349.5 142t-142.5 349zM215 563q0 -162 108.5 -270.5t270.5 -108.5t270.5 107.5t108.5 271.5 q0 154 -109.5 261.5t-269.5 107.5t-269.5 -107.5t-109.5 -261.5z" glyph-name="uniF739" horiz-adv-x="1187" unicode=""/><glyph d="M51 0l338 1229h481l338 -1229h-133l-102 389h-686l-103 -389h-133zM317 512h625l-164 594h-297zM338 1413v2l225 295h133l226 -295v-2h-123l-154 205h-31l-153 -205h-123z" glyph-name="Acircumflex.c2sc" horiz-adv-x="1259"/><glyph d="M184 0v1229h871v-123h-738v-420h615v-123h-615v-440h738v-123h-871zM328 1413v2l225 295h133l225 -295v-2h-123l-153 205h-31l-153 -205h-123z" glyph-name="Ecircumflex.c2sc" horiz-adv-x="1146"/><glyph d="M102 0v123h328v1188h-328v123h789v-123h-328v-1188h328v-123h-789zM236 1679v113h522v-113h-522z" glyph-name="Imacron.salt" horiz-adv-x="993"/><glyph d="M102 0v123h328v1188h-328v123h789v-123h-328v-1188h328v-123h-789zM410 1741q0 39 26.5 65.5t65.5 26.5t65.5 -26.5t26.5 -65.5t-26.5 -65.5t-65.5 -26.5t-65.5 26.5t-26.5 65.5z" glyph-name="Idotaccent.salt" horiz-adv-x="993"/><glyph d="M102 0v123h328v1188h-328v123h789v-123h-328v-1188h328v-123h-789zM584 1741q0 39 26.5 65.5t65.5 26.5t65.5 -26.5t26.5 -65.5t-26.5 -65.5t-65.5 -26.5t-65.5 26.5t-26.5 65.5zM236 1741q0 39 26.5 65.5t65.5 26.5t65.5 -26.5t26.5 -65.5t-26.5 -65.5t-65.5 -26.5 t-65.5 26.5t-26.5 65.5z" glyph-name="Idieresis.salt" horiz-adv-x="993"/><glyph d="M102 0v123h328v1188h-328v123h789v-123h-328v-1188h328v-123h-789zM205 1618v2l225 295h133l225 -295v-2h-122l-154 205h-31l-153 -205h-123z" glyph-name="Icircumflex.salt" horiz-adv-x="993"/><glyph d="M102 0v123h328v1188h-328v123h789v-123h-328v-1188h328v-123h-789zM430 1618l184 297h154v-2l-236 -295h-102z" glyph-name="Iacute.salt" horiz-adv-x="993"/><glyph d="M102 0v123h328v1188h-328v123h789v-123h-328v-1188h328v-123h-789zM215 1913v2h154l184 -297h-102z" glyph-name="Igrave.salt" horiz-adv-x="993"/><glyph d="M164 0v1434h123v-1434h-123zM123 -287q0 31 27.5 56.5t64.5 25.5q49 0 81 -40t32 -113q0 -90 -54.5 -148.5t-140.5 -66.5v61q113 16 113 113l-10 41q-10 -10 -31 -11q-82 0 -82 82z" glyph-name="lcommaaccent.salt" horiz-adv-x="450"/><glyph d="M164 0v1434h123v-1434h-123zM399 1362q0 31 28 56.5t65 25.5q49 0 80.5 -40t31.5 -114q0 -90 -54 -148.5t-140 -66.5v62q113 16 112 112l-10 41q-10 -10 -31 -10q-82 0 -82 82z" glyph-name="lcaron.salt" horiz-adv-x="552"/><glyph d="M164 0v1434h123v-1434h-123zM174 1618l184 297h154v-2l-236 -295h-102z" glyph-name="lacute.salt" horiz-adv-x="450"/><glyph d="M123 287q0 135 101.5 221t287.5 86h369v68q0 127 -73 198.5t-204 71.5q-72 0 -131 -22.5t-92 -54.5t-55.5 -62.5t-30.5 -53.5l-8 -22h-123q2 14 9 35.5t40 78t77 99.5t128 78.5t186 35.5q182 0 291 -104t109 -278v-662h-123v184h-2q-4 -8 -12.5 -22.5t-42 -49t-75.5 -61 t-114 -49t-154 -22.5q-166 0 -262 87t-96 220zM246 287q0 -88 64.5 -141.5t191.5 -53.5q166 0 272.5 112.5t106.5 276.5h-369q-133 0 -199.5 -53t-66.5 -141zM276 1239v53q0 76 49.5 124t125.5 48q57 0 106 -33.5t88 -66.5t72 -33q31 0 51 20.5t20 51.5v51h103v-53 q0 -76 -49 -124t-125 -48q-45 0 -86 20.5t-66.5 46t-56.5 46t-57 20.5q-31 0 -51.5 -20.5t-20.5 -51.5v-51h-103z" glyph-name="atilde.salt" horiz-adv-x="1146"/><glyph d="M123 287q0 135 101.5 221t287.5 86h369v68q0 127 -73 198.5t-204 71.5q-72 0 -131 -22.5t-92 -54.5t-55.5 -62.5t-30.5 -53.5l-8 -22h-123q2 14 9 35.5t40 78t77 99.5t128 78.5t186 35.5q182 0 291 -104t109 -278v-662h-123v184h-2q-4 -8 -12.5 -22.5t-42 -49t-75.5 -61 t-114 -49t-154 -22.5q-166 0 -262 87t-96 220zM246 287q0 -88 64.5 -141.5t191.5 -53.5q166 0 272.5 112.5t106.5 276.5h-369q-133 0 -199.5 -53t-66.5 -141zM389 1403q0 84 60.5 144.5t144.5 60.5t144.5 -60.5t60.5 -144.5t-60.5 -144.5t-144.5 -60.5t-144.5 60.5 t-60.5 144.5zM481 1403q0 -47 34 -80t79 -33t79 33t34 80t-34 80t-79 33t-79 -33t-34 -80z" glyph-name="aring.salt" horiz-adv-x="1146"/><glyph d="M123 287q0 135 101.5 221t287.5 86h369v68q0 127 -73 198.5t-204 71.5q-72 0 -131 -22.5t-92 -54.5t-55.5 -62.5t-30.5 -53.5l-8 -22h-123q2 14 9 35.5t40 78t77 99.5t128 78.5t186 35.5q182 0 291 -104t109 -278v-662q-10 -4 -26.5 -12t-58.5 -35t-75 -55.5t-59.5 -73.5 t-26.5 -90q0 -39 28.5 -65.5t73.5 -26.5q33 0 69 7t54 15l21 8v-92q-61 -41 -144 -41q-90 0 -147.5 53.5t-57.5 131.5q0 49 23.5 96t56.5 79.5t66 59.5t55 39l25 12v4v170h-2q-4 -8 -12.5 -22.5t-42 -49t-75.5 -61t-114 -49t-154 -22.5q-166 0 -262 87t-96 220zM246 287 q0 -88 64.5 -141.5t191.5 -53.5q166 0 272.5 112.5t106.5 276.5h-369q-133 0 -199.5 -53t-66.5 -141z" glyph-name="aogonek.salt" horiz-adv-x="1146"/><glyph d="M123 287q0 135 101.5 221t287.5 86h369v68q0 127 -73 198.5t-204 71.5q-72 0 -131 -22.5t-92 -54.5t-55.5 -62.5t-30.5 -53.5l-8 -22h-123q2 14 9 35.5t40 78t77 99.5t128 78.5t186 35.5q182 0 291 -104t109 -278v-662h-123v184h-2q-4 -8 -12.5 -22.5t-42 -49t-75.5 -61 t-114 -49t-154 -22.5q-166 0 -262 87t-96 220zM246 287q0 -88 64.5 -141.5t191.5 -53.5q166 0 272.5 112.5t106.5 276.5h-369q-133 0 -199.5 -53t-66.5 -141zM328 1280v113h522v-113h-522z" glyph-name="amacron.salt" horiz-adv-x="1146"/><glyph d="M123 287q0 135 101.5 221t287.5 86h369v68q0 127 -73 198.5t-204 71.5q-72 0 -131 -22.5t-92 -54.5t-55.5 -62.5t-30.5 -53.5l-8 -22h-123q2 14 9 35.5t40 78t77 99.5t128 78.5t186 35.5q182 0 291 -104t109 -278v-662h-123v184h-2q-4 -8 -12.5 -22.5t-42 -49t-75.5 -61 t-114 -49t-154 -22.5q-166 0 -262 87t-96 220zM246 287q0 -88 64.5 -141.5t191.5 -53.5q166 0 272.5 112.5t106.5 276.5h-369q-133 0 -199.5 -53t-66.5 -141zM666 1352q0 39 26.5 65.5t65.5 26.5t65.5 -26.5t26.5 -65.5t-26.5 -65.5t-65.5 -26.5t-65.5 26.5t-26.5 65.5z M317 1352q0 39 27 65.5t66 26.5t65.5 -26.5t26.5 -65.5t-26.5 -65.5t-65.5 -26.5t-66 26.5t-27 65.5z" glyph-name="adieresis.salt" horiz-adv-x="1146"/><glyph d="M123 287q0 135 101.5 221t287.5 86h369v68q0 127 -73 198.5t-204 71.5q-72 0 -131 -22.5t-92 -54.5t-55.5 -62.5t-30.5 -53.5l-8 -22h-123q2 14 9 35.5t40 78t77 99.5t128 78.5t186 35.5q182 0 291 -104t109 -278v-662h-123v184h-2q-4 -8 -12.5 -22.5t-42 -49t-75.5 -61 t-114 -49t-154 -22.5q-166 0 -262 87t-96 220zM246 287q0 -88 64.5 -141.5t191.5 -53.5q166 0 272.5 112.5t106.5 276.5h-369q-133 0 -199.5 -53t-66.5 -141zM297 1229v2l225 295h133l226 -295v-2h-123l-154 205h-31l-153 -205h-123z" glyph-name="acircumflex.salt" horiz-adv-x="1146"/><glyph d="M123 287q0 135 101.5 221t287.5 86h369v68q0 127 -73 198.5t-204 71.5q-72 0 -131 -22.5t-92 -54.5t-55.5 -62.5t-30.5 -53.5l-8 -22h-123q2 14 9 35.5t40 78t77 99.5t128 78.5t186 35.5q182 0 291 -104t109 -278v-662h-123v184h-2q-4 -8 -12.5 -22.5t-42 -49t-75.5 -61 t-114 -49t-154 -22.5q-166 0 -262 87t-96 220zM246 287q0 -88 64.5 -141.5t191.5 -53.5q166 0 272.5 112.5t106.5 276.5h-369q-133 0 -199.5 -53t-66.5 -141zM307 1485h113q0 -63 44 -103.5t119.5 -40.5t120 40t44.5 104h112q0 -102 -77.5 -174t-198.5 -72t-199 72t-78 174z " glyph-name="abreve.salt" horiz-adv-x="1146"/><glyph d="M123 287q0 135 101.5 221t287.5 86h369v68q0 127 -73 198.5t-204 71.5q-72 0 -131 -22.5t-92 -54.5t-55.5 -62.5t-30.5 -53.5l-8 -22h-123q2 14 9 35.5t40 78t77 99.5t128 78.5t186 35.5q182 0 291 -104t109 -278v-662h-123v184h-2q-4 -8 -12.5 -22.5t-42 -49t-75.5 -61 t-114 -49t-154 -22.5q-166 0 -262 87t-96 220zM246 287q0 -88 64.5 -141.5t191.5 -53.5q166 0 272.5 112.5t106.5 276.5h-369q-133 0 -199.5 -53t-66.5 -141zM532 1229l185 297h153v-2l-235 -295h-103z" glyph-name="aacute.salt" horiz-adv-x="1146"/><glyph d="M123 287q0 135 101.5 221t287.5 86h369v68q0 127 -73 198.5t-204 71.5q-72 0 -131 -22.5t-92 -54.5t-55.5 -62.5t-30.5 -53.5l-8 -22h-123q2 14 9 35.5t40 78t77 99.5t128 78.5t186 35.5q182 0 291 -104t109 -278v-662h-123v184h-2q-4 -8 -12.5 -22.5t-42 -49t-75.5 -61 t-114 -49t-154 -22.5q-166 0 -262 87t-96 220zM246 287q0 -88 64.5 -141.5t191.5 -53.5q166 0 272.5 112.5t106.5 276.5h-369q-133 0 -199.5 -53t-66.5 -141zM328 1524v2h153l185 -297h-103z" glyph-name="agrave.salt" horiz-adv-x="1146"/><glyph d="M51 1024h133l236 -911h194l267 911h133l-338 -1126q-43 -143 -125 -215t-223 -72h-164v113h164q98 0 147 39.5t78 134.5l31 102h-256zM272 1401h113q0 -63 46 -103.5t128 -40.5t128 40t46 104h113q0 -102 -80 -174t-207 -72t-207 72t-80 174z" glyph-name="afii10110.salt" horiz-adv-x="1034"/><glyph d="M10 502v123l174 82v727h123v-666l195 92v-123l-195 -92v-645h-123v584z" glyph-name="lslash.salt" horiz-adv-x="512"/><glyph d="M51 1024h133l236 -911h194l267 911h133l-338 -1126q-43 -143 -125 -215t-223 -72h-164v113h164q98 0 147 39.5t78 134.5l31 102h-256zM614 1352q0 39 27 65.5t65.5 26.5t65.5 -26.5t27 -65.5t-27 -65.5t-65.5 -26.5t-65.5 26.5t-27 65.5zM266 1352q0 39 26.5 65.5 t65.5 26.5t66 -26.5t27 -65.5t-27 -65.5t-66 -26.5t-65.5 26.5t-26.5 65.5z" glyph-name="ydieresis.salt" horiz-adv-x="1034"/><glyph d="M174 0v942q0 236 136 364t407 128h526v-125l-383 -418v-10q227 -14 354 -134t127 -307q0 -190 -144 -315t-398 -125h-144v123h144q193 0 301 90t108 227.5t-108.5 227.5t-300.5 90h-103v133l369 409h-348q-221 0 -315.5 -87t-94.5 -279v-934h-133z" glyph-name="glyph489" horiz-adv-x="1433"/><glyph d="M164 0v1434h123v-1434h-123z" glyph-name="l.salt" horiz-adv-x="450"/><glyph d="M41 -123q0 82 59.5 143.5t116.5 81.5l59 21v235q-6 4 -18 11.5t-42 35t-53.5 60.5t-42 87t-18.5 114q0 158 123 268t318 110q41 0 78.5 -5t56.5 -11l18 -4h430v-113h-245l-17 2v-2q12 -8 33 -26.5t53.5 -82t32.5 -136.5q0 -158 -123 -268.5t-317 -110.5q-41 0 -79 5 t-56 11l-19 4v-153q61 10 154 10q242 0 371.5 -87t129.5 -200t-130 -200t-371.5 -87t-371.5 87t-130 200zM225 665.5q0 -110.5 88 -188.5t229.5 -78t229.5 78t88 188.5t-88 188.5t-229.5 78t-229.5 -78t-88 -188.5zM164 -122.5q0 -65.5 95 -120t283.5 -54.5t284 54.5 t95.5 119.5q0 63 -96.5 118.5t-282.5 55.5q-188 0 -283.5 -54t-95.5 -119.5z" glyph-name="g.salt" horiz-adv-x="1126"/><glyph d="M123 287q0 135 101.5 221t287.5 86h369v68q0 127 -73 198.5t-204 71.5q-72 0 -131 -22.5t-92 -54.5t-55.5 -62.5t-30.5 -53.5l-8 -22h-123q2 14 9 35.5t40 78t77 99.5t128 78.5t186 35.5q182 0 291 -104t109 -278v-662h-123v184h-2q-4 -8 -12.5 -22.5t-42 -49t-75.5 -61 t-114 -49t-154 -22.5q-166 0 -262 87t-96 220zM246 287q0 -88 64.5 -141.5t191.5 -53.5q166 0 272.5 112.5t106.5 276.5h-369q-133 0 -199.5 -53t-66.5 -141z" glyph-name="a.salt" horiz-adv-x="1146"/><glyph d="M51 1024h133l236 -911h194l267 911h133l-338 -1126q-43 -143 -125 -215t-223 -72h-164v113h164q98 0 147 39.5t78 134.5l31 102h-256z" glyph-name="afii10085.salt" horiz-adv-x="1034"/><glyph d="M51 1024h133l236 -911h194l267 911h133l-338 -1126q-43 -143 -125 -215t-223 -72h-164v113h164q98 0 147 39.5t78 134.5l31 102h-256z" glyph-name="y.salt" horiz-adv-x="1034"/><glyph d="M102 0v123h328v1188h-328v123h789v-123h-328v-1188h328v-123h-789z" glyph-name="I.salt" horiz-adv-x="993"/><glyph d="M123 287q0 135 101.5 221t287.5 86h369v68q0 127 -73 198.5t-204 71.5q-72 0 -131 -22.5t-92 -54.5t-55.5 -62.5t-30.5 -53.5l-8 -22h-123q2 14 9 35.5t40 78t77 99.5t128 78.5t186 35.5q182 0 291 -104t109 -278v-662h-123v184h-2q-4 -8 -12.5 -22.5t-42 -49t-75.5 -61 t-114 -49t-154 -22.5q-166 0 -262 87t-96 220zM246 287q0 -88 64.5 -141.5t191.5 -53.5q166 0 272.5 112.5t106.5 276.5h-369q-133 0 -199.5 -53t-66.5 -141z" glyph-name="afii10065.salt" horiz-adv-x="1146"/><glyph d="M72 563q0 201 144 341t357 140t357.5 -140t144.5 -341q0 -135 -49 -235.5t-166 -255.5l-358 -461h-144l359 450l51 62v10q-74 -61 -205 -61q-207 0 -349 142t-142 349zM195 563q0 -162 108.5 -270.5t270 -108.5t270 107.5t108.5 271.5q0 154 -109.5 261.5t-269 107.5 t-269 -107.5t-109.5 -261.5z" glyph-name="uniF739.tnum" horiz-adv-x="1146"/><glyph d="M51 389q0 84 31 152.5t75 106.5t87 64.5t73 37.5l31 8v10q-10 2 -25.5 9t-56.5 33t-71.5 57.5t-56 90t-25.5 127.5q0 152 127 260.5t333.5 108.5t333.5 -108.5t127 -260.5q0 -70 -24.5 -127t-58 -90.5t-68.5 -57.5t-60 -32l-24 -10v-10q12 -2 31.5 -9.5t70.5 -36 t91 -65.5t72 -105.5t32 -152.5q0 -168 -142.5 -288.5t-380 -120.5t-380 120.5t-142.5 288.5zM236 1085q0 -109 89 -187.5t248.5 -78.5t248.5 79t89 187q0 104 -91 180t-246.5 76t-246.5 -76t-91 -180zM174 389q0 -123 107.5 -210t292 -87t292 87t107.5 210 q0 129 -110.5 223.5t-289 94.5t-289 -94.5t-110.5 -223.5z" glyph-name="uniF738.tnum" horiz-adv-x="1146"/><glyph d="M102 635v389h963v-113l-594 -1300h-133l594 1298v2h-707v-276h-123z" glyph-name="uniF737.tnum" horiz-adv-x="1146"/><glyph d="M72 461q0 135 49 235.5t166 255.5l368 482h144l-369 -471l-51 -62v-10q74 61 205 61q207 0 349 -142t142 -349q0 -201 -144.5 -341t-357.5 -140t-357 140t-144 341zM195 461q0 -154 109.5 -261.5t269 -107.5t269 107.5t109.5 261.5q0 162 -108.5 270.5t-270 108.5 t-270 -107.5t-108.5 -271.5z" glyph-name="uniF736.tnum" horiz-adv-x="1146"/><glyph d="M123 -10h133q2 -12 7 -31.5t29.5 -69t59.5 -87.5t101.5 -68.5t150.5 -30.5q154 0 251 97.5t97 251t-100 256t-248 102.5q-63 0 -117.5 -18.5t-88 -43t-57.5 -50.5t-34 -44l-10 -18h-123l51 788h758v-113h-645l-33 -512h2q4 4 11.5 13.5t36 30t61.5 37t89 29.5t120 13 q186 0 318 -136t132 -335q0 -201 -132 -331t-339 -130q-86 0 -158.5 22.5t-121 57.5t-86 78t-58 85t-35 77t-18.5 57z" glyph-name="uniF735.tnum" horiz-adv-x="1146"/><glyph d="M82 0v113l512 911h143l-512 -911h533v409h123v-409h215v-113h-215v-389h-123v389h-676z" glyph-name="uniF734.tnum" horiz-adv-x="1146"/><glyph d="M72 -20h133q2 -10 8 -30t32.5 -67t62.5 -84t103.5 -66.5t151.5 -29.5q158 0 248 82t90 215q0 127 -92 207t-256 80h-174v112h174q143 0 225 74t82 193q0 111 -82 188.5t-215 77.5q-72 0 -132 -22.5t-94 -54.5t-58.5 -62.5t-32.5 -53.5l-10 -22h-123q4 14 11 35.5t41 78 t80 99.5t131 78.5t187 35.5q186 0 303 -111.5t117 -266.5q0 -70 -22.5 -126.5t-53 -89t-62.5 -54t-54 -29.5l-23 -9v-10q10 -2 27.5 -9t61.5 -33.5t78 -62.5t61.5 -100.5t27.5 -142.5q0 -180 -125 -295t-336 -115q-115 0 -208 40t-143 97.5t-84 115t-46 96.5z" glyph-name="uniF733.tnum" horiz-adv-x="1146"/><glyph d="M123 717q2 14 9 35.5t39 78t75 99.5t128 78.5t189 35.5q195 0 307.5 -98t112.5 -250q0 -131 -80 -227t-237 -182l-297 -164l-21 -10v-2l21 2h645v-113h-881v113l420 235q160 90 233.5 171t73.5 177q0 104 -77.5 170t-219.5 66q-72 0 -129 -22.5t-89 -54.5t-53.5 -62.5 t-29.5 -53.5l-6 -22h-133z" glyph-name="uniF732.tnum" horiz-adv-x="1146"/><glyph d="M184 0v113h369v757l-266 -204v143l276 215h113v-911h348v-113h-840z" glyph-name="uniF731.tnum" horiz-adv-x="1146"/><glyph d="M51 512q0 229 149.5 380.5t373 151.5t373 -151.5t149.5 -380.5t-149.5 -380.5t-373 -151.5t-373 151.5t-149.5 380.5zM174 512q0 -182 114.5 -301t284.5 -119t285 119t115 301t-115 301t-285 119t-284.5 -119t-114.5 -301z" glyph-name="uniF730.tnum" horiz-adv-x="1146"/><glyph d="M102 737q0 324 223.5 546t544.5 222q311 0 514 -186t203 -428q0 -219 -138 -345t-402 -126h-3v102h-2l-2 -6q-4 -4 -7 -9t-9 -13.5t-13 -16.5t-17.5 -18t-23 -18.5t-28.5 -15.5t-34.5 -13t-41 -9.5t-47.5 -3.5q-123 0 -215 97.5t-92 241t91 240.5t216 97q162 0 223 -123 h2v103h123v-523q135 0 216 93.5t81 265.5q0 203 -163.5 352.5t-430.5 149.5q-279 0 -467 -186.5t-188 -469.5q0 -291 184.5 -473t470.5 -182q102 0 199.5 25.5t142.5 52.5l48 24v-112q-18 -12 -50 -28.5t-134.5 -45.5t-205.5 -29q-330 0 -549 219t-219 549zM635 737.5 q0 -98.5 59.5 -162t145.5 -63.5t145 63.5t59 162t-59 162t-145 63.5t-145.5 -63.5t-59.5 -162z" glyph-name="at.case" horiz-adv-x="1669"/><glyph d="M164 717q0 127 26.5 248.5t68.5 214t94.5 174.5t103.5 138t93 97t68 62l27 18l72 -92q-16 -12 -45 -36.5t-101.5 -106.5t-128 -175.5t-100.5 -240t-45 -302t43 -301t105.5 -242.5t124 -172t104.5 -110l43 -34l-72 -93q-10 6 -27.5 19.5t-67.5 59.5t-95 99.5t-100.5 137.5 t-95.5 175t-67.5 213t-27.5 249z" glyph-name="parenleft.case" horiz-adv-x="747"/><glyph d="M31 -150q16 12 44.5 37t101.5 107t128 175t100.5 239.5t45.5 302t-43 301t-104.5 243t-124 172t-105.5 109.5l-43 35l71 92q10 -6 27.5 -19.5t68 -59.5t95.5 -99t100.5 -137t95 -175.5t67.5 -213t28 -248.5q0 -174 -49.5 -337t-120 -269.5t-142 -188.5t-120.5 -121 l-50 -37z" glyph-name="parenright.case" horiz-adv-x="747"/><glyph d="M184 -174v1782h430v-123h-297v-1536h297v-123h-430z" glyph-name="bracketleft.case" horiz-adv-x="665"/><glyph d="M51 -174v123h297v1536h-297v123h430v-1782h-430z" glyph-name="bracketright.case" horiz-adv-x="665"/><glyph d="M92 666v112h62q113 0 112 113v471q0 109 73 177.5t193 68.5h123v-123h-123q-61 0 -97 -34t-36 -89v-471q0 -63 -30.5 -104.5t-61.5 -49.5l-31 -10v-10q4 0 13.5 -3t30 -14.5t37 -27t29.5 -47t13 -72.5v-481q0 -55 36 -89t97 -34h123v-123h-123q-121 0 -193.5 68.5 t-72.5 177.5v481q0 113 -112 113h-62z" glyph-name="braceleft.case" horiz-adv-x="696"/><glyph d="M41 -174v123h123q61 0 97 33.5t36 89.5v481q0 63 30.5 104t61.5 52l31 8v10q-4 0 -13.5 3t-30 14.5t-36.5 26.5t-29.5 47t-13.5 73v471q0 55 -36 89t-97 34h-123v123h123q121 0 193.5 -69t72.5 -177v-471q0 -113 113 -113h61v-112h-61q-113 0 -113 -113v-481 q0 -109 -72.5 -177.5t-193.5 -68.5h-123z" glyph-name="braceright.case" horiz-adv-x="696"/><glyph d="M82 973q0 209 152.5 355.5t380 146.5t380 -146.5t152.5 -355.5q0 -39 -6 -77t-11.5 -65.5t-24 -64.5t-27.5 -55.5t-37.5 -59.5t-39 -54t-49.5 -62.5t-51 -63.5l-369 -471h-153l379 479l8 10l2 3q-51 -20 -174 -21q-215 0 -363.5 146.5t-148.5 355.5zM215 973 q0 -162 112.5 -270.5t286.5 -108.5t287 108.5t113 270.5t-113 270.5t-287 108.5t-286.5 -108.5t-112.5 -270.5z" glyph-name="nine.tnum"/><glyph d="M10 -246v359h113l12 6t27.5 24.5t34 49t27 83t12.5 123.5v625h737v-911h153v-359h-122v246h-871v-246h-123zM266 113h584v798h-492v-512q0 -96 -23.5 -166.5t-45.5 -93.5l-23 -24v-2z" glyph-name="afii10069.salt" horiz-adv-x="1167"/><glyph d="M51 471q0 102 80 174t207 72t207 -72t80 -174q0 -123 -103 -246l-184 -225h-143l153 186l62 50v10q-41 -20 -72 -21q-127 0 -207 72t-80 174zM174 471q0 -55 45 -94t119 -39t119 39t45 94t-45 94t-119 39t-119 -39t-45 -94z" glyph-name="nine.dnom" horiz-adv-x="675"/><glyph d="M72 184q0 59 35.5 102.5t72.5 57.5l35 14v11q-4 2 -12 5t-27.5 16t-34 29.5t-27 44.5t-12.5 58q0 82 73 138.5t204 56.5t203.5 -56.5t72.5 -138.5q0 -49 -28.5 -88t-57.5 -53l-26 -12v-11l15 -5t33.5 -17t44 -32.5t35 -50.5t15.5 -69q0 -84 -81 -144t-226.5 -60t-226 60 t-80.5 144zM236 514q0 -94 143 -94t143 94q0 90 -143 90t-143 -90zM195 195q0 -43 46 -73t138 -30t138 30t46 73t-46 72.5t-138 29.5t-138 -29.5t-46 -72.5z" glyph-name="eight.dnom" horiz-adv-x="757"/><glyph d="M41 584v112h522v-112l-307 -584h-133l307 582v2h-389z" glyph-name="seven.dnom" horiz-adv-x="583"/><glyph d="M51 225q0 123 103 246l184 225h143l-153 -186l-62 -49v-10q41 20 72 20q127 0 207 -71.5t80 -174t-80 -174t-207 -71.5t-207 71.5t-80 173.5zM174 225.5q0 -55.5 45 -94.5t119 -39t119 39t45 94.5t-45 94t-119 38.5t-119 -38.5t-45 -94z" glyph-name="six.dnom" horiz-adv-x="675"/><glyph d="M82 195h133q2 -4 4 -11.5t14.5 -25t27.5 -30.5t44 -24.5t64 -11.5q164 0 163 133q0 49 -45 86t-118 37q-41 0 -77 -15.5t-50 -29.5l-17 -16l-112 20l20 389h461v-112h-348l-13 -174h3q51 51 153 51q121 0 193.5 -66.5t72.5 -169.5q0 -111 -74.5 -178t-203.5 -67 q-72 0 -128 22.5t-86 53t-49.5 62.5t-25.5 54z" glyph-name="five.dnom" horiz-adv-x="706"/><glyph d="M41 154v112l276 430h134l-277 -430h225v144h123v-144h103v-112h-103v-154h-123v154h-358z" glyph-name="four.dnom" horiz-adv-x="655"/><glyph d="M61 195h134q2 -4 4 -11.5t15 -25t29.5 -30.5t47.5 -24.5t67 -11.5q74 0 114 34t40 89q0 49 -41 81t-121 32h-145v102l215 154v2l-21 -2h-297v112h492v-112l-195 -140l-20 -12v-2h10q106 0 176 -65.5t70 -159.5q0 -96 -75 -160.5t-202 -64.5q-72 0 -129 22.5t-86.5 53 t-49 62.5t-25.5 54z" glyph-name="three.dnom" horiz-adv-x="706"/><glyph d="M72 0v113l174 102q145 86 205.5 145.5t60.5 120.5q0 55 -40 89t-114 34q-57 0 -98 -30.5t-53 -61.5l-12 -31h-123q2 10 6 25.5t24.5 56.5t49 72t84 56.5t122.5 25.5q127 0 202 -66.5t75 -169.5q0 -201 -348 -358l-11 -6l-10 -4v-2l21 2h358v-113h-573z" glyph-name="two.dnom" horiz-adv-x="716"/><glyph d="M113 0v113h204v450l-184 -112v133l195 112h112v-583h195v-113h-522z" glyph-name="one.dnom" horiz-adv-x="696"/><glyph d="M61 348q0 166 91.5 267.5t226.5 101.5q133 0 225 -101.5t92 -267.5t-92 -267t-225 -101q-135 0 -226.5 101t-91.5 267zM184 348q0 -121 54.5 -188.5t140.5 -67.5t140 67.5t54 188.5t-54 188.5t-140 67.5t-140.5 -67.5t-54.5 -188.5z" glyph-name="zero.dnom" horiz-adv-x="757"/><glyph d="M51 1208.5q0 102.5 80 174t207 71.5t207 -71.5t80 -174.5q0 -123 -103 -245l-184 -226h-143l153 187l62 49v10q-41 -20 -72 -20q-127 0 -207 71.5t-80 174zM174 1208.5q0 -55.5 45 -94.5t119 -39t119 39t45 94.5t-45 94t-119 38.5t-119 -38.5t-45 -94z" glyph-name="nine.frac" horiz-adv-x="675"/><glyph d="M72 922q0 59 35.5 102t72.5 57l35 15v10q-4 2 -12 5t-27.5 16.5t-34 30t-27 44t-12.5 58.5q0 82 73 138t204 56t203.5 -56.5t72.5 -137.5q0 -49 -28.5 -88t-57.5 -54l-26 -12v-10q6 -2 15 -5.5t33.5 -17.5t44 -32.5t35 -50.5t15.5 -68q0 -84 -81 -144.5t-226.5 -60.5 t-226 60.5t-80.5 144.5zM236 1251q0 -94 143 -94t143 94q0 90 -143 90t-143 -90zM195 932q0 -43 46 -73t138 -30t138 30t46 73t-46 72.5t-138 29.5t-138 -29.5t-46 -72.5z" glyph-name="eight.frac" horiz-adv-x="757"/><glyph d="M41 1321v113h522v-113l-307 -584h-133l307 582v2h-389z" glyph-name="seven.frac" horiz-adv-x="583"/><glyph d="M51 963q0 123 103 245l184 226h143l-153 -187l-62 -49v-10q41 20 72 20q127 0 207 -71.5t80 -174t-80 -174t-207 -71.5t-207 72t-80 174zM174 962.5q0 -55.5 45 -94.5t119 -39t119 39t45 94.5t-45 94.5t-119 39t-119 -39t-45 -94.5z" glyph-name="six.frac" horiz-adv-x="675"/><glyph d="M82 932h133q2 -4 4 -11.5t14.5 -24.5t27.5 -30.5t44 -25t64 -11.5q164 0 163 134q0 49 -45 85.5t-118 36.5q-41 0 -77 -15t-50 -30l-17 -16l-112 20l20 390h461v-113h-348l-13 -174h3q51 51 153 51q121 0 193.5 -66.5t72.5 -168.5q0 -111 -74.5 -178.5t-203.5 -67.5 q-72 0 -128 22.5t-86 53t-49.5 62.5t-25.5 54z" glyph-name="five.frac" horiz-adv-x="706"/><glyph d="M41 891v113l276 430h134l-277 -430h225v143h123v-143h103v-113h-103v-154h-123v154h-358z" glyph-name="four.frac" horiz-adv-x="655"/><glyph d="M61 932h134q2 -4 4 -11.5t15 -24.5t29.5 -30.5t47.5 -25t67 -11.5q74 0 114 34t40 89q0 49 -41 81t-121 32h-145v102l215 154v2l-21 -2h-297v113h492v-113l-195 -139l-20 -13v-2h10q106 0 176 -65.5t70 -159.5q0 -96 -75 -160.5t-202 -64.5q-72 0 -129 22.5t-86.5 53 t-49 62.5t-25.5 54z" glyph-name="three.frac" horiz-adv-x="706"/><glyph d="M72 737v113l174 102q145 86 205.5 145.5t60.5 121.5q0 55 -40 88.5t-114 33.5q-57 0 -98 -30.5t-53 -61.5l-12 -30h-123q2 10 6 25.5t24.5 56t49 71.5t84 56.5t122.5 25.5q127 0 202 -66.5t75 -168.5q0 -201 -348 -359l-11 -6l-10 -4v-2l21 2h358v-113h-573z" glyph-name="two.frac" horiz-adv-x="716"/><glyph d="M113 737v113h204v450l-184 -112v133l195 113h112v-584h195v-113h-522z" glyph-name="one.frac" horiz-adv-x="696"/><glyph d="M61 1085.5q0 165.5 91.5 267t226.5 101.5q133 0 225 -101.5t92 -267t-92 -267t-225 -101.5q-135 0 -226.5 101.5t-91.5 267zM184 1085.5q0 -120.5 54.5 -188.5t140.5 -68t140 68t54 188.5t-54 188t-140 67.5t-140.5 -67.5t-54.5 -188z" glyph-name="zero.frac" horiz-adv-x="757"/><glyph d="M61 389q0 84 32 153.5t70 107.5t92 69t72.5 37t39.5 12v2q-16 6 -29.5 10t-57.5 32t-74 60.5t-56.5 92t-26.5 131.5q0 154 135 266.5t356.5 112.5t356.5 -113t135 -266q0 -72 -25.5 -132.5t-61.5 -94t-72 -57.5t-62 -34l-25 -8v-2q12 -2 32.5 -9t74 -36t94.5 -68 t73.5 -109.5t32.5 -156.5q0 -178 -150.5 -304t-402.5 -126t-402.5 126t-150.5 304zM256 1096q0 -109 96.5 -193t262 -84t262 84t96.5 193q0 106 -95.5 181t-263.5 75t-263 -75t-95 -181zM195 389q0 -131 110.5 -219t309 -88t309 88t110.5 219t-110.5 219t-309 88t-309 -88 t-110.5 -219z" glyph-name="eight.tnum"/><glyph d="M102 1034v400h1035v-123l-605 -1311h-143l604 1309v2h-757v-277h-134z" glyph-name="seven.tnum"/><glyph d="M82 461q0 39 6 76.5t11 65.5t23.5 65t28 55t38 59t39 54.5t49 62.5t51.5 64l368 471h154l-379 -480l-8 -10l-2 -2q51 20 174 21q215 0 363.5 -146.5t148.5 -355.5t-152.5 -355.5t-380 -146.5t-380 146.5t-152.5 355.5zM215 461q0 -162 112.5 -270.5t286.5 -108.5 t287 108.5t113 270.5t-113 270.5t-287 108.5t-286.5 -108.5t-112.5 -270.5z" glyph-name="six.tnum"/><glyph d="M102 369h134q2 -12 9 -32t36.5 -69t70.5 -87t116 -68.5t167 -30.5q168 0 273.5 103.5t105.5 265t-105.5 265t-273.5 103.5q-70 0 -130.5 -18.5t-99 -43t-66.5 -50t-40 -43.5l-12 -19h-123l61 789h830v-123h-717l-41 -490v-2q12 14 37.5 34.5t113 54.5t187.5 34 q221 0 366.5 -141.5t145.5 -350t-145.5 -350t-366.5 -141.5q-127 0 -227.5 42t-155.5 102.5t-91 121t-46 103.5z" glyph-name="five.tnum"/><glyph d="M82 328v123l512 983h143l-512 -983h625v389h10h123v-389h215v-123h-215v-328h-133v328h-768z" glyph-name="four.tnum"/><glyph d="M72 369h133q2 -12 8 -32t36 -69t70.5 -87t118.5 -68.5t176 -30.5q172 0 275.5 93t103.5 234.5t-103.5 234.5t-275.5 93h-256v123l512 449v2h-727v123h912v-123l-492 -430l-20 -17v-4h71q225 0 368.5 -131t143.5 -319.5t-143 -319.5t-369 -131q-131 0 -235.5 42 t-159.5 102.5t-91 121t-46 103.5z" glyph-name="three.tnum"/><glyph d="M102 0v123l441 338q246 188 338 303t92 260q0 141 -99.5 234.5t-259.5 93.5q-86 0 -153.5 -33t-102 -80t-57 -93t-29.5 -79l-6 -33h-143q0 8 3 24.5t16.5 62.5t32 87t57 92.5t88 88t126 61.5t168.5 25q211 0 351.5 -132.5t140.5 -318.5q0 -172 -112.5 -318.5 t-338.5 -316.5l-327 -248l-21 -14v-6l21 2h778v-123h-1004z" glyph-name="two.tnum"/><glyph d="M164 0v123h420v1157l-267 -205v144l277 215h123v-1311h399v-123h-952z" glyph-name="one.tnum"/><glyph d="M41 522v389q0 254 156.5 409t416.5 155t417 -155t157 -409v-389q0 -254 -157 -408.5t-417 -154.5t-416.5 154.5t-156.5 408.5zM174 522q0 -199 120 -319.5t320.5 -120.5t320.5 121t120 319v389q0 199 -120 320t-320.5 121t-320.5 -121t-120 -320v-389z" glyph-name="zero.tnum"/><glyph d="M0 -287v410h143q6 4 17.5 11t40 44t50 87t39 146.5t17.5 213.5v809h953v-1311h194v-410h-133v287h-1188v-287h-133zM307 123h819v1188h-686v-686q0 -117 -13 -212.5t-33.5 -146.5t-40 -86t-34.5 -45z" glyph-name="afii10021.salt" horiz-adv-x="1495"/><glyph d="M51 911v113h144v102q0 307 297 308h163v-113h-163q-174 0 -175 -195v-102h277v-113h-277v-911h-122v911h-144z" glyph-name="f.salt" horiz-adv-x="614"/><glyph d="M51 911v113h144v225h122v-225h338v-113h-338v-614q0 -184 175 -184h174v-113h-174q-297 0 -297 297v614h-144z" glyph-name="t.salt" horiz-adv-x="727"/><glyph d="M133 1331q0 39 26.5 65.5t63.5 26.5q39 0 66.5 -26.5t27.5 -65.5t-26.5 -65.5t-65.5 -26.5t-65.5 26.5t-26.5 65.5zM-133 -389v113h133q164 0 164 194v1106h123v-1106q0 -307 -287 -307h-133z" glyph-name="j.salt" horiz-adv-x="450"/><glyph d="M102 0v123h328v1188h-328v123h789v-123h-328v-1188h328v-123h-789z" glyph-name="glyph550" horiz-adv-x="993"/><glyph d="M102 0v123h328v1188h-328v123h789v-123h-328v-1188h328v-123h-789zM584 1700q0 39 26.5 65.5t65.5 26.5t65.5 -26.5t26.5 -65.5t-26.5 -65.5t-65.5 -26.5t-65.5 26.5t-26.5 65.5zM236 1700q0 39 26.5 65.5t65.5 26.5t65.5 -26.5t26.5 -65.5t-26.5 -65.5t-65.5 -26.5 t-65.5 26.5t-26.5 65.5z" glyph-name="glyph551" horiz-adv-x="993"/><glyph d="M317 0h-133v1434h133v-646h471q195 0 195 195v195q0 117 77 191.5t200 74.5h61v-123h-61q-61 0 -102.5 -41t-41.5 -102v-195q0 -61 -14.5 -108.5t-31.5 -73t-40.5 -44t-36 -22.5t-20.5 -6v-2q10 -2 20.5 -6t39 -22.5t49 -43t38 -74t17.5 -110.5v-215q0 -61 41 -102 t102 -41h61v-123h-61q-123 0 -199.5 74.5t-76.5 191.5v215q0 195 -195 195h-492v-666zM610 1575l185 297h153v-2l-235 -295h-103z" glyph-name="afii10061.salt" horiz-adv-x="1392"/><glyph d="M20 1311v123h1065v-123h-491v-451h389q227 0 364.5 -131t137.5 -340v-133q0 -217 -133 -344t-369 -127h-2v123h2q369 0 369 348v133q0 162 -96.5 255t-272.5 93h-389v-737h-133v1311h-441z" glyph-name="afii10051.salt" horiz-adv-x="1587"/><glyph d="M-20 0v123q41 -20 102 -21q125 0 185.5 104.5t60.5 387.5v840h932v-512h430q233 0 372.5 -129t139.5 -332t-139.5 -332t-372.5 -129h-564v1311h-665v-717q0 -336 -92.5 -475t-266.5 -139q-33 0 -63.5 5t-44.5 11zM1260 123h430q182 0 280 91t98 246.5t-98 247t-280 91.5 h-430v-676z" glyph-name="afii10058.salt" horiz-adv-x="2273"/><glyph d="M31 1085v113h143v236h123v-236h266v-113h-266v-399h2q39 76 130 135.5t237 59.5q172 0 280.5 -119t108.5 -322v-522q0 -145 -79 -226t-218 -81h-113v113h113q174 0 174 194v522q0 158 -77 243t-210 85q-147 0 -247.5 -104.5t-100.5 -264.5v-399h-123v1085h-143z" glyph-name="afii10099.salt" horiz-adv-x="1177"/><glyph d="M133 1331q0 39 26.5 65.5t63.5 26.5q39 0 66.5 -26.5t27.5 -65.5t-26.5 -65.5t-65.5 -26.5t-65.5 26.5t-26.5 65.5zM-133 -389v113h133q164 0 164 194v1106h123v-1106q0 -307 -287 -307h-133z" glyph-name="afii10105.salt" horiz-adv-x="450"/><glyph d="M0 8v111q31 -16 82 -17q90 0 132 61.5t42 215.5v645h727v-369h297q166 0 267.5 -93t101.5 -234.5t-101.5 -234.5t-267.5 -93h-420v911h-481v-532q0 -207 -69.5 -298t-207.5 -91q-27 0 -52 4t-38 10zM983 113h297q113 0 179.5 60t66.5 154.5t-66.5 155t-179.5 60.5h-297 v-430z" glyph-name="afii10106.salt" horiz-adv-x="1710"/><glyph d="M287 0h-123v1024h123v-451h327q133 0 134 134v122q0 94 59 149.5t166 55.5h41v-112h-41q-47 0 -75 -30t-28 -83v-123q0 -39 -10 -69.5t-22.5 -47t-31 -28t-24.5 -13.5t-14 -4v-2q123 -41 123 -174v-133q0 -53 27.5 -83t74.5 -30h41v-112h-41q-106 0 -165.5 55t-59.5 150 v133q0 133 -133 133h-348v-461zM481 1167l185 297h153v-2l-235 -295h-103z" glyph-name="afii10109.salt" horiz-adv-x="1085"/><glyph d="M51 911v113h144v102q0 307 297 308h163v-113h-163q-174 0 -175 -195v-102h502v102q0 307 297 308h164v-113h-164q-174 0 -174 -195v-102h277v-113h-277v-911h-123v911h-502v-911h-122v911h-144z" glyph-name="uniFB00.salt" horiz-adv-x="1239"/><glyph d="M51 911v113h144v102q0 307 297 308h389v-113h-389q-174 0 -175 -195v-102h625v-1024h-123v911h-502v-911h-122v911h-144z" glyph-name="uniFB01.salt" horiz-adv-x="1105"/><glyph d="M51 911v113h144v104q0 305 290 306h396v-113h-387q-176 0 -177 -193v-104h625v-1106q0 -307 -287 -307h-133v113h133q164 0 164 194v993h-502v-911h-122v911h-144z" glyph-name="f_j.liga.salt" horiz-adv-x="1105"/><glyph d="M51 911v113h144v102q0 141 102 234.5t276 93.5q166 0 267.5 -93t101.5 -235v-1126h-123v1126q0 94 -66.5 154.5t-179.5 60.5q-119 0 -187.5 -60t-68.5 -155v-102h277v-113h-277v-911h-122v911h-144z" glyph-name="uniFB02.salt" horiz-adv-x="1105"/><glyph d="M51 911v113h144v102q0 141 102 234.5t276 93.5q166 0 267.5 -93t101.5 -235v-102h338v-113h-338v-614q0 -184 174 -184h174v-113h-174q-297 0 -297 297v614h-502v-911h-122v911h-144zM317 1024h502v102q0 94 -66.5 154.5t-179.5 60.5q-119 0 -187.5 -60t-68.5 -155v-102z " glyph-name="f_t.liga.salt" horiz-adv-x="1351"/><glyph d="M51 -10v112h41q47 0 75 30t28 83v133q0 57 27.5 99t50 54.5t40.5 18.5v2q-16 4 -34.5 14.5t-41 50.5t-22.5 99v123q0 53 -27.5 83t-74.5 30h-41v112h41q106 0 165.5 -55t59.5 -150v-122q0 -133 133 -134h246v451h123v-451h245q133 0 134 134v122q0 94 59 149.5t166 55.5 h41v-112h-41q-47 0 -75 -30t-28 -83v-123q0 -39 -9 -69.5t-22.5 -47t-29.5 -28t-25.5 -14.5t-15.5 -5v-2q123 -41 123 -172v-133q0 -53 27.5 -83t74.5 -30h41v-112h-41q-106 0 -165.5 55t-59.5 150v133q0 133 -133 133h-266v-461h-123v461h-266q-133 0 -134 -133v-133 q0 -94 -59 -149.5t-166 -55.5h-41z" glyph-name="afii10072.salt" horiz-adv-x="1556"/><glyph d="M51 0l379 1434h512l299 -1127l6 -31h4l6 31l299 1127h512l379 -1434h-133l-123 471h-757l-123 -471h-123l-123 471h-758l-123 -471h-133zM1464 594h697l-195 717h-307zM338 594h696l-194 717h-308z" glyph-name="A_A.dlig" horiz-adv-x="2498"/><glyph d="M51 0l379 1434h1096q233 0 367.5 -122t134.5 -319q0 -166 -99.5 -282.5t-279.5 -147.5l368 -563h-153l-359 553h-440v-553h-133v553h-604l-144 -553h-133zM1065 676h461q180 0 274 84t94 233.5t-94 233.5t-274 84h-461v-635zM358 676h574v635h-410z" glyph-name="A_R.dlig" horiz-adv-x="2140"/><glyph d="M72 0l346 1311h-244v123h1157v-123h-244l347 -1311h-134l-122 471h-359v-471h-133v471h-358l-123 -471h-133zM819 594h328l-195 717h-133v-717zM358 594h328v717h-133z" glyph-name="A_T.dlig" horiz-adv-x="1505"/><glyph d="M51 0l379 1434h512l348 -1311h297l338 1311h143l-378 -1434h-502l-123 471h-758l-123 -471h-133zM338 594h696l-194 717h-308z" glyph-name="A_V.dlig" horiz-adv-x="2129"/><glyph d="M102 716.5q0 327.5 211 543t527 215.5q115 0 215 -29t168.5 -74t126 -99t90.5 -108.5t56.5 -99.5t31.5 -74l8 -28h-133q-4 16 -15.5 41.5t-56.5 93t-102.5 119t-161.5 93.5t-227 42q-264 0 -434 -176.5t-170 -459t169.5 -458.5t434.5 -176q92 0 173 23.5t137 60.5t103 81 t76 89t48.5 82t27.5 61l8 23h133q-2 -12 -9 -31.5t-32.5 -76t-58.5 -107.5t-92.5 -113.5t-128 -108t-170 -76t-215.5 -30.5q-315 0 -526.5 215t-211.5 542.5zM584 369v696h522v-123h-389v-154h287v-122h-287v-174h389v-123h-522z" glyph-name="C_E.dlig" horiz-adv-x="1638"/><glyph d="M102 716.5q0 327.5 211 543t527 215.5q115 0 215 -29t168.5 -74t126 -99t90.5 -108.5t56.5 -99.5t31.5 -74l8 -28h-133q-4 16 -15.5 41.5t-56.5 93t-102.5 119t-161.5 93.5t-227 42q-264 0 -434 -176.5t-170 -459t169.5 -458.5t434.5 -176q92 0 173 23.5t137 60.5t103 81 t76 89t48.5 82t27.5 61l8 23h133q-2 -12 -9 -31.5t-32.5 -76t-58.5 -107.5t-92.5 -113.5t-128 -108t-170 -76t-215.5 -30.5q-315 0 -526.5 215t-211.5 542.5zM502 716.5q0 145.5 101.5 247t246.5 101.5t246.5 -101.5t101.5 -247t-101.5 -246.5t-246.5 -101t-246.5 101 t-101.5 246.5zM635 716.5q0 -98.5 61.5 -161.5t153.5 -63t153.5 63t61.5 161.5t-61.5 162t-153.5 63.5t-153.5 -63.5t-61.5 -162z" glyph-name="C_O.dlig" horiz-adv-x="1638"/><glyph d="M184 0v1434h1905v-123h-1024v-2q10 -6 29.5 -19.5t68.5 -60.5t88 -102.5t76 -146.5t45 -192h563v-122h-563q-6 -104 -40 -197.5t-72.5 -151t-88 -105.5t-71 -63.5t-35.5 -23.5v-2h1024v-123h-1905zM317 123h318q268 0 436 166t168 428t-168 428t-436 166h-318v-1188z" glyph-name="D_E.dlig" horiz-adv-x="2181"/><glyph d="M184 0v1434h871v-123h-738v-523h891l174 646h512l379 -1434h-133l-178 666h-651l-174 -666h-953zM1341 788h588l-137 523h-307zM317 123h717l144 543h-861v-543z" glyph-name="E_A.dlig" horiz-adv-x="2324"/><glyph d="M0 317l133 31q2 -10 8 -28.5t32 -64.5t61.5 -81t101 -63.5t145.5 -28.5q156 0 247 97t91 272v983h635l379 -1434h-133l-123 471h-625v-20q0 -229 -127 -360.5t-344 -131.5q-113 0 -203 37t-140 90t-82.5 105.5t-43.5 89.5zM952 594h594l-194 717h-400v-717z" glyph-name="J_A.dlig" horiz-adv-x="1884"/><glyph d="M1055 737l501 697h164l-501 -697l522 -737h-164zM184 0v1434h133v-646h318l461 646h164l-502 -697l522 -737h-164l-471 666h-328v-666h-133z" glyph-name="K_K.dlig" horiz-adv-x="1761"/><glyph d="M184 0v1434h133v-646h318l461 646h164l-502 -697l522 -737h-164l-471 666h-328v-666h-133zM1137 727q0 221 153.5 377t368.5 156t368.5 -156t153.5 -377t-153.5 -376.5t-368.5 -155.5t-368.5 155.5t-153.5 376.5zM1270 727q0 -174 113.5 -292t275.5 -118t275.5 118 t113.5 292t-113.5 292t-275.5 118t-275.5 -118t-113.5 -292z" glyph-name="K_O.dlig" horiz-adv-x="2252"/><glyph d="M184 0v1434h133v-1311h318l348 1311h512l379 -1434h-133l-123 471h-758l-92 -348h328v-123h-912zM891 594h696l-194 717h-308z" glyph-name="L_A.dlig" horiz-adv-x="1925"/><glyph d="M963 348v1086h133v-1086h-133zM184 0v1434h133v-1311h779v-123h-912z" glyph-name="L_I.dlig" horiz-adv-x="1269"/><glyph d="M563 348v1086h133v-963h553v-123h-686zM184 0v1434h133v-1311h779v-123h-912z" glyph-name="L_L.dlig" horiz-adv-x="1280"/><glyph d="M584 328v1106h665v-123h-532v-377h430v-125h-430v-481h-133zM184 0v1434h133v-1311h779v-123h-912z" glyph-name="L_F.dlig" horiz-adv-x="1310"/><glyph d="M492 921.5q0 221.5 153.5 377t368.5 155.5t368.5 -155.5t153.5 -377t-153.5 -377t-368.5 -155.5t-368.5 155.5t-153.5 377zM184 0v1434h133v-1311h779v-123h-912zM625 922q0 -174 113.5 -292t275.5 -118t275.5 118t113.5 292t-113.5 291.5t-275.5 117.5t-275.5 -117.5 t-113.5 -291.5z" glyph-name="L_O.dlig" horiz-adv-x="1638"/><glyph d="M184 0v1434h205l766 -1280l10 -21h2v1301h625l379 -1434h-133l-123 471h-615v-471h-204l-766 1280l-11 20h-2v-1300h-133zM1300 594h584l-194 717h-390v-717z" glyph-name="N_A.dlig" horiz-adv-x="2222"/><glyph d="M102 716.5q0 327.5 211 543t527 215.5q100 0 197.5 -26t144.5 -52l47 -25q18 12 52 28.5t135.5 45.5t201.5 29q115 0 215 -29t169 -74t126 -99t90 -108.5t56.5 -99.5t31.5 -74l8 -28h-133q-4 16 -15.5 41.5t-56.5 93t-102 119t-161.5 93.5t-227.5 42q-78 0 -146.5 -15.5 t-99.5 -29.5l-31 -17q10 -8 25.5 -23.5t56.5 -69.5t72 -114.5t56.5 -160t25.5 -206t-24.5 -204.5t-59.5 -161.5t-68.5 -113t-58.5 -71.5l-25 -23q102 -61 277 -61q92 0 173 23.5t137.5 60.5t103.5 81t75.5 89t48 82t27.5 61l8 23h133q-2 -12 -9 -31.5t-32.5 -76 t-58.5 -107.5t-92 -113.5t-128 -108t-170 -76t-216 -30.5q-100 0 -197.5 25.5t-144.5 52.5l-47 24q-18 -12 -52 -28.5t-135.5 -45t-201.5 -28.5q-315 0 -526.5 215t-211.5 542.5zM236 716.5q0 -282.5 169.5 -458.5t434.5 -176q74 0 142.5 15.5t100.5 29.5l33 16 q-10 8 -25.5 23.5t-56.5 70t-71.5 115t-56 159.5t-25.5 205.5t24.5 205t59 162t68.5 112.5t59 72l24 22q-113 61 -276 62q-264 0 -434 -176.5t-170 -459zM1014 717q0 -94 22.5 -181t54 -142.5t62.5 -98.5t53 -62l23 -18q8 6 22.5 19.5t52 59.5t65.5 100.5t51.5 141.5 t23.5 181t-22.5 181t-54.5 142.5t-62.5 98.5t-53.5 61l-22 19q-8 -6 -22.5 -19.5t-52.5 -59.5t-65.5 -100.5t-51 -141.5t-23.5 -181z" glyph-name="O_C.dlig" horiz-adv-x="2416"/><glyph d="M102 716.5q0 327.5 211 543t527 215.5q100 0 197.5 -26t144.5 -52l47 -25q18 12 52 28.5t135.5 45.5t201.5 29q113 0 212 -28t167.5 -72t126 -97t91.5 -107.5t57.5 -98.5t33.5 -73l8 -26h-133q-6 16 -17.5 40.5t-57.5 90t-104 116t-160.5 91.5t-223.5 41 q-78 0 -146.5 -15.5t-99.5 -29.5l-31 -17q10 -8 25.5 -23.5t56.5 -69.5t72 -114.5t56.5 -160t25.5 -206t-24.5 -204.5t-59.5 -161.5t-68.5 -113t-58.5 -71.5l-25 -23q102 -61 277 -61q233 0 397 152.5t187 379.5h-287v123h604v-123h-184q-47 -297 -238.5 -476t-478.5 -179 q-100 0 -197.5 25.5t-144.5 52.5l-47 24q-18 -12 -52 -28.5t-135.5 -45t-201.5 -28.5q-315 0 -526.5 215t-211.5 542.5zM236 716.5q0 -282.5 169.5 -458.5t434.5 -176q74 0 142.5 15.5t100.5 29.5l33 16q-10 8 -25.5 23.5t-56.5 70t-71.5 115t-56 159.5t-25.5 205.5 t24.5 205t59 162t68.5 112.5t59 72l24 22q-113 61 -276 62q-264 0 -434 -176.5t-170 -459zM1014 717q0 -94 22.5 -181t54 -142.5t62.5 -98.5t53 -62l23 -18q8 6 22.5 19.5t52 59.5t65.5 100.5t51.5 141.5t23.5 181t-22.5 181t-54.5 142.5t-62.5 98.5t-53.5 61l-22 19 q-8 -6 -22.5 -19.5t-52.5 -59.5t-65.5 -100.5t-51 -141.5t-23.5 -181z" glyph-name="O_G.dlig" horiz-adv-x="2539"/><glyph d="M102 716.5q0 327.5 211 543t526.5 215.5t526.5 -215.5t211 -543t-211 -542.5t-526.5 -215t-526.5 215t-211 542.5zM236 716.5q0 -282.5 169.5 -458.5t434 -176t434.5 176t170 458.5t-170 459t-434.5 176.5t-434 -176.5t-169.5 -459zM2560 348v1086h133v-1086h-133z M1782 0v1434h133v-1311h778v-123h-911z" glyph-name="O_L_I.dlig" horiz-adv-x="2867"/><glyph d="M102 716.5q0 327.5 211 543t527 215.5q100 0 197.5 -26t144.5 -52l47 -25q18 12 52 28.5t135.5 45.5t201.5 29q315 0 526 -215.5t211 -543t-211 -542.5t-526 -215q-100 0 -197.5 25.5t-144.5 52.5l-47 24q-18 -12 -52 -28.5t-135.5 -45t-201.5 -28.5q-315 0 -526.5 215 t-211.5 542.5zM1341 143q102 -61 277 -61q264 0 434 176t170 458.5t-170 459t-434 176.5q-78 0 -146.5 -15.5t-99.5 -29.5l-31 -17q10 -8 25.5 -23.5t56.5 -69.5t72 -114.5t56.5 -160t25.5 -206t-24.5 -204.5t-59.5 -161.5t-68.5 -113t-58.5 -71.5zM236 716.5 q0 -282.5 169.5 -458.5t434.5 -176q74 0 142.5 15.5t100.5 29.5l33 16q-10 8 -25.5 23.5t-56.5 70t-71.5 115t-56 159.5t-25.5 205.5t24.5 205t59 162t68.5 112.5t59 72l24 22q-113 61 -276 62q-264 0 -434 -176.5t-170 -459zM1014 717q0 -94 22.5 -181t54 -142.5 t62.5 -98.5t53 -62l23 -18q8 6 22.5 19.5t52 59.5t65.5 100.5t51.5 141.5t23.5 181t-22.5 181t-54.5 142.5t-62.5 98.5t-53.5 61l-22 19q-8 -6 -22.5 -19.5t-52.5 -59.5t-65.5 -100.5t-51 -141.5t-23.5 -181z" glyph-name="O_O.dlig" horiz-adv-x="2457"/><glyph d="M184 0v1434h584q233 0 372.5 -129t139.5 -332v-185h829v646h134v-1434h-134v666h-829v-666h-133v645q-12 -14 -39 -36.5t-124 -59.5t-216 -37h-451v-512h-133zM317 635h451q182 0 280.5 91t98.5 246.5t-98.5 247t-280.5 91.5h-451v-676z" glyph-name="P_H.dlig" horiz-adv-x="2426"/><glyph d="M184 0v1434h594q233 0 367.5 -122t134.5 -319q0 -166 -99.5 -282.5t-279.5 -147.5l103 -153q129 -193 212.5 -260.5t217.5 -67.5q156 0 247 97t91 272v983h133v-983q0 -229 -127 -360.5t-344 -131.5q-168 0 -287 94t-266 316l-123 184h-441v-553h-133zM317 676h461 q180 0 274.5 84t94.5 233.5t-94.5 233.5t-274.5 84h-461v-635z" glyph-name="R_J.dlig" horiz-adv-x="2078"/><glyph d="M31 379h133q4 -12 11 -31.5t41 -71t78 -91.5t127 -71.5t183 -31.5q190 0 295 82t105 205q0 90 -52.5 153.5t-131.5 94t-170 68.5t-170 78t-131 123t-52 199q0 160 135 275t356 115q131 0 235.5 -39t160 -94.5t91.5 -111.5t46 -95l10 -39h-133q-2 10 -8 27.5t-36 61.5 t-71 77.5t-118.5 61.5t-176.5 28q-170 0 -264 -77t-94 -190q0 -76 39 -132t101.5 -89t137 -61.5t150.5 -61t138.5 -76.5t101.5 -119t39 -177q0 -170 -144.5 -290t-388.5 -120q-137 0 -246.5 43t-168 104.5t-97.5 124t-51 105.5zM1280 0l379 1434h512l379 -1434h-133 l-123 471h-758l-123 -471h-133zM1567 594h696l-195 717h-307z" glyph-name="S_A.dlig" horiz-adv-x="2600"/><glyph d="M20 1311v123h1137l379 -1434h-133l-123 471h-614v-471h-134v1311h-512zM666 594h583l-194 717h-389v-717z" glyph-name="T_A.dlig" horiz-adv-x="1587"/><glyph d="M20 1311v123h1158v-123h-512v-328h675v-123h-675v-307h512v-123h-512v-307h675v-123h-809v1311h-512z" glyph-name="T_E.dlig" horiz-adv-x="1464"/><glyph d="M20 1311v123h1117v-123h-492v-523h830v646h972v-123h-839v-523h686v-122h-686v-543h839v-123h-972v666h-830v-666h-133v1311h-492z" glyph-name="T_H_E.dlig" horiz-adv-x="2539"/><glyph d="M20 1311v123h1158v-123h-512v-1311h-134v1311h-512zM850 860v123h809v-123h-338v-860h-133v860h-338z" glyph-name="T_T.dlig" horiz-adv-x="1740"/><glyph d="M174 532v902h133v-902q0 -203 132 -326.5t359.5 -123.5t359.5 124t132 326v902h133v-902q0 -256 -168 -414.5t-456.5 -158.5t-456.5 158.5t-168 414.5zM471 614v512h133v-512q0 -236 194.5 -235.5t194.5 235.5v512h133v-512q0 -166 -90 -262t-237.5 -96t-237.5 96 t-90 262z" glyph-name="U_U.dlig" horiz-adv-x="1597"/><glyph d="M82 1434h143l277 -1311h71l287 1311h246l287 -1311h71l277 1311h747v-123h-635l-112 -523h594v-122h-625l-123 -543h901v-123h-1198l-276 1311h-62l-276 -1311h-277z" glyph-name="W_E.dlig" horiz-adv-x="2580"/><glyph d="M51 -10v123h62q61 0 102 41t41 102v215q0 72 20.5 125t53 78.5t50 35t36.5 15.5v2q-139 47 -140 256v195q0 61 -40.5 102t-102.5 41h-61v123h61q123 0 200 -75t77 -191v-195q0 -195 194 -195h338v646h133v-646h338q195 0 195 195v195q0 117 76.5 191.5t199.5 74.5h62 v-123h-62q-61 0 -102 -41t-41 -102v-195q0 -59 -13.5 -106.5t-31 -74t-40 -45t-35.5 -23.5t-24 -7v-2q12 -2 24.5 -7t40.5 -23.5t47.5 -43t35.5 -73t16 -107.5v-215q0 -61 41 -102t103 -41h61v-123h-61q-123 0 -200 74.5t-77 191.5v215q0 195 -194 195h-359v-666h-133v666 h-358q-195 0 -195 -195v-215q0 -117 -76.5 -191.5t-199.5 -74.5h-62z" glyph-name="afii10024.salt" horiz-adv-x="2017"/><glyph d="M287 0h-123v1024h123v-451h327q133 0 134 134v122q0 94 59 149.5t166 55.5h41v-112h-41q-47 0 -75 -30t-28 -83v-123q0 -39 -10 -69.5t-22.5 -47t-31 -28t-24.5 -13.5t-14 -4v-2q123 -41 123 -174v-133q0 -53 27.5 -83t74.5 -30h41v-112h-41q-106 0 -165.5 55t-59.5 150 v133q0 133 -133 133h-348v-461z" glyph-name="afii10076.salt" horiz-adv-x="1085"/><glyph d="M317 0h-133v1434h133v-646h471q195 0 195 195v195q0 117 77 191.5t200 74.5h61v-123h-61q-61 0 -102.5 -41t-41.5 -102v-195q0 -61 -14.5 -108.5t-31.5 -73t-40.5 -44t-36 -22.5t-20.5 -6v-2q10 -2 20.5 -6t39 -22.5t49 -43t38 -74t17.5 -110.5v-215q0 -61 41 -102 t102 -41h61v-123h-61q-123 0 -199.5 74.5t-76.5 191.5v215q0 195 -195 195h-492v-666z" glyph-name="afii10028.salt" horiz-adv-x="1392"/><glyph d="M0 8v111q31 -16 82 -17q90 0 132 61.5t42 215.5v645h768v-1024h-123v911h-522v-532q0 -207 -69.5 -298t-207.5 -91q-27 0 -52 4t-38 10z" glyph-name="afii10077.salt" horiz-adv-x="1187"/><glyph d="M-20 0v123q41 -20 102 -21q125 0 185.5 104.5t60.5 387.5v840h972v-1434h-133v1311h-706v-717q0 -336 -92.5 -475t-266.5 -139q-33 0 -63.5 5t-44.5 11z" glyph-name="afii10029.salt" horiz-adv-x="1484"/><glyph d="M430 1362q0 90 54.5 148.5t140.5 66.5v-61q-113 -16 -113 -113l10 -41q10 10 31 10q82 0 82 -82q0 -31 -27.5 -56.5t-64.5 -25.5q-49 0 -81 40t-32 114zM41 -123q0 82 59.5 143.5t116.5 81.5l59 21v235q-6 4 -18 11.5t-42 35t-53.5 60.5t-42 87t-18.5 114q0 158 123 268 t318 110q41 0 78.5 -5t56.5 -11l18 -4h430v-113h-245l-17 2v-2q12 -8 33 -26.5t53.5 -82t32.5 -136.5q0 -158 -123 -268.5t-317 -110.5q-41 0 -79 5t-56 11l-19 4v-153q61 10 154 10q242 0 371.5 -87t129.5 -200t-130 -200t-371.5 -87t-371.5 87t-130 200zM225 665.5 q0 -110.5 88 -188.5t229.5 -78t229.5 78t88 188.5t-88 188.5t-229.5 78t-229.5 -78t-88 -188.5zM164 -122.5q0 -65.5 95 -120t283.5 -54.5t284 54.5t95.5 119.5q0 63 -96.5 118.5t-282.5 55.5q-188 0 -283.5 -54t-95.5 -119.5z" glyph-name="gcommaaccent.salt" horiz-adv-x="1126"/><glyph d="M41 -123q0 82 59.5 143.5t116.5 81.5l59 21v235q-6 4 -18 11.5t-42 35t-53.5 60.5t-42 87t-18.5 114q0 158 123 268t318 110q41 0 78.5 -5t56.5 -11l18 -4h430v-113h-245l-17 2v-2q12 -8 33 -26.5t53.5 -82t32.5 -136.5q0 -158 -123 -268.5t-317 -110.5q-41 0 -79 5 t-56 11l-19 4v-153q61 10 154 10q242 0 371.5 -87t129.5 -200t-130 -200t-371.5 -87t-371.5 87t-130 200zM225 665.5q0 -110.5 88 -188.5t229.5 -78t229.5 78t88 188.5t-88 188.5t-229.5 78t-229.5 -78t-88 -188.5zM164 -122.5q0 -65.5 95 -120t283.5 -54.5t284 54.5 t95.5 119.5q0 63 -96.5 118.5t-282.5 55.5q-188 0 -283.5 -54t-95.5 -119.5zM256 1477h113q0 -63 44 -103.5t119.5 -40.5t119.5 40t44 104h113q0 -102 -78 -174t-198.5 -72t-198.5 72t-78 174z" glyph-name="gbreve.salt" horiz-adv-x="1126"/><glyph d="M102 0v123h328v1188h-328v123h789v-123h-328v-1188h328v-123q-10 -4 -26.5 -12t-58.5 -35t-75 -55.5t-59.5 -73.5t-26.5 -90q0 -39 28.5 -65.5t74.5 -26.5q33 0 68.5 7t55.5 15l19 8v-92q-61 -41 -143 -41q-90 0 -147.5 53.5t-57.5 131t54 146.5t108 99l53 31h-656z" glyph-name="Iogonek.salt" horiz-adv-x="993"/><glyph d="M51 0l379 1434h205v256h153v-2l-40 -254h194l379 -1434h-133l-123 471h-758l-123 -471h-133zM338 594h696l-194 717h-308z" glyph-name="Aacute.ss02" horiz-adv-x="1372"/><glyph d="M1024 1362q0 39 26.5 65.5t65.5 26.5t65.5 -26.5t26.5 -65.5t-26.5 -65.5t-65.5 -26.5t-65.5 26.5t-26.5 65.5zM164 1362q0 39 26.5 65.5t65.5 26.5t65.5 -26.5t26.5 -65.5t-26.5 -65.5t-65.5 -26.5t-65.5 26.5t-26.5 65.5zM51 0l379 1434h512l379 -1434h-133l-123 471 h-758l-123 -471h-133zM338 594h696l-194 717h-308z" glyph-name="Adieresis.ss02" horiz-adv-x="1372"/><glyph d="M51 0l379 1434h102q-51 31 -51 102q0 63 58.5 113.5t146.5 50.5t146.5 -50.5t58.5 -113.5q0 -33 -13.5 -58.5t-25.5 -35.5l-12 -8h102l379 -1434h-133l-123 471h-758l-123 -471h-133zM573 1526q0 -39 31 -65.5t82 -26.5t82 26.5t31 65.5t-31 65.5t-82 26.5t-82 -26.5 t-31 -65.5zM338 594h696l-194 717h-308z" glyph-name="Aring.ss02" horiz-adv-x="1372"/><glyph d="M102 716.5q0 327.5 211 543t526.5 215.5t526.5 -215.5t211 -543t-211 -542.5t-526.5 -215t-526.5 215t-211 542.5zM1372 1362q0 39 26.5 65.5t65.5 26.5t65.5 -26.5t26.5 -65.5t-26.5 -65.5t-65.5 -26.5t-65.5 26.5t-26.5 65.5zM123 1362q0 39 26.5 65.5t65.5 26.5 t65.5 -26.5t26.5 -65.5t-26.5 -65.5t-65.5 -26.5t-65.5 26.5t-26.5 65.5zM236 716.5q0 -282.5 169.5 -458.5t434 -176t434.5 176t170 458.5t-170 459t-434.5 176.5t-434 -176.5t-169.5 -459z" glyph-name="Odieresis.ss02" horiz-adv-x="1679"/><glyph d="M532 1454v53q0 76 49.5 124t125.5 48q45 0 86 -20.5t66.5 -46t56 -46t57.5 -20.5q31 0 51 20.5t20 51.5v51h103v-53q0 -76 -49 -124t-125 -48q-57 0 -106.5 33.5t-88.5 66.5t-71 33q-31 0 -51.5 -20.5t-20.5 -51.5v-51h-103zM102 666q0 307 210 506.5t527.5 199.5 t527.5 -199.5t210 -506.5q0 -305 -211 -506t-526.5 -201t-526.5 201t-211 506zM236 666q0 -258 169.5 -421t434 -163t434.5 163t170 421t-170 420.5t-434.5 162.5t-434 -162.5t-169.5 -420.5z" glyph-name="Otilde.ss02" horiz-adv-x="1679"/><glyph d="M92 379h133q4 -12 11.5 -31.5t41 -71t77.5 -91.5t127 -71.5t184 -31.5q190 0 294.5 82t104.5 205q0 90 -67.5 153.5t-169 94t-219 68.5t-219 78t-169 123t-67.5 199q0 137 98 243t270 136l-153 203v2h123l143 -194h51l143 194h123v-2l-153 -207q94 -20 168.5 -64 t114.5 -94.5t66 -97.5t32 -78l8 -30h-133q-2 10 -8.5 27.5t-36 61.5t-70.5 77.5t-119 61.5t-176 28q-170 0 -264 -77t-94 -190q0 -76 50 -132t131 -89t177 -61.5t193.5 -61t178.5 -76.5t131 -119t50 -177q0 -170 -144.5 -290t-387.5 -120q-137 0 -247 43t-168 104.5t-97 124 t-52 105.5z" glyph-name="Scaron.ss02" horiz-adv-x="1300"/><glyph d="M1126 1341.5q0 38.5 27 65.5t65.5 27t65.5 -27t27 -65.5t-27 -65.5t-65.5 -27t-65.5 27t-27 65.5zM143 1341.5q0 38.5 27 65.5t65.5 27t65.5 -27t27 -65.5t-27 -65.5t-65.5 -27t-65.5 27t-27 65.5zM174 532v656h133v-656q0 -213 112.5 -331.5t307.5 -118.5t307.5 118.5 t112.5 331.5v656h133v-656q0 -260 -152.5 -416.5t-400.5 -156.5t-400.5 156.5t-152.5 416.5z" glyph-name="Udieresis.ss02" horiz-adv-x="1454"/><glyph d="M72 0v123l901 1177v11h-871v123h390l-164 233v2h123l153 -235h31l153 235h123v-2l-163 -233h399v-123l-901 -1178v-10h911v-123h-1085z" glyph-name="Zcaron.ss02"/><glyph d="M133 573q0 227 146.5 380t355.5 153q197 0 330 -125t172 -336l-871 -174q33 -164 168 -271.5t354 -107.5q150 0 272 55.5t188.5 133t111.5 155.5t59 133l15 56h-174v102h481v-102h-185q-2 -14 -8 -37t-32.5 -90.5t-60.5 -128t-96.5 -135t-138 -128t-188 -90t-244.5 -36.5 q-295 0 -475 167.5t-180 425.5zM256 584l737 153q-43 109 -136 182.5t-222 73.5q-164 0 -271.5 -113.5t-107.5 -295.5z" glyph-name="glyph611" horiz-adv-x="1751"/><glyph d="M102 379q0 82 32 149.5t70 103.5t92 65.5t72.5 35.5t39.5 12v3q-14 4 -31 11t-64 35.5t-79.5 62.5t-61.5 95.5t-29 132.5q0 160 135.5 275t356.5 115q129 0 232.5 -39t158.5 -94.5t92 -111.5t49 -95l11 -39h-134q-2 10 -9 27.5t-37.5 61.5t-71.5 77.5t-119 61.5t-172 28 q-170 0 -264.5 -77t-94.5 -189.5t101.5 -199.5t257.5 -87h82v-123h-82q-184 0 -291.5 -87t-107.5 -210t109.5 -210t299.5 -87q199 0 309.5 106.5t110.5 292.5v195h-174v123h522v-123h-215v-195q0 -233 -150.5 -377.5t-402.5 -144.5q-244 0 -393.5 125t-149.5 295z" glyph-name="ampersand.salt" horiz-adv-x="1423"/><glyph d="M-154 -389v113h123q184 0 215 215l144 972h-123v113h143l21 143q16 111 102 189t205 78h164v-113h-164q-82 0 -128 -42t-56 -112l-21 -143h266v-113h-286l-144 -972q-25 -170 -104.5 -249t-233.5 -79h-123z" glyph-name="florin.salt" horiz-adv-x="727"/><glyph d="M184 737q0 47 28 75t75 28q45 0 73.5 -29t28.5 -74t-28.5 -73.5t-73.5 -28.5t-74 28.5t-29 73.5z" glyph-name="periodcentered.case" horiz-adv-x="573"/><glyph d="M430 1176q0 31 27.5 56t64.5 25q49 0 81 -39.5t32 -113.5q0 -90 -54.5 -148.5t-140.5 -66.5v61q113 16 113 113l-10 41q-10 -10 -31 -10q-82 0 -82 82zM51 911v113h144v225h122v-952q0 -184 175 -184h174v-113h-174q-297 0 -297 297v614h-144z" glyph-name="tcaron.salt" horiz-adv-x="727"/><glyph d="M51 911v113h144v225h122v-225h338v-113h-338v-614q0 -184 175 -184h174v-113h-174q-297 0 -297 297v614h-144zM328 -287q0 31 27.5 56.5t64.5 25.5q49 0 80.5 -40t31.5 -113q0 -90 -54 -148.5t-140 -66.5v61q113 16 113 113l-11 41q-10 -10 -30 -11q-82 0 -82 82z" glyph-name="tcommaaccent.salt" horiz-adv-x="727"/><glyph d="M51 911v113h144v225h122v-225h338v-113h-338v-614q0 -184 175 -184h174v-113h-174q-297 0 -297 297v614h-144zM328 -287q0 31 27.5 56.5t64.5 25.5q49 0 80.5 -40t31.5 -113q0 -90 -54 -148.5t-140 -66.5v61q113 16 113 113l-11 41q-10 -10 -30 -11q-82 0 -82 82z" glyph-name="uni021B.salt" horiz-adv-x="727"/><glyph d="M184 0v1434h441v256h153v-2l-41 -254h420v-123h-840v-523h687v-122h-687v-543h840v-123h-973z" glyph-name="Eacute.ss02" horiz-adv-x="1249"/><glyph d="M195 1434v256h153v-2l-41 -254h-112zM184 0v1311h133v-1311h-133z" glyph-name="Iacute.ss02" horiz-adv-x="501"/><glyph d="M102 717q0 311 190.5 522t485.5 234v217h154v-2l-35 -215q295 -23 487.5 -233t192.5 -523q0 -328 -211 -543t-526.5 -215t-526.5 215t-211 543zM236 716.5q0 -282.5 169.5 -458.5t434 -176t434.5 176t170 458.5t-170 459t-434.5 176.5t-434 -176.5t-169.5 -459z" glyph-name="Oacute.ss02" horiz-adv-x="1679"/><glyph d="M666 1434v256h153v-2l-41 -254h-112zM174 532v902h133v-902q0 -213 112.5 -331.5t307.5 -118.5t307.5 118.5t112.5 331.5v902h133v-902q0 -260 -152.5 -416.5t-400.5 -156.5t-400.5 156.5t-152.5 416.5z" glyph-name="Uacute.ss02" horiz-adv-x="1454"/><glyph d="M594 1434v256h154v-2l-41 -254h-113zM20 1434h164l461 -758h10l461 758h164l-563 -912v-522h-133v522z" glyph-name="Yacute.ss02" horiz-adv-x="1300"/><glyph d="M123 717v112h1505v-112h-1505z" glyph-name="emdash.case" horiz-adv-x="1751"/><glyph d="M51 0l338 1229h481l338 -1229h-133l-102 389h-686l-103 -389h-133zM317 512h625l-164 594h-297z" glyph-name="A.c2sc" horiz-adv-x="1259"/><glyph d="M51 0l338 1229h481l338 -1229h-133l-102 389h-686l-103 -389h-133zM317 512h625l-164 594h-297zM573 1413l185 297h153v-2l-235 -295h-103z" glyph-name="Aacute.c2sc" horiz-adv-x="1259"/><glyph d="M51 0l338 1229h481l338 -1229h-133l-102 389h-686l-103 -389h-133zM317 512h625l-164 594h-297zM348 1659h113q0 -63 44 -103t119.5 -40t119.5 39.5t44 103.5h113q0 -102 -78 -174t-198.5 -72t-198.5 72t-78 174z" glyph-name="Abreve.c2sc" horiz-adv-x="1259"/><glyph d="M184 1352q0 45 29 73.5t74 28.5t73.5 -28.5t28.5 -73.5q0 -47 -27.5 -75t-74.5 -28q-45 0 -74 29t-29 74zM225 0v737l21 277h82l20 -277v-737h-123z" glyph-name="exclamdown.case" horiz-adv-x="573"/><glyph d="M51 0l338 1229h481l338 -1229h-133l-102 389h-686l-103 -389h-133zM317 512h625l-164 594h-297zM717 1536q0 39 26.5 65.5t65.5 26.5t65.5 -26.5t26.5 -65.5t-26.5 -65.5t-65.5 -26.5t-65.5 26.5t-26.5 65.5zM369 1536q0 39 26.5 65.5t65.5 26.5t65.5 -26.5t26.5 -65.5 t-26.5 -65.5t-65.5 -26.5t-65.5 26.5t-26.5 65.5z" glyph-name="Adieresis.c2sc" horiz-adv-x="1259"/><glyph d="M51 0l338 1229h481l338 -1229h-133l-102 389h-686l-103 -389h-133zM317 512h625l-164 594h-297zM348 1708v2h154l184 -297h-102z" glyph-name="Agrave.c2sc" horiz-adv-x="1259"/><glyph d="M51 0l338 1229h481l338 -1229h-133l-102 389h-686l-103 -389h-133zM317 512h625l-164 594h-297zM369 1475v112h522v-112h-522z" glyph-name="Amacron.c2sc" horiz-adv-x="1259"/><glyph d="M51 0l338 1229h481l338 -1229q-10 -4 -26.5 -12t-58.5 -35t-74.5 -55.5t-59 -73.5t-26.5 -90q0 -39 28.5 -65.5t73.5 -26.5q33 0 68.5 7t54.5 15l20 8v-92q-61 -41 -143 -41q-90 0 -147.5 53.5t-57.5 131.5q0 49 22.5 95t53.5 77.5t62.5 56t54.5 35.5l22 12h2l-104 389 h-686l-103 -389h-133zM317 512h625l-164 594h-297z" glyph-name="Aogonek.c2sc" horiz-adv-x="1259"/><glyph d="M51 0l338 1229h481l338 -1229h-133l-102 389h-686l-103 -389h-133zM317 512h625l-164 594h-297zM430 1556.5q0 83.5 60.5 144t144.5 60.5t144.5 -60.5t60.5 -144t-60.5 -144t-144.5 -60.5t-144.5 60.5t-60.5 144zM522 1556.5q0 -45.5 34 -79t79 -33.5t79 33.5t34 79 t-34 79t-79 33.5t-79 -33.5t-34 -79z" glyph-name="Aring.c2sc" horiz-adv-x="1259"/><glyph d="M51 0l338 1229h481l338 -1229h-133l-102 389h-686l-103 -389h-133zM317 512h625l-164 594h-297zM328 1434v53q0 76 49 124t125 48q45 0 86 -20.5t66.5 -46t56 -46t57.5 -20.5q31 0 51.5 20.5t20.5 50.5v52h102v-54q0 -76 -49 -124t-125 -48q-57 0 -106.5 34t-88 66.5 t-71.5 32.5q-31 0 -51.5 -20t-20.5 -51v-51h-102z" glyph-name="Atilde.c2sc" horiz-adv-x="1259"/><glyph d="M51 0l338 1229h1290v-123h-696v-420h573v-123h-573v-440h696v-123h-829v389h-563l-103 -389h-133zM317 512h533v594h-369z" glyph-name="AE.c2sc" horiz-adv-x="1771"/><glyph d="M184 0v1229h615q158 0 258 -92.5t100 -225.5q0 -63 -18.5 -113t-43 -78t-50 -46.5t-44.5 -22.5l-18 -6v-10q10 -2 25.5 -5t56.5 -22.5t71.5 -47.5t56.5 -84t26 -128q0 -143 -118 -245.5t-306 -102.5h-611zM317 696h482q106 0 165.5 55.5t59.5 149.5t-59.5 149.5 t-165.5 55.5h-482v-410zM317 123h482q133 0 209.5 64.5t76.5 160.5t-76.5 160.5t-209.5 64.5h-482v-450z" glyph-name="B.c2sc" horiz-adv-x="1331"/><glyph d="M102 614.5q0 268.5 193.5 462t462.5 193.5q137 0 251.5 -46t181 -113t113 -133.5t62.5 -113.5l16 -45h-133q-4 14 -14 36t-50 78t-90.5 99t-140.5 79t-196 36q-215 0 -368.5 -155.5t-153.5 -377t153.5 -377t368.5 -155.5q109 0 201 37t145 89t90 105.5t51 89.5l15 37h133 q-6 -20 -17.5 -52t-61.5 -115t-114.5 -146.5t-182.5 -115.5t-259 -52q-268 0 -462 193.5t-194 462z" glyph-name="C.c2sc" horiz-adv-x="1484"/><glyph d="M102 614.5q0 268.5 193.5 462t462.5 193.5q137 0 251.5 -46t181 -113t113 -133.5t62.5 -113.5l16 -45h-133q-4 14 -14 36t-50 78t-90.5 99t-140.5 79t-196 36q-215 0 -368.5 -155.5t-153.5 -377t153.5 -377t368.5 -155.5q109 0 201 37t145 89t90 105.5t51 89.5l15 37h133 q-6 -20 -17.5 -52t-61.5 -115t-114.5 -146.5t-182.5 -115.5t-259 -52q-268 0 -462 193.5t-194 462zM686 1413l184 297h154v-2l-236 -295h-102z" glyph-name="Cacute.c2sc" horiz-adv-x="1484"/><glyph d="M102 614.5q0 268.5 193.5 462t462.5 193.5q137 0 251.5 -46t181 -113t113 -133.5t62.5 -113.5l16 -45h-133q-4 14 -14 36t-50 78t-90.5 99t-140.5 79t-196 36q-215 0 -368.5 -155.5t-153.5 -377t153.5 -377t368.5 -155.5q109 0 201 37t145 89t90 105.5t51 89.5l15 37h133 q-6 -20 -17.5 -52t-61.5 -115t-114.5 -146.5t-182.5 -115.5t-259 -52q-268 0 -462 193.5t-194 462zM471 1708v2h123l154 -205h30l154 205h123v-2l-226 -295h-133z" glyph-name="Ccaron.c2sc" horiz-adv-x="1484"/><glyph d="M102 614q0 268 193.5 462t462.5 194q137 0 251.5 -46t181 -113t113 -133.5t62.5 -113.5l16 -45h-133q-4 14 -14 36t-50 78t-90.5 99t-140.5 79t-196 36q-215 0 -368.5 -155.5t-153.5 -377t153.5 -377t368.5 -155.5q109 0 201 37t145 89t90 105.5t51 89.5l15 37h133 q-4 -18 -15.5 -49t-58.5 -109.5t-107.5 -141t-171 -118t-241.5 -63.5l-31 -72q70 -8 117 -57t47 -117q0 -86 -58.5 -140t-156.5 -54q-41 0 -77 10t-50 20l-17 11v92q51 -41 144 -41q53 0 82.5 27.5t29.5 74.5q0 41 -31.5 66.5t-90.5 25.5h-72l72 154q-254 23 -429.5 211 t-175.5 444z" glyph-name="Ccedilla.c2sc" horiz-adv-x="1484"/><glyph d="M102 614.5q0 268.5 193.5 462t462.5 193.5q137 0 251.5 -46t181 -113t113 -133.5t62.5 -113.5l16 -45h-133q-4 14 -14 36t-50 78t-90.5 99t-140.5 79t-196 36q-215 0 -368.5 -155.5t-153.5 -377t153.5 -377t368.5 -155.5q109 0 201 37t145 89t90 105.5t51 89.5l15 37h133 q-6 -20 -17.5 -52t-61.5 -115t-114.5 -146.5t-182.5 -115.5t-259 -52q-268 0 -462 193.5t-194 462zM471 1413v2l225 295h133l226 -295v-2h-123l-154 205h-30l-154 -205h-123z" glyph-name="Ccircumflex.c2sc" horiz-adv-x="1484"/><glyph d="M184 0v1229h420q297 0 476.5 -171t179.5 -443.5t-179.5 -443.5t-476.5 -171h-420zM317 123h287q244 0 383 133t139 358.5t-139 358.5t-383 133h-287v-983z" glyph-name="D.c2sc" horiz-adv-x="1361"/><glyph d="M184 0v1229h420q297 0 476.5 -171t179.5 -443.5t-179.5 -443.5t-476.5 -171h-420zM317 123h287q244 0 383 133t139 358.5t-139 358.5t-383 133h-287v-983zM410 1688v2h122l154 -205h31l153 205h123v-2l-225 -295h-133z" glyph-name="Dcaron.c2sc" horiz-adv-x="1361"/><glyph d="M51 543v123h144v563h419q297 0 476.5 -171t179.5 -443.5t-179.5 -443.5t-476.5 -171h-419v543h-144zM328 123h286q244 0 383.5 133t139.5 358.5t-139.5 358.5t-383.5 133h-286v-440h317v-123h-317v-420z" glyph-name="Dcroat.c2sc" horiz-adv-x="1372"/><glyph d="M51 543v123h144v563h419q297 0 476.5 -171t179.5 -443.5t-179.5 -443.5t-476.5 -171h-419v543h-144zM328 123h286q244 0 383.5 133t139.5 358.5t-139.5 358.5t-383.5 133h-286v-440h317v-123h-317v-420z" glyph-name="Eth.c2sc" horiz-adv-x="1372"/><glyph d="M184 0v1229h871v-123h-738v-420h615v-123h-615v-440h738v-123h-871z" glyph-name="E.c2sc" horiz-adv-x="1146"/><glyph d="M184 0v1229h871v-123h-738v-420h615v-123h-615v-440h738v-123h-871zM532 1413l185 297h153v-2l-235 -295h-103z" glyph-name="Eacute.c2sc" horiz-adv-x="1146"/><glyph d="M184 0v1229h871v-123h-738v-420h615v-123h-615v-440h738v-123h-871zM328 1708v2h123l153 -205h31l153 205h123v-2l-225 -295h-133z" glyph-name="Ecaron.c2sc" horiz-adv-x="1146"/><glyph d="M51 1024h133l236 -911h194l267 911h133l-338 -1126q-43 -143 -125 -215t-223 -72h-164v113h164q98 0 147 39.5t78 134.5l31 102h-256zM481 1229l185 297h153v-2l-235 -295h-103z" glyph-name="yacute.salt" horiz-adv-x="1034"/><glyph d="M184 0v1229h871v-123h-738v-420h615v-123h-615v-440h738v-123h-871zM696 1546q0 39 27 65.5t65.5 26.5t65.5 -26.5t27 -65.5t-27 -65.5t-65.5 -26.5t-65.5 26.5t-27 65.5zM348 1546q0 39 26.5 65.5t65.5 26.5t65.5 -26.5t26.5 -65.5t-26.5 -65.5t-65.5 -26.5t-65.5 26.5 t-26.5 65.5z" glyph-name="Edieresis.c2sc" horiz-adv-x="1146"/><glyph d="M184 0v1229h871v-123h-738v-420h615v-123h-615v-440h738v-123h-871zM532 1536q0 39 27 65.5t66 26.5t65.5 -26.5t26.5 -65.5t-26.5 -65.5t-65.5 -26.5t-66 26.5t-27 65.5z" glyph-name="Edotaccent.c2sc" horiz-adv-x="1146"/><glyph d="M184 0v1229h871v-123h-738v-420h615v-123h-615v-440h738v-123h-871zM369 1708v2h153l185 -297h-103z" glyph-name="Egrave.c2sc" horiz-adv-x="1146"/><glyph d="M184 0v1229h871v-123h-738v-420h615v-123h-615v-440h738v-123h-871zM369 1495v113h522v-113h-522z" glyph-name="Emacron.c2sc" horiz-adv-x="1146"/><glyph d="M184 0v1229h871v-123h-738v-420h615v-123h-615v-440h738v-123q-10 -4 -26.5 -12t-58.5 -35t-75 -55.5t-59.5 -73.5t-26.5 -90q0 -39 28.5 -65.5t73.5 -26.5q33 0 69 7t56 15l19 8v-92q-61 -41 -144 -41q-90 0 -147 53.5t-57 131t54 146.5t107 99l54 31h-738z" glyph-name="Eogonek.c2sc" horiz-adv-x="1146"/><glyph d="M184 0v1229h850v-123h-717v-461h574v-123h-574v-522h-133z" glyph-name="F.c2sc" horiz-adv-x="1085"/><glyph d="M102 614.5q0 268.5 193.5 462t464.5 193.5q137 0 251.5 -44t180 -107.5t112 -127t62.5 -106.5l16 -45h-133q-4 12 -14 32.5t-50 73.5t-90.5 94t-140.5 74t-196 33q-215 0 -368.5 -155.5t-153.5 -377t153.5 -377t368.5 -155.5q203 0 349 134t163 316h-246v123h553v-123 h-174q-25 -236 -207 -404.5t-438 -168.5q-268 0 -462 193.5t-194 462z" glyph-name="G.c2sc" horiz-adv-x="1597"/><glyph d="M102 614.5q0 268.5 193.5 462t464.5 193.5q137 0 251.5 -44t180 -107.5t112 -127t62.5 -106.5l16 -45h-133q-4 12 -14 32.5t-50 73.5t-90.5 94t-140.5 74t-196 33q-215 0 -368.5 -155.5t-153.5 -377t153.5 -377t368.5 -155.5q203 0 349 134t163 316h-246v123h553v-123 h-174q-25 -236 -207 -404.5t-438 -168.5q-268 0 -462 193.5t-194 462zM492 1659h112q0 -63 44 -103t120 -40t120 39.5t44 103.5h112q0 -102 -77.5 -174t-198.5 -72t-198.5 72t-77.5 174z" glyph-name="Gbreve.c2sc" horiz-adv-x="1597"/><glyph d="M102 614.5q0 268.5 193.5 462t464.5 193.5q137 0 251.5 -44t180 -107.5t112 -127t62.5 -106.5l16 -45h-133q-4 12 -14 32.5t-50 73.5t-90.5 94t-140.5 74t-196 33q-215 0 -368.5 -155.5t-153.5 -377t153.5 -377t368.5 -155.5q203 0 349 134t163 316h-246v123h553v-123 h-174q-25 -236 -207 -404.5t-438 -168.5q-268 0 -462 193.5t-194 462zM676 -287q0 31 27.5 56.5t64.5 25.5q49 0 81 -40t32 -113q0 -90 -54.5 -148.5t-140.5 -66.5v61q113 16 113 113l-11 41q-10 -10 -30 -11q-82 0 -82 82z" glyph-name="Gcommaaccent.c2sc" horiz-adv-x="1597"/><glyph d="M184 0v1229h133v-543h738v543h133v-1229h-133v563h-738v-563h-133z" glyph-name="H.c2sc" horiz-adv-x="1372"/><glyph d="M184 0v1229h133v-1229h-133z" glyph-name="I.c2sc" horiz-adv-x="501"/><glyph d="M184 0v1229h133v-1229h-133zM195 1413l184 297h153v-2l-235 -295h-102z" glyph-name="Iacute.c2sc" horiz-adv-x="501"/><glyph d="M184 0v1229h133v-1229h-133zM-41 1413v2l225 295h133l226 -295v-2h-123l-154 205h-30l-154 -205h-123z" glyph-name="Icircumflex.c2sc" horiz-adv-x="501"/><glyph d="M184 0v1229h133v-1229h-133zM164 1536q0 39 26.5 65.5t65.5 26.5t65.5 -26.5t26.5 -65.5t-26.5 -65.5t-65.5 -26.5t-65.5 26.5t-26.5 65.5z" glyph-name="Idotaccent.c2sc" horiz-adv-x="501"/><glyph d="M184 0v1229h133v-1229h-133zM338 1546q0 39 26.5 65.5t65.5 26.5t65.5 -26.5t26.5 -65.5t-26.5 -65.5t-65.5 -26.5t-65.5 26.5t-26.5 65.5zM-10 1546q0 39 26.5 65.5t65.5 26.5t65.5 -26.5t26.5 -65.5t-26.5 -65.5t-65.5 -26.5t-65.5 26.5t-26.5 65.5z" glyph-name="Idieresis.c2sc" horiz-adv-x="501"/><glyph d="M184 0v1229h133v-1229h-133zM-20 1708v2h153l184 -297h-102z" glyph-name="Igrave.c2sc" horiz-adv-x="501"/><glyph d="M184 0v1229h133v-1229h-133zM-10 1495v113h522v-113h-522z" glyph-name="Imacron.c2sc" horiz-adv-x="501"/><glyph d="M-31 -276.5q0 77.5 54.5 146.5t107.5 99l55 31h-2v1229h133v-1229q-10 -4 -26.5 -12t-58.5 -35t-74.5 -55.5t-59 -73.5t-26.5 -90q0 -39 28.5 -65.5t73.5 -26.5q33 0 69 7t56 15l18 8v-92q-61 -41 -143 -41q-90 0 -147.5 53.5t-57.5 131z" glyph-name="Iogonek.c2sc" horiz-adv-x="501"/><glyph d="M0 287l133 30q2 -10 8 -26.5t31 -58.5t56.5 -74.5t91 -59t131.5 -26.5q139 0 223 87t84 236v834h133v-834q0 -205 -120 -325.5t-320 -120.5q-102 0 -187.5 34.5t-131.5 85t-79 99.5t-43 84z" glyph-name="J.c2sc" horiz-adv-x="1064"/><glyph d="M184 0v1229h133v-543h297l390 543h163l-430 -594l451 -635h-164l-399 563h-308v-563h-133z" glyph-name="K.c2sc" horiz-adv-x="1208"/><glyph d="M184 0v1229h133v-543h297l390 543h163l-430 -594l451 -635h-164l-399 563h-308v-563h-133zM553 -287q0 31 27.5 56.5t64.5 25.5q49 0 81 -40t32 -113q0 -90 -54.5 -148.5t-140.5 -66.5v61q113 16 113 113l-10 41q-10 -10 -31 -11q-82 0 -82 82z" glyph-name="Kcommaaccent.c2sc" horiz-adv-x="1208"/><glyph d="M184 0v1229h133v-1106h697v-123h-830z" glyph-name="L.c2sc" horiz-adv-x="1034"/><glyph d="M184 0v1229h133v-1106h697v-123h-830zM215 1413l184 297h154v-2l-236 -295h-102z" glyph-name="Lacute.c2sc" horiz-adv-x="1034"/><glyph d="M184 0v1229h133v-1106h697v-123h-830zM492 1167q0 31 27.5 56.5t64.5 25.5q49 0 80.5 -40t31.5 -113q0 -90 -54 -148.5t-140 -66.5v61q113 16 112 113l-10 41q-10 -10 -31 -11q-81 0 -81 82z" glyph-name="Lcaron.c2sc" horiz-adv-x="1034"/><glyph d="M184 0v1229h133v-1106h697v-123h-830zM512 -287q0 31 27.5 56.5t64.5 25.5q49 0 81 -40t32 -113q0 -90 -54.5 -148.5t-140.5 -66.5v61q113 16 113 113l-10 41q-10 -10 -31 -11q-82 0 -82 82z" glyph-name="Lcommaaccent.c2sc" horiz-adv-x="1034"/><glyph d="M51 420v133l133 61v615h133v-563l267 122v-133l-267 -123v-409h697v-123h-830v481z" glyph-name="Lslash.c2sc" horiz-adv-x="1034"/><glyph d="M184 0v1229h215l410 -799h113l409 799h215v-1229h-133v1085l2 21h-2l-409 -799h-277l-410 799h-2l2 -21v-1085h-133z" glyph-name="M.c2sc" horiz-adv-x="1730"/><glyph d="M184 0v1229h195l696 -1075h2l-2 20v1055h133v-1229h-194l-697 1075h-2l2 -20v-1055h-133z" glyph-name="N.c2sc" horiz-adv-x="1392"/><glyph d="M184 0v1229h195l696 -1075h2l-2 20v1055h133v-1229h-194l-697 1075h-2l2 -20v-1055h-133zM635 1413l184 297h154v-2l-236 -295h-102z" glyph-name="Nacute.c2sc" horiz-adv-x="1392"/><glyph d="M184 0v1229h195l696 -1075h2l-2 20v1055h133v-1229h-194l-697 1075h-2l2 -20v-1055h-133zM410 1708v2h122l154 -205h31l153 205h123v-2l-225 -295h-133z" glyph-name="Ncaron.c2sc" horiz-adv-x="1392"/><glyph d="M184 0v1229h195l696 -1075h2l-2 20v1055h133v-1229h-194l-697 1075h-2l2 -20v-1055h-133zM604 -287q0 31 27.5 56.5t64.5 25.5q49 0 81 -40t32 -113q0 -90 -54.5 -148.5t-140.5 -66.5v61q113 16 113 113l-10 41q-10 -10 -31 -11q-82 0 -82 82z" glyph-name="Ncommaaccent.c2sc" horiz-adv-x="1392"/><glyph d="M184 0v1229h195l696 -1075h2l-2 20v1055h133v-1229h-194l-697 1075h-2l2 -20v-1055h-133zM399 1434v53q0 76 49.5 124t124.5 48q45 0 86 -20.5t67 -46t56.5 -46t57.5 -20.5q31 0 51 20.5t20 50.5v52h103v-54q0 -76 -49.5 -124t-124.5 -48q-57 0 -106.5 34t-88.5 66.5 t-72 32.5q-31 0 -51 -20t-20 -51v-51h-103z" glyph-name="Ntilde.c2sc" horiz-adv-x="1392"/><glyph d="M102 614.5q0 276.5 191.5 466t474.5 189.5t474.5 -189.5t191.5 -466t-191.5 -466t-474.5 -189.5t-474.5 189.5t-191.5 466zM236 614.5q0 -229.5 150.5 -381t381.5 -151.5t381.5 151.5t150.5 381t-150.5 381t-381.5 151.5t-381.5 -151.5t-150.5 -381z" glyph-name="O.c2sc" horiz-adv-x="1536"/><glyph d="M102 614.5q0 276.5 191.5 466t474.5 189.5t474.5 -189.5t191.5 -466t-191.5 -466t-474.5 -189.5t-474.5 189.5t-191.5 466zM236 614.5q0 -229.5 150.5 -381t381.5 -151.5t381.5 151.5t150.5 381t-150.5 381t-381.5 151.5t-381.5 -151.5t-150.5 -381zM707 1413l184 297 h153v-2l-235 -295h-102z" glyph-name="Oacute.c2sc" horiz-adv-x="1536"/><glyph d="M102 614.5q0 276.5 191.5 466t474.5 189.5t474.5 -189.5t191.5 -466t-191.5 -466t-474.5 -189.5t-474.5 189.5t-191.5 466zM236 614.5q0 -229.5 150.5 -381t381.5 -151.5t381.5 151.5t150.5 381t-150.5 381t-381.5 151.5t-381.5 -151.5t-150.5 -381zM481 1413v2l226 295 h133l225 -295v-2h-123l-154 205h-30l-154 -205h-123z" glyph-name="Ocircumflex.c2sc" horiz-adv-x="1536"/><glyph d="M102 614.5q0 276.5 191.5 466t474.5 189.5t474.5 -189.5t191.5 -466t-191.5 -466t-474.5 -189.5t-474.5 189.5t-191.5 466zM236 614.5q0 -229.5 150.5 -381t381.5 -151.5t381.5 151.5t150.5 381t-150.5 381t-381.5 151.5t-381.5 -151.5t-150.5 -381zM850 1536 q0 39 26.5 65.5t65.5 26.5t65.5 -26.5t26.5 -65.5t-26.5 -65.5t-65.5 -26.5t-65.5 26.5t-26.5 65.5zM502 1536q0 39 26.5 65.5t65.5 26.5t65.5 -26.5t26.5 -65.5t-26.5 -65.5t-65.5 -26.5t-65.5 26.5t-26.5 65.5z" glyph-name="Odieresis.c2sc" horiz-adv-x="1536"/><glyph d="M102 614.5q0 276.5 191.5 466t474.5 189.5t474.5 -189.5t191.5 -466t-191.5 -466t-474.5 -189.5t-474.5 189.5t-191.5 466zM236 614.5q0 -229.5 150.5 -381t381.5 -151.5t381.5 151.5t150.5 381t-150.5 381t-381.5 151.5t-381.5 -151.5t-150.5 -381zM492 1708v2h153 l184 -297h-102z" glyph-name="Ograve.c2sc" horiz-adv-x="1536"/><glyph d="M102 614.5q0 276.5 191.5 466t474.5 189.5t474.5 -189.5t191.5 -466t-191.5 -466t-474.5 -189.5t-474.5 189.5t-191.5 466zM236 614.5q0 -229.5 150.5 -381t381.5 -151.5t381.5 151.5t150.5 381t-150.5 381t-381.5 151.5t-381.5 -151.5t-150.5 -381zM829 1413l154 297 h143v-2l-204 -295h-93zM532 1413l154 297h143v-2l-204 -295h-93z" glyph-name="Ohungarumlaut.c2sc" horiz-adv-x="1536"/><glyph d="M102 614.5q0 276.5 191.5 466t474.5 189.5t474.5 -189.5t191.5 -466t-191.5 -466t-474.5 -189.5t-474.5 189.5t-191.5 466zM236 614.5q0 -229.5 150.5 -381t381.5 -151.5t381.5 151.5t150.5 381t-150.5 381t-381.5 151.5t-381.5 -151.5t-150.5 -381zM502 1485v112h522 v-112h-522z" glyph-name="Omacron.c2sc" horiz-adv-x="1536"/><glyph d="M51 -10v143l156 121q-104 164 -105 360q0 276 191.5 466t474.5 190q297 0 489 -207l228 176v-143l-156 -121q104 -164 105 -361q0 -276 -191.5 -465.5t-474.5 -189.5q-297 0 -492 205zM236 614q0 -158 73 -282l848 655q-150 160 -389 160q-231 0 -381.5 -152t-150.5 -381 zM377 242q154 -160 391 -160q231 0 381.5 151.5t150.5 380.5q0 156 -73 281z" glyph-name="Oslash.c2sc" horiz-adv-x="1536"/><glyph d="M102 614.5q0 276.5 191.5 466t474.5 189.5t474.5 -189.5t191.5 -466t-191.5 -466t-474.5 -189.5t-474.5 189.5t-191.5 466zM236 614.5q0 -229.5 150.5 -381t381.5 -151.5t381.5 151.5t150.5 381t-150.5 381t-381.5 151.5t-381.5 -151.5t-150.5 -381zM461 1434v53 q0 76 49 124t125 48q45 0 86 -20.5t66.5 -46t56 -46t57.5 -20.5q31 0 51.5 20.5t20.5 50.5v52h102v-54q0 -76 -49 -124t-125 -48q-57 0 -106.5 34t-88 66.5t-71.5 32.5q-31 0 -51.5 -20t-20.5 -51v-51h-102z" glyph-name="Otilde.c2sc" horiz-adv-x="1536"/><glyph d="M102 614.5q0 276.5 187.5 466t458.5 189.5q98 0 186 -28t145.5 -66.5t99.5 -77.5t62 -66l19 -28v225h819v-123h-686v-420h563v-123h-563v-440h686v-123h-819v225q-6 -10 -19.5 -28.5t-60.5 -64.5t-101.5 -81t-143.5 -63.5t-187 -28.5q-270 0 -458 189.5t-188 466z M236 614.5q0 -229.5 148 -381t366 -151.5q215 0 362.5 151.5t147.5 381t-147.5 381t-365 151.5t-364.5 -151.5t-147 -381z" glyph-name="OE.c2sc" horiz-adv-x="2170"/><glyph d="M184 0v1229h543q211 0 336 -112.5t125 -287t-125 -287t-336 -112.5h-410v-430h-133zM317 553h410q158 0 243 74.5t85 201.5t-85 202t-243 75h-410v-553z" glyph-name="P.c2sc" horiz-adv-x="1269"/><glyph d="M102 614q0 276 191.5 466t474.5 190t474.5 -189.5t191.5 -466.5q0 -260 -171 -444t-434 -207v-332h-122v332q-262 23 -433.5 207t-171.5 444zM236 614.5q0 -229.5 150.5 -381t381.5 -151.5t381.5 151.5t150.5 381t-150.5 381t-381.5 151.5t-381.5 -151.5t-150.5 -381z " glyph-name="Q.c2sc" horiz-adv-x="1536"/><glyph d="M184 0v1229h553q201 0 326 -110.5t125 -268.5q0 -141 -89 -240.5t-239 -138.5l307 -471h-153l-297 461h-400v-461h-133zM317 584h420q150 0 234 73.5t84 192.5q0 111 -84 183.5t-234 72.5h-420v-522z" glyph-name="R.c2sc" horiz-adv-x="1300"/><glyph d="M184 0v1229h553q201 0 326 -110.5t125 -268.5q0 -141 -89 -240.5t-239 -138.5l307 -471h-153l-297 461h-400v-461h-133zM317 584h420q150 0 234 73.5t84 192.5q0 111 -84 183.5t-234 72.5h-420v-522zM563 1413l185 297h153v-2l-235 -295h-103z" glyph-name="Racute.c2sc" horiz-adv-x="1300"/><glyph d="M184 0v1229h553q201 0 326 -110.5t125 -268.5q0 -141 -89 -240.5t-239 -138.5l307 -471h-153l-297 461h-400v-461h-133zM317 584h420q150 0 234 73.5t84 192.5q0 111 -84 183.5t-234 72.5h-420v-522zM358 1708v2h123l154 -205h31l153 205h123v-2l-225 -295h-133z" glyph-name="Rcaron.c2sc" horiz-adv-x="1300"/><glyph d="M184 0v1229h553q201 0 326 -110.5t125 -268.5q0 -141 -89 -240.5t-239 -138.5l307 -471h-153l-297 461h-400v-461h-133zM317 584h420q150 0 234 73.5t84 192.5q0 111 -84 183.5t-234 72.5h-420v-522zM553 -287q0 31 27.5 56.5t64.5 25.5q49 0 81 -40t32 -113 q0 -90 -54.5 -148.5t-140.5 -66.5v61q113 16 113 113l-10 41q-10 -10 -31 -11q-82 0 -82 82z" glyph-name="Rcommaaccent.c2sc" horiz-adv-x="1300"/><glyph d="M92 328h133q2 -10 9.5 -26.5t37 -58.5t70.5 -75t115.5 -59.5t167.5 -26.5q174 0 271 72.5t97 173.5q0 76 -62.5 126t-155.5 72.5t-201.5 52t-201.5 61.5t-155.5 103.5t-62.5 178.5q0 145 123.5 246.5t336.5 101.5q121 0 216.5 -34t144.5 -82t80.5 -96t42.5 -83l8 -33 h-133q-2 8 -7 22.5t-31 49.5t-61.5 61.5t-104.5 49t-155 22.5q-154 0 -240.5 -67.5t-86.5 -157.5q0 -76 62.5 -126.5t155.5 -73t201.5 -52t201.5 -61t155.5 -103.5t62.5 -178q0 -154 -136 -261.5t-365 -107.5q-94 0 -174 20.5t-133.5 53.5t-95.5 71.5t-65.5 77.5t-39 72 t-19.5 53z" glyph-name="S.c2sc"/></font>
</defs>
</svg>
