<?xml version="1.0" standalone="no"?>
<!DOCTYPE svg PUBLIC "-//W3C//DTD SVG 1.1//EN" "http://www.w3.org/Graphics/SVG/1.1/DTD/svg11.dtd">
<svg xmlns="http://www.w3.org/2000/svg"><metadata>This SVG WebFont was generated by YouWorkForThem.
© 2016 Connary Fagen</metadata><defs><font horiz-adv-x="1298" id="ywftsvg"><font-face ascent="1638" bbox="-508 -524 2445 2009" cap-height="1434" descent="-410" font-family="" font-stretch="normal" font-weight="700" panose-1="0 0 8 0 0 0 0 0 0 0" underline-position="0" underline-thickness="0" unicode-range="U+0020-FB01" units-per-em="2048" x-height="1065"/><missing-glyph d="M831 1638v-2027h-643v2027h643zM676 1503h-336v-67h133v-76h-135v-66h338v66h-135v76h135v67zM541 1241h-203v-211h338v70h-135v141zM473 1171v-71h-67v71h67zM676 975h-338v-66h135v-75h-135v-68h203v143h135v66zM676 854h-68v-133h-270v-70h338v203zM676 606h-203v-112 h68v45h67v-95h-202v162h-68v-229h338v229zM676 256h-338v-229h338v229zM608 188v-94h-202v94h202zM676 -20h-338v-66h143l-143 -96v-68h338v68h-207l141 96h66v66z" horiz-adv-x="1013"/><glyph d="M440 1065h672v-1065h-264v848h-408v-848h-264v848h-135v217h135v53q0 88 24.5 155.5t61.5 104.5t87 59.5t93 29t90 6.5q84 0 166 -21v-215q-55 18 -112 18q-145 0 -146 -135v-55zM848 1448h264v-252h-264v252z" glyph-name="uniFB01" horiz-adv-x="1222" unicode="fi"/><glyph d="M1315 1247q-152 0 -152 -147v-35h254v-217h-254v-848h-264v848h-459v-848h-264v848h-135v217h135v49q0 111 35 187.5t94.5 111.5t112.5 47.5t114 12.5q164 0 265 -68l-84 -182q-51 25 -121 24q-152 0 -152 -147v-35h459v49q0 111 35 187.5t94 111.5t112.5 47.5 t114.5 12.5q164 0 265 -68l-84 -182q-51 24 -121 24z" glyph-name="f_f.liga" horiz-adv-x="1570" unicode="ff"/><glyph d="M831 1638v-2027h-643v2027h643zM676 1503h-336v-67h133v-76h-135v-66h338v66h-135v76h135v67zM541 1241h-203v-211h338v70h-135v141zM473 1171v-71h-67v71h67zM676 975h-338v-66h135v-75h-135v-68h203v143h135v66zM676 854h-68v-133h-270v-70h338v203zM676 606h-203v-112 h68v45h67v-95h-202v162h-68v-229h338v229zM676 256h-338v-229h338v229zM608 188v-94h-202v94h202zM676 -20h-338v-66h143l-143 -96v-68h338v68h-207l141 96h66v66z" glyph-name=".notdef" horiz-adv-x="1013"/><glyph glyph-name="glyph1" horiz-adv-x="0"/><glyph glyph-name="glyph2" horiz-adv-x="681"/><glyph glyph-name="space" horiz-adv-x="497" unicode=" "/><glyph d="M424 1434v-981h-301v981h301zM274.5 -20q-63.5 0 -107.5 43t-44 108.5t44 108.5t107.5 43t107.5 -43t44 -108.5t-44 -108.5t-107.5 -43z" glyph-name="exclam" horiz-adv-x="548" unicode="!"/><glyph d="M326 1434l-37 -467h-178l-39 467h254zM711 1434l-37 -467h-178l-39 467h254z" glyph-name="quotedbl" horiz-adv-x="782" unicode="&quot;"/><glyph d="M1034 836h-116l-17 -236h133v-231h-149l-27 -369h-268l26 369h-165l-27 -369h-268l26 369h-90v231h107l16 236h-123v229h139l27 369h268l-26 -369h166l26 369h269l-27 -369h100v-229zM633 600l16 236h-166l-16 -236h166z" glyph-name="numbersign" horiz-adv-x="1126" unicode="#"/><glyph d="M1102 406q0 -170 -116 -279t-284 -137v-174h-229v176q-147 29 -253.5 120t-147.5 220l207 108q96 -217 315 -217q102 0 165.5 48t63.5 139q0 76 -51 116.5t-182 89.5l-90 35q-182 66 -279.5 159t-97.5 251q0 152 97 252t253 131v174h229v-176q127 -27 219.5 -106 t141.5 -179l-199 -117q-61 90 -123.5 133.5t-150.5 43.5q-90 0 -145.5 -45.5t-55.5 -118.5q0 -113 176 -179l99 -36q231 -82 334.5 -182t103.5 -250z" glyph-name="dollar" horiz-adv-x="1173" unicode="$"/><glyph d="M325.5 1444q106.5 0 180.5 -73t74 -179.5t-74 -179t-180.5 -72.5t-180 72.5t-73.5 179t73.5 179.5t180 73zM1034 1438l197 -125l-860 -1313l-201 125zM325.5 1272q-32.5 0 -56 -23.5t-23.5 -56.5t23.5 -56.5t56 -23.5t56.5 23.5t24 56.5t-24 56.5t-56.5 23.5zM1103.5 494 q106.5 0 180.5 -73t74 -179.5t-74 -179t-180.5 -72.5t-180 72.5t-73.5 179t73.5 179.5t180 73zM1104 322q-33 0 -56.5 -24t-23.5 -56.5t23.5 -56t56.5 -23.5t56.5 23.5t23.5 56t-23.5 56.5t-56.5 24z" glyph-name="percent" horiz-adv-x="1429" unicode="%"/><glyph d="M1368 225q66 0 127 35v-219q-61 -47 -152 -47q-231 0 -231 239v39q-53 -127 -163.5 -209.5t-284.5 -82.5q-219 0 -380 124.5t-161 350.5q0 184 108.5 297.5t255.5 144.5l-278 537h885v-230h-519l252 -487h-98q-147 0 -242.5 -71t-95.5 -189q0 -113 85 -179.5t204 -66.5 q131 0 233.5 81t102.5 232v346h418v-217h-160v-319q0 -63 22.5 -86t71.5 -23z" glyph-name="ampersand" horiz-adv-x="1566" unicode="&amp;"/><glyph d="M326 1434l-37 -467h-178l-39 467h254z" glyph-name="quotesingle" horiz-adv-x="397" unicode="'"/><glyph d="M567 1526q-207 -375 -207 -871q0 -524 207 -921h-258q-217 387 -217 921q0 508 217 871h258z" glyph-name="parenleft" horiz-adv-x="665" unicode="("/><glyph d="M92 1526h258q217 -362 217 -871q0 -535 -217 -921h-258q207 397 207 921q0 496 -207 871z" glyph-name="parenright" horiz-adv-x="665" unicode=")"/><glyph d="M907 1122l-198 -53l137 -182l-193 -119l-123 176l-122 -176l-193 119l137 182l-198 53l53 224l219 -66l-6 231h217l-2 -231l219 66z" glyph-name="asterisk" horiz-adv-x="1060" unicode="*"/><glyph d="M831 688v-221h-276v-272h-219v272h-275v221h275v273h219v-273h276z" glyph-name="plus" horiz-adv-x="892" unicode="+"/><glyph d="M51 -233l185 526h229l-186 -526h-228z" glyph-name="comma" horiz-adv-x="522" unicode=","/><glyph d="M727 674v-219h-635v219h635z" glyph-name="hyphen" horiz-adv-x="819" unicode="-"/><glyph d="M223.5 -20q-63.5 0 -107.5 43t-44 108.5t44 108.5t107.5 43t107.5 -43t44 -108.5t-44 -108.5t-107.5 -43z" glyph-name="period" horiz-adv-x="446" unicode="."/><glyph d="M1053 1526l-697 -1792h-274l696 1792h275z" glyph-name="slash" horiz-adv-x="1134" unicode="/"/><glyph d="M825 1454q301 0 518.5 -209t217.5 -528.5t-217.5 -528t-518.5 -208.5t-517 208.5t-216 528t216 528.5t517 209zM825.5 225q194.5 0 329.5 139.5t135 352.5t-135 352t-329.5 139t-330 -139t-135.5 -352t135.5 -352.5t330 -139.5z" glyph-name="zero" horiz-adv-x="1652" unicode="0"/><glyph d="M606 1434v-1434h-264v1192h-233v242h497z" glyph-name="one" horiz-adv-x="755" unicode="1"/><glyph d="M578 1454q217 0 350 -129t133 -309q0 -43 -5 -79t-23.5 -78t-32 -68.5t-54.5 -80t-63.5 -82t-86 -104t-98.5 -118.5l-139 -173h502v-233h-971v39l367 444q240 293 280 361q49 80 49 160q0 113 -64.5 163t-143.5 50q-84 0 -146.5 -55.5t-62.5 -176.5v-37h-275v37 q0 199 129.5 334t354.5 135z" glyph-name="two" horiz-adv-x="1153" unicode="2"/><glyph d="M287 412q98 -201 295 -201q59 0 115.5 19.5t104.5 81t48 159.5q0 147 -125 220t-326 22l295 491h-547v230h930l-332 -537q156 -16 264.5 -136t108.5 -290q0 -225 -154.5 -358t-383.5 -133q-176 0 -306.5 85t-191.5 224z" glyph-name="three" horiz-adv-x="1200" unicode="3"/><glyph d="M1122 561v-229h-153v-332h-269v332h-618v229l618 873h269v-873h153zM356 561h344v510z" glyph-name="four" horiz-adv-x="1193" unicode="4"/><glyph d="M969 1434v-230h-529l-39 -293q78 68 230 68q197 0 345 -140.5t148 -357.5q0 -225 -152.5 -363t-379.5 -138q-174 0 -308 82.5t-192 216.5l207 110q33 -68 104.5 -121t188.5 -53q106 0 187 66.5t81 199.5q0 137 -84 206t-190 69q-123 0 -232 -105l-221 70l96 713h740z" glyph-name="five" horiz-adv-x="1206" unicode="5"/><glyph d="M934 1434l-422 -557q20 18 82 18q180 0 319.5 -138.5t139.5 -320.5q0 -197 -145.5 -326.5t-340.5 -129.5q-193 0 -339 132t-146 330q0 35 4 70t9 61.5t18.5 61.5t20.5 54.5t27.5 55t27 49t32 50.5t29.5 43t33 45l30 39l346 463h275zM567 666q-106 0 -170.5 -68 t-64.5 -160q0 -102 67.5 -165.5t168 -63.5t168 63.5t67.5 165.5q0 94 -68 161t-168 67z" glyph-name="six" horiz-adv-x="1134" unicode="6"/><glyph d="M991 1434l-590 -1434h-260l502 1204h-582v230h930z" glyph-name="seven" horiz-adv-x="1052" unicode="7"/><glyph d="M850 815q106 -47 173 -146.5t67 -224.5q0 -209 -155 -336.5t-355.5 -127.5t-354 128t-153.5 336q0 125 66.5 224.5t170.5 146.5q-141 100 -141 275q0 152 113.5 258t298.5 106q186 0 299.5 -106.5t113.5 -257.5q0 -177 -143 -275zM416 1067q0 -63 45 -109.5t118.5 -46.5 t119.5 46.5t46 109.5q0 66 -47 110t-118 44q-70 0 -117 -44t-47 -110zM579.5 217q102.5 0 171 63.5t68.5 163.5q0 106 -70.5 170t-168.5 64q-96 0 -167 -63.5t-71 -170.5q0 -102 67.5 -164.5t170 -62.5z" glyph-name="eight" horiz-adv-x="1161" unicode="8"/><glyph d="M201 0l422 557q-20 -18 -82 -18q-180 0 -319.5 138t-139.5 320q0 197 145.5 327t339.5 130q193 0 339.5 -132t146.5 -331q0 -35 -4.5 -69.5t-9.5 -61t-18 -61.5t-20.5 -54.5t-28 -55.5t-26.5 -49t-31.5 -50t-29.5 -43t-33 -45l-31 -39l-346 -463h-274zM567 768 q106 0 171 67.5t65 159.5q0 102 -67.5 166t-168 64t-168 -63.5t-67.5 -166.5q0 -94 67.5 -160.5t167.5 -66.5z" glyph-name="nine" horiz-adv-x="1134" unicode="9"/><glyph d="M253.5 766q-63.5 0 -107.5 43t-44 108.5t44 108.5t107.5 43t108 -43t44.5 -108.5t-44.5 -108.5t-108 -43zM253.5 -20q-63.5 0 -107.5 43t-44 108.5t44 108.5t107.5 43t108 -43t44.5 -108.5t-44.5 -108.5t-108 -43z" glyph-name="colon" horiz-adv-x="507" unicode=":"/><glyph d="M335.5 766q-63.5 0 -107.5 43t-44 108.5t44 108.5t107.5 43t107.5 -43t44 -108.5t-44 -108.5t-107.5 -43zM51 -233l185 526h229l-186 -526h-228z" glyph-name="semicolon" horiz-adv-x="559" unicode=";"/><glyph d="M946 985v-250l-479 -243l479 -240v-252l-854 451v84z" glyph-name="less" horiz-adv-x="1017" unicode="&lt;"/><glyph d="M780 838v-220h-686v220h686zM780 510v-219h-686v219h686z" glyph-name="equal" horiz-adv-x="872" unicode="="/><glyph d="M72 985l854 -450v-84l-854 -451v252l479 240l-479 243v250z" glyph-name="greater" horiz-adv-x="1017" unicode=">"/><glyph d="M563 1454q211 0 342 -113.5t131 -306.5q0 -90 -35.5 -158.5t-86 -110.5t-100.5 -80t-86 -90t-36 -118v-35h-268v35q0 96 36 165t86 107.5t100 73.5t86 83t36 114q0 78 -46 140.5t-157 62.5q-113 0 -164 -70t-51 -164h-268q0 221 129 343t352 122zM559.5 -20 q-63.5 0 -107.5 43t-44 108.5t44 108.5t107.5 43t107.5 -43t44 -108.5t-44 -108.5t-107.5 -43z" glyph-name="question" horiz-adv-x="1118" unicode="?"/><glyph d="M1006 1055h141v-398q0 -117 82 -116q92 0 92 207q0 223 -141.5 358t-337.5 135q-213 0 -364.5 -148.5t-151.5 -379.5q0 -223 155.5 -371.5t345.5 -148.5q90 0 159 19t89.5 32.5t77.5 54.5l197 -86q-80 -109 -213 -171t-295 -62q-285 0 -517.5 211.5t-232.5 521.5 q0 211 112.5 384t283.5 265t354 92q285 0 498.5 -199.5t213.5 -511.5q0 -193 -91 -292t-230 -99q-94 0 -149.5 36t-67.5 81q-53 -117 -205 -117q-129 0 -232.5 94.5t-103.5 266.5q0 170 103.5 263t232.5 93q43 0 96.5 -17.5t83.5 -43.5zM817 555q59 0 94 44t35 116 q0 68 -34.5 110.5t-94.5 42.5q-61 0 -95 -44t-34 -109q0 -68 34 -114t95 -46z" glyph-name="at" horiz-adv-x="1646" unicode="@"/><glyph d="M1225 0l-113 276h-674l-112 -276h-285l602 1434h264l604 -1434h-286zM528 498h494l-246 606z" glyph-name="A" horiz-adv-x="1552" unicode="A"/><glyph d="M860 791q127 -33 213 -136.5t86 -253.5q0 -184 -132 -292.5t-390 -108.5h-514v1434h493q209 0 324 -102.5t115 -254.5q0 -202 -195 -286zM592 1198h-201v-334h201q94 0 145 47t51 127q0 76 -51 118t-145 42zM625 236q266 0 266 210q0 96 -66.5 153.5t-206.5 57.5h-227 v-421h234z" glyph-name="B" horiz-adv-x="1230" unicode="B"/><glyph d="M1323 154q-199 -174 -487 -174q-303 0 -523.5 209.5t-220.5 527t220 527.5t524 210q283 0 479 -170l-162 -184q-137 102 -301 102q-203 0 -342 -138t-139 -347t139 -347.5t342 -138.5q172 0 309 111z" glyph-name="C" horiz-adv-x="1394" unicode="C"/><glyph d="M614 1434q305 0 515 -207t210 -504q0 -305 -208.5 -514t-516.5 -209h-491v1434h491zM612 254q211 0 333 134t122 335q0 193 -122 325t-333 132h-221v-926h221z" glyph-name="D" horiz-adv-x="1421" unicode="D"/><glyph d="M391 248h625v-248h-893v1434h874v-248h-606v-344h461v-242h-461v-352z" glyph-name="E" horiz-adv-x="1107" unicode="E"/><glyph d="M1008 1190h-617v-354h508v-230h-508v-606h-268v1434h885v-244z" glyph-name="F" horiz-adv-x="1079" unicode="F"/><glyph d="M1475 766q23 -178 -20.5 -328.5t-134.5 -249t-217 -153.5t-269 -55q-307 0 -524.5 208.5t-217.5 528.5q0 317 219 527t523 210q283 0 479 -170l-162 -184q-137 102 -301 102q-203 0 -341 -137t-138 -348t133 -348.5t334 -137.5q338 0 391 312h-359v223h605z" glyph-name="G" horiz-adv-x="1570" unicode="G"/><glyph d="M1006 1434h268v-1434h-268v590h-615v-590h-268v1434h268v-596h615v596z" glyph-name="H" horiz-adv-x="1396" unicode="H"/><glyph d="M391 1434v-1434h-268v1434h268z" glyph-name="I" horiz-adv-x="514" unicode="I"/><glyph d="M987 1434v-945q0 -137 -44 -239.5t-118.5 -158.5t-159.5 -83.5t-180 -27.5q-270 0 -424 202l170 185q102 -129 254 -129q92 0 163 61t71 225v910h268z" glyph-name="J" horiz-adv-x="1110" unicode="J"/><glyph d="M1047 0l-472 627l-184 -207v-420h-268v1434h268v-656l572 656h329l-551 -621l615 -813h-309z" glyph-name="K" horiz-adv-x="1406" unicode="K"/><glyph d="M391 248h582v-248h-850v1434h268v-1186z" glyph-name="L" horiz-adv-x="1054" unicode="L"/><glyph d="M1688 1434v-1434h-269v913h-10l-408 -913h-192l-408 913h-10v-913h-268v1434h295l487 -1092l488 1092h295z" glyph-name="M" horiz-adv-x="1810" unicode="M"/><glyph d="M123 0v1434h268l682 -994h14v994h269v-1434h-269l-681 993h-15v-993h-268z" glyph-name="N" horiz-adv-x="1478" unicode="N"/><glyph d="M833.5 1454q303.5 0 522.5 -208t219 -529.5t-219 -529t-522.5 -207.5t-522.5 207.5t-219 529t219 529.5t522.5 208zM834 231q190 0 325 137.5t135 348.5t-135 348t-325 137q-193 0 -328 -137t-135 -348t135 -348.5t328 -137.5z" glyph-name="O" horiz-adv-x="1667" unicode="O"/><glyph d="M616 1434q240 0 382.5 -133.5t142.5 -348.5q0 -213 -141.5 -339t-383.5 -126h-225v-487h-268v1434h493zM602 719q127 0 198.5 57.5t71.5 175.5q0 117 -71.5 175.5t-198.5 58.5h-211v-467h211z" glyph-name="P" horiz-adv-x="1212" unicode="P"/><glyph d="M1575 717q0 -303 -205 -514l156 -203h-316l-43 55q-158 -76 -333 -75q-303 0 -522.5 207.5t-219.5 529t219 529.5t522.5 208t522.5 -207.5t219 -529.5zM834 231q92 0 174 35l-285 371h315l166 -215q90 131 90 295q0 211 -135 348t-325 137q-193 0 -328 -137t-135 -348 t135 -348.5t328 -137.5z" glyph-name="Q" horiz-adv-x="1667" unicode="Q"/><glyph d="M1233 0h-285l-319 487h-13h-225v-487h-268v1434h493q240 0 382.5 -133.5t142.5 -348.5q0 -147 -70 -255.5t-197 -161.5zM391 1186v-467h211q127 0 198.5 57.5t71.5 175.5q0 117 -71.5 175.5t-198.5 58.5h-211z" glyph-name="R" horiz-adv-x="1294" unicode="R"/><glyph d="M588 1454q172 0 291.5 -87t183.5 -210l-199 -117q-61 90 -123.5 133.5t-150.5 43.5q-90 0 -145.5 -45.5t-55.5 -118.5q0 -113 176 -179l99 -36q231 -82 334.5 -182.5t103.5 -249.5q0 -199 -153.5 -312.5t-354.5 -113.5q-188 0 -330.5 98t-191.5 254l207 108 q96 -217 315 -217q102 0 165.5 48t63.5 139q0 76 -51 116.5t-182 89.5l-90 35q-182 66 -279.5 159t-97.5 251q0 178 133 285.5t332 107.5z" glyph-name="S" horiz-adv-x="1173" unicode="S"/><glyph d="M1085 1434v-248h-368v-1186h-268v1186h-367v248h1003z" glyph-name="T" horiz-adv-x="1167" unicode="T"/><glyph d="M946 1434h268v-902q0 -258 -154.5 -405t-389.5 -147q-238 0 -392.5 147t-154.5 405v902h268v-904q0 -154 81 -226.5t198 -72.5q115 0 195.5 72t80.5 227v904z" glyph-name="U" horiz-adv-x="1337" unicode="U"/><glyph d="M1225 1434h286l-604 -1434h-264l-602 1434h285l450 -1104z" glyph-name="V" horiz-adv-x="1552" unicode="V"/><glyph d="M2068 1434l-469 -1434h-190l-350 983l-348 -983h-191l-469 1434h283l295 -945l327 945h207l328 -945l295 945h282z" glyph-name="W" horiz-adv-x="2119" unicode="W"/><glyph d="M1360 0h-313l-340 500l-342 -500h-314l498 727l-481 707h313l326 -478l325 478h314l-484 -707z" glyph-name="X" horiz-adv-x="1411" unicode="X"/><glyph d="M1405 1434l-543 -850v-584h-268v584l-543 850h303l373 -598l373 598h305z" glyph-name="Y" horiz-adv-x="1456" unicode="Y"/><glyph d="M1180 1434l-701 -1203h709v-231h-1137l701 1204h-662v230h1090z" glyph-name="Z" horiz-adv-x="1239" unicode="Z"/><glyph d="M518 1526v-230h-158v-1331h158v-231h-426v1792h426z" glyph-name="bracketleft" horiz-adv-x="610" unicode="["/><glyph d="M82 1526h274l697 -1792h-275z" glyph-name="backslash" horiz-adv-x="1134" unicode="\"/><glyph d="M92 1526h426v-1792h-426v231h158v1331h-158v230z" glyph-name="bracketright" horiz-adv-x="610" unicode="]"/><glyph d="M582 1434l342 -461h-187l-227 219l-231 -219h-187l342 461h148z" glyph-name="asciicircum" horiz-adv-x="1015" unicode="^"/><glyph d="M1116 0v-231h-1024v231h1024z" glyph-name="underscore" horiz-adv-x="1208" unicode="_"/><glyph d="M0 1516h315l119 -326h-198z" glyph-name="grave" horiz-adv-x="434" unicode="`"/><glyph d="M584 -20q-201 0 -364 146t-163 406.5t163 406.5t364 146q123 0 209 -54t118 -118h15v152h262v-1065h-262v152h-15q-33 -63 -118.5 -117.5t-208.5 -54.5zM620.5 213q124.5 0 218 84t93.5 235.5t-93.5 235.5t-218 84t-216 -84t-91.5 -235.5t91.5 -235.5t216 -84z" glyph-name="a" unicode="a"/><glyph d="M715 1085q201 0 363.5 -146t162.5 -406.5t-163 -406.5t-363 -146q-123 0 -209 54t-119 118h-14v-152h-262v885h-2v563h264v-535h14q33 63 119 117.5t209 54.5zM678 213q125 0 216 84t91 235.5t-91 235.5t-216 84t-218 -84t-93 -235.5t93 -235.5t218 -84z" glyph-name="b" unicode="b"/><glyph d="M612 1085q309 0 455 -256l-201 -94q-102 117 -252 117q-119 0 -210 -86t-91 -236q0 -147 92.5 -232t208.5 -85q152 0 252 115l205 -95q-152 -254 -459 -253q-94 0 -189 34.5t-178 100t-135.5 174t-52.5 242t52.5 243t135.5 175t178 101t189 35.5z" glyph-name="c" horiz-adv-x="1132" unicode="c"/><glyph d="M1165 1448v-563h-2v-885h-262v152h-14q-33 -63 -119 -117.5t-209 -54.5q-201 0 -363.5 146t-162.5 406.5t162.5 406.5t363.5 146q123 0 209 -54t119 -118h14v535h264zM596 213q125 0 218 84t93 235.5t-93 235.5t-218 84t-216 -84t-91 -235.5t91 -235.5t216 -84z" glyph-name="d" horiz-adv-x="1273" unicode="d"/><glyph d="M602 1085q96 0 191.5 -37.5t178.5 -111.5t124 -204t20 -296h-797q25 -113 109 -173t201 -60q94 0 151.5 19.5t124.5 62.5l146 -142q-154 -164 -430 -163q-221 0 -392.5 146t-171.5 404q0 133 51.5 243t132.5 175.5t175 101t186 35.5zM602 860q-94 0 -174 -60.5 t-106 -170.5h559q-16 111 -98.5 171t-180.5 60z" glyph-name="e" horiz-adv-x="1181" unicode="e"/><glyph d="M592 1247q-152 0 -152 -147v-35h254v-217h-254v-848h-264v848h-135v217h135v49q0 111 35 187.5t94.5 111.5t112.5 47.5t114 12.5q164 0 265 -68l-84 -182q-51 24 -121 24z" glyph-name="f" horiz-adv-x="847" unicode="f"/><glyph d="M926 1065h262v-1065q0 -92 -34 -167t-89 -121t-127 -77.5t-142.5 -44t-142.5 -12.5q-186 0 -295 64v217q104 -61 295 -62q133 0 203 59.5t70 143.5v152h-15q-33 -63 -118.5 -117.5t-208.5 -54.5q-201 0 -364 146t-163 406.5t163 406.5t364 146q123 0 209 -54t118 -118h15 v152zM620.5 213q124.5 0 218 84t93.5 235.5t-93.5 235.5t-218 84t-216 -84t-91.5 -235.5t91.5 -235.5t216 -84z" glyph-name="g" unicode="g"/><glyph d="M725 1085q162 0 279.5 -118.5t117.5 -352.5v-614h-264v598q0 129 -65.5 192.5t-163.5 63.5q-109 0 -180.5 -78t-75.5 -147v-629h-264v1448h264v-592q23 70 117 149.5t235 79.5z" glyph-name="h" horiz-adv-x="1224" unicode="h"/><glyph d="M373 1448v-252h-264v252h264zM373 1065v-1065h-264v1065h264z" glyph-name="i" horiz-adv-x="481" unicode="i"/><glyph d="M436 1448v-252h-264v252h264zM-51 -395h-72v243h57q123 0 180.5 50.5t57.5 191.5v975h264v-1002q0 -244 -118.5 -351t-368.5 -107z" glyph-name="j" horiz-adv-x="544" unicode="j"/><glyph d="M860 0l-389 438l-98 -102v-336h-264v1448h264v-791l379 408h315l-432 -455l528 -610h-303z" glyph-name="k" horiz-adv-x="1204" unicode="k"/><glyph d="M373 1448v-1448h-264v1448h264z" glyph-name="l" horiz-adv-x="481" unicode="l"/><glyph d="M1475 1085q178 0 296.5 -120.5t118.5 -368.5v-596h-262v592q0 123 -60.5 192.5t-168.5 69.5q-106 0 -174 -70.5t-92 -171.5v-612h-265v592q0 119 -64.5 190.5t-166.5 71.5q-111 0 -178.5 -68.5t-85.5 -173.5v-612h-264v1065h264v-217q6 70 95 153.5t232 83.5 q117 0 221.5 -63.5t161.5 -183.5q33 84 134.5 165.5t257.5 81.5z" glyph-name="m" horiz-adv-x="1992" unicode="m"/><glyph d="M725 1085q162 0 279.5 -118.5t117.5 -352.5v-614h-264v598q0 129 -65.5 192.5t-163.5 63.5q-109 0 -180.5 -78t-75.5 -147v-629h-264v1065h264v-209q23 70 117 149.5t235 79.5z" glyph-name="n" horiz-adv-x="1224" unicode="n"/><glyph d="M614.5 1085q94.5 0 190.5 -35.5t179 -101t135 -175t52 -243t-52 -242t-135 -174t-179 -100t-190.5 -34.5t-190.5 34.5t-179 100t-135.5 174t-52.5 242t52.5 243t135.5 175t179 101t190.5 35.5zM614.5 852q-118.5 0 -210 -86t-91.5 -236q0 -147 92.5 -232t208.5 -85 q119 0 211.5 85t92.5 232q0 150 -92.5 236t-211 86z" glyph-name="o" horiz-adv-x="1230" unicode="o"/><glyph d="M715 1085q201 0 363.5 -146t162.5 -406.5t-163 -406.5t-363 -146q-123 0 -209 54t-119 118h-14v-541h-264v635h2v819h262v-152h14q33 63 119 117.5t209 54.5zM678 213q125 0 216 84t91 235.5t-91 235.5t-216 84t-218 -84t-93 -235.5t93 -235.5t218 -84z" glyph-name="p" unicode="p"/><glyph d="M1163 246h2v-635h-264v541h-14q-33 -63 -119 -117.5t-209 -54.5q-201 0 -363.5 146t-162.5 406.5t162.5 406.5t363.5 146q123 0 209 -54t119 -118h14v152h262v-819zM596 213q125 0 218 84t93 235.5t-93 235.5t-218 84t-216 -84t-91 -235.5t91 -235.5t216 -84z" glyph-name="q" horiz-adv-x="1273" unicode="q"/><glyph d="M745 1081q49 0 74 -4v-252q-23 4 -65 4q-152 0 -259.5 -98t-121.5 -258v-473h-264v1065h264v-268q35 125 133 204.5t239 79.5z" glyph-name="r" horiz-adv-x="880" unicode="r"/><glyph d="M621 762q-51 113 -154 112q-51 0 -86 -26.5t-35 -69.5q0 -72 103 -110l124 -43q72 -27 117 -48.5t93 -57.5t71 -88t23 -122q0 -156 -119 -242.5t-293 -86.5q-162 0 -271.5 77.5t-142.5 216.5l209 66q23 -66 76 -108t129 -42q66 0 111 33t45 82q0 70 -111 113l-123 43 q-295 106 -295 319q0 137 106.5 221t258.5 84q141 0 239.5 -70.5t143.5 -193.5z" glyph-name="s" horiz-adv-x="937" unicode="s"/><glyph d="M686 848h-227v-526q0 -100 102 -101q53 0 125 23v-215q-82 -41 -199 -41q-139 0 -214.5 60.5t-75.5 215.5v584h-150v217h150v272h262v-272h227v-217z" glyph-name="t" horiz-adv-x="753" unicode="t"/><glyph d="M494 -20q-162 0 -280 118.5t-118 352.5v614h264v-598q0 -129 66 -192.5t164 -63.5q109 0 180.5 78t75.5 147v629h264v-1065h-264v209q-23 -70 -117 -149.5t-235 -79.5z" glyph-name="u" horiz-adv-x="1218" unicode="u"/><glyph d="M1219 1065l-465 -1065h-240l-463 1065h271l313 -748l313 748h271z" glyph-name="v" horiz-adv-x="1269" unicode="v"/><glyph d="M1620 1065h264l-391 -1065h-250l-276 752l-277 -752h-248l-391 1065h262l256 -743l283 743h231l281 -743z" glyph-name="w" horiz-adv-x="1935" unicode="w"/><glyph d="M862 0l-256 354l-256 -354h-303l408 545l-373 520h299l225 -328l225 328h299l-372 -520l407 -545h-303z" glyph-name="x" horiz-adv-x="1212" unicode="x"/><glyph d="M948 1065h271l-465 -1065l-181 -389h-262l191 416l-451 1038h271l313 -748z" glyph-name="y" horiz-adv-x="1269" unicode="y"/><glyph d="M1049 1065l-574 -834h545v-231h-969l574 836h-523v229h947z" glyph-name="z" horiz-adv-x="1099" unicode="z"/><glyph d="M596 1526v-230h-72q-72 0 -71 -63v-467l-109 -139l109 -135v-465q0 -61 71 -62h72v-231h-193q-88 0 -153.5 49t-65.5 170v528l-92 146l92 149v531q0 121 66.5 170t152.5 49h193z" glyph-name="braceleft" horiz-adv-x="688" unicode="{"/><glyph d="M385 1638v-2027h-231v2027h231z" glyph-name="bar" horiz-adv-x="538" unicode="|"/><glyph d="M92 1526h193q86 0 152.5 -49.5t66.5 -169.5v-531l92 -149l-92 -146v-528q0 -121 -65.5 -170t-153.5 -49h-193v231h72q72 0 72 62v465l108 135l-108 139v467q0 63 -72 63h-72v230z" glyph-name="braceright" horiz-adv-x="688" unicode="}"/><glyph d="M352 760q88 0 224.5 -72t205.5 -72q33 0 61.5 16.5t28.5 37.5h103q0 -111 -66.5 -184.5t-189.5 -73.5q-86 0 -224.5 81.5t-215.5 81.5q-31 0 -60 -22.5t-26 -48.5h-101q0 111 66.5 183.5t193.5 72.5z" glyph-name="asciitilde" horiz-adv-x="1067" unicode="~"/><glyph d="M274.5 1085q63.5 0 107.5 -43t44 -108.5t-44 -108.5t-107.5 -43t-107.5 43t-44 108.5t44 108.5t107.5 43zM424 -369h-301v981h301v-981z" glyph-name="exclamdown" horiz-adv-x="514" unicode="¡"/><glyph d="M1071 383q-133 -219 -391 -246v-219h-141v221q-193 27 -337.5 166t-144.5 369q0 227 145.5 368.5t336.5 167.5v224h141v-222q258 -27 387 -245l-201 -93q-82 92 -186 111v-618q106 18 186 108zM313 674q0 -119 64.5 -198t161.5 -103v606q-96 -25 -161 -103.5t-65 -201.5z " glyph-name="cent" horiz-adv-x="1132" unicode="¢"/><glyph d="M1114 956h-260v43q0 88 -55.5 157t-177.5 69q-115 0 -173.5 -67.5t-58.5 -160.5q0 -88 74 -217h354v-194h-268q8 -31 8 -72q0 -86 -40 -169t-103 -128h680v-217h-1002v217q213 135 213 301q0 31 -10 68h-205v194h113q-70 131 -70 244q0 190 145.5 310t352.5 120 q211 0 347 -121t136 -332v-45z" glyph-name="sterling" horiz-adv-x="1206" unicode="£"/><glyph d="M932 975q0 -109 -47 -203l96 -96l-166 -162l-82 82q-115 -80 -260 -80q-141 0 -254 78l-80 -80l-166 162l90 90q-49 102 -49 209q0 119 54 215l-95 94l166 162l86 -86q113 74 248 74t254 -76l88 88l166 -162l-100 -100q51 -96 51 -209zM473 733q121 0 182.5 80t61.5 162 t-61.5 162t-182.5 80t-181.5 -80t-60.5 -162q0 -84 60.5 -163t181.5 -79z" glyph-name="currency" horiz-adv-x="1093" unicode="¤"/><glyph d="M862 584v-4h273v-179h-273v-79h273v-179h-273v-143h-268v143h-275v179h275v79h-275v179h275v4l-543 850h303l373 -598l373 598h305z" glyph-name="yen" horiz-adv-x="1456" unicode="¥"/><glyph d="M385 1638v-573h-231v573h231zM385 184v-573h-231v573h231z" glyph-name="brokenbar" horiz-adv-x="538" unicode="¦"/><glyph d="M950 293q115 -109 115 -273q0 -201 -143.5 -305t-382.5 -104q-162 0 -289 56.5t-178 125.5v299h239v-153q20 -29 82 -60t148 -31q115 0 180 46.5t65 125.5q0 84 -45 128.5t-145 78.5l-164 60q-354 127 -354 409q0 170 121 275q-121 111 -121 278q0 182 134 285.5 t341 103.5q147 0 284.5 -58t163.5 -116v-297h-239v152q-16 29 -75.5 55.5t-135.5 26.5q-94 0 -152.5 -43t-58.5 -121q0 -119 172 -180l176 -64q186 -68 281.5 -167t95.5 -253q0 -176 -115 -280zM512 504l176 -64l17 -6q82 49 81 139q0 84 -45 128t-145 79l-147 54 q-109 -39 -109 -150q0 -119 172 -180z" glyph-name="section" horiz-adv-x="1136" unicode="§"/><glyph d="M244 1436v-230h-244v230h244zM731 1436v-230h-246v230h246z" glyph-name="dieresis" horiz-adv-x="731" unicode="¨"/><glyph d="M813 1448q182 0 346 -89t269.5 -260t105.5 -382t-105.5 -382t-269.5 -260t-346 -89t-346 89t-269.5 260t-105.5 382t105.5 382t269.5 260t346 89zM813 213q197 0 344.5 144.5t147.5 359.5t-147.5 359.5t-344.5 144.5t-344 -144.5t-147 -359.5t147 -359.5t344 -144.5z M836 549q74 0 122 45l129 -148q-88 -115 -260 -114q-154 0 -267.5 109.5t-113.5 275.5t114 275.5t267 109.5q172 0 260 -115l-129 -147q-49 45 -122 45q-66 0 -115 -50.5t-49 -118t49 -117.5t115 -50z" glyph-name="copyright" horiz-adv-x="1626" unicode="©"/><glyph d="M377 1462q147 0 225 -82t78 -237v-197q0 -59 11 -92t46 -80h-180q-18 12 -35 80q-74 -86 -188 -86q-127 0 -202 57.5t-75 159.5q0 98 81 151.5t204 61.5l152 12q0 47 -35 75t-82 28q-109 0 -207 -76l-84 104q113 121 291 121zM494 1073l-154 -16q-102 -10 -102 -72 q0 -70 96 -70q109 0 160 111v47z" glyph-name="ordfeminine" horiz-adv-x="845" unicode="ª"/><glyph d="M82 637l305 307l82 -88l-209 -270l209 -271l-82 -88l-305 305v105zM438 637l305 307l82 -88l-209 -270l209 -271l-82 -88l-305 305v105z" glyph-name="guillemotleft" horiz-adv-x="876" unicode="«"/><glyph d="M965 618v-370h-269v151h-604v219h873z" glyph-name="logicalnot" horiz-adv-x="1056" unicode="¬"/><glyph d="M727 674v-219h-635v219h635z" glyph-name="uni00AD" horiz-adv-x="819" unicode="­"/><glyph d="M813 1448q182 0 346 -89t269.5 -260t105.5 -382t-105.5 -382t-269.5 -260t-346 -89t-346 89t-269.5 260t-105.5 382t105.5 382t269.5 260t346 89zM813 213q197 0 344.5 144.5t147.5 359.5t-147.5 359.5t-344.5 144.5t-344 -144.5t-147 -359.5t147 -359.5t344 -144.5z M793 1083q131 0 208.5 -64.5t77.5 -160.5q0 -152 -139 -227l180 -264h-176l-162 258h-65v-258h-164v716h240zM811 940h-100v-182h100q102 0 102 92q0 90 -102 90z" glyph-name="registered" horiz-adv-x="1626" unicode="®"/><glyph d="M770 1434v-217h-770v217h770z" glyph-name="macron" horiz-adv-x="770" unicode="¯"/><glyph d="M397 1454q125 0 214 -88t89 -211q0 -125 -89 -215t-214 -90t-215 90t-90 215q0 123 90 211t215 88zM397.5 1262q-57.5 0 -83 -38t-25.5 -69q0 -37 25.5 -75t83 -38t82 38t24.5 75q0 33 -24.5 70t-82 37z" glyph-name="degree" horiz-adv-x="792" unicode="°"/><glyph d="M555 844h276v-221h-276v-273h-219v273h-275v221h275v272h219v-272zM92 2v219h686v-219h-686z" glyph-name="plusminus" horiz-adv-x="880" unicode="±"/><glyph d="M264 1442q70 0 121 -46t51 -108q0 -53 -29.5 -96t-109.5 -125l-96 -100h241v-66h-344v66l140 141q57 59 74.5 78.5t31.5 46.5t14 55q0 37 -28.5 63.5t-65.5 26.5q-39 0 -67.5 -26.5t-28.5 -75.5v-29h-76v29q0 72 50 119t122 47z" glyph-name="uni00B2" horiz-adv-x="534" unicode="²"/><glyph d="M268 1440q66 0 115 -42t49 -98q0 -66 -61 -108q86 -37 86 -135q0 -70 -56.5 -117t-132.5 -47q-84 0 -139 56.5t-47 129.5h78q-12 -47 22.5 -84t85.5 -37q45 0 78 28t33 71q0 57 -41 79.5t-111 10.5v65q129 6 129 88q0 31 -25.5 53.5t-62.5 22.5q-45 0 -72.5 -32.5 t-21.5 -86.5h-78q-8 78 44 130.5t128 52.5z" glyph-name="uni00B3" horiz-adv-x="538" unicode="³"/><glyph d="M434 1516l-235 -326h-199l119 326h315z" glyph-name="acute" horiz-adv-x="434" unicode="´"/><glyph d="M840 1065h264v-1065h-264v209q-23 -70 -117 -149.5t-236 -79.5q-68 0 -127 20v-389h-264v743q-6 45 -6 97v614h270v-670q18 -94 79 -139t145 -45q109 0 180.5 78t75.5 147v629z" glyph-name="uni00B5" horiz-adv-x="1214" unicode="µ"/><glyph d="M193 952q0 215 142 348.5t382 133.5h493v-1434h-268v487h-225q-242 0 -383 126t-141 339zM1401 1434h268v-1434h-268v1434zM942 1186h-211q-127 0 -198.5 -58.5t-71.5 -175.5q0 -119 71.5 -176t198.5 -57h211v467z" glyph-name="paragraph" horiz-adv-x="1812" unicode="¶"/><glyph d="M223.5 408q-63.5 0 -107.5 43t-44 108.5t44 108.5t107.5 43t107.5 -43t44 -108.5t-44 -108.5t-107.5 -43z" glyph-name="periodcentered" horiz-adv-x="514" unicode="·"/><glyph d="M233 -88q78 -14 135.5 -58t57.5 -114q0 -121 -125 -170t-301 -6l20 65q90 -18 143.5 19t53.5 92q0 45 -45 72.5t-98 -5.5l-80 74l69 119h269z" glyph-name="cedilla" horiz-adv-x="425" unicode="¸"/><glyph d="M256 1436v-535h-76v453l-35 -23l-36 64l71 41h76z" glyph-name="uni00B9" horiz-adv-x="407" unicode="¹"/><glyph d="M387 1444q123 0 224.5 -92t101.5 -241.5t-100.5 -242t-225.5 -92.5t-227.5 92.5t-102.5 242t102.5 241.5t227.5 92zM387 1268q-61 0 -108.5 -44t-47.5 -114q0 -72 47.5 -116t108.5 -44q59 0 105.5 44t46.5 116q0 70 -46.5 114t-105.5 44z" glyph-name="ordmasculine" horiz-adv-x="772" unicode="º"/><glyph d="M438 637v-105l-305 -305l-82 88l209 271l-209 270l82 88zM795 637v-105l-306 -305l-81 88l208 271l-208 270l81 88z" glyph-name="guillemotright" horiz-adv-x="876" unicode="»"/><glyph d="M205 1436v-535h-76v453l-35 -23l-37 64l72 41h76zM1030 1434l-880 -1434h-99l893 1434h86zM1059 535v-316h55v-63h-55v-156h-76v156h-270l270 379h76zM983 414l-133 -195h133v195z" glyph-name="onequarter" horiz-adv-x="1165" unicode="¼"/><glyph d="M205 1436v-535h-76v453l-35 -23l-37 64l72 41h76zM1030 1434l-880 -1434h-99l893 1434h86zM885 541q70 0 121 -46t51 -108q0 -53 -30 -96t-109 -125l-97 -100h242v-66h-344v66l139 141q57 59 74.5 78.5t32 46t14.5 55.5q0 37 -28.5 63.5t-65.5 26.5q-39 0 -68 -26.5 t-29 -75.5v-29h-75v29q0 72 50 119t122 47z" glyph-name="onehalf" horiz-adv-x="1114" unicode="½"/><glyph d="M238 1440q66 0 114.5 -42t48.5 -98q0 -66 -61 -108q86 -37 86 -135q0 -70 -56.5 -117t-131.5 -47q-84 0 -139.5 56.5t-47.5 129.5h78q-12 -47 22.5 -84t86.5 -37q45 0 77.5 28t32.5 71q0 57 -41 79.5t-110 10.5v65q129 6 129 88q0 31 -26 53.5t-62 22.5q-45 0 -73 -32.5 t-22 -86.5h-77q-8 78 44 130.5t128 52.5zM1087 1434l-880 -1434h-98l892 1434h86zM1096 535v-316h55v-63h-55v-156h-76v156h-270l270 379h76zM1020 414l-133 -195h133v195z" glyph-name="threequarters" horiz-adv-x="1202" unicode="¾"/><glyph d="M559.5 1085q63.5 0 107.5 -43t44 -108.5t-44 -108.5t-107.5 -43t-107.5 43t-44 108.5t44 108.5t107.5 43zM555 -389q-211 0 -342 113.5t-131 306.5q0 90 36 158.5t86 110.5t100 80t86 90t36 118v35h268v-35q0 -96 -35.5 -165t-86 -108t-100.5 -73.5t-86 -82.5t-36 -114 q0 -78 46 -140.5t157 -62.5q113 0 164 70t51 164h268q0 -221 -129 -343t-352 -122z" glyph-name="questiondown" horiz-adv-x="1118" unicode="¿"/><glyph d="M895 1559h-199l-235 325h315zM1225 0l-113 276h-674l-112 -276h-285l602 1434h264l604 -1434h-286zM528 498h494l-246 606z" glyph-name="Agrave" horiz-adv-x="1552" unicode="À"/><glyph d="M1108 1884l-236 -325h-198l119 325h315zM1225 0l-113 276h-674l-112 -276h-285l602 1434h264l604 -1434h-286zM528 498h494l-246 606z" glyph-name="Aacute" horiz-adv-x="1552" unicode="Á"/><glyph d="M776 1755l-231 -213l-82 78l260 315h104l263 -315l-82 -78zM1225 0l-113 276h-674l-112 -276h-285l602 1434h264l604 -1434h-286zM528 498h494l-246 606z" glyph-name="Acircumflex" horiz-adv-x="1552" unicode="Â"/><glyph d="M563 1704q-33 0 -61.5 -20.5t-26.5 -49.5h-100q0 111 62.5 184.5t176.5 73.5q78 0 199 -70.5t168 -70.5q33 0 62.5 15.5t29.5 35.5h103q0 -111 -62.5 -185.5t-171.5 -74.5q-80 0 -203 81t-176 81zM1225 0l-113 276h-674l-112 -276h-285l602 1434h264l604 -1434h-286z M528 498h494l-246 606z" glyph-name="Atilde" horiz-adv-x="1552" unicode="Ã"/><glyph d="M655 1804v-229h-243v229h243zM1143 1804v-229h-246v229h246zM1225 0l-113 276h-674l-112 -276h-285l602 1434h264l604 -1434h-286zM528 498h494l-246 606z" glyph-name="Adieresis" horiz-adv-x="1552" unicode="Ä"/><glyph d="M778 1567q-94 0 -160.5 64.5t-66.5 154.5q0 92 66.5 157.5t160.5 65.5q88 0 153.5 -66.5t65.5 -156.5t-64.5 -154.5t-154.5 -64.5zM772 1847q-23 0 -39 -16t-16 -41q0 -23 16.5 -40t39 -17t40.5 17t18 40q0 25 -17 41t-42 16zM1225 0l-113 276h-674l-112 -276h-285 l602 1434h264l604 -1434h-286zM528 498h494l-246 606z" glyph-name="Aring" horiz-adv-x="1552" unicode="Å"/><glyph d="M1307 248h624v-248h-893v391h-432l-266 -391h-299l981 1434h891v-248h-606v-344h460v-242h-460v-352zM764 621h274v401z" glyph-name="AE" horiz-adv-x="2023" unicode="Æ"/><glyph d="M827 -88q78 -14 135.5 -58t57.5 -114q0 -121 -125 -170t-301 -6l20 65q90 -18 143.5 19t53.5 92q0 45 -45 72.5t-98 -5.5l-80 74l69 119h2q-246 59 -406.5 254t-160.5 463q0 317 220 527t524 210q283 0 479 -170l-162 -184q-137 102 -301 102q-203 0 -342 -138t-139 -347 t139 -347.5t342 -138.5q172 0 309 111l162 -188q-172 -150 -418 -172z" glyph-name="Ccedilla" horiz-adv-x="1394" unicode="Ç"/><glyph d="M698 1559h-198l-236 325h316zM391 248h625v-248h-893v1434h874v-248h-606v-344h461v-242h-461v-352z" glyph-name="Egrave" horiz-adv-x="1107" unicode="È"/><glyph d="M911 1884l-235 -325h-199l119 325h315zM391 248h625v-248h-893v1434h874v-248h-606v-344h461v-242h-461v-352z" glyph-name="Eacute" horiz-adv-x="1107" unicode="É"/><glyph d="M580 1755l-232 -213l-82 78l260 315h105l262 -315l-82 -78zM391 248h625v-248h-893v1434h874v-248h-606v-344h461v-242h-461v-352z" glyph-name="Ecircumflex" horiz-adv-x="1107" unicode="Ê"/><glyph d="M459 1804v-229h-244v229h244zM946 1804v-229h-246v229h246zM391 248h625v-248h-893v1434h874v-248h-606v-344h461v-242h-461v-352z" glyph-name="Edieresis" horiz-adv-x="1107" unicode="Ë"/><glyph d="M-57 1884h315l119 -325h-199zM391 1434v-1434h-268v1434h268z" glyph-name="Igrave" horiz-adv-x="514" unicode="Ì"/><glyph d="M590 1884l-236 -325h-198l118 325h316zM391 1434v-1434h-268v1434h268z" glyph-name="Iacute" horiz-adv-x="514" unicode="Í"/><glyph d="M309 1935l262 -315l-82 -78l-231 213l-231 -213l-82 78l260 315h104zM391 1434v-1434h-268v1434h268z" glyph-name="Icircumflex" horiz-adv-x="514" unicode="Î"/><glyph d="M137 1804v-229h-243v229h243zM625 1804v-229h-246v229h246zM391 1434v-1434h-268v1434h268z" glyph-name="Idieresis" horiz-adv-x="514" unicode="Ï"/><glyph d="M770 1434q305 0 515 -207t210 -504q0 -305 -209 -514t-516 -209h-491v594h-119v219h119v621h491zM768 254q211 0 333 134t122 335q0 193 -122 325t-333 132h-221v-367h248v-219h-248v-340h221z" glyph-name="Eth" horiz-adv-x="1576" unicode="Ð"/><glyph d="M578 1892q78 0 197.5 -70.5t168.5 -70.5q33 0 62.5 15.5t29.5 35.5h103q0 -111 -62.5 -185.5t-171.5 -74.5q-80 0 -202.5 81t-176.5 81q-33 0 -61.5 -20.5t-26.5 -49.5h-100q0 111 62.5 184.5t177.5 73.5zM123 0v1434h268l682 -994h14v994h269v-1434h-269l-681 993h-15 v-993h-268z" glyph-name="Ntilde" horiz-adv-x="1478" unicode="Ñ"/><glyph d="M514 1884h315l119 -325h-198zM833.5 1454q303.5 0 522.5 -208t219 -529.5t-219 -529t-522.5 -207.5t-522.5 207.5t-219 529t219 529.5t522.5 208zM834 231q190 0 325 137.5t135 348.5t-135 348t-325 137q-193 0 -328 -137t-135 -348t135 -348.5t328 -137.5z" glyph-name="Ograve" horiz-adv-x="1667" unicode="Ò"/><glyph d="M1161 1884l-235 -325h-199l119 325h315zM833.5 1454q303.5 0 522.5 -208t219 -529.5t-219 -529t-522.5 -207.5t-522.5 207.5t-219 529t219 529.5t522.5 208zM834 231q190 0 325 137.5t135 348.5t-135 348t-325 137q-193 0 -328 -137t-135 -348t135 -348.5t328 -137.5z " glyph-name="Oacute" horiz-adv-x="1667" unicode="Ó"/><glyph d="M881 1935l262 -315l-82 -78l-232 213l-231 -213l-82 78l260 315h105zM833.5 1454q303.5 0 522.5 -208t219 -529.5t-219 -529t-522.5 -207.5t-522.5 207.5t-219 529t219 529.5t522.5 208zM834 231q190 0 325 137.5t135 348.5t-135 348t-325 137q-193 0 -328 -137 t-135 -348t135 -348.5t328 -137.5z" glyph-name="Ocircumflex" horiz-adv-x="1667" unicode="Ô"/><glyph d="M668 1892q78 0 198.5 -70.5t167.5 -70.5q33 0 62.5 15.5t29.5 35.5h103q0 -111 -62.5 -185.5t-171.5 -74.5q-80 0 -202.5 81t-176.5 81q-33 0 -61.5 -20.5t-26.5 -49.5h-100q0 111 62.5 184.5t177.5 73.5zM833.5 1454q303.5 0 522.5 -208t219 -529.5t-219 -529 t-522.5 -207.5t-522.5 207.5t-219 529t219 529.5t522.5 208zM834 231q190 0 325 137.5t135 348.5t-135 348t-325 137q-193 0 -328 -137t-135 -348t135 -348.5t328 -137.5z" glyph-name="Otilde" horiz-adv-x="1667" unicode="Õ"/><glyph d="M709 1804v-229h-244v229h244zM1196 1804v-229h-246v229h246zM833.5 1454q303.5 0 522.5 -208t219 -529.5t-219 -529t-522.5 -207.5t-522.5 207.5t-219 529t219 529.5t522.5 208zM834 231q190 0 325 137.5t135 348.5t-135 348t-325 137q-193 0 -328 -137t-135 -348 t135 -348.5t328 -137.5z" glyph-name="Odieresis" horiz-adv-x="1667" unicode="Ö"/><glyph d="M780 377l-157 -158l-195 197l-192 -193l-156 154l192 192l-194 195l158 156l194 -193l193 193l153 -156l-192 -193z" glyph-name="multiply" horiz-adv-x="827" unicode="×"/><glyph d="M1272 1315q139 -98 221 -253t82 -345q0 -322 -219 -529.5t-522 -207.5q-100 0 -189 24l-51 -106h-299l104 217q-143 100 -225 255.5t-82 346.5q0 322 219 529.5t523 207.5q100 0 194 -24l45 96h299zM371 717q0 -219 145 -359l399 836q-35 8 -81 8q-193 0 -328 -137 t-135 -348zM834 231q190 0 325 137.5t135 348.5q0 215 -139 354l-399 -833q39 -7 78 -7z" glyph-name="Oslash" horiz-adv-x="1667" unicode="Ø"/><glyph d="M354 1884h316l118 -325h-198zM946 1434h268v-902q0 -258 -154.5 -405t-389.5 -147q-238 0 -392.5 147t-154.5 405v902h268v-904q0 -154 81 -226.5t198 -72.5q115 0 195.5 72t80.5 227v904z" glyph-name="Ugrave" horiz-adv-x="1337" unicode="Ù"/><glyph d="M1001 1884l-235 -325h-199l119 325h315zM946 1434h268v-902q0 -258 -154.5 -405t-389.5 -147q-238 0 -392.5 147t-154.5 405v902h268v-904q0 -154 81 -226.5t198 -72.5q115 0 195.5 72t80.5 227v904z" glyph-name="Uacute" horiz-adv-x="1337" unicode="Ú"/><glyph d="M721 1935l262 -315l-82 -78l-231 213l-232 -213l-82 78l260 315h105zM946 1434h268v-902q0 -258 -154.5 -405t-389.5 -147q-238 0 -392.5 147t-154.5 405v902h268v-904q0 -154 81 -226.5t198 -72.5q115 0 195.5 72t80.5 227v904z" glyph-name="Ucircumflex" horiz-adv-x="1337" unicode="Û"/><glyph d="M549 1804v-229h-244v229h244zM1036 1804v-229h-245v229h245zM946 1434h268v-902q0 -258 -154.5 -405t-389.5 -147q-238 0 -392.5 147t-154.5 405v902h268v-904q0 -154 81 -226.5t198 -72.5q115 0 195.5 72t80.5 227v904z" glyph-name="Udieresis" horiz-adv-x="1337" unicode="Ü"/><glyph d="M1059 1884l-236 -325h-198l118 325h316zM1405 1434l-543 -850v-584h-268v584l-543 850h303l373 -598l373 598h305z" glyph-name="Yacute" horiz-adv-x="1456" unicode="Ý"/><glyph d="M678 1157q258 0 414.5 -121t156.5 -315q0 -207 -154.5 -321.5t-416.5 -114.5h-287v-285h-268v1434h268v-277h287zM682 516q158 0 207 23q92 39 92 182q0 57 -17.5 96t-42 60.5t-68.5 33t-80 13.5t-91 2h-291v-410h291z" glyph-name="Thorn" horiz-adv-x="1320" unicode="Þ"/><glyph d="M647 1434q227 0 370.5 -97.5t143.5 -285.5q0 -109 -67.5 -178.5t-155.5 -86.5q143 -18 224 -114.5t81 -241.5q0 -219 -143.5 -324.5t-431.5 -105.5h-117v231h121q143 0 223 44t80 169q0 215 -330 215h-94v215h94q137 0 192.5 38t55.5 128q0 82 -66.5 123t-179.5 41 q-141 0 -200.5 -51t-59.5 -182v-971h-264v971q0 463 524 463z" glyph-name="germandbls" horiz-adv-x="1314" unicode="ß"/><glyph d="M313 1516h316l119 -326h-199zM584 -20q-201 0 -364 146t-163 406.5t163 406.5t364 146q123 0 209 -54t118 -118h15v152h262v-1065h-262v152h-15q-33 -63 -118.5 -117.5t-208.5 -54.5zM620.5 213q124.5 0 218 84t93.5 235.5t-93.5 235.5t-218 84t-216 -84t-91.5 -235.5 t91.5 -235.5t216 -84z" glyph-name="agrave" unicode="à"/><glyph d="M961 1516l-236 -326h-199l119 326h316zM584 -20q-201 0 -364 146t-163 406.5t163 406.5t364 146q123 0 209 -54t118 -118h15v152h262v-1065h-262v152h-15q-33 -63 -118.5 -117.5t-208.5 -54.5zM620.5 213q124.5 0 218 84t93.5 235.5t-93.5 235.5t-218 84t-216 -84 t-91.5 -235.5t91.5 -235.5t216 -84z" glyph-name="aacute" unicode="á"/><glyph d="M680 1567l262 -316l-82 -77l-231 212l-232 -212l-82 77l260 316h105zM584 -20q-201 0 -364 146t-163 406.5t163 406.5t364 146q123 0 209 -54t118 -118h15v152h262v-1065h-262v152h-15q-33 -63 -118.5 -117.5t-208.5 -54.5zM620.5 213q124.5 0 218 84t93.5 235.5 t-93.5 235.5t-218 84t-216 -84t-91.5 -235.5t91.5 -235.5t216 -84z" glyph-name="acircumflex" unicode="â"/><glyph d="M467 1524q78 0 198.5 -71t168.5 -71q33 0 62.5 15.5t29.5 36.5h102q0 -111 -62.5 -185.5t-170.5 -74.5q-80 0 -203 80.5t-176 80.5q-33 0 -61.5 -20.5t-26.5 -48.5h-101q0 111 62.5 184.5t177.5 73.5zM584 -20q-201 0 -364 146t-163 406.5t163 406.5t364 146 q123 0 209 -54t118 -118h15v152h262v-1065h-262v152h-15q-33 -63 -118.5 -117.5t-208.5 -54.5zM620.5 213q124.5 0 218 84t93.5 235.5t-93.5 235.5t-218 84t-216 -84t-91.5 -235.5t91.5 -235.5t216 -84z" glyph-name="atilde" unicode="ã"/><glyph d="M508 1436v-230h-244v230h244zM995 1436v-230h-245v230h245zM584 -20q-201 0 -364 146t-163 406.5t163 406.5t364 146q123 0 209 -54t118 -118h15v152h262v-1065h-262v152h-15q-33 -63 -118.5 -117.5t-208.5 -54.5zM620.5 213q124.5 0 218 84t93.5 235.5t-93.5 235.5 t-218 84t-216 -84t-91.5 -235.5t91.5 -235.5t216 -84z" glyph-name="adieresis" unicode="ä"/><glyph d="M631 1640q88 0 153.5 -66.5t65.5 -156.5t-64.5 -154.5t-154.5 -64.5q-94 0 -161 64.5t-67 154.5q0 92 67 157.5t161 65.5zM625 1479q-23 0 -39.5 -16.5t-16.5 -41.5q0 -23 16.5 -40t39 -17t41 17.5t18.5 39.5q0 25 -17 41.5t-42 16.5zM584 -20q-201 0 -364 146 t-163 406.5t163 406.5t364 146q123 0 209 -54t118 -118h15v152h262v-1065h-262v152h-15q-33 -63 -118.5 -117.5t-208.5 -54.5zM620.5 213q124.5 0 218 84t93.5 235.5t-93.5 235.5t-218 84t-216 -84t-91.5 -235.5t91.5 -235.5t216 -84z" glyph-name="aring" unicode="å"/><glyph d="M1477 1085q96 0 191 -37.5t178 -111.5t124 -204t21 -296h-797q25 -113 108.5 -173t200.5 -60q94 0 151.5 19.5t125.5 62.5l145 -142q-154 -164 -430 -163q-164 0 -307 83v-63h-262v152h-15q-33 -63 -118.5 -117.5t-208.5 -54.5q-201 0 -364 146t-163 406.5t163 406.5 t364 146q123 0 209 -54t118 -118h15v152h262v-64q139 84 289 84zM1477 860q-94 0 -174 -60.5t-107 -170.5h559q-16 111 -98 171t-180 60zM620.5 213q124.5 0 218 84t93.5 235.5t-93.5 235.5t-218 84t-216 -84t-91.5 -235.5t91.5 -235.5t216 -84z" glyph-name="ae" horiz-adv-x="2056" unicode="æ"/><glyph d="M1071 233q-119 -197 -332 -241l-88 -78q78 -14 135.5 -58t57.5 -114q0 -121 -125 -170t-301 -6l20 65q90 -18 143.5 19t53.5 92q0 45 -45 72.5t-98 -4.5l-80 73l65 113q-174 45 -297 183t-123 351q0 133 52.5 243t135.5 175.5t178 101t189 35.5q309 0 455 -256l-201 -94 q-102 117 -252 117q-119 0 -210 -86t-91 -236q0 -147 92.5 -232t208.5 -85q152 0 252 115z" glyph-name="ccedilla" horiz-adv-x="1132" unicode="ç"/><glyph d="M717 1190h-199l-235 326h315zM602 1085q96 0 191.5 -37.5t178.5 -111.5t124 -204t20 -296h-797q25 -113 109 -173t201 -60q94 0 151.5 19.5t124.5 62.5l146 -142q-154 -164 -430 -163q-221 0 -392.5 146t-171.5 404q0 133 51.5 243t132.5 175.5t175 101t186 35.5z M602 860q-94 0 -174 -60.5t-106 -170.5h559q-16 111 -98.5 171t-180.5 60z" glyph-name="egrave" horiz-adv-x="1181" unicode="è"/><glyph d="M930 1516l-236 -326h-198l118 326h316zM602 1085q96 0 191.5 -37.5t178.5 -111.5t124 -204t20 -296h-797q25 -113 109 -173t201 -60q94 0 151.5 19.5t124.5 62.5l146 -142q-154 -164 -430 -163q-221 0 -392.5 146t-171.5 404q0 133 51.5 243t132.5 175.5t175 101 t186 35.5zM602 860q-94 0 -174 -60.5t-106 -170.5h559q-16 111 -98.5 171t-180.5 60z" glyph-name="eacute" horiz-adv-x="1181" unicode="é"/><glyph d="M598 1386l-231 -212l-82 77l260 316h104l262 -316l-82 -77zM602 1085q96 0 191.5 -37.5t178.5 -111.5t124 -204t20 -296h-797q25 -113 109 -173t201 -60q94 0 151.5 19.5t124.5 62.5l146 -142q-154 -164 -430 -163q-221 0 -392.5 146t-171.5 404q0 133 51.5 243 t132.5 175.5t175 101t186 35.5zM602 860q-94 0 -174 -60.5t-106 -170.5h559q-16 111 -98.5 171t-180.5 60z" glyph-name="ecircumflex" horiz-adv-x="1181" unicode="ê"/><glyph d="M477 1436v-230h-244v230h244zM965 1436v-230h-246v230h246zM602 1085q96 0 191.5 -37.5t178.5 -111.5t124 -204t20 -296h-797q25 -113 109 -173t201 -60q94 0 151.5 19.5t124.5 62.5l146 -142q-154 -164 -430 -163q-221 0 -392.5 146t-171.5 404q0 133 51.5 243 t132.5 175.5t175 101t186 35.5zM602 860q-94 0 -174 -60.5t-106 -170.5h559q-16 111 -98.5 171t-180.5 60z" glyph-name="edieresis" horiz-adv-x="1181" unicode="ë"/><glyph d="M-76 1516h316l118 -326h-198zM373 1065v-1065h-264v1065h264z" glyph-name="igrave" horiz-adv-x="481" unicode="ì"/><glyph d="M571 1516l-235 -326h-199l119 326h315zM373 1065v-1065h-264v1065h264z" glyph-name="iacute" horiz-adv-x="481" unicode="í"/><glyph d="M291 1567l262 -316l-82 -77l-231 212l-232 -212l-82 77l260 316h105zM373 1065v-1065h-264v1065h264z" glyph-name="icircumflex" horiz-adv-x="481" unicode="î"/><glyph d="M119 1436v-230h-244v230h244zM606 1436v-230h-246v230h246zM373 1065v-1065h-264v1065h264z" glyph-name="idieresis" horiz-adv-x="481" unicode="ï"/><glyph d="M915 1188q123 -174 175.5 -328.5t52.5 -343.5q0 -256 -163 -396t-390 -140q-213 0 -373 141t-160 395q0 264 149.5 406.5t383.5 142.5q100 0 139 -29l-80 109l-184 -31v127l102 16l-129 177h297l99 -134l194 33v-127zM590 211q125 0 204.5 74.5t79.5 230.5 q0 166 -79.5 242t-204.5 76q-115 0 -189.5 -77t-74.5 -241q0 -152 80 -228.5t184 -76.5z" glyph-name="eth" horiz-adv-x="1251" unicode="ð"/><glyph d="M471 1524q78 0 199 -71t168 -71q33 0 62.5 15.5t29.5 36.5h102q0 -111 -62.5 -185.5t-170.5 -74.5q-80 0 -203 80.5t-176 80.5q-33 0 -61.5 -20.5t-26.5 -48.5h-101q0 111 62.5 184.5t177.5 73.5zM725 1085q162 0 279.5 -118.5t117.5 -352.5v-614h-264v598 q0 129 -65.5 192.5t-163.5 63.5q-109 0 -180.5 -78t-75.5 -147v-629h-264v1065h264v-209q23 70 117 149.5t235 79.5z" glyph-name="ntilde" horiz-adv-x="1224" unicode="ñ"/><glyph d="M299 1516h315l119 -326h-198zM614.5 1085q94.5 0 190.5 -35.5t179 -101t135 -175t52 -243t-52 -242t-135 -174t-179 -100t-190.5 -34.5t-190.5 34.5t-179 100t-135.5 174t-52.5 242t52.5 243t135.5 175t179 101t190.5 35.5zM614.5 852q-118.5 0 -210 -86t-91.5 -236 q0 -147 92.5 -232t208.5 -85q119 0 211.5 85t92.5 232q0 150 -92.5 236t-211 86z" glyph-name="ograve" horiz-adv-x="1230" unicode="ò"/><glyph d="M946 1516l-235 -326h-199l119 326h315zM614.5 1085q94.5 0 190.5 -35.5t179 -101t135 -175t52 -243t-52 -242t-135 -174t-179 -100t-190.5 -34.5t-190.5 34.5t-179 100t-135.5 174t-52.5 242t52.5 243t135.5 175t179 101t190.5 35.5zM614.5 852q-118.5 0 -210 -86 t-91.5 -236q0 -147 92.5 -232t208.5 -85q119 0 211.5 85t92.5 232q0 150 -92.5 236t-211 86z" glyph-name="oacute" horiz-adv-x="1230" unicode="ó"/><glyph d="M666 1567l262 -316l-82 -77l-232 212l-231 -212l-82 77l260 316h105zM614.5 1085q94.5 0 190.5 -35.5t179 -101t135 -175t52 -243t-52 -242t-135 -174t-179 -100t-190.5 -34.5t-190.5 34.5t-179 100t-135.5 174t-52.5 242t52.5 243t135.5 175t179 101t190.5 35.5z M614.5 852q-118.5 0 -210 -86t-91.5 -236q0 -147 92.5 -232t208.5 -85q119 0 211.5 85t92.5 232q0 150 -92.5 236t-211 86z" glyph-name="ocircumflex" horiz-adv-x="1230" unicode="ô"/><glyph d="M453 1524q80 0 198.5 -71t167.5 -71q33 0 62.5 15.5t29.5 36.5h103q0 -111 -62.5 -185.5t-171.5 -74.5q-80 0 -202.5 80.5t-176.5 80.5q-33 0 -61.5 -20.5t-26.5 -48.5h-100q0 111 62.5 184.5t177.5 73.5zM614.5 1085q94.5 0 190.5 -35.5t179 -101t135 -175t52 -243 t-52 -242t-135 -174t-179 -100t-190.5 -34.5t-190.5 34.5t-179 100t-135.5 174t-52.5 242t52.5 243t135.5 175t179 101t190.5 35.5zM614.5 852q-118.5 0 -210 -86t-91.5 -236q0 -147 92.5 -232t208.5 -85q119 0 211.5 85t92.5 232q0 150 -92.5 236t-211 86z" glyph-name="otilde" horiz-adv-x="1230" unicode="õ"/><glyph d="M494 1436v-230h-244v230h244zM981 1436v-230h-246v230h246zM614.5 1085q94.5 0 190.5 -35.5t179 -101t135 -175t52 -243t-52 -242t-135 -174t-179 -100t-190.5 -34.5t-190.5 34.5t-179 100t-135.5 174t-52.5 242t52.5 243t135.5 175t179 101t190.5 35.5zM614.5 852 q-118.5 0 -210 -86t-91.5 -236q0 -147 92.5 -232t208.5 -85q119 0 211.5 85t92.5 232q0 150 -92.5 236t-211 86z" glyph-name="odieresis" horiz-adv-x="1230" unicode="ö"/><glyph d="M432.5 727q-63.5 0 -107.5 43t-44 108.5t44 108.5t107.5 43t107.5 -43t44 -108.5t-44 -108.5t-107.5 -43zM778 674v-219h-686v219h686zM432.5 84q-63.5 0 -107.5 43t-44 108.5t44 108.5t107.5 43t107.5 -43t44 -108.5t-44 -108.5t-107.5 -43z" glyph-name="divide" horiz-adv-x="870" unicode="÷"/><glyph d="M958 969q213 -162 213 -439q0 -133 -52 -241.5t-135 -174t-179 -100t-191 -34.5q-66 0 -122 14l-48 -96h-247l90 186q-229 158 -230 446q0 133 52.5 243t135.5 175.5t179 101t190 35.5q74 0 142 -20l57 119h248zM313 530q0 -131 80 -221l260 541q-12 2 -39 2 q-119 0 -210 -86t-91 -236zM614 213q119 0 211.5 85t92.5 232q0 125 -70 211l-252 -528h18z" glyph-name="oslash" horiz-adv-x="1230" unicode="ø"/><glyph d="M291 1516h315l119 -326h-199zM494 -20q-162 0 -280 118.5t-118 352.5v614h264v-598q0 -129 66 -192.5t164 -63.5q109 0 180.5 78t75.5 147v629h264v-1065h-264v209q-23 -70 -117 -149.5t-235 -79.5z" glyph-name="ugrave" horiz-adv-x="1218" unicode="ù"/><glyph d="M938 1516l-236 -326h-198l119 326h315zM494 -20q-162 0 -280 118.5t-118 352.5v614h264v-598q0 -129 66 -192.5t164 -63.5q109 0 180.5 78t75.5 147v629h264v-1065h-264v209q-23 -70 -117 -149.5t-235 -79.5z" glyph-name="uacute" horiz-adv-x="1218" unicode="ú"/><glyph d="M657 1567l263 -316l-82 -77l-232 212l-231 -212l-82 77l260 316h104zM494 -20q-162 0 -280 118.5t-118 352.5v614h264v-598q0 -129 66 -192.5t164 -63.5q109 0 180.5 78t75.5 147v629h264v-1065h-264v209q-23 -70 -117 -149.5t-235 -79.5z" glyph-name="ucircumflex" horiz-adv-x="1218" unicode="û"/><glyph d="M485 1436v-230h-243v230h243zM973 1436v-230h-246v230h246zM494 -20q-162 0 -280 118.5t-118 352.5v614h264v-598q0 -129 66 -192.5t164 -63.5q109 0 180.5 78t75.5 147v629h264v-1065h-264v209q-23 -70 -117 -149.5t-235 -79.5z" glyph-name="udieresis" horiz-adv-x="1218" unicode="ü"/><glyph d="M973 1516l-236 -326h-198l118 326h316zM948 1065h271l-465 -1065l-181 -389h-262l191 416l-451 1038h271l313 -748z" glyph-name="yacute" horiz-adv-x="1269" unicode="ý"/><glyph d="M715 1085q201 0 363.5 -146t162.5 -406.5t-163 -406.5t-363 -146q-123 0 -209 54t-119 118h-14v-541h-264v635h2v639h-2v563h264v-535h14q33 63 119 117.5t209 54.5zM678 213q125 0 216 84t91 235.5t-91 235.5t-216 84t-218 -84t-93 -235.5t93 -235.5t218 -84z" glyph-name="thorn" horiz-adv-x="1273" unicode="þ"/><glyph d="M520 1436v-230h-244v230h244zM1008 1436v-230h-246v230h246zM948 1065h271l-465 -1065l-181 -389h-262l191 416l-451 1038h271l313 -748z" glyph-name="ydieresis" horiz-adv-x="1269" unicode="ÿ"/><glyph d="M1161 1802v-217h-770v217h770zM1225 0l-113 276h-674l-112 -276h-285l602 1434h264l604 -1434h-286zM528 498h494l-246 606z" glyph-name="Amacron" horiz-adv-x="1552" unicode="Ā"/><glyph d="M1014 1434v-217h-770v217h770zM584 -20q-201 0 -364 146t-163 406.5t163 406.5t364 146q123 0 209 -54t118 -118h15v152h262v-1065h-262v152h-15q-33 -63 -118.5 -117.5t-208.5 -54.5zM620.5 213q124.5 0 218 84t93.5 235.5t-93.5 235.5t-218 84t-216 -84t-91.5 -235.5 t91.5 -235.5t216 -84z" glyph-name="amacron" unicode="ā"/><glyph d="M776.5 1542q-155.5 0 -239.5 97.5t-82 224.5h163q6 -59 47.5 -101.5t111 -42.5t111.5 43t48 101h164q0 -127 -84 -224.5t-239.5 -97.5zM1225 0l-113 276h-674l-112 -276h-285l602 1434h264l604 -1434h-286zM528 498h494l-246 606z" glyph-name="Abreve" horiz-adv-x="1552" unicode="Ă"/><glyph d="M952 1495q0 -127 -84 -224t-239.5 -97t-239.5 97t-82 224h164q6 -59 47 -101t110.5 -42t111.5 43t48 100h164zM584 -20q-201 0 -364 146t-163 406.5t163 406.5t364 146q123 0 209 -54t118 -118h15v152h262v-1065h-262v152h-15q-33 -63 -118.5 -117.5t-208.5 -54.5z M620.5 213q124.5 0 218 84t93.5 235.5t-93.5 235.5t-218 84t-216 -84t-91.5 -235.5t91.5 -235.5t216 -84z" glyph-name="abreve" unicode="ă"/><glyph d="M1243 -221q0 -55 57.5 -74.5t106.5 4.5l59 -115q-70 -39 -180 -43t-203.5 47.5t-93.5 155.5q0 164 283 246h-47l-113 276h-674l-112 -276h-285l602 1434h264l604 -1434h45q-313 -94 -313 -221zM528 498h494l-246 606z" glyph-name="Aogonek" horiz-adv-x="1597" unicode="Ą"/><glyph d="M926 1065h262v-1065h-8q-168 -59 -229.5 -103t-61.5 -110q0 -55 58.5 -78.5t107.5 0.5l57 -115q-68 -39 -178.5 -42t-203.5 46.5t-93 147.5q0 166 276 254h13v152h-15q-33 -63 -118.5 -117.5t-208.5 -54.5q-201 0 -364 146t-163 406.5t163 406.5t364 146q123 0 209 -54 t118 -118h15v152zM620.5 213q124.5 0 218 84t93.5 235.5t-93.5 235.5t-218 84t-216 -84t-91.5 -235.5t91.5 -235.5t216 -84z" glyph-name="aogonek" horiz-adv-x="1288" unicode="ą"/><glyph d="M1112 1884l-235 -325h-199l119 325h315zM1323 154q-199 -174 -487 -174q-303 0 -523.5 209.5t-220.5 527t220 527.5t524 210q283 0 479 -170l-162 -184q-137 102 -301 102q-203 0 -342 -138t-139 -347t139 -347.5t342 -138.5q172 0 309 111z" glyph-name="Cacute" horiz-adv-x="1394" unicode="Ć"/><glyph d="M911 1516l-235 -326h-199l119 326h315zM612 1085q309 0 455 -256l-201 -94q-102 117 -252 117q-119 0 -210 -86t-91 -236q0 -147 92.5 -232t208.5 -85q152 0 252 115l205 -95q-152 -254 -459 -253q-94 0 -189 34.5t-178 100t-135.5 174t-52.5 242t52.5 243t135.5 175 t178 101t189 35.5z" glyph-name="cacute" horiz-adv-x="1132" unicode="ć"/><glyph d="M903 1804v-229h-244v229h244zM1323 154q-199 -174 -487 -174q-303 0 -523.5 209.5t-220.5 527t220 527.5t524 210q283 0 479 -170l-162 -184q-137 102 -301 102q-203 0 -342 -138t-139 -347t139 -347.5t342 -138.5q172 0 309 111z" glyph-name="Cdotaccent" horiz-adv-x="1394" unicode="Ċ"/><glyph d="M702 1436v-230h-243v230h243zM612 1085q309 0 455 -256l-201 -94q-102 117 -252 117q-119 0 -210 -86t-91 -236q0 -147 92.5 -232t208.5 -85q152 0 252 115l205 -95q-152 -254 -459 -253q-94 0 -189 34.5t-178 100t-135.5 174t-52.5 242t52.5 243t135.5 175t178 101 t189 35.5z" glyph-name="cdotaccent" horiz-adv-x="1132" unicode="ċ"/><glyph d="M831 1542h-104l-260 316l82 77l231 -213l232 213l82 -77zM1323 154q-199 -174 -487 -174q-303 0 -523.5 209.5t-220.5 527t220 527.5t524 210q283 0 479 -170l-162 -184q-137 102 -301 102q-203 0 -342 -138t-139 -347t139 -347.5t342 -138.5q172 0 309 111z" glyph-name="Ccaron" horiz-adv-x="1394" unicode="Č"/><glyph d="M631 1174h-105l-260 315l82 78l232 -213l231 213l82 -78zM612 1085q309 0 455 -256l-201 -94q-102 117 -252 117q-119 0 -210 -86t-91 -236q0 -147 92.5 -232t208.5 -85q152 0 252 115l205 -95q-152 -254 -459 -253q-94 0 -189 34.5t-178 100t-135.5 174t-52.5 242 t52.5 243t135.5 175t178 101t189 35.5z" glyph-name="ccaron" horiz-adv-x="1132" unicode="č"/><glyph d="M762 1542h-105l-260 316l82 77l232 -213l231 213l82 -77zM614 1434q305 0 515 -207t210 -504q0 -305 -208.5 -514t-516.5 -209h-491v1434h491zM612 254q211 0 333 134t122 335q0 193 -122 325t-333 132h-221v-926h221z" glyph-name="Dcaron" horiz-adv-x="1421" unicode="Ď"/><glyph d="M924 1448h264v-563h-2v-885h-262v152h-15q-33 -63 -118.5 -117.5t-208.5 -54.5q-201 0 -364 146t-163 406.5t163 406.5t364 146q123 0 209 -54t118 -118h15v535zM1397 1448h315l-235 -326h-199zM618.5 213q124.5 0 218 84t93.5 235.5t-93.5 235.5t-218 84t-216 -84 t-91.5 -235.5t91.5 -235.5t216 -84z" glyph-name="dcaron" horiz-adv-x="1720" unicode="ď"/><glyph d="M770 1434q305 0 515 -207t210 -504q0 -305 -209 -514t-516 -209h-491v594h-119v219h119v621h491zM768 254q211 0 333 134t122 335q0 193 -122 325t-333 132h-221v-367h248v-219h-248v-340h221z" glyph-name="Dcroat" horiz-adv-x="1576" unicode="Đ"/><glyph d="M1360 1339v-206h-172v-248h-2v-885h-262v152h-15q-33 -63 -118.5 -117.5t-208.5 -54.5q-201 0 -364 146t-163 406.5t163 406.5t364 146q123 0 209 -54t118 -118h15v220h-322v206h322v109h264v-109h172zM618.5 213q124.5 0 218 84t93.5 235.5t-93.5 235.5t-218 84 t-216 -84t-91.5 -235.5t91.5 -235.5t216 -84z" glyph-name="dcroat" horiz-adv-x="1368" unicode="đ"/><glyph d="M965 1802v-217h-770v217h770zM391 248h625v-248h-893v1434h874v-248h-606v-344h461v-242h-461v-352z" glyph-name="Emacron" horiz-adv-x="1107" unicode="Ē"/><glyph d="M983 1434v-217h-770v217h770zM602 1085q96 0 191.5 -37.5t178.5 -111.5t124 -204t20 -296h-797q25 -113 109 -173t201 -60q94 0 151.5 19.5t124.5 62.5l146 -142q-154 -164 -430 -163q-221 0 -392.5 146t-171.5 404q0 133 51.5 243t132.5 175.5t175 101t186 35.5z M602 860q-94 0 -174 -60.5t-106 -170.5h559q-16 111 -98.5 171t-180.5 60z" glyph-name="emacron" horiz-adv-x="1181" unicode="ē"/><glyph d="M702 1804v-229h-243v229h243zM391 248h625v-248h-893v1434h874v-248h-606v-344h461v-242h-461v-352z" glyph-name="Edotaccent" horiz-adv-x="1107" unicode="Ė"/><glyph d="M721 1436v-230h-244v230h244zM602 1085q96 0 191.5 -37.5t178.5 -111.5t124 -204t20 -296h-797q25 -113 109 -173t201 -60q94 0 151.5 19.5t124.5 62.5l146 -142q-154 -164 -430 -163q-221 0 -392.5 146t-171.5 404q0 133 51.5 243t132.5 175.5t175 101t186 35.5z M602 860q-94 0 -174 -60.5t-106 -170.5h559q-16 111 -98.5 171t-180.5 60z" glyph-name="edotaccent" horiz-adv-x="1181" unicode="ė"/><glyph d="M391 248h625v-248h-2q-289 -92 -289 -221q0 -55 57.5 -74.5t106.5 4.5l57 -115q-68 -39 -178.5 -43t-203.5 47.5t-93 155.5q0 164 293 246h-641v1434h874v-248h-606v-344h461v-242h-461v-352z" glyph-name="Eogonek" horiz-adv-x="1107" unicode="Ę"/><glyph d="M602 1085q96 0 191.5 -37.5t178.5 -111.5t124 -204t20 -296h-797q25 -113 109 -173t201 -60q94 0 151.5 19.5t124.5 62.5l146 -142q-100 -106 -248 -143h12q-168 -59 -228.5 -103t-60.5 -110q0 -55 57.5 -78.5t106.5 0.5l58 -115q-68 -39 -178.5 -42t-204 46.5 t-93.5 147.5q0 154 244 244q-193 33 -326 173t-133 367q0 133 51.5 243t132.5 175.5t175 101t186 35.5zM602 860q-94 0 -174 -60.5t-106 -170.5h559q-16 111 -98.5 171t-180.5 60z" glyph-name="eogonek" horiz-adv-x="1181" unicode="ę"/><glyph d="M631 1542h-105l-260 316l82 77l232 -213l231 213l82 -77zM391 248h625v-248h-893v1434h874v-248h-606v-344h461v-242h-461v-352z" glyph-name="Ecaron" horiz-adv-x="1107" unicode="Ě"/><glyph d="M649 1174h-104l-260 315l82 78l231 -213l231 213l82 -78zM602 1085q96 0 191.5 -37.5t178.5 -111.5t124 -204t20 -296h-797q25 -113 109 -173t201 -60q94 0 151.5 19.5t124.5 62.5l146 -142q-154 -164 -430 -163q-221 0 -392.5 146t-171.5 404q0 133 51.5 243 t132.5 175.5t175 101t186 35.5zM602 860q-94 0 -174 -60.5t-106 -170.5h559q-16 111 -98.5 171t-180.5 60z" glyph-name="ecaron" horiz-adv-x="1181" unicode="ě"/><glyph d="M841.5 1542q-155.5 0 -239.5 97.5t-82 224.5h164q6 -59 47 -101.5t110.5 -42.5t111.5 43t48 101h164q0 -127 -84 -224.5t-239.5 -97.5zM1475 766q23 -178 -20.5 -328.5t-134.5 -249t-217 -153.5t-269 -55q-307 0 -524.5 208.5t-217.5 528.5q0 317 219 527t523 210 q283 0 479 -170l-162 -184q-137 102 -301 102q-203 0 -341 -137t-138 -348t133 -348.5t334 -137.5q338 0 391 312h-359v223h605z" glyph-name="Gbreve" horiz-adv-x="1570" unicode="Ğ"/><glyph d="M622.5 1174q-155.5 0 -239.5 97t-82 224h164q6 -59 47 -101t110.5 -42t111.5 43t48 100h164q0 -127 -84 -224t-239.5 -97zM926 1065h262v-1065q0 -92 -34 -167t-89 -121t-127 -77.5t-142.5 -44t-142.5 -12.5q-186 0 -295 64v217q104 -61 295 -62q133 0 203 59.5t70 143.5 v152h-15q-33 -63 -118.5 -117.5t-208.5 -54.5q-201 0 -364 146t-163 406.5t163 406.5t364 146q123 0 209 -54t118 -118h15v152zM620.5 213q124.5 0 218 84t93.5 235.5t-93.5 235.5t-218 84t-216 -84t-91.5 -235.5t91.5 -235.5t216 -84z" glyph-name="gbreve" unicode="ğ"/><glyph d="M965 1804v-229h-244v229h244zM1475 766q23 -178 -20.5 -328.5t-134.5 -249t-217 -153.5t-269 -55q-307 0 -524.5 208.5t-217.5 528.5q0 317 219 527t523 210q283 0 479 -170l-162 -184q-137 102 -301 102q-203 0 -341 -137t-138 -348t133 -348.5t334 -137.5 q338 0 391 312h-359v223h605z" glyph-name="Gdotaccent" horiz-adv-x="1570" unicode="Ġ"/><glyph d="M745 1436v-230h-243v230h243zM926 1065h262v-1065q0 -92 -34 -167t-89 -121t-127 -77.5t-142.5 -44t-142.5 -12.5q-186 0 -295 64v217q104 -61 295 -62q133 0 203 59.5t70 143.5v152h-15q-33 -63 -118.5 -117.5t-208.5 -54.5q-201 0 -364 146t-163 406.5t163 406.5 t364 146q123 0 209 -54t118 -118h15v152zM620.5 213q124.5 0 218 84t93.5 235.5t-93.5 235.5t-218 84t-216 -84t-91.5 -235.5t91.5 -235.5t216 -84z" glyph-name="gdotaccent" unicode="ġ"/><glyph d="M1475 766q23 -178 -20.5 -328.5t-134.5 -249t-217 -153.5t-269 -55q-307 0 -524.5 208.5t-217.5 528.5q0 317 219 527t523 210q283 0 479 -170l-162 -184q-137 102 -301 102q-203 0 -341 -137t-138 -348t133 -348.5t334 -137.5q338 0 391 312h-359v223h605zM532 -524 l111 467h346l-221 -467h-236z" glyph-name="Gcommaaccent" horiz-adv-x="1570" unicode="Ģ"/><glyph d="M940 1638l-221 -467h-236l111 467h346zM926 1065h262v-1065q0 -92 -34 -167t-89 -121t-127 -77.5t-142.5 -44t-142.5 -12.5q-186 0 -295 64v217q104 -61 295 -62q133 0 203 59.5t70 143.5v152h-15q-33 -63 -118.5 -117.5t-208.5 -54.5q-201 0 -364 146t-163 406.5 t163 406.5t364 146q123 0 209 -54t118 -118h15v152zM620.5 213q124.5 0 218 84t93.5 235.5t-93.5 235.5t-218 84t-216 -84t-91.5 -235.5t91.5 -235.5t216 -84z" glyph-name="gcommaaccent" unicode="ģ"/><glyph d="M1006 1434h268v-1434h-268v590h-615v-590h-268v1434h268v-189h615v189zM391 838h615v159h-615v-159z" glyph-name="Hbar" horiz-adv-x="1396" unicode="Ħ"/><glyph d="M748 1085q162 0 279.5 -118.5t117.5 -352.5v-614h-264v598q0 129 -65.5 192.5t-164.5 63.5q-109 0 -180.5 -78t-75.5 -147v-629h-264v1143h-131v143h131v162h264v-162h262v-143h-262v-287q23 70 117.5 149.5t235.5 79.5z" glyph-name="hbar" horiz-adv-x="1247" unicode="ħ"/><glyph d="M643 1802v-217h-770v217h770zM391 1434v-1434h-268v1434h268z" glyph-name="Imacron" horiz-adv-x="514" unicode="Ī"/><glyph d="M625 1434v-217h-770v217h770zM373 1065v-1065h-264v1065h264z" glyph-name="imacron" horiz-adv-x="481" unicode="ī"/><glyph d="M399 0q-303 -92 -303 -221q0 -55 57.5 -74.5t106.5 4.5l57 -115q-68 -39 -178 -43t-203.5 47.5t-93.5 155.5q0 162 289 246v1434h268v-1434z" glyph-name="Iogonek" horiz-adv-x="522" unicode="Į"/><glyph d="M340 1436v-230h-244v230h244zM109 1065h264v-1065h-15q-289 -92 -288 -221q0 -55 57 -74.5t106 4.5l58 -115q-68 -39 -178.5 -43t-203.5 47.5t-93 155.5q0 164 293 246v1065z" glyph-name="iogonek" horiz-adv-x="481" unicode="į"/><glyph d="M381 1804v-229h-244v229h244zM391 1434v-1434h-268v1434h268z" glyph-name="Idotaccent" horiz-adv-x="514" unicode="İ"/><glyph d="M373 1065v-1065h-264v1065h264z" glyph-name="dotlessi" horiz-adv-x="481" unicode="ı"/><glyph d="M391 1434v-1434h-268v1434h268zM1501 1434v-945q0 -137 -44 -239.5t-118.5 -158.5t-159.5 -83.5t-180 -27.5q-270 0 -424 202l170 185q102 -129 254 -129q92 0 163 61t71 225v910h268z" glyph-name="IJ" horiz-adv-x="1624" unicode="Ĳ"/><glyph d="M373 1448v-252h-264v252h264zM918 1448v-252h-265v252h265zM373 1065v-1065h-264v1065h264zM430 -395h-72v243h58q123 0 180 50.5t57 191.5v975h265v-1002q0 -244 -119 -351t-369 -107z" glyph-name="ij" horiz-adv-x="1026" unicode="ĳ"/><glyph d="M741 813l615 -813h-309l-472 627l-184 -207v-420h-268v1434h268v-656l572 656h329zM479 -524l111 467h346l-221 -467h-236z" glyph-name="Kcommaaccent" horiz-adv-x="1406" unicode="Ķ"/><glyph d="M635 610l528 -610h-303l-389 438l-98 -102v-336h-264v1448h264v-791l379 408h315zM332 -524l110 467h346l-221 -467h-235z" glyph-name="kcommaaccent" horiz-adv-x="1204" unicode="ķ"/><glyph d="M602 1880l-235 -326h-199l119 326h315zM391 248h582v-248h-850v1434h268v-1186z" glyph-name="Lacute" horiz-adv-x="1054" unicode="Ĺ"/><glyph d="M573 1898l-235 -325h-199l119 325h315zM373 1448v-1448h-264v1448h264z" glyph-name="lacute" horiz-adv-x="481" unicode="ĺ"/><glyph d="M391 248h582v-248h-850v1434h268v-1186zM264 -524l111 467h346l-221 -467h-236z" glyph-name="Lcommaaccent" horiz-adv-x="1054" unicode="Ļ"/><glyph d="M373 1448v-1448h-264v1448h264zM-35 -524l111 467h346l-221 -467h-236z" glyph-name="lcommaaccent" horiz-adv-x="481" unicode="ļ"/><glyph d="M1010 1516l-187 -527h-227l184 527h230zM391 1434v-1186h582v-248h-850v1434h268z" glyph-name="Lcaron" horiz-adv-x="1054" unicode="Ľ"/><glyph d="M373 1448v-1448h-264v1448h264zM492 907l184 527h229l-186 -527h-227z" glyph-name="lcaron" horiz-adv-x="942" unicode="ľ"/><glyph d="M391 248h582v-248h-850v1434h268v-1186zM811 586q-63 0 -107.5 43t-44.5 108.5t44.5 108.5t107.5 43t107.5 -43t44.5 -108.5t-44.5 -108.5t-107.5 -43z" glyph-name="Ldot" horiz-adv-x="1054" unicode="Ŀ"/><glyph d="M373 1448v-1448h-264v1448h264zM657.5 582q-63.5 0 -107.5 43t-44 108.5t44 108.5t107.5 43t107.5 -43t44 -108.5t-44 -108.5t-107.5 -43z" glyph-name="ldot" horiz-adv-x="862" unicode="ŀ"/><glyph d="M506 248h581v-248h-849v418l-125 -131v272l125 131v744h268v-461l186 196h2v-270l-188 -199v-452z" glyph-name="Lslash" horiz-adv-x="1169" unicode="Ł"/><glyph d="M596 1149v-272l-133 -140v-737h-264v459l-138 -146v275l138 145v715h264v-436l131 137h2z" glyph-name="lslash" horiz-adv-x="657" unicode="ł"/><glyph d="M1071 1884l-235 -325h-199l119 325h315zM123 0v1434h268l682 -994h14v994h269v-1434h-269l-681 993h-15v-993h-268z" glyph-name="Nacute" horiz-adv-x="1478" unicode="Ń"/><glyph d="M965 1516l-236 -326h-199l119 326h316zM725 1085q162 0 279.5 -118.5t117.5 -352.5v-614h-264v598q0 129 -65.5 192.5t-163.5 63.5q-109 0 -180.5 -78t-75.5 -147v-629h-264v1065h264v-209q23 70 117 149.5t235 79.5z" glyph-name="nacute" horiz-adv-x="1224" unicode="ń"/><glyph d="M123 0v1434h268l682 -994h14v994h269v-1434h-269l-681 993h-15v-993h-268zM463 -524l110 467h347l-222 -467h-235z" glyph-name="Ncommaaccent" horiz-adv-x="1478" unicode="Ņ"/><glyph d="M725 1085q162 0 279.5 -118.5t117.5 -352.5v-614h-264v598q0 129 -65.5 192.5t-163.5 63.5q-109 0 -180.5 -78t-75.5 -147v-629h-264v1065h264v-209q23 70 117 149.5t235 79.5zM356 -524l111 467h346l-221 -467h-236z" glyph-name="ncommaaccent" horiz-adv-x="1224" unicode="ņ"/><glyph d="M791 1542h-105l-260 316l82 77l231 -213l232 213l82 -77zM123 0v1434h268l682 -994h14v994h269v-1434h-269l-681 993h-15v-993h-268z" glyph-name="Ncaron" horiz-adv-x="1478" unicode="Ň"/><glyph d="M684 1174h-104l-261 315l82 78l232 -213l231 213l82 -78zM725 1085q162 0 279.5 -118.5t117.5 -352.5v-614h-264v598q0 129 -65.5 192.5t-163.5 63.5q-109 0 -180.5 -78t-75.5 -147v-629h-264v1065h264v-209q23 70 117 149.5t235 79.5z" glyph-name="ncaron" horiz-adv-x="1224" unicode="ň"/><glyph d="M1343 1028h7v-944q0 -137 -44 -239.5t-119 -159t-160 -84t-179 -27.5q-270 0 -424 203l170 184q102 -129 254 -129q84 0 152.5 52.5t78.5 189.5l-688 872v-946h-268v1434h207l745 -947l-4 947h272v-406z" glyph-name="Eng" horiz-adv-x="1466" unicode="Ŋ"/><glyph d="M725 1085q162 0 279.5 -118.5t117.5 -352.5v-614h-2q-14 -209 -133 -302t-352 -93h-72v243h58q123 0 180 50.5t57 191.5v508q0 129 -65.5 192.5t-163.5 63.5q-109 0 -180.5 -78t-75.5 -147v-629h-264v1065h264v-209q23 70 117 149.5t235 79.5z" glyph-name="eng" horiz-adv-x="1224" unicode="ŋ"/><glyph d="M1214 1802v-217h-770v217h770zM833.5 1454q303.5 0 522.5 -208t219 -529.5t-219 -529t-522.5 -207.5t-522.5 207.5t-219 529t219 529.5t522.5 208zM834 231q190 0 325 137.5t135 348.5t-135 348t-325 137q-193 0 -328 -137t-135 -348t135 -348.5t328 -137.5z" glyph-name="Omacron" horiz-adv-x="1667" unicode="Ō"/><glyph d="M999 1434v-217h-770v217h770zM614.5 1085q94.5 0 190.5 -35.5t179 -101t135 -175t52 -243t-52 -242t-135 -174t-179 -100t-190.5 -34.5t-190.5 34.5t-179 100t-135.5 174t-52.5 242t52.5 243t135.5 175t179 101t190.5 35.5zM614.5 852q-118.5 0 -210 -86t-91.5 -236 q0 -147 92.5 -232t208.5 -85q119 0 211.5 85t92.5 232q0 150 -92.5 236t-211 86z" glyph-name="omacron" horiz-adv-x="1230" unicode="ō"/><glyph d="M954 1884l-235 -325h-199l119 325h315zM1386 1884l-235 -325h-199l119 325h315zM833.5 1454q303.5 0 522.5 -208t219 -529.5t-219 -529t-522.5 -207.5t-522.5 207.5t-219 529t219 529.5t522.5 208zM834 231q190 0 325 137.5t135 348.5t-135 348t-325 137 q-193 0 -328 -137t-135 -348t135 -348.5t328 -137.5z" glyph-name="Ohungarumlaut" horiz-adv-x="1667" unicode="Ő"/><glyph d="M739 1516l-235 -326h-199l119 326h315zM1171 1516l-235 -326h-199l119 326h315zM614.5 1085q94.5 0 190.5 -35.5t179 -101t135 -175t52 -243t-52 -242t-135 -174t-179 -100t-190.5 -34.5t-190.5 34.5t-179 100t-135.5 174t-52.5 242t52.5 243t135.5 175t179 101 t190.5 35.5zM614.5 852q-118.5 0 -210 -86t-91.5 -236q0 -147 92.5 -232t208.5 -85q119 0 211.5 85t92.5 232q0 150 -92.5 236t-211 86z" glyph-name="ohungarumlaut" horiz-adv-x="1230" unicode="ő"/><glyph d="M1573 248h625v-248h-893v143q-205 -164 -471 -163q-303 0 -522.5 207.5t-219.5 529t219 529.5t523 208q266 0 471 -164v144h874v-248h-606v-344h461v-242h-461v-352zM834 231q190 0 325 137.5t135 348.5t-135 348t-325 137q-193 0 -328 -137t-135 -348t135 -348.5 t328 -137.5z" glyph-name="OE" horiz-adv-x="2289" unicode="Œ"/><glyph d="M1460 1085q96 0 191.5 -37.5t178.5 -111.5t124 -204t20 -296h-796q25 -113 108.5 -173t200.5 -60q94 0 151.5 19.5t124.5 62.5l146 -142q-154 -164 -430 -163q-123 0 -240 49t-197 143q-82 -94 -197.5 -143t-230.5 -49q-94 0 -190 34.5t-179 100t-135.5 174t-52.5 242 t52.5 243t135.5 175t179 101t190 35.5q113 0 228.5 -50t199.5 -144q80 94 193.5 144t224.5 50zM1460 860q-94 0 -174 -60.5t-106 -170.5h559q-16 111 -98.5 171t-180.5 60zM614 213q111 0 201 77t100 208v32v33q-10 135 -99 212t-202 77q-119 0 -210 -86t-91 -236 q0 -147 92 -232t209 -85z" glyph-name="oe" horiz-adv-x="2039" unicode="œ"/><glyph d="M932 1884l-236 -325h-198l118 325h316zM1233 0h-285l-319 487h-13h-225v-487h-268v1434h493q240 0 382.5 -133.5t142.5 -348.5q0 -147 -70 -255.5t-197 -161.5zM391 1186v-467h211q127 0 198.5 57.5t71.5 175.5q0 117 -71.5 175.5t-198.5 58.5h-211z" glyph-name="Racute" horiz-adv-x="1294" unicode="Ŕ"/><glyph d="M772 1516l-235 -326h-199l119 326h315zM745 1081q49 0 74 -4v-252q-23 4 -65 4q-152 0 -259.5 -98t-121.5 -258v-473h-264v1065h264v-268q35 125 133 204.5t239 79.5z" glyph-name="racute" horiz-adv-x="880" unicode="ŕ"/><glyph d="M874 535l359 -535h-285l-319 487h-13h-225v-487h-268v1434h493q240 0 382.5 -133.5t142.5 -348.5q0 -147 -70 -255.5t-197 -161.5zM391 1186v-467h211q127 0 198.5 57.5t71.5 175.5q0 117 -71.5 175.5t-198.5 58.5h-211zM365 -524l110 467h346l-221 -467h-235z" glyph-name="Rcommaaccent" horiz-adv-x="1294" unicode="Ŗ"/><glyph d="M745 1081q49 0 74 -4v-252q-23 4 -65 4q-152 0 -259.5 -98t-121.5 -258v-473h-264v1065h264v-268q35 125 133 204.5t239 79.5zM-41 -524l111 467h346l-221 -467h-236z" glyph-name="rcommaaccent" horiz-adv-x="880" unicode="ŗ"/><glyph d="M651 1542h-104l-260 316l82 77l231 -213l231 213l82 -77zM1233 0h-285l-319 487h-13h-225v-487h-268v1434h493q240 0 382.5 -133.5t142.5 -348.5q0 -147 -70 -255.5t-197 -161.5zM391 1186v-467h211q127 0 198.5 57.5t71.5 175.5q0 117 -71.5 175.5t-198.5 58.5h-211z " glyph-name="Rcaron" horiz-adv-x="1294" unicode="Ř"/><glyph d="M492 1174h-105l-260 315l82 78l231 -213l232 213l82 -78zM745 1081q49 0 74 -4v-252q-23 4 -65 4q-152 0 -259.5 -98t-121.5 -258v-473h-264v1065h264v-268q35 125 133 204.5t239 79.5z" glyph-name="rcaron" horiz-adv-x="880" unicode="ř"/><glyph d="M918 1884l-236 -325h-199l119 325h316zM588 1454q172 0 291.5 -87t183.5 -210l-199 -117q-61 90 -123.5 133.5t-150.5 43.5q-90 0 -145.5 -45.5t-55.5 -118.5q0 -113 176 -179l99 -36q231 -82 334.5 -182.5t103.5 -249.5q0 -199 -153.5 -312.5t-354.5 -113.5 q-188 0 -330.5 98t-191.5 254l207 108q96 -217 315 -217q102 0 165.5 48t63.5 139q0 76 -51 116.5t-182 89.5l-90 35q-182 66 -279.5 159t-97.5 251q0 178 133 285.5t332 107.5z" glyph-name="Sacute" horiz-adv-x="1173" unicode="Ś"/><glyph d="M784 1516l-235 -326h-199l119 326h315zM621 762q-51 113 -154 112q-51 0 -86 -26.5t-35 -69.5q0 -72 103 -110l124 -43q72 -27 117 -48.5t93 -57.5t71 -88t23 -122q0 -156 -119 -242.5t-293 -86.5q-162 0 -271.5 77.5t-142.5 216.5l209 66q23 -66 76 -108t129 -42 q66 0 111 33t45 82q0 70 -111 113l-123 43q-295 106 -295 319q0 137 106.5 221t258.5 84q141 0 239.5 -70.5t143.5 -193.5z" glyph-name="sacute" horiz-adv-x="937" unicode="ś"/><glyph d="M1102 406q0 -168 -112.5 -277t-278.5 -139l-88 -78q78 -14 135 -58t57 -114q0 -121 -125 -170t-301 -6l21 65q90 -18 143 19t53 92q0 45 -45 72.5t-98 -5.5l-80 74l68 115q-139 33 -239.5 123t-139.5 213l207 108q96 -217 315 -217q102 0 165.5 48t63.5 139 q0 76 -51 116.5t-182 89.5l-90 35q-182 66 -279.5 159t-97.5 251q0 178 133 285.5t332 107.5q172 0 291.5 -87t183.5 -210l-199 -117q-61 90 -123.5 133.5t-150.5 43.5q-90 0 -145.5 -45.5t-55.5 -118.5q0 -113 176 -179l99 -36q231 -82 334.5 -182t103.5 -250z" glyph-name="Scedilla" horiz-adv-x="1173" unicode="Ş"/><glyph d="M877 309q0 -121 -75 -201.5t-196 -111.5l-88 -78q78 -14 135.5 -58t57.5 -114q0 -121 -125 -170t-301 -6l20 65q90 -18 143.5 19t53.5 92q0 45 -45 72.5t-99 -4.5l-79 73l61 107q-236 55 -289 280l209 66q23 -66 76 -108t129 -42q66 0 111 33t45 82q0 70 -111 113 l-123 43q-295 106 -295 319q0 137 106.5 221t258.5 84q141 0 239.5 -70.5t143.5 -193.5l-219 -59q-51 113 -154 112q-51 0 -86 -26.5t-35 -69.5q0 -72 103 -110l124 -43q72 -27 117 -48.5t93 -57.5t71 -88t23 -122z" glyph-name="scedilla" horiz-adv-x="937" unicode="ş"/><glyph d="M637 1542h-105l-260 316l82 77l232 -213l231 213l82 -77zM588 1454q172 0 291.5 -87t183.5 -210l-199 -117q-61 90 -123.5 133.5t-150.5 43.5q-90 0 -145.5 -45.5t-55.5 -118.5q0 -113 176 -179l99 -36q231 -82 334.5 -182.5t103.5 -249.5q0 -199 -153.5 -312.5 t-354.5 -113.5q-188 0 -330.5 98t-191.5 254l207 108q96 -217 315 -217q102 0 165.5 48t63.5 139q0 76 -51 116.5t-182 89.5l-90 35q-182 66 -279.5 159t-97.5 251q0 178 133 285.5t332 107.5z" glyph-name="Scaron" horiz-adv-x="1173" unicode="Š"/><glyph d="M504 1174h-105l-260 315l82 78l232 -213l231 213l82 -78zM621 762q-51 113 -154 112q-51 0 -86 -26.5t-35 -69.5q0 -72 103 -110l124 -43q72 -27 117 -48.5t93 -57.5t71 -88t23 -122q0 -156 -119 -242.5t-293 -86.5q-162 0 -271.5 77.5t-142.5 216.5l209 66 q23 -66 76 -108t129 -42q66 0 111 33t45 82q0 70 -111 113l-123 43q-295 106 -295 319q0 137 106.5 221t258.5 84q141 0 239.5 -70.5t143.5 -193.5z" glyph-name="scaron" horiz-adv-x="937" unicode="š"/><glyph d="M717 0h-6l-99 -88q78 -14 135.5 -58t57.5 -114q0 -121 -125 -170t-301 -6l20 65q90 -18 143.5 19t53.5 92q0 45 -45 72.5t-98 -5.5l-80 74l69 119h7v1186h-367v248h1003v-248h-368v-1186z" glyph-name="Tcommaaccent" horiz-adv-x="1167" unicode="Ţ"/><glyph d="M518 -88q78 -14 135.5 -58t57.5 -114q0 -121 -125 -170t-301 -6l20 65q90 -18 143.5 19t53.5 92q0 45 -45 72.5t-99 -5.5l-79 74l69 119h23q-174 45 -174 264v584h-150v217h150v272h262v-272h227v-217h-227v-526q0 -100 102 -101q53 0 125 23v-215q-41 -18 -82 -29h12z " glyph-name="tcommaaccent" horiz-adv-x="753" unicode="ţ"/><glyph d="M635 1542h-105l-260 316l82 77l232 -213l231 213l82 -77zM1085 1434v-248h-368v-1186h-268v1186h-367v248h1003z" glyph-name="Tcaron" horiz-adv-x="1167" unicode="Ť"/><glyph d="M662 1516h315l-236 -326h-198zM459 1337v-272h227v-217h-227v-526q0 -100 102 -101q53 0 125 23v-215q-82 -41 -199 -41q-139 0 -214.5 60.5t-75.5 215.5v584h-150v217h150v272h262z" glyph-name="tcaron" horiz-adv-x="1044" unicode="ť"/><glyph d="M1085 1186h-368v-150h252v-245h-252v-791h-268v791h-250v245h250v150h-367v248h1003v-248z" glyph-name="Tbar" horiz-adv-x="1167" unicode="Ŧ"/><glyph d="M694 479h-235v-157q0 -100 102 -101q53 0 125 23v-215q-82 -41 -199 -41q-139 0 -214.5 60.5t-75.5 215.5v215h-136v217h136v152h-150v217h150v272h262v-272h227v-217h-227v-152h235v-217z" glyph-name="tbar" horiz-adv-x="761" unicode="ŧ"/><glyph d="M508 1892q78 0 198.5 -70.5t167.5 -70.5q33 0 63 15.5t30 35.5h102q0 -111 -62.5 -185.5t-170.5 -74.5q-80 0 -203 81t-176 81q-33 0 -61.5 -20.5t-26.5 -49.5h-101q0 111 62.5 184.5t177.5 73.5zM946 1434h268v-902q0 -258 -154.5 -405t-389.5 -147q-238 0 -392.5 147 t-154.5 405v902h268v-904q0 -154 81 -226.5t198 -72.5q115 0 195.5 72t80.5 227v904z" glyph-name="Utilde" horiz-adv-x="1337" unicode="Ũ"/><glyph d="M444 1524q80 0 199 -71t168 -71q33 0 62.5 15.5t29.5 36.5h103q0 -111 -62.5 -185.5t-171.5 -74.5q-80 0 -203 80.5t-176 80.5q-33 0 -61.5 -20.5t-26.5 -48.5h-100q0 111 62 184.5t177 73.5zM494 -20q-162 0 -280 118.5t-118 352.5v614h264v-598q0 -129 66 -192.5 t164 -63.5q109 0 180.5 78t75.5 147v629h264v-1065h-264v209q-23 -70 -117 -149.5t-235 -79.5z" glyph-name="utilde" horiz-adv-x="1218" unicode="ũ"/><glyph d="M1055 1802v-217h-770v217h770zM946 1434h268v-902q0 -258 -154.5 -405t-389.5 -147q-238 0 -392.5 147t-154.5 405v902h268v-904q0 -154 81 -226.5t198 -72.5q115 0 195.5 72t80.5 227v904z" glyph-name="Umacron" horiz-adv-x="1337" unicode="Ū"/><glyph d="M991 1434v-217h-770v217h770zM494 -20q-162 0 -280 118.5t-118 352.5v614h264v-598q0 -129 66 -192.5t164 -63.5q109 0 180.5 78t75.5 147v629h264v-1065h-264v209q-23 -70 -117 -149.5t-235 -79.5z" glyph-name="umacron" horiz-adv-x="1218" unicode="ū"/><glyph d="M993 1864q0 -127 -84 -224.5t-239.5 -97.5t-239.5 97.5t-82 224.5h164q6 -59 47 -101.5t110.5 -42.5t111.5 43t48 101h164zM946 1434h268v-902q0 -258 -154.5 -405t-389.5 -147q-238 0 -392.5 147t-154.5 405v902h268v-904q0 -154 81 -226.5t198 -72.5q115 0 195.5 72 t80.5 227v904z" glyph-name="Ubreve" horiz-adv-x="1337" unicode="Ŭ"/><glyph d="M930 1495q0 -127 -84 -224t-239.5 -97t-239.5 97t-82 224h164q6 -59 47 -101t110.5 -42t111.5 43t48 100h164zM494 -20q-162 0 -280 118.5t-118 352.5v614h264v-598q0 -129 66 -192.5t164 -63.5q109 0 180.5 78t75.5 147v629h264v-1065h-264v209q-23 -70 -117 -149.5 t-235 -79.5z" glyph-name="ubreve" horiz-adv-x="1218" unicode="ŭ"/><glyph d="M672 2009q88 0 153.5 -66.5t65.5 -156.5t-64.5 -154.5t-154.5 -64.5q-94 0 -161 64.5t-67 154.5q0 92 67 157.5t161 65.5zM666 1847q-23 0 -39.5 -16t-16.5 -41q0 -23 16.5 -40t39 -17t41 17t18.5 40q0 25 -17 41t-42 16zM946 1434h268v-902q0 -258 -154.5 -405 t-389.5 -147q-238 0 -392.5 147t-154.5 405v902h268v-904q0 -154 81 -226.5t198 -72.5q115 0 195.5 72t80.5 227v904z" glyph-name="Uring" horiz-adv-x="1337" unicode="Ů"/><glyph d="M608 1640q88 0 153.5 -66.5t65.5 -156.5t-65.5 -154.5t-153.5 -64.5q-94 0 -160.5 64.5t-66.5 154.5q0 92 66.5 157.5t160.5 65.5zM602 1479q-23 0 -39 -16.5t-16 -41.5q0 -23 16.5 -40t39 -17t41 17.5t18.5 39.5q0 25 -17.5 41.5t-42.5 16.5zM494 -20q-162 0 -280 118.5 t-118 352.5v614h264v-598q0 -129 66 -192.5t164 -63.5q109 0 180.5 78t75.5 147v629h264v-1065h-264v209q-23 -70 -117 -149.5t-235 -79.5z" glyph-name="uring" horiz-adv-x="1218" unicode="ů"/><glyph d="M795 1884l-236 -325h-199l119 325h316zM1227 1884l-236 -325h-198l118 325h316zM946 1434h268v-902q0 -258 -154.5 -405t-389.5 -147q-238 0 -392.5 147t-154.5 405v902h268v-904q0 -154 81 -226.5t198 -72.5q115 0 195.5 72t80.5 227v904z" glyph-name="Uhungarumlaut" horiz-adv-x="1337" unicode="Ű"/><glyph d="M731 1516l-235 -326h-199l119 326h315zM1163 1516l-235 -326h-199l119 326h315zM494 -20q-162 0 -280 118.5t-118 352.5v614h264v-598q0 -129 66 -192.5t164 -63.5q109 0 180.5 78t75.5 147v629h264v-1065h-264v209q-23 -70 -117 -149.5t-235 -79.5z" glyph-name="uhungarumlaut" horiz-adv-x="1218" unicode="ű"/><glyph d="M946 1434h268v-902q0 -209 -104 -347t-279 -185h31q-289 -92 -289 -221q0 -55 57.5 -74.5t106.5 4.5l58 -115q-68 -39 -178.5 -43t-204 47.5t-93.5 155.5q0 152 250 234q-199 31 -322.5 173t-123.5 371v902h268v-904q0 -154 81 -226.5t198 -72.5q115 0 195.5 72t80.5 227 v904z" glyph-name="Uogonek" horiz-adv-x="1337" unicode="Ų"/><glyph d="M870 -195q0 -63 55.5 -89.5t108.5 -2.5l58 -119q-47 -27 -127 -30.5t-158 16t-134.5 71.5t-56.5 128q0 94 73 150.5t185 70.5h-28v209q-23 -70 -117 -149.5t-235 -79.5q-162 0 -280 118.5t-118 352.5v614h264v-598q0 -129 66 -192.5t164 -63.5q109 0 180.5 78t75.5 147 v629h264v-1065h33q-156 -59 -214.5 -100.5t-58.5 -94.5z" glyph-name="uogonek" horiz-adv-x="1269" unicode="ų"/><glyph d="M1110 1935l262 -315l-82 -78l-231 213l-232 -213l-82 78l261 315h104zM2068 1434l-469 -1434h-190l-350 983l-348 -983h-191l-469 1434h283l295 -945l327 945h207l328 -945l295 945h282z" glyph-name="Wcircumflex" horiz-adv-x="2119" unicode="Ŵ"/><glyph d="M967 1386l-232 -212l-82 77l260 316h105l262 -316l-82 -77zM1620 1065h264l-391 -1065h-250l-276 752l-277 -752h-248l-391 1065h262l256 -743l283 743h231l281 -743z" glyph-name="wcircumflex" horiz-adv-x="1935" unicode="ŵ"/><glyph d="M778 1935l262 -315l-82 -78l-231 213l-231 -213l-82 78l260 315h104zM1405 1434l-543 -850v-584h-268v584l-543 850h303l373 -598l373 598h305z" glyph-name="Ycircumflex" horiz-adv-x="1456" unicode="Ŷ"/><glyph d="M641 1386l-231 -212l-82 77l260 316h104l262 -316l-82 -77zM948 1065h271l-465 -1065l-181 -389h-262l191 416l-451 1038h271l313 -748z" glyph-name="ycircumflex" horiz-adv-x="1269" unicode="ŷ"/><glyph d="M606 1804v-229h-244v229h244zM1094 1804v-229h-246v229h246zM1405 1434l-543 -850v-584h-268v584l-543 850h303l373 -598l373 598h305z" glyph-name="Ydieresis" horiz-adv-x="1456" unicode="Ÿ"/><glyph d="M915 1884l-235 -325h-199l119 325h315zM1180 1434l-701 -1203h709v-231h-1137l701 1204h-662v230h1090z" glyph-name="Zacute" horiz-adv-x="1239" unicode="Ź"/><glyph d="M903 1516l-235 -326h-199l119 326h315zM1049 1065l-574 -834h545v-231h-969l574 836h-523v229h947z" glyph-name="zacute" horiz-adv-x="1099" unicode="ź"/><glyph d="M707 1804v-229h-244v229h244zM1180 1434l-701 -1203h709v-231h-1137l701 1204h-662v230h1090z" glyph-name="Zdotaccent" horiz-adv-x="1239" unicode="Ż"/><glyph d="M694 1436v-230h-243v230h243zM1049 1065l-574 -834h545v-231h-969l574 836h-523v229h947z" glyph-name="zdotaccent" horiz-adv-x="1099" unicode="ż"/><glyph d="M635 1542h-105l-260 316l82 77l232 -213l231 213l82 -77zM1180 1434l-701 -1203h709v-231h-1137l701 1204h-662v230h1090z" glyph-name="Zcaron" horiz-adv-x="1239" unicode="Ž"/><glyph d="M623 1174h-105l-260 315l82 78l231 -213l232 213l82 -78zM1049 1065l-574 -834h545v-231h-969l574 836h-523v229h947z" glyph-name="zcaron" horiz-adv-x="1099" unicode="ž"/><glyph d="M588 1253q-92 0 -115.5 -42t-23.5 -146h139v-225h-139v-883q0 -195 -91.5 -270.5t-316.5 -75.5v231q94 0 116.5 33t22.5 137v828h-143v225h143v47q0 199 93.5 286t314.5 87v-232z" glyph-name="florin" horiz-adv-x="638" unicode="ƒ"/><glyph d="M827 1542h-104l-260 316l82 77l231 -213l232 213l82 -77zM1225 0l-113 276h-674l-112 -276h-285l602 1434h264l604 -1434h-286zM528 498h494l-246 606z" glyph-name="uni01CD" horiz-adv-x="1552" unicode="Ǎ"/><glyph d="M680 1174h-105l-260 315l82 78l232 -213l231 213l82 -78zM584 -20q-201 0 -364 146t-163 406.5t163 406.5t364 146q123 0 209 -54t118 -118h15v152h262v-1065h-262v152h-15q-33 -63 -118.5 -117.5t-208.5 -54.5zM620.5 213q124.5 0 218 84t93.5 235.5t-93.5 235.5 t-218 84t-216 -84t-91.5 -235.5t91.5 -235.5t216 -84z" glyph-name="uni01CE" unicode="ǎ"/><glyph d="M309 1542h-104l-260 316l82 77l231 -213l231 213l82 -77zM391 1434v-1434h-268v1434h268z" glyph-name="uni01CF" horiz-adv-x="514" unicode="Ǐ"/><glyph d="M291 1174h-105l-260 315l82 78l232 -213l231 213l82 -78zM373 1065v-1065h-264v1065h264z" glyph-name="uni01D0" horiz-adv-x="481" unicode="ǐ"/><glyph d="M881 1542h-105l-260 316l82 77l231 -213l232 213l82 -77zM833.5 1454q303.5 0 522.5 -208t219 -529.5t-219 -529t-522.5 -207.5t-522.5 207.5t-219 529t219 529.5t522.5 208zM834 231q190 0 325 137.5t135 348.5t-135 348t-325 137q-193 0 -328 -137t-135 -348 t135 -348.5t328 -137.5z" glyph-name="uni01D1" horiz-adv-x="1667" unicode="Ǒ"/><glyph d="M666 1174h-105l-260 315l82 78l231 -213l232 213l82 -78zM614.5 1085q94.5 0 190.5 -35.5t179 -101t135 -175t52 -243t-52 -242t-135 -174t-179 -100t-190.5 -34.5t-190.5 34.5t-179 100t-135.5 174t-52.5 242t52.5 243t135.5 175t179 101t190.5 35.5zM614.5 852 q-118.5 0 -210 -86t-91.5 -236q0 -147 92.5 -232t208.5 -85q119 0 211.5 85t92.5 232q0 150 -92.5 236t-211 86z" glyph-name="uni01D2" horiz-adv-x="1230" unicode="ǒ"/><glyph d="M721 1542h-105l-260 316l82 77l232 -213l231 213l82 -77zM946 1434h268v-902q0 -258 -154.5 -405t-389.5 -147q-238 0 -392.5 147t-154.5 405v902h268v-904q0 -154 81 -226.5t198 -72.5q115 0 195.5 72t80.5 227v904z" glyph-name="uni01D3" horiz-adv-x="1337" unicode="Ǔ"/><glyph d="M657 1174h-104l-260 315l82 78l231 -213l232 213l82 -78zM494 -20q-162 0 -280 118.5t-118 352.5v614h264v-598q0 -129 66 -192.5t164 -63.5q109 0 180.5 78t75.5 147v629h264v-1065h-264v209q-23 -70 -117 -149.5t-235 -79.5z" glyph-name="uni01D4" horiz-adv-x="1218" unicode="ǔ"/><glyph d="M1001 -2q-283 -92 -282 -219q0 -55 57.5 -74.5t106.5 4.5l57 -115q-68 -39 -178.5 -43t-203.5 47.5t-93 155.5q0 152 254 234q-266 41 -446.5 240.5t-180.5 488.5q0 322 219 529.5t522.5 207.5t522.5 -208t219 -529q0 -272 -163 -468t-411 -251zM371 717 q0 -211 135 -348.5t328 -137.5q190 0 325 137.5t135 348.5t-135 348t-325 137q-193 0 -328 -137t-135 -348z" glyph-name="uni01EA" horiz-adv-x="1667" unicode="Ǫ"/><glyph d="M1171 530q0 -209 -118.5 -346t-290.5 -184h8q-289 -92 -289 -221q0 -55 57.5 -74.5t106.5 4.5l57 -115q-68 -39 -178 -43t-203.5 47.5t-93.5 155.5q0 156 269 238q-180 41 -309.5 180t-129.5 358q0 133 52.5 243t135.5 175.5t179 101t190.5 35.5t190.5 -35.5t179 -101 t135 -175.5t52 -243zM614 213q119 0 211.5 85t92.5 232q0 150 -92.5 236t-211 86t-210 -86t-91.5 -236q0 -147 92 -232t209 -85z" glyph-name="uni01EB" horiz-adv-x="1230" unicode="ǫ"/><glyph d="M588 1454q172 0 291.5 -87t183.5 -210l-199 -117q-61 90 -123.5 133.5t-150.5 43.5q-90 0 -145.5 -45.5t-55.5 -118.5q0 -113 176 -179l99 -36q231 -82 334.5 -182.5t103.5 -249.5q0 -199 -153.5 -312.5t-354.5 -113.5q-188 0 -330.5 98t-191.5 254l207 108 q96 -217 315 -217q102 0 165.5 48t63.5 139q0 76 -51 116.5t-182 89.5l-90 35q-182 66 -279.5 159t-97.5 251q0 178 133 285.5t332 107.5zM305 -524l111 467h346l-221 -467h-236z" glyph-name="Scommaaccent" horiz-adv-x="1173" unicode="Ș"/><glyph d="M621 762q-51 113 -154 112q-51 0 -86 -26.5t-35 -69.5q0 -72 103 -110l124 -43q72 -27 117 -48.5t93 -57.5t71 -88t23 -122q0 -156 -119 -242.5t-293 -86.5q-162 0 -271.5 77.5t-142.5 216.5l209 66q23 -66 76 -108t129 -42q66 0 111 33t45 82q0 70 -111 113l-123 43 q-295 106 -295 319q0 137 106.5 221t258.5 84q141 0 239.5 -70.5t143.5 -193.5zM201 -524l110 467h346l-221 -467h-235z" glyph-name="scommaaccent" horiz-adv-x="937" unicode="ș"/><glyph d="M82 1434h1003v-248h-368v-1186h-268v1186h-367v248zM309 -524l111 467h346l-221 -467h-236z" glyph-name="uni021A" horiz-adv-x="1167" unicode="Ț"/><glyph d="M686 848h-227v-526q0 -100 102 -101q53 0 125 23v-215q-82 -41 -199 -41q-139 0 -214.5 60.5t-75.5 215.5v584h-150v217h150v272h262v-272h227v-217zM201 -524l110 467h346l-221 -467h-235z" glyph-name="uni021B" horiz-adv-x="753" unicode="ț"/><glyph d="M-51 -395h-72v243h57q123 0 180.5 50.5t57.5 191.5v975h264v-1002q0 -244 -118.5 -351t-368.5 -107z" glyph-name="uni0237" horiz-adv-x="544" unicode="ȷ"/><glyph d="M365 1567l262 -316l-82 -77l-232 212l-231 -212l-82 77l260 316h105z" glyph-name="circumflex" horiz-adv-x="626" unicode="ˆ"/><glyph d="M365 1174h-105l-260 315l82 78l231 -213l232 213l82 -78z" glyph-name="caron" horiz-adv-x="626" unicode="ˇ"/><glyph d="M645 1495q0 -127 -84 -224t-239.5 -97t-239.5 97t-82 224h164q6 -59 47 -101t110.5 -42t111.5 43t48 100h164z" glyph-name="breve" horiz-adv-x="645" unicode="˘"/><glyph d="M244 1436v-230h-244v230h244z" glyph-name="dotaccent" horiz-adv-x="243" unicode="˙"/><glyph d="M227 1640q88 0 153.5 -66.5t65.5 -156.5t-65.5 -154.5t-153.5 -64.5q-94 0 -160.5 64.5t-66.5 154.5q0 92 66.5 157.5t160.5 65.5zM221 1479q-23 0 -39 -16.5t-16 -41.5q0 -23 16.5 -40t39 -17t41 17.5t18.5 39.5q0 25 -17.5 41.5t-42.5 16.5z" glyph-name="ring" horiz-adv-x="446" unicode="˚"/><glyph d="M543 0q-289 -92 -289 -221q0 -55 57.5 -74.5t106.5 4.5l57 -115q-68 -39 -178.5 -43t-203.5 47.5t-93 155.5q0 164 293 246h250z" glyph-name="ogonek" horiz-adv-x="542" unicode="˛"/><glyph d="M240 1524q80 0 198.5 -71t167.5 -71q33 0 62.5 15.5t29.5 36.5h103q0 -111 -62.5 -185.5t-171.5 -74.5q-80 0 -202.5 80.5t-176.5 80.5q-33 0 -61.5 -20.5t-26.5 -48.5h-100q0 111 62.5 184.5t177.5 73.5z" glyph-name="tilde" horiz-adv-x="800" unicode="˜"/><glyph d="M434 1516l-235 -326h-199l119 326h315zM866 1516l-235 -326h-199l119 326h315z" glyph-name="hungarumlaut" horiz-adv-x="864" unicode="˝"/><glyph d="M-508 -440l111 467h346l-221 -467h-236z" glyph-name="uni0326" horiz-adv-x="0" unicode="̦"/><glyph d="M780 1434l619 -1434h-1297l619 1434h59zM752 999l-314 -768h625z" glyph-name="Delta" horiz-adv-x="1501" unicode="Δ"/><glyph d="M1513 729q0 -268 -190 -473h139v-256h-469v311l66 54q180 145 180 364q0 209 -128 331t-308 122t-307 -122t-127 -331q0 -221 178 -364l65 -54v-311h-469v256h140q-190 205 -191 473q0 203 105.5 371t267.5 258t338 90t338 -90t267 -258t105 -371z" glyph-name="Omega" horiz-adv-x="1605" unicode="Ω"/><glyph d="M840 1065h264v-1065h-264v209q-23 -70 -117 -149.5t-236 -79.5q-68 0 -127 20v-389h-264v743q-6 45 -6 97v614h270v-670q18 -94 79 -139t145 -45q109 0 180.5 78t75.5 147v629z" glyph-name="mu" horiz-adv-x="1214" unicode="μ"/><glyph d="M1251 219q66 0 140 37v-231q-74 -37 -222 -37q-102 0 -187 50t-85 155v643h-322v-836h-268v836h-205v229h1266v-229h-203v-504q0 -68 19.5 -90.5t66.5 -22.5z" glyph-name="pi" horiz-adv-x="1482" unicode="π"/><glyph d="M432 1804v-229h-244v229h244zM920 1804v-229h-246v229h246zM391 248h625v-248h-893v1434h874v-248h-606v-344h461v-242h-461v-352z" glyph-name="afii10023" horiz-adv-x="1107" unicode="Ё"/><glyph d="M934 1884l-236 -325h-198l118 325h316zM1028 1434v-248h-637v-1186h-268v1434h905z" glyph-name="afii10052" horiz-adv-x="1099" unicode="Ѓ"/><glyph d="M1161 342l162 -188q-199 -174 -487 -174q-303 0 -523.5 209.5t-220.5 527t220 527.5t524 210q283 0 479 -170l-162 -184q-137 102 -301 102q-170 0 -300 -102.5t-169 -265.5h352v-232h-352q37 -166 167 -268.5t302 -102.5t309 111z" glyph-name="afii10053" horiz-adv-x="1394" unicode="Є"/><glyph d="M391 1434v-1434h-268v1434h268z" glyph-name="afii10055" horiz-adv-x="514" unicode="І"/><glyph d="M137 1804v-229h-243v229h243zM625 1804v-229h-246v229h246zM391 1434v-1434h-268v1434h268z" glyph-name="afii10056" horiz-adv-x="514" unicode="Ї"/><glyph d="M1225 0l-113 276h-674l-112 -276h-285l602 1434h264l604 -1434h-286zM528 498h494l-246 606z" glyph-name="afii10017" horiz-adv-x="1552" unicode="А"/><glyph d="M616 946q242 0 383.5 -126t141.5 -339q0 -215 -142.5 -348t-382.5 -133h-493v1434h891v-248h-623v-240h225zM602 248q127 0 198.5 58.5t71.5 174.5q0 119 -71.5 176.5t-198.5 57.5h-211v-467h211z" glyph-name="afii10018" horiz-adv-x="1212" unicode="Б"/><glyph d="M860 791q127 -33 213 -136.5t86 -253.5q0 -184 -132 -292.5t-390 -108.5h-514v1434h493q209 0 324 -102.5t115 -254.5q0 -202 -195 -286zM592 1198h-201v-334h201q94 0 145 47t51 127q0 76 -51 118t-145 42zM625 236q266 0 266 210q0 96 -66.5 153.5t-206.5 57.5h-227 v-421h234z" glyph-name="afii10019" horiz-adv-x="1230" unicode="В"/><glyph d="M1028 1434v-248h-637v-1186h-268v1434h905z" glyph-name="afii10020" horiz-adv-x="1099" unicode="Г"/><glyph d="M1475 248h237v-389h-268v141h-1094v-141h-268v389h211q33 92 49 244.5t18 276.5t2 378v287h1113v-1186zM559 248h647v938h-575v-39q0 -254 -2 -378t-19.5 -276.5t-50.5 -244.5z" glyph-name="afii10021" horiz-adv-x="1794" unicode="Д"/><glyph d="M391 248h625v-248h-893v1434h874v-248h-606v-344h461v-242h-461v-352z" glyph-name="afii10022" horiz-adv-x="1107" unicode="Е"/><glyph d="M1939 0l-471 627l-176 -199v-428h-276v428l-176 199l-471 -627h-310l615 813l-551 621h330l563 -648v648h276v-648l563 648h330l-551 -621l615 -813h-310z" glyph-name="afii10024" horiz-adv-x="2299" unicode="Ж"/><glyph d="M612 1448q195 0 334 -111.5t139 -281.5q0 -109 -75.5 -193t-171.5 -104q106 -2 211.5 -97.5t105.5 -244.5q0 -205 -156.5 -320.5t-386 -115.5t-380 124.5t-150.5 317.5h278q0 -92 82 -140.5t170 -48.5q98 0 181.5 47.5t83.5 149.5q0 94 -82 153.5t-242 61.5v199 q254 14 254 192q0 72 -59.5 115t-135.5 43q-82 0 -144 -46t-62 -136h-279q0 203 139 319.5t346 116.5z" glyph-name="afii10025" horiz-adv-x="1236" unicode="З"/><glyph d="M1356 0h-269v993h-14l-682 -993h-268v1434h268v-994h15l681 994h269v-1434z" glyph-name="afii10026" horiz-adv-x="1478" unicode="И"/><glyph d="M1116 1864q0 -127 -84 -224.5t-239.5 -97.5t-239.5 97.5t-82 224.5h164q6 -59 47 -101.5t110.5 -42.5t111.5 43t48 101h164zM1356 0h-269v993h-14l-682 -993h-268v1434h268v-994h15l681 994h269v-1434z" glyph-name="afii10027" horiz-adv-x="1478" unicode="Й"/><glyph d="M1047 0l-472 627l-184 -207v-420h-268v1434h268v-656l572 656h329l-551 -621l615 -813h-309z" glyph-name="afii10028" horiz-adv-x="1406" unicode="К"/><glyph d="M1405 1434v-1434h-268v1186h-592v-869q0 -190 -77 -259.5t-214 -69.5q-129 0 -203 37v231q74 -37 139 -37q43 0 64.5 33t21.5 70v1112h1129z" glyph-name="afii10029" horiz-adv-x="1527" unicode="Л"/><glyph d="M1688 1434v-1434h-269v913h-10l-408 -913h-192l-408 913h-10v-913h-268v1434h295l487 -1092l488 1092h295z" glyph-name="afii10030" horiz-adv-x="1810" unicode="М"/><glyph d="M1006 1434h268v-1434h-268v590h-615v-590h-268v1434h268v-596h615v596z" glyph-name="afii10031" horiz-adv-x="1396" unicode="Н"/><glyph d="M833.5 1454q303.5 0 522.5 -208t219 -529.5t-219 -529t-522.5 -207.5t-522.5 207.5t-219 529t219 529.5t522.5 208zM834 231q190 0 325 137.5t135 348.5t-135 348t-325 137q-193 0 -328 -137t-135 -348t135 -348.5t328 -137.5z" glyph-name="afii10032" horiz-adv-x="1667" unicode="О"/><glyph d="M1284 1434v-1434h-268v1186h-625v-1186h-268v1434h1161z" glyph-name="afii10033" horiz-adv-x="1406" unicode="П"/><glyph d="M616 1434q240 0 382.5 -133.5t142.5 -348.5q0 -213 -141.5 -339t-383.5 -126h-225v-487h-268v1434h493zM602 719q127 0 198.5 57.5t71.5 175.5q0 117 -71.5 175.5t-198.5 58.5h-211v-467h211z" glyph-name="afii10034" horiz-adv-x="1212" unicode="Р"/><glyph d="M1323 154q-199 -174 -487 -174q-303 0 -523.5 209.5t-220.5 527t220 527.5t524 210q283 0 479 -170l-162 -184q-137 102 -301 102q-203 0 -342 -138t-139 -347t139 -347.5t342 -138.5q172 0 309 111z" glyph-name="afii10035" horiz-adv-x="1394" unicode="С"/><glyph d="M1085 1434v-248h-368v-1186h-268v1186h-367v248h1003z" glyph-name="afii10036" horiz-adv-x="1167" unicode="Т"/><glyph d="M1090 1434h294l-782 -1434h-293l262 481l-520 953h295l371 -682z" glyph-name="afii10037" horiz-adv-x="1445" unicode="У"/><glyph d="M1769 716.5q0 -241.5 -200.5 -404t-509.5 -177.5v-135h-268v135q-309 14 -509 177t-200 404.5t199.5 404.5t509.5 177v136h268v-136q309 -14 509.5 -177t200.5 -404.5zM1059 367q125 6 215 39.5t137 87t68.5 108.5t21.5 115q0 61 -21.5 116.5t-68.5 108.5t-137 87 t-215 40v-702zM350 717q0 -59 20.5 -114.5t67.5 -109t137.5 -87t215.5 -39.5v702q-125 -6 -215.5 -41t-137.5 -87t-67.5 -107.5t-20.5 -116.5z" glyph-name="afii10038" horiz-adv-x="1851" unicode="Ф"/><glyph d="M1360 0h-313l-340 500l-342 -500h-314l498 727l-481 707h313l326 -478l325 478h314l-484 -707z" glyph-name="afii10039" horiz-adv-x="1411" unicode="Х"/><glyph d="M1554 248v-389h-270v141h-1161v1434h268v-1186h625v1186h268v-1186h270z" glyph-name="afii10040" horiz-adv-x="1597" unicode="Ц"/><glyph d="M920 1434h268v-1434h-268v606q-33 -66 -123 -127t-217 -61q-207 0 -337 113.5t-130 345.5v557h268v-557q0 -115 71.5 -166.5t170.5 -51.5q113 0 185.5 61.5t111.5 141.5v572z" glyph-name="afii10041" horiz-adv-x="1310" unicode="Ч"/><glyph d="M1909 1434h268v-1434h-2054v1434h268v-1186h625v1186h268v-1186h625v1186z" glyph-name="afii10042" horiz-adv-x="2301" unicode="Ш"/><glyph d="M2445 248v-389h-266v141h-2056v1434h268v-1186h625v1186h268v-1186h625v1186h268v-1186h268z" glyph-name="afii10043" horiz-adv-x="2488" unicode="Щ"/><glyph d="M831 946q242 0 383.5 -126t141.5 -339q0 -215 -142.5 -348t-382.5 -133h-493v1186h-277v248h545v-488h225zM817 248q127 0 198.5 58.5t71.5 174.5q0 119 -71.5 176.5t-198.5 57.5h-211v-467h211z" glyph-name="afii10044" horiz-adv-x="1427" unicode="Ъ"/><glyph d="M616 946q242 0 383.5 -126t141.5 -339q0 -215 -142.5 -348t-382.5 -133h-493v1434h268v-488h225zM1374 1434h268v-1434h-268v1434zM602 248q127 0 198.5 58.5t71.5 174.5q0 119 -71.5 176.5t-198.5 57.5h-211v-467h211z" glyph-name="afii10045" horiz-adv-x="1765" unicode="Ы"/><glyph d="M616 946q242 0 383.5 -126t141.5 -339q0 -215 -142.5 -348t-382.5 -133h-493v1434h268v-488h225zM602 248q127 0 198.5 58.5t71.5 174.5q0 119 -71.5 176.5t-198.5 57.5h-211v-467h211z" glyph-name="afii10046" horiz-adv-x="1212" unicode="Ь"/><glyph d="M580 1454q303 0 523 -210t220 -527.5t-220 -527t-523 -209.5q-289 0 -488 174l162 188q137 -111 309 -111t302 102.5t167 268.5h-352v232h352q-39 164 -169 266t-300 102q-164 0 -301 -102l-162 184q197 170 480 170z" glyph-name="afii10047" horiz-adv-x="1394" unicode="Э"/><glyph d="M1298 1454q303 0 522.5 -208t219.5 -529.5t-219 -529t-523 -207.5q-274 0 -483 173t-250 449h-174v-602h-268v1434h268v-600h174q41 276 251 448t482 172zM1298 231q190 0 325.5 137.5t135.5 348.5t-135 348t-326 137q-193 0 -327.5 -137t-134.5 -348t134.5 -348.5 t327.5 -137.5z" glyph-name="afii10048" horiz-adv-x="2129" unicode="Ю"/><glyph d="M678 1434h493v-1434h-268v487h-225h-12l-320 -487h-285l359 535q-127 53 -196.5 161.5t-69.5 255.5q0 215 142 348.5t382 133.5zM692 719h211v467h-211q-127 0 -198.5 -58.5t-71.5 -175.5q0 -119 71.5 -176t198.5 -57z" glyph-name="afii10049" horiz-adv-x="1294" unicode="Я"/><glyph d="M584 -20q-201 0 -364 146t-163 406.5t163 406.5t364 146q123 0 209 -54t118 -118h15v152h262v-1065h-262v152h-15q-33 -63 -118.5 -117.5t-208.5 -54.5zM620.5 213q124.5 0 218 84t93.5 235.5t-93.5 235.5t-218 84t-216 -84t-91.5 -235.5t91.5 -235.5t216 -84z" glyph-name="afii10065" unicode="а"/><glyph d="M705 1085q201 0 363.5 -146t162.5 -406.5t-163 -406.5t-363 -146q-123 0 -209 54t-119 118h-15v-152h-262v1065h9q0 188 94 278.5t303 90.5h172q117 0 151 41h256q-51 -135 -139 -196.5t-248 -61.5h-163q-76 0 -119 -38t-43 -114v-152h4q33 63 119 117.5t209 54.5z M668 213q125 0 216 84t91 235.5t-91 235.5t-216 84t-218.5 -84t-93.5 -235.5t93.5 -235.5t218.5 -84z" glyph-name="afii10066" horiz-adv-x="1288" unicode="б"/><glyph d="M909 590q215 -82 215 -271q0 -164 -127 -241.5t-344 -77.5h-544v1065h544q174 0 281.5 -72.5t107.5 -201.5q0 -138 -133 -201zM653 848h-280v-186h278q68 0 94.5 30.5t26.5 67.5q0 33 -25.5 60.5t-93.5 27.5zM653 217q88 0 135.5 20.5t57.5 43t10 55.5q0 123 -205 123 h-278v-242h280z" glyph-name="afii10067" horiz-adv-x="1196" unicode="в"/><glyph d="M940 1065v-229h-567v-836h-264v1065h831z" glyph-name="afii10068" horiz-adv-x="1021" unicode="г"/><glyph d="M1249 231h150v-346h-264v115h-809v-115h-265v346h123q41 57 60.5 161t22.5 193t3 275v205h979v-834zM444 231h543v605h-455q0 -178 -3 -263.5t-23.5 -186t-61.5 -155.5z" glyph-name="afii10069" horiz-adv-x="1460" unicode="д"/><glyph d="M602 1085q96 0 191.5 -37.5t178.5 -111.5t124 -204t20 -296h-797q25 -113 109 -173t201 -60q94 0 151.5 19.5t124.5 62.5l146 -142q-154 -164 -430 -163q-221 0 -392.5 146t-171.5 404q0 133 51.5 243t132.5 175.5t175 101t186 35.5zM602 860q-94 0 -174 -60.5 t-106 -170.5h559q-16 111 -98.5 171t-180.5 60z" glyph-name="afii10070" horiz-adv-x="1181" unicode="е"/><glyph d="M1538 0l-387 387l-55 -57v-330h-265v330l-55 57l-387 -387h-348l559 565l-491 500h337l385 -381v381h265v-381l385 381h338l-492 -500l559 -565h-348z" glyph-name="afii10072" horiz-adv-x="1927" unicode="ж"/><glyph d="M530 1083q178 0 295 -89t117 -210q0 -51 -16.5 -90t-48 -63.5t-54 -36.5t-55.5 -25q43 -6 90 -27.5t94 -81t47 -143.5q0 -156 -136 -246.5t-326 -90.5q-203 0 -329 102t-126 272h250q0 -68 61.5 -113.5t145.5 -45.5t144 35.5t60 101.5q0 70 -63.5 106.5t-177.5 36.5v176 q106 2 145 30t39 79q0 43 -40 74.5t-109 31.5q-68 0 -113 -32.5t-45 -81.5h-252q0 145 106.5 238t296.5 93z" glyph-name="afii10073" horiz-adv-x="1081" unicode="з"/><glyph d="M1106 1065v-1065h-264v592l-695 -592h-38v1065h264v-592l694 592h39z" glyph-name="afii10074" horiz-adv-x="1214" unicode="и"/><glyph d="M932 1495q0 -127 -84 -224t-239.5 -97t-239.5 97t-82 224h164q6 -59 47 -101t110.5 -42t111.5 43t48 100h164zM1106 1065v-1065h-264v592l-695 -592h-38v1065h264v-592l694 592h39z" glyph-name="afii10075" horiz-adv-x="1214" unicode="й"/><glyph d="M815 0l-387 387l-55 -57v-330h-264v1065h264v-381l385 381h338l-492 -500l559 -565h-348z" glyph-name="afii10076" horiz-adv-x="1204" unicode="к"/><glyph d="M1270 1065v-1065h-264v836h-469v-519q0 -190 -75 -259.5t-208 -69.5q-129 0 -203 37v217q51 -23 133 -23q88 0 88 88v758h998z" glyph-name="afii10077" horiz-adv-x="1378" unicode="л"/><glyph d="M1382 1065v-1065h-264v451l-373 -451l-372 451v-451h-264v1065h51l585 -700l586 700h51z" glyph-name="afii10078" horiz-adv-x="1490" unicode="м"/><glyph d="M821 1065h264v-1065h-264v399h-448v-399h-264v1065h264v-436h448v436z" glyph-name="afii10079" horiz-adv-x="1193" unicode="н"/><glyph d="M614.5 1085q94.5 0 190.5 -35.5t179 -101t135 -175t52 -243t-52 -242t-135 -174t-179 -100t-190.5 -34.5t-190.5 34.5t-179 100t-135.5 174t-52.5 242t52.5 243t135.5 175t179 101t190.5 35.5zM614.5 852q-118.5 0 -210 -86t-91.5 -236q0 -147 92.5 -232t208.5 -85 q119 0 211.5 85t92.5 232q0 150 -92.5 236t-211 86z" glyph-name="afii10080" horiz-adv-x="1230" unicode="о"/><glyph d="M1118 1065v-1065h-264v836h-481v-836h-264v1065h1009z" glyph-name="afii10081" horiz-adv-x="1226" unicode="п"/><glyph d="M715 1085q201 0 363.5 -146t162.5 -406.5t-163 -406.5t-363 -146q-123 0 -209 54t-119 118h-14v-541h-264v635h2v819h262v-152h14q33 63 119 117.5t209 54.5zM678 213q125 0 216 84t91 235.5t-91 235.5t-216 84t-218 -84t-93 -235.5t93 -235.5t218 -84z" glyph-name="afii10082" unicode="р"/><glyph d="M612 1085q309 0 455 -256l-201 -94q-102 117 -252 117q-119 0 -210 -86t-91 -236q0 -147 92.5 -232t208.5 -85q152 0 252 115l205 -95q-152 -254 -459 -253q-94 0 -189 34.5t-178 100t-135.5 174t-52.5 242t52.5 243t135.5 175t178 101t189 35.5z" glyph-name="afii10083" horiz-adv-x="1132" unicode="с"/><glyph d="M899 1065v-229h-289v-836h-262v836h-287v229h838z" glyph-name="afii10084" horiz-adv-x="960" unicode="т"/><glyph d="M948 1065h271l-465 -1065l-181 -389h-262l191 416l-451 1038h271l313 -748z" glyph-name="afii10085" horiz-adv-x="1269" unicode="у"/><glyph d="M1507 1085q201 0 364 -146t163 -406.5t-163 -406.5t-364 -146q-123 0 -209 54t-118 118h-15v-541h-264v541h-14q-33 -63 -119 -117.5t-209 -54.5q-201 0 -363.5 146t-162.5 406.5t162.5 406.5t363.5 146q123 0 209 -54t119 -118h14v541h264v-541h15q33 63 118.5 117.5 t208.5 54.5zM596 213q111 0 200 68.5t107 193.5v115q-18 125 -107 193.5t-200 68.5q-125 0 -216 -84t-91 -235.5t91 -235.5t216 -84zM1470 213q125 0 216.5 84t91.5 235.5t-91.5 235.5t-216.5 84q-111 0 -199.5 -68.5t-107.5 -193.5v-115q18 -125 107 -193.5t200 -68.5z" glyph-name="afii10086" horiz-adv-x="2068" unicode="ф"/><glyph d="M862 0l-256 354l-256 -354h-303l408 545l-373 520h299l225 -328l225 328h299l-372 -520l407 -545h-303z" glyph-name="afii10087" horiz-adv-x="1212" unicode="х"/><glyph d="M1118 231h133v-372h-264v141h-878v1065h264v-836h481v836h264v-834z" glyph-name="afii10088" horiz-adv-x="1296" unicode="ц"/><glyph d="M838 1065h262v-1065h-262v461q-10 -23 -30 -46.5t-59.5 -58t-107.5 -56t-152 -21.5q-102 0 -187 35.5t-147.5 133t-62.5 246.5v371h264v-373q0 -84 47.5 -132t135.5 -48q100 0 180 62.5t119 166.5v324z" glyph-name="afii10089" horiz-adv-x="1210" unicode="ч"/><glyph d="M1567 1065v-1065h-1458v1065h264v-834h334v834h264v-834h334v834h262z" glyph-name="afii10090" horiz-adv-x="1675" unicode="ш"/><glyph d="M1567 231h133v-372h-262v141h-1329v1065h264v-834h334v834h264v-834h334v834h262v-834z" glyph-name="afii10091" horiz-adv-x="1744" unicode="щ"/><glyph d="M807 664q186 0 301 -89.5t115 -243t-115 -242.5t-301 -89h-600v836h-166v229h430v-401h336zM805 231q162 0 162 100.5t-162 100.5h-334v-201h334z" glyph-name="afii10092" horiz-adv-x="1280" unicode="ъ"/><glyph d="M709 664q186 0 300.5 -89.5t114.5 -243t-114.5 -242.5t-300.5 -89h-600v1065h264v-401h336zM1292 1065h262v-1065h-262v1065zM707 231q162 0 161.5 100.5t-161.5 100.5h-334v-201h334z" glyph-name="afii10093" horiz-adv-x="1662" unicode="ы"/><glyph d="M709 664q186 0 300.5 -89.5t114.5 -243t-114.5 -242.5t-300.5 -89h-600v1065h264v-401h336zM707 231q162 0 161.5 100.5t-161.5 100.5h-334v-201h334z" glyph-name="afii10094" horiz-adv-x="1181" unicode="ь"/><glyph d="M516 1085q94 0 189.5 -35.5t178.5 -101t135 -175t52 -243t-52 -242t-135 -174t-178.5 -100t-189.5 -34.5q-307 0 -459 253l205 95q100 -115 252 -115q94 0 177 58.5t112 162.5h-285v182h287q-25 111 -109 173.5t-182 62.5q-150 0 -252 -117l-201 94q146 256 455 256z" glyph-name="afii10095" horiz-adv-x="1128" unicode="э"/><glyph d="M1053 1085q94 0 190 -35.5t179 -101t135.5 -175t52.5 -243t-52.5 -242t-135.5 -174t-179 -100t-190 -34.5q-178 0 -339 111.5t-206 311.5h-135v-403h-264v1065h264v-418h133q41 205 204 321.5t343 116.5zM1053 213q119 0 211 85t92 232q0 150 -92.5 236t-211 86 t-209.5 -86t-91 -236q0 -147 92 -232t209 -85z" glyph-name="afii10096" horiz-adv-x="1710" unicode="ю"/><glyph d="M1116 1065v-1065h-264v313h-193l-294 -313h-304l318 342q-123 41 -195.5 132t-72.5 216q0 168 130 271.5t324 103.5h551zM852 545v291h-287q-96 0 -147 -40t-51 -105.5t51 -105.5t147 -40h287z" glyph-name="afii10097" horiz-adv-x="1224" unicode="я"/><glyph d="M489 1436v-230h-243v230h243zM977 1436v-230h-246v230h246zM602 1085q96 0 191.5 -37.5t178.5 -111.5t124 -204t20 -296h-797q25 -113 109 -173t201 -60q94 0 151.5 19.5t124.5 62.5l146 -142q-154 -164 -430 -163q-221 0 -392.5 146t-171.5 404q0 133 51.5 243 t132.5 175.5t175 101t186 35.5zM602 860q-94 0 -174 -60.5t-106 -170.5h559q-16 111 -98.5 171t-180.5 60z" glyph-name="afii10071" horiz-adv-x="1181" unicode="ё"/><glyph d="M856 1516l-235 -326h-199l119 326h315zM940 1065v-229h-567v-836h-264v1065h831z" glyph-name="afii10100" horiz-adv-x="1021" unicode="ѓ"/><glyph d="M866 328l205 -95q-152 -254 -459 -253q-94 0 -189 34.5t-178 100t-135.5 174t-52.5 242t52.5 243t135.5 175t178 101t189 35.5q309 0 455 -256l-201 -94q-102 117 -252 117q-98 0 -182 -62.5t-108 -173.5h286v-182h-284q29 -104 111.5 -162.5t176.5 -58.5q152 0 252 115z " glyph-name="afii10101" horiz-adv-x="1132" unicode="є"/><glyph d="M373 1448v-252h-264v252h264zM373 1065v-1065h-264v1065h264z" glyph-name="afii10103" horiz-adv-x="481" unicode="і"/><glyph d="M119 1436v-230h-244v230h244zM606 1436v-230h-246v230h246zM373 1065v-1065h-264v1065h264z" glyph-name="afii10104" horiz-adv-x="481" unicode="ї"/><glyph d="M760 1530h268v-344h-637v-1186h-268v1434h637v96z" glyph-name="afii10050" horiz-adv-x="1099" unicode="Ґ"/><glyph d="M678 1159h262v-323h-567v-836h-264v1065h569v94z" glyph-name="afii10098" horiz-adv-x="1021" unicode="ґ"/><glyph d="M743 1884h316l119 -325h-199zM2068 1434l-469 -1434h-190l-350 983l-348 -983h-191l-469 1434h283l295 -945l327 945h207l328 -945l295 945h282z" glyph-name="Wgrave" horiz-adv-x="2119" unicode="Ẁ"/><glyph d="M1085 1190h-198l-236 326h316zM1620 1065h264l-391 -1065h-250l-276 752l-277 -752h-248l-391 1065h262l256 -743l283 743h231l281 -743z" glyph-name="wgrave" horiz-adv-x="1935" unicode="ẁ"/><glyph d="M1391 1884l-236 -325h-199l119 325h316zM2068 1434l-469 -1434h-190l-350 983l-348 -983h-191l-469 1434h283l295 -945l327 945h207l328 -945l295 945h282z" glyph-name="Wacute" horiz-adv-x="2119" unicode="Ẃ"/><glyph d="M1298 1516l-235 -326h-199l119 326h315zM1620 1065h264l-391 -1065h-250l-276 752l-277 -752h-248l-391 1065h262l256 -743l283 743h231l281 -743z" glyph-name="wacute" horiz-adv-x="1935" unicode="ẃ"/><glyph d="M938 1804v-229h-244v229h244zM1425 1804v-229h-245v229h245zM2068 1434l-469 -1434h-190l-350 983l-348 -983h-191l-469 1434h283l295 -945l327 945h207l328 -945l295 945h282z" glyph-name="Wdieresis" horiz-adv-x="2119" unicode="Ẅ"/><glyph d="M846 1436v-230h-244v230h244zM1333 1436v-230h-246v230h246zM1620 1065h264l-391 -1065h-250l-276 752l-277 -752h-248l-391 1065h262l256 -743l283 743h231l281 -743z" glyph-name="wdieresis" horiz-adv-x="1935" unicode="ẅ"/><glyph d="M412 1884h315l119 -325h-199zM1405 1434l-543 -850v-584h-268v584l-543 850h303l373 -598l373 598h305z" glyph-name="Ygrave" horiz-adv-x="1456" unicode="Ỳ"/><glyph d="M760 1190h-199l-235 326h315zM948 1065h271l-465 -1065l-181 -389h-262l191 416l-451 1038h271l313 -748z" glyph-name="ygrave" horiz-adv-x="1269" unicode="ỳ"/><glyph d="M1137 674v-219h-1045v219h1045z" glyph-name="endash" horiz-adv-x="1228" unicode="–"/><glyph d="M1260 674v-219h-1168v219h1168z" glyph-name="emdash" horiz-adv-x="1351" unicode="—"/><glyph d="M465 1434l-184 -527h-230l187 527h227z" glyph-name="quoteleft" horiz-adv-x="516" unicode="‘"/><glyph d="M51 907l185 527h229l-186 -527h-228z" glyph-name="quoteright" horiz-adv-x="516" unicode="’"/><glyph d="M51 -233l185 526h229l-186 -526h-228z" glyph-name="quotesinglbase" horiz-adv-x="522" unicode="‚"/><glyph d="M465 1434l-184 -527h-230l187 527h227zM803 1434l-185 -527h-229l186 527h228z" glyph-name="quotedblleft" horiz-adv-x="854" unicode="“"/><glyph d="M51 907l185 527h229l-186 -527h-228zM389 907l184 527h230l-187 -527h-227z" glyph-name="quotedblright" horiz-adv-x="854" unicode="”"/><glyph d="M51 -233l185 526h229l-186 -526h-228zM389 -233l184 526h230l-187 -526h-227z" glyph-name="quotedblbase" horiz-adv-x="835" unicode="„"/><glyph d="M676 1163v-172h-205l-29 -352h-104l-29 352h-207v172h193l-23 271h236l-23 -271h191z" glyph-name="dagger" horiz-adv-x="778" unicode="†"/><glyph d="M481 1163h195v-172h-211l-23 -225h-104l-23 225h-213v172h197l-27 271h236zM442 668l23 -226h211v-172h-195l27 -270h-236l27 270h-197v172h213l23 226h104z" glyph-name="daggerdbl" horiz-adv-x="778" unicode="‡"/><glyph d="M253.5 457q-63.5 0 -107.5 43t-44 108.5t44 108.5t107.5 43t108 -43t44.5 -108.5t-44.5 -108.5t-108 -43z" glyph-name="bullet" horiz-adv-x="507" unicode="•"/><glyph d="M223.5 -20q-63.5 0 -107.5 43t-44 108.5t44 108.5t107.5 43t107.5 -43t44 -108.5t-44 -108.5t-107.5 -43zM729.5 -20q-63.5 0 -107.5 43t-44 108.5t44 108.5t107.5 43t107.5 -43t44 -108.5t-44 -108.5t-107.5 -43zM1234.5 -20q-63.5 0 -107.5 43t-44 108.5t44 108.5 t107.5 43t107.5 -43t44 -108.5t-44 -108.5t-107.5 -43z" glyph-name="ellipsis" horiz-adv-x="1458" unicode="…"/><glyph d="M325.5 1444q106.5 0 180.5 -73t74 -179.5t-74 -179t-180.5 -72.5t-180 72.5t-73.5 179t73.5 179.5t180 73zM1034 1438l197 -125l-860 -1313l-201 125zM325.5 1272q-32.5 0 -56 -23.5t-23.5 -56.5t23.5 -56.5t56 -23.5t56.5 23.5t24 56.5t-24 56.5t-56.5 23.5zM1103.5 494 q106.5 0 180.5 -73t74 -179.5t-74 -179t-180.5 -72.5t-180 72.5t-73.5 179t73.5 179.5t180 73zM1769.5 494q106.5 0 180 -73t73.5 -179.5t-73.5 -179t-180 -72.5t-180 72.5t-73.5 179t73.5 179.5t180 73zM1104 322q-33 0 -56.5 -24t-23.5 -56.5t23.5 -56t56.5 -23.5 t56.5 23.5t23.5 56t-23.5 56.5t-56.5 24zM1769.5 322q-32.5 0 -56 -24t-23.5 -56.5t23.5 -56t56 -23.5t56 23.5t23.5 56t-23.5 56.5t-56 24z" glyph-name="perthousand" horiz-adv-x="2095" unicode="‰"/><glyph d="M82 637l305 307l82 -88l-209 -270l209 -271l-82 -88l-305 305v105z" glyph-name="guilsinglleft" horiz-adv-x="520" unicode="‹"/><glyph d="M438 637v-105l-305 -305l-82 88l209 271l-209 270l82 88z" glyph-name="guilsinglright" horiz-adv-x="520" unicode="›"/><glyph d="M590 1434l-881 -1434h-98l893 1434h86z" glyph-name="fraction" horiz-adv-x="221" unicode="⁄"/><glyph d="M1270 342l162 -188q-199 -174 -488 -174q-244 0 -441.5 141t-269.5 373h-182v170h152q-2 18 -2 53v28h-150v168h174q66 242 267.5 391.5t451.5 149.5q283 0 479 -170l-161 -184q-137 102 -301 102q-150 0 -269 -77.5t-174 -211.5h400v-168h-439v-28q0 -37 2 -53h437v-170 h-388q59 -121 174 -192t257 -71q172 0 309 111z" glyph-name="Euro" horiz-adv-x="1501" unicode="€"/><glyph d="M483 1434v-88h-125v-281h-100v281h-125v88h350zM1036 1434v-369h-100v199l-100 -199h-78l-103 199v-199h-100v369h100l140 -260l141 260h100z" glyph-name="trademark" horiz-adv-x="1169" unicode="™"/><glyph d="M205 1436v-535h-76v453l-35 -23l-37 64l72 41h76zM1030 1434l-880 -1434h-99l893 1434h86zM899 539q74 0 118 -41t44 -97q0 -70 -62 -108q88 -43 88 -135q0 -70 -55 -116t-133 -46q-76 0 -131 46t-55 116q0 92 88 135q-61 39 -62 108q0 53 44 95.5t116 42.5zM899 475 q-41 0 -62.5 -21.5t-21.5 -52t25.5 -55t58.5 -24.5q35 0 59.5 23.5t24.5 55.5q0 74 -84 74zM899 258q-45 0 -78 -28.5t-33 -71.5q0 -41 33 -70t78 -29q49 0 80 27t31 72t-31 72.5t-80 27.5z" glyph-name="oneeighth" horiz-adv-x="1138" unicode="⅛"/><glyph d="M238 1440q66 0 114.5 -42t48.5 -98q0 -66 -61 -108q86 -37 86 -135q0 -70 -56.5 -117t-131.5 -47q-84 0 -139.5 56.5t-47.5 129.5h78q-12 -47 22.5 -84t86.5 -37q45 0 77.5 28t32.5 71q0 57 -41 79.5t-110 10.5v65q129 6 129 88q0 31 -26 53.5t-62 22.5q-45 0 -73 -32.5 t-22 -86.5h-77q-8 78 44 130.5t128 52.5zM1071 1434l-881 -1434h-98l893 1434h86zM936 539q74 0 118 -41t44 -97q0 -70 -62 -108q88 -43 88 -135q0 -70 -55 -116t-133 -46q-76 0 -131 46t-55 116q0 92 88 135q-61 39 -62 108q0 53 44 95.5t116 42.5zM936 475 q-41 0 -62.5 -21.5t-21.5 -52t25.5 -55t58.5 -24.5q35 0 59.5 23.5t24.5 55.5q0 74 -84 74zM936 258q-45 0 -78 -28.5t-33 -71.5q0 -41 33 -70t78 -29q49 0 80 27t31 72t-31 72.5t-80 27.5z" glyph-name="threeeighths" horiz-adv-x="1175" unicode="⅜"/><glyph d="M381 1436v-66h-213l-16 -119q45 20 92 21q72 0 129 -54.5t57 -134t-57.5 -135t-136.5 -55.5q-68 0 -120.5 38t-64.5 89l68 39q4 -41 35.5 -71t81.5 -30q47 0 81.5 36t34.5 89q0 51 -33.5 87t-74.5 36q-72 0 -117 -59l-66 16l37 273h283zM1071 1434l-881 -1434h-98 l893 1434h86zM940 539q74 0 118 -41t44 -97q0 -70 -62 -108q88 -43 88 -135q0 -70 -55 -116t-133 -46q-76 0 -131 46t-55 116q0 92 88 135q-61 39 -62 108q0 53 44 95.5t116 42.5zM940 475q-41 0 -62.5 -21.5t-21.5 -52t25.5 -55t58.5 -24.5q35 0 59.5 23.5t24.5 55.5 q0 74 -84 74zM940 258q-45 0 -78 -28.5t-33 -71.5q0 -41 33 -70t78 -29q49 0 80 27t31 72t-31 72.5t-80 27.5z" glyph-name="fiveeighths" horiz-adv-x="1179" unicode="⅝"/><glyph d="M410 1436l-209 -535h-80l182 469h-248v66h355zM1030 1434l-880 -1434h-99l893 1434h86zM899 539q74 0 118 -41t44 -97q0 -70 -62 -108q88 -43 88 -135q0 -70 -55 -116t-133 -46q-76 0 -131 46t-55 116q0 92 88 135q-61 39 -62 108q0 53 44 95.5t116 42.5zM899 475 q-41 0 -62.5 -21.5t-21.5 -52t25.5 -55t58.5 -24.5q35 0 59.5 23.5t24.5 55.5q0 74 -84 74zM899 258q-45 0 -78 -28.5t-33 -71.5q0 -41 33 -70t78 -29q49 0 80 27t31 72t-31 72.5t-80 27.5z" glyph-name="seveneighths" horiz-adv-x="1138" unicode="⅞"/><glyph d="M201 1434h274l346 -463l31 -39q29 -39 33 -45t29.5 -43t31.5 -50.5t26.5 -49t28 -55t20.5 -54.5t18 -61.5t9.5 -61.5t4.5 -70q0 -199 -146.5 -330.5t-339.5 -131.5q-195 0 -340 130t-145 326q0 182 139 320.5t320 138.5q61 0 82 -18zM567 666q-100 0 -167.5 -67 t-67.5 -161q0 -102 67.5 -165.5t168 -63.5t168 63.5t67.5 165.5q0 92 -65 160t-171 68z" glyph-name="partialdiff" horiz-adv-x="1134" unicode="∂"/><glyph d="M92 1638h1309v-2027h-258v1788h-793v-1788h-258v2027z" glyph-name="product" horiz-adv-x="1492" unicode="∏"/><glyph d="M1319 1638v-239h-801l426 -774l-426 -775h801v-239h-1227l563 1014l-563 1013h1227z" glyph-name="summation" horiz-adv-x="1411" unicode="∑"/><glyph d="M778 674v-219h-686v219h686z" glyph-name="minus" horiz-adv-x="870" unicode="−"/><glyph d="M1583 1638l-557 -2027h-309l-377 885h-248v295h426l336 -832l465 1679h264z" glyph-name="radical" horiz-adv-x="1675" unicode="√"/><glyph d="M1235 887q160 0 262 -101.5t102 -248.5q0 -152 -101 -254.5t-263 -102.5q-190 0 -391 205q-197 -205 -385 -205q-162 0 -264.5 101.5t-102.5 255.5q0 150 102.5 250t264.5 100q186 0 385 -203q203 203 391 203zM463 387q145 0 250 150q-106 150 -250 149q-70 0 -115 -44 t-45 -105q0 -63 45 -106.5t115 -43.5zM1229 387q68 0 114 44t46 105.5t-46.5 105.5t-113.5 44q-143 0 -254 -149q109 -150 254 -150z" glyph-name="infinity" horiz-adv-x="1691" unicode="∞"/><glyph d="M588 1638v-229q-92 0 -115.5 -44t-23.5 -155v-1253q0 -195 -91.5 -270.5t-316.5 -75.5v231q94 0 116.5 33t22.5 137v1254q0 199 93.5 285.5t314.5 86.5z" glyph-name="integral" horiz-adv-x="638" unicode="∫"/><glyph d="M352 905q88 0 224.5 -71.5t205.5 -71.5q33 0 61.5 16.5t28.5 36.5h103q0 -111 -66.5 -184.5t-189.5 -73.5q-86 0 -224.5 82t-215.5 82q-31 0 -60 -22.5t-26 -49.5h-101q0 111 66.5 183.5t193.5 72.5zM352 565q88 0 224.5 -71.5t205.5 -71.5q33 0 61.5 16.5t28.5 36.5h103 q0 -111 -66.5 -184.5t-189.5 -73.5q-86 0 -224.5 82t-215.5 82q-31 0 -60 -22.5t-26 -49.5h-101q0 111 66.5 183.5t193.5 72.5z" glyph-name="approxequal" horiz-adv-x="1067" unicode="≈"/><glyph d="M778 618h-213l-41 -108h254v-219h-340l-112 -291h-228l113 291h-119v219h205l41 108h-246v220h332l121 311h227l-121 -311h127v-220z" glyph-name="notequal" horiz-adv-x="870" unicode="≠"/><glyph d="M795 1214v-225l-394 -221l394 -217v-229l-703 409v76zM795 223v-219h-686v219h686z" glyph-name="lessequal" horiz-adv-x="858" unicode="≤"/><glyph d="M94 1214l703 -407v-76l-703 -409v229l393 217l-393 221v225zM94 223h686v-219h-686v219z" glyph-name="greaterequal" horiz-adv-x="888" unicode="≥"/><glyph d="M786 1434l318 -717l-318 -717h-376l-318 717l318 717h376zM598 190l233 527l-233 526l-233 -526z" glyph-name="lozenge" horiz-adv-x="1196" unicode="◊"/><glyph d="M1638 1434l123 -1434h-276l-76 940l-358 -940h-228l-358 940l-76 -940h-276l123 1434h264l438 -1074l436 1074h264z" glyph-name="M.aalt" horiz-adv-x="1873"/><glyph d="M352 1436v-230h-243v230h243zM385 1065v-1065h-264v1065h264z" glyph-name="i.aalt" horiz-adv-x="493"/><glyph d="M1397 848h-228v-526q0 -100 103 -101q53 0 125 23v-215q-82 -41 -199 -41q-139 0 -215 60.5t-76 215.5v584h-467v-848h-264v848h-135v217h135v49q0 111 35 187.5t94.5 111.5t112.5 47.5t114 12.5q164 0 265 -68l-84 -182q-51 25 -121 24q-152 0 -152 -147v-35h467v272 h262v-272h228v-217z" glyph-name="f_t.dlig" horiz-adv-x="1464"/><glyph d="M1436 848h-228v-526q0 -100 103 -101q53 0 125 23v-215q-82 -41 -199 -41q-139 0 -215 60.5t-76 215.5v584h-487v-526q0 -100 102 -101q53 0 125 23v-215q-82 -41 -199 -41q-139 0 -214.5 60.5t-75.5 215.5v584h-150v217h150v272h262v-272h487v272h262v-272h228v-217z " glyph-name="t_t.dlig" horiz-adv-x="1501"/><glyph d="M676 1454q254 0 419 -192.5t165 -544.5t-165 -544.5t-419 -192.5q-252 0 -418 192.5t-166 544.5q0 350 167 543.5t417 193.5zM676 1223q-88 0 -152.5 -44t-100.5 -119t-52.5 -161t-16.5 -182q0 -211 77 -357.5t245 -146.5q117 0 191.5 78t102 184.5t27.5 241.5 q0 133 -27.5 240.5t-102 186.5t-191.5 79z" glyph-name="zero.salt" horiz-adv-x="1351"/><glyph d="M717 1454q254 0 418.5 -192.5t164.5 -544.5t-164.5 -544.5t-418.5 -192.5q-252 0 -418 192.5t-166 544.5q0 350 167 543.5t417 193.5zM717 1223q-117 0 -191.5 -79t-102.5 -186.5t-28 -240.5q0 -135 28 -241.5t102.5 -184.5t191.5 -78t191.5 78t102 184.5t27.5 241.5 q0 133 -27.5 240.5t-102 186.5t-191.5 79z" glyph-name="zero.tnum" horiz-adv-x="1433"/><glyph d="M842 1434v-1434h-264v1192h-234v242h498z" glyph-name="one.tnum" horiz-adv-x="1433"/><glyph d="M711 1454q217 0 350 -129t133 -309q0 -43 -5 -79t-23.5 -78t-32 -68.5t-54.5 -80t-63.5 -82t-86 -104t-98.5 -118.5l-139 -173h502v-233h-971v39l367 444q240 293 280 361q49 80 50 160q0 113 -64.5 163t-144.5 50q-84 0 -146.5 -55.5t-62.5 -176.5v-37h-275v37 q0 199 129.5 334t354.5 135z" glyph-name="two.tnum" horiz-adv-x="1433"/><glyph d="M387 412q98 -201 295 -201q59 0 115.5 19.5t104.5 81t48 159.5q0 147 -125 220t-325 22l295 491h-547v230h930l-332 -537q156 -16 264.5 -136t108.5 -290q0 -225 -155 -358t-384 -133q-176 0 -306 85t-192 224z" glyph-name="three.tnum" horiz-adv-x="1433"/><glyph d="M1231 561v-229h-154v-332h-268v332h-619v229l619 873h268v-873h154zM465 561h344v510z" glyph-name="four.tnum" horiz-adv-x="1433"/><glyph d="M1075 1434v-230h-528l-39 -293q78 68 229 68q197 0 345.5 -140.5t148.5 -357.5q0 -225 -152.5 -363t-380.5 -138q-174 0 -308 82.5t-191 216.5l207 110q33 -68 104.5 -121t187.5 -53q106 0 187.5 66.5t81.5 199.5q0 137 -84 206t-191 69q-123 0 -231 -105l-221 70l96 713 h739z" glyph-name="five.tnum" horiz-adv-x="1433"/><glyph d="M1083 1434l-421 -557q20 18 81 18q180 0 319.5 -138.5t139.5 -320.5q0 -197 -145.5 -326.5t-339.5 -129.5q-193 0 -339.5 132t-146.5 330q0 35 4.5 70t9.5 61.5t18 61.5t20.5 54.5t28 55t26.5 49t31.5 50.5t29.5 43t35 45l29 39l346 463h274zM717 666q-106 0 -171 -68 t-65 -160q0 -102 67.5 -165.5t168 -63.5t168 63.5t67.5 165.5q0 94 -67.5 161t-167.5 67z" glyph-name="six.tnum" horiz-adv-x="1433"/><glyph d="M1219 1434l-590 -1434h-260l501 1204h-581v230h930z" glyph-name="seven.tnum" horiz-adv-x="1433"/><glyph d="M973 815q106 -47 172.5 -146.5t66.5 -224.5q0 -209 -154.5 -336.5t-355 -127.5t-354 128t-153.5 336q0 125 66.5 224.5t170.5 146.5q-141 100 -141 275q0 152 113.5 258t297.5 106q186 0 300 -106.5t114 -257.5q0 -177 -143 -275zM539 1067q0 -63 45 -109.5t118.5 -46.5 t119.5 46.5t46 109.5q0 66 -47 110t-119 44q-70 0 -116.5 -44t-46.5 -110zM702.5 217q102.5 0 171 63.5t68.5 163.5q0 106 -70.5 170t-169.5 64q-96 0 -166.5 -63.5t-70.5 -170.5q0 -102 67.5 -164.5t170 -62.5z" glyph-name="eight.tnum" horiz-adv-x="1433"/><glyph d="M336 0l422 557q-20 -18 -82 -18q-180 0 -319.5 138t-139.5 320q0 197 145.5 327t339.5 130q193 0 339.5 -132t146.5 -331q0 -35 -4 -69.5t-9.5 -61t-18.5 -61.5t-20.5 -54.5t-28 -55.5t-26.5 -49t-31.5 -50t-29.5 -43t-33 -45l-31 -39l-346 -463h-274zM702 768 q106 0 171 67.5t65 159.5q0 102 -67.5 166t-168 64t-168 -63.5t-67.5 -166.5q0 -94 67.5 -160.5t167.5 -66.5z" glyph-name="nine.tnum" horiz-adv-x="1433"/><glyph d="M266 539q96 0 155.5 -72t59.5 -186v-27q0 -115 -59.5 -186.5t-155.5 -71.5q-92 0 -153.5 71.5t-61.5 186.5v27q0 115 61.5 186.5t153.5 71.5zM266 475q-59 0 -99 -52t-40 -142v-27q0 -90 40 -142.5t99 -52.5q63 0 101.5 51.5t38.5 143.5v27q0 92 -38.5 143t-101.5 51z " glyph-name="zero.dnom" horiz-adv-x="532"/><glyph d="M199 535v-535h-76v453l-35 -23l-37 64l72 41h76z" glyph-name="one.dnom" horiz-adv-x="249"/><glyph d="M223 541q70 0 121 -46t51 -108q0 -53 -29.5 -96t-109.5 -125l-96 -100h241v-66h-344v66l140 141q57 59 74.5 78.5t31.5 46t14 55.5q0 37 -28.5 63.5t-65.5 26.5q-39 0 -67.5 -26.5t-28.5 -75.5v-29h-76v29q0 72 50 119t122 47z" glyph-name="two.dnom" horiz-adv-x="452"/><glyph d="M238 539q66 0 114.5 -42t48.5 -98q0 -66 -61 -108q86 -37 86 -135q0 -70 -56.5 -117t-131.5 -47q-84 0 -139.5 56t-47.5 130h78q-12 -47 22.5 -84t86.5 -37q45 0 77.5 28t32.5 71q0 57 -41 79.5t-110 10.5v65q129 6 129 88q0 31 -26 53.5t-62 22.5q-45 0 -73 -32.5 t-22 -86.5h-77q-8 78 44 130.5t128 52.5z" glyph-name="three.dnom" horiz-adv-x="477"/><glyph d="M397 535v-316h56v-63h-56v-156h-75v156h-271l271 379h75zM322 414l-134 -195h134v195z" glyph-name="four.dnom" horiz-adv-x="503"/><glyph d="M381 535v-66h-213l-16 -119q45 20 92 21q72 0 129 -54.5t57 -134.5t-57.5 -135t-136.5 -55q-68 0 -120.5 38t-64.5 89l68 39q4 -41 35.5 -71t81.5 -30q47 0 81.5 36t34.5 89q0 51 -33.5 87t-74.5 36q-72 0 -117 -59l-66 16l37 273h283z" glyph-name="five.dnom" horiz-adv-x="481"/><glyph d="M356 535l-139 -197h12q70 0 123.5 -51t53.5 -121q0 -72 -53.5 -123t-123 -51t-124 51t-54.5 123q0 33 11.5 64.5t20.5 47t36.5 51.5t34.5 44l116 162h86zM229 272q-45 0 -73.5 -28.5t-28.5 -77.5q0 -47 31.5 -78t70.5 -31q37 0 69 31t32 78t-31 76.5t-70 29.5z" glyph-name="six.dnom" horiz-adv-x="456"/><glyph d="M406 535l-209 -535h-80l182 469h-248v66h355z" glyph-name="seven.dnom" horiz-adv-x="456"/><glyph d="M238 539q74 0 117.5 -41t43.5 -97q0 -70 -61 -108q88 -43 88 -135q0 -70 -55.5 -116t-132.5 -46q-76 0 -131.5 46t-55.5 116q0 92 88 135q-61 39 -61 108q0 53 44 95.5t116 42.5zM238 475q-41 0 -62.5 -21.5t-21.5 -52t25.5 -55t58.5 -24.5q37 0 60.5 23.5t23.5 55.5 q0 74 -84 74zM238 258q-45 0 -78 -28.5t-33 -71.5q0 -41 33 -70t78 -29q49 0 79.5 27t30.5 72t-30.5 72.5t-79.5 27.5z" glyph-name="eight.dnom" horiz-adv-x="477"/><glyph d="M229.5 541q69.5 0 124 -50.5t54.5 -121.5q0 -27 -5.5 -49.5t-18.5 -46t-21.5 -37t-30 -40t-29.5 -36.5l-115 -160h-88l140 195h-11q-72 0 -125 52t-53 122q0 72 54.5 122t124 50zM229 475q-39 0 -70.5 -30.5t-31.5 -75.5q0 -47 31.5 -78t70.5 -31q45 0 73 29.5t28 79.5 q0 45 -32 75.5t-69 30.5z" glyph-name="nine.dnom" horiz-adv-x="458"/><glyph d="M266 1440q96 0 155.5 -72t59.5 -186v-27q0 -115 -59.5 -186.5t-155.5 -71.5q-92 0 -153.5 71.5t-61.5 186.5v27q0 115 61.5 186.5t153.5 71.5zM266 1376q-59 0 -99 -52t-40 -142v-27q0 -90 40 -142t99 -52q63 0 101.5 51t38.5 143v27q0 92 -38.5 143t-101.5 51z" glyph-name="zero.numr" horiz-adv-x="532"/><glyph d="M199 1436v-535h-76v453l-35 -23l-37 64l72 41h76z" glyph-name="one.numr" horiz-adv-x="249"/><glyph d="M223 1442q70 0 121 -46t51 -108q0 -53 -29.5 -96t-109.5 -125l-96 -100h241v-66h-344v66l140 141q57 59 74.5 78.5t31.5 46.5t14 55q0 37 -28.5 63.5t-65.5 26.5q-39 0 -67.5 -26.5t-28.5 -75.5v-29h-76v29q0 72 50 119t122 47z" glyph-name="two.numr" horiz-adv-x="452"/><glyph d="M238 1440q66 0 114.5 -42t48.5 -98q0 -66 -61 -108q86 -37 86 -135q0 -70 -56.5 -117t-131.5 -47q-84 0 -139.5 56.5t-47.5 129.5h78q-12 -47 22.5 -84t86.5 -37q45 0 77.5 28t32.5 71q0 57 -41 79.5t-110 10.5v65q129 6 129 88q0 31 -26 53.5t-62 22.5q-45 0 -73 -32.5 t-22 -86.5h-77q-8 78 44 130.5t128 52.5z" glyph-name="three.numr" horiz-adv-x="477"/><glyph d="M397 1436v-316h56v-63h-56v-156h-75v156h-271l271 379h75zM322 1315l-134 -195h134v195z" glyph-name="four.numr" horiz-adv-x="503"/><glyph d="M381 1436v-66h-213l-16 -119q45 20 92 21q72 0 129 -54.5t57 -134t-57.5 -135t-136.5 -55.5q-68 0 -120.5 38t-64.5 89l68 39q4 -41 35.5 -71t81.5 -30q47 0 81.5 36t34.5 89q0 51 -33.5 87t-74.5 36q-72 0 -117 -59l-66 16l37 273h283z" glyph-name="five.numr" horiz-adv-x="481"/><glyph d="M356 1436l-139 -197h12q70 0 123.5 -51t53.5 -121q0 -72 -53.5 -123t-123 -51t-124 51t-54.5 123q0 33 11.5 64.5t20.5 47t36.5 51.5t34.5 44l116 162h86zM229 1174q-45 0 -73.5 -29t-28.5 -78q0 -47 31.5 -78t70.5 -31q37 0 69 31t32 78t-31 77t-70 30z" glyph-name="six.numr" horiz-adv-x="456"/><glyph d="M406 1436l-209 -535h-80l182 469h-248v66h355z" glyph-name="seven.numr" horiz-adv-x="456"/><glyph d="M238 1440q74 0 117.5 -41t43.5 -96q0 -70 -61 -109q88 -43 88 -135q0 -70 -55.5 -116t-132.5 -46q-76 0 -131.5 46t-55.5 116q0 92 88 135q-61 39 -61 109q0 53 44 95t116 42zM238 1376q-41 0 -62.5 -21.5t-21.5 -52t25.5 -55t58.5 -24.5q37 0 60.5 23.5t23.5 56.5 q0 73 -84 73zM238 1159q-45 0 -78 -28.5t-33 -71.5q0 -41 33 -69.5t78 -28.5q49 0 79.5 26.5t30.5 71.5t-30.5 72.5t-79.5 27.5z" glyph-name="eight.numr" horiz-adv-x="477"/><glyph d="M229.5 1442q69.5 0 124 -50.5t54.5 -121.5q0 -27 -5.5 -49.5t-18.5 -46t-21.5 -37t-30 -40t-29.5 -36.5l-115 -160h-88l140 195h-11q-72 0 -125 52t-53 122q0 72 54.5 122t124 50zM229 1376q-39 0 -70.5 -30.5t-31.5 -75.5q0 -47 31.5 -78t70.5 -31q45 0 73 30t28 79 q0 45 -32 75.5t-69 30.5z" glyph-name="nine.numr" horiz-adv-x="458"/></font>
</defs>
</svg>
