<?xml version="1.0" standalone="no"?>
<!DOCTYPE svg PUBLIC "-//W3C//DTD SVG 1.1//EN" "http://www.w3.org/Graphics/SVG/1.1/DTD/svg11.dtd">
<svg xmlns="http://www.w3.org/2000/svg"><metadata>This SVG WebFont was generated by YouWorkForThem.
© 2016 Connary Fagen</metadata><defs><font horiz-adv-x="1282" id="ywftsvg"><font-face ascent="1638" bbox="-406 -475 2265 1958" cap-height="1434" descent="-410" font-family="" font-stretch="normal" font-weight="500" panose-1="0 0 6 0 0 0 0 0 0 0" underline-position="0" underline-thickness="0" unicode-range="U+0020-FB01" units-per-em="2048" x-height="1065"/><missing-glyph d="M831 1638v-2027h-643v2027h643zM676 1503h-336v-67h133v-76h-135v-66h338v66h-135v76h135v67zM541 1241h-203v-211h338v70h-135v141zM473 1171v-71h-67v71h67zM676 975h-338v-66h135v-75h-135v-68h203v143h135v66zM676 854h-68v-133h-270v-70h338v203zM676 606h-203v-112 h68v45h67v-95h-202v162h-68v-229h338v229zM676 256h-338v-229h338v229zM608 188v-94h-202v94h202zM676 -20h-338v-66h143l-143 -96v-68h338v68h-207l141 96h66v66z" horiz-adv-x="1013"/><glyph d="M958 1065v-1065h-167v924h-465v-924h-168v924h-117v141h117v80q0 100 29.5 168.5t79.5 101.5t99.5 45.5t104.5 12.5q90 0 158 -25v-141q-68 25 -131 24q-172 0 -172 -186v-80h632zM791 1448h167v-164h-167v164z" glyph-name="uniFB01" horiz-adv-x="1075" unicode="fi"/><glyph d="M1169 1327q-176 0 -176 -190v-72h297v-141h-297v-924h-168v924h-499v-924h-168v924h-117v141h117v78q0 100 29.5 169.5t79.5 102.5t99.5 45.5t104.5 12.5q135 0 231 -64l-55 -117q-66 35 -145 35q-176 0 -176 -190v-72h499v78q0 100 30 169.5t80 102.5t99 45.5t105 12.5 q135 0 231 -64l-55 -117q-66 35 -146 35z" glyph-name="f_f.liga" horiz-adv-x="1423" unicode="ff"/><glyph d="M831 1638v-2027h-643v2027h643zM676 1503h-336v-67h133v-76h-135v-66h338v66h-135v76h135v67zM541 1241h-203v-211h338v70h-135v141zM473 1171v-71h-67v71h67zM676 975h-338v-66h135v-75h-135v-68h203v143h135v66zM676 854h-68v-133h-270v-70h338v203zM676 606h-203v-112 h68v45h67v-95h-202v162h-68v-229h338v229zM676 256h-338v-229h338v229zM608 188v-94h-202v94h202zM676 -20h-338v-66h143l-143 -96v-68h338v68h-207l141 96h66v66z" glyph-name=".notdef" horiz-adv-x="1013"/><glyph glyph-name="glyph1" horiz-adv-x="0"/><glyph glyph-name="glyph2" horiz-adv-x="681"/><glyph glyph-name="space" horiz-adv-x="505" unicode=" "/><glyph d="M317 1434v-1031h-188v1031h188zM223 -20q-43 0 -71.5 28.5t-28.5 71.5t28.5 71.5t71.5 28.5t72 -28.5t29 -71.5t-29 -71.5t-72 -28.5z" glyph-name="exclam" horiz-adv-x="446" unicode="!"/><glyph d="M236 1434l-21 -435h-121l-22 435h164zM539 1434l-21 -435h-121l-22 435h164z" glyph-name="quotedbl" horiz-adv-x="610" unicode="&quot;"/><glyph d="M1034 918h-160l-28 -400h188v-149h-198l-27 -369h-170l27 369h-265l-26 -369h-170l26 369h-139v149h150l28 400h-178v147h189l26 369h170l-26 -369h264l26 369h170l-26 -369h149v-147zM676 518l29 400h-265l-28 -400h264z" glyph-name="numbersign" horiz-adv-x="1126" unicode="#"/><glyph d="M1051 389q0 -168 -120 -276.5t-294 -128.5v-168h-150v170q-154 20 -266 114.5t-149 231.5l137 65q39 -119 133 -190.5t227 -71.5q129 0 217 69.5t88 186.5q0 100 -66.5 152.5t-217.5 109.5l-109 41q-174 68 -264 160t-90 231q0 147 100.5 246t259.5 119v168h150v-170 q137 -18 233.5 -100t141.5 -195l-129 -70q-109 217 -322 217q-117 0 -190.5 -59t-73.5 -160q0 -156 229 -243l105 -39q215 -80 317.5 -169t102.5 -241z" glyph-name="dollar" horiz-adv-x="1122" unicode="$"/><glyph d="M325.5 1444q106.5 0 180.5 -73t74 -179.5t-74 -179t-180.5 -72.5t-180 72.5t-73.5 179t73.5 179.5t180 73zM1096 1438l125 -84l-899 -1354l-129 82zM325.5 1327q-57.5 0 -96.5 -39t-39 -96t39 -96t96.5 -39t96.5 39t39 96t-39 96t-96.5 39zM1103.5 494q106.5 0 180.5 -73 t74 -179.5t-74 -179t-180.5 -72.5t-180 72.5t-73.5 179t73.5 179.5t180 73zM1104 377q-57 0 -96 -39t-39 -96.5t39 -96.5t96 -39t96 39t39 96.5t-39 96.5t-96 39z" glyph-name="percent" horiz-adv-x="1429" unicode="%"/><glyph d="M1298 143q61 0 127 37v-139q-61 -47 -143 -47q-193 0 -192 207v63q-53 -129 -169 -206.5t-280 -77.5q-215 0 -366.5 124.5t-151.5 339.5q0 190 121 310t295 139l-301 541h841v-148h-602l285 -512h-88q-166 0 -273.5 -90t-107.5 -237.5t104.5 -232.5t253.5 -85 q166 0 277.5 103.5t111.5 252.5v353h320v-142h-160v-444q0 -59 23.5 -84t74.5 -25z" glyph-name="ampersand" horiz-adv-x="1497" unicode="&amp;"/><glyph d="M236 1434l-21 -435h-121l-22 435h164z" glyph-name="quotesingle" horiz-adv-x="307" unicode="'"/><glyph d="M469 1526q-207 -375 -207 -871q0 -524 207 -921h-160q-217 387 -217 921q0 508 217 871h160z" glyph-name="parenleft" horiz-adv-x="552" unicode="("/><glyph d="M92 1526h160q217 -362 217 -871q0 -535 -217 -921h-160q207 397 207 921q0 496 -207 871z" glyph-name="parenright" horiz-adv-x="552" unicode=")"/><glyph d="M815 1155l-221 -61l145 -193l-123 -78l-131 189l-133 -189l-123 78l146 193l-221 61l34 141l230 -69l-6 237h143l-4 -237l229 69zM518 1126l-8 33h-51l-8 -33l34 -28z" glyph-name="asterisk" horiz-adv-x="968" unicode="*"/><glyph d="M782 647v-139h-293v-291h-137v291h-291v139h291v289h137v-289h293z" glyph-name="plus" horiz-adv-x="843" unicode="+"/><glyph d="M51 -266l160 456h151l-163 -456h-148z" glyph-name="comma" horiz-adv-x="428" unicode=","/><glyph d="M727 641v-137h-635v137h635z" glyph-name="hyphen" horiz-adv-x="819" unicode="-"/><glyph d="M172 -20q-43 0 -71.5 28.5t-28.5 71.5t28.5 71.5t71.5 28.5t71.5 -28.5t28.5 -71.5t-28.5 -71.5t-71.5 -28.5z" glyph-name="period" horiz-adv-x="344" unicode="."/><glyph d="M950 1526l-696 -1792h-172l696 1792h172z" glyph-name="slash" horiz-adv-x="1032" unicode="/"/><glyph d="M819 1454q291 0 509 -210t218 -527.5t-218 -527t-509 -209.5q-188 0 -354 92t-269.5 263t-103.5 382t103.5 382t269.5 263t354 92zM819 137q219 0 389 166t170 414t-170 413.5t-389 165.5t-388 -165.5t-169 -413.5t169 -414t388 -166z" glyph-name="zero" horiz-adv-x="1638" unicode="0"/><glyph d="M489 1434v-1434h-165v1276h-207v158h372z" glyph-name="one" horiz-adv-x="647" unicode="1"/><glyph d="M545 1454q197 0 323.5 -121t126.5 -299q0 -49 -14 -97t-28.5 -83t-59.5 -96.5t-70.5 -92t-98.5 -116.5t-108 -129l-227 -270h606v-150h-899v35l375 444q233 274 274 336q78 115 78 215q0 129 -82 199.5t-196.5 70.5t-196.5 -75.5t-82 -216.5v-35h-172v35q0 195 126 320.5 t325 125.5z" glyph-name="two" horiz-adv-x="1087" unicode="2"/><glyph d="M215 360q47 -109 137 -170t211 -61q133 0 234.5 81t101.5 236q0 176 -135 259t-336 45l338 536h-619v148h869l-361 -562q170 -4 292 -120.5t122 -305.5q0 -213 -146.5 -339.5t-359.5 -126.5q-174 0 -301 85t-180 224z" glyph-name="three" horiz-adv-x="1150" unicode="3"/><glyph d="M1038 522v-147h-153v-375h-170v375h-633v147l633 912h170v-912h153zM258 522h457v674z" glyph-name="four" horiz-adv-x="1110" unicode="4"/><glyph d="M936 1434v-148h-571l-62 -426q106 111 299 111t339 -139.5t146 -354.5q0 -219 -147 -358t-365 -139q-174 0 -301 82.5t-182 211.5l135 72q37 -88 126 -151.5t220 -63.5q143 0 245 93t102 253q0 158 -102.5 253t-242.5 95q-172 0 -296 -141l-146 41l96 709h707z" glyph-name="five" horiz-adv-x="1169" unicode="5"/><glyph d="M831 1434l-440 -600q72 51 174 51q182 0 320.5 -132t138.5 -321q0 -195 -138 -323.5t-333 -128.5q-193 0 -332 130t-139 328q0 43 7 87t15.5 78t29 78t30.5 65.5t39.5 66.5t37 56.5t41 57.5t35.5 48l334 459h180zM553 735q-139 0 -225 -83t-86 -218t91 -220t220 -85 q127 0 219 85t92 220q0 133 -93 217t-218 84z" glyph-name="six" horiz-adv-x="1105" unicode="6"/><glyph d="M930 1434l-570 -1434h-167l516 1286h-648v148h869z" glyph-name="seven" horiz-adv-x="991" unicode="7"/><glyph d="M774 805q115 -51 185.5 -151.5t70.5 -231.5q0 -197 -142.5 -319.5t-337 -122.5t-336.5 122.5t-142 319.5q0 131 70.5 231.5t185.5 151.5q-168 104 -168 295q0 147 107.5 250.5t283.5 103.5t283.5 -103.5t107.5 -250.5q0 -191 -168 -295zM317 1090q0 -94 67 -160t167 -66 t166.5 65.5t66.5 160.5q0 88 -64.5 151.5t-169 63.5t-169 -63.5t-64.5 -151.5zM551 133q129 0 218 80t89 209q0 131 -89 213t-218 82t-218 -82t-89 -213q0 -129 89 -209t218 -80z" glyph-name="eight" horiz-adv-x="1101" unicode="8"/><glyph d="M274 0l441 600q-72 -51 -174 -51q-182 0 -320.5 132t-138.5 320q0 195 138 324t333 129q193 0 332 -130t139 -329q0 -43 -7 -87t-15.5 -77.5t-29 -77.5t-30.5 -65.5t-40 -67t-37 -56.5t-40.5 -57t-36.5 -48l-333 -459h-181zM553 698q139 0 225 83t86 218.5t-91 220.5 t-220 85q-127 0 -219 -85t-92 -221q0 -133 93 -217t218 -84z" glyph-name="nine" horiz-adv-x="1105" unicode="9"/><glyph d="M203 842q-43 0 -72 28.5t-29 71.5t29 71.5t72 28.5t71.5 -28.5t28.5 -71.5t-28.5 -71.5t-71.5 -28.5zM203 -20q-43 0 -72 28.5t-29 71.5t29 71.5t72 28.5t71.5 -28.5t28.5 -71.5t-28.5 -71.5t-71.5 -28.5z" glyph-name="colon" horiz-adv-x="405" unicode=":"/><glyph d="M281 842q-43 0 -72 28.5t-29 71.5t29 71.5t72 28.5t71.5 -28.5t28.5 -71.5t-28.5 -71.5t-71.5 -28.5zM51 -266l160 456h151l-163 -456h-148z" glyph-name="semicolon" horiz-adv-x="452" unicode=";"/><glyph d="M946 985v-162l-620 -331l620 -328v-164l-854 461v63z" glyph-name="less" horiz-adv-x="1017" unicode="&lt;"/><glyph d="M780 805v-137h-686v137h686zM780 477v-137h-686v137h686z" glyph-name="equal" horiz-adv-x="872" unicode="="/><glyph d="M72 985l854 -461v-63l-854 -461v164l620 328l-620 331v162z" glyph-name="greater" horiz-adv-x="1017" unicode=">"/><glyph d="M530 1454q197 0 321 -110.5t124 -290.5q0 -80 -27.5 -143.5t-68.5 -103.5t-89.5 -80t-89.5 -74t-68.5 -85t-27.5 -112v-56h-170v50q0 80 27.5 143t68.5 100t89.5 77t89.5 72.5t68.5 86t27.5 119.5q0 113 -71.5 185.5t-201.5 72.5q-133 0 -206.5 -81t-73.5 -225h-170 q0 215 120.5 335t327.5 120zM518 -20q-43 0 -71.5 28.5t-28.5 71.5t28.5 71.5t71.5 28.5t71.5 -28.5t28.5 -71.5t-28.5 -71.5t-71.5 -28.5z" glyph-name="question" horiz-adv-x="1056" unicode="?"/><glyph d="M1042 1073h101v-426q0 -197 112 -196q131 0 131 260q0 274 -165.5 439t-397.5 165q-233 0 -407 -170t-174 -432q0 -254 178 -424t397 -170q123 0 200 27.5t150 82.5l131 -55q-168 -195 -475 -194q-180 0 -347 92t-275.5 263t-108.5 378q0 211 108.5 384t274.5 265t348 92 q186 0 347 -88t263.5 -261t102.5 -394q0 -188 -78 -286.5t-203 -98.5q-92 0 -145 49t-57 133q-29 -86 -98.5 -135t-161.5 -49q-137 0 -244 100t-107 289q0 178 107.5 278.5t243.5 100.5q78 0 149.5 -39t79.5 -97zM795 457q86 0 147.5 70.5t61.5 187.5q0 111 -61.5 177 t-147.5 66q-88 0 -151.5 -64.5t-63.5 -178.5q0 -123 62.5 -190.5t152.5 -67.5z" glyph-name="at" horiz-adv-x="1628" unicode="@"/><glyph d="M1247 0l-143 338h-739l-144 -338h-180l616 1434h156l617 -1434h-183zM426 481h618l-309 731z" glyph-name="A" horiz-adv-x="1470" unicode="A"/><glyph d="M795 786q145 -33 230 -136t85 -255q0 -184 -129 -289.5t-387 -105.5h-471v1434h475q205 0 311.5 -99.5t106.5 -247.5q0 -106 -57.5 -185t-163.5 -116zM586 1282h-293v-446h289q127 0 196.5 63.5t69.5 167.5q0 102 -66.5 158.5t-195.5 56.5zM588 152q352 0 352 268 q0 131 -88 205.5t-260 74.5h-299v-548h295z" glyph-name="B" horiz-adv-x="1181" unicode="B"/><glyph d="M1307 154q-203 -174 -482 -174q-291 0 -512 210.5t-221 526t221.5 526.5t511.5 211q272 0 475 -170l-104 -119q-160 127 -358 127q-227 0 -398.5 -164.5t-171.5 -410.5t171 -411t399 -165q203 0 362 131z" glyph-name="C" horiz-adv-x="1378" unicode="C"/><glyph d="M549 1434q311 0 518 -208t207 -509t-207 -509t-518 -208h-426v1434h426zM547 162q250 0 401.5 158.5t151.5 396t-151.5 396.5t-401.5 159h-254v-1110h254z" glyph-name="D" horiz-adv-x="1355" unicode="D"/><glyph d="M293 160h682v-160h-852v1434h833v-160h-663v-475h516v-156h-516v-483z" glyph-name="E" horiz-adv-x="1067" unicode="E"/><glyph d="M965 1280h-672v-485h555v-146h-555v-649h-170v1434h842v-154z" glyph-name="F" horiz-adv-x="1036" unicode="F"/><glyph d="M1481 727q25 -336 -169 -541.5t-487 -205.5q-295 0 -514 209.5t-219 527.5q0 315 221.5 526t511.5 211q270 0 473 -170l-104 -119q-160 127 -358 127q-227 0 -397.5 -164.5t-170.5 -410.5q0 -248 166 -412t395 -164q197 0 332 112t162 329h-420v145h578z" glyph-name="G" horiz-adv-x="1574" unicode="G"/><glyph d="M1022 1434h170v-1434h-170v627h-729v-627h-170v1434h170v-648h729v648z" glyph-name="H" horiz-adv-x="1314" unicode="H"/><glyph d="M293 1434v-1434h-170v1434h170z" glyph-name="I" horiz-adv-x="415" unicode="I"/><glyph d="M893 1434v-963q0 -254 -125 -372.5t-319 -118.5q-262 0 -388 198l111 109q102 -143 277 -144q274 0 274 344v947h170z" glyph-name="J" horiz-adv-x="1015" unicode="J"/><glyph d="M1057 0l-555 668l-209 -226v-442h-170v1434h170v-768l698 768h213l-596 -650l649 -784h-200z" glyph-name="K" horiz-adv-x="1308" unicode="K"/><glyph d="M293 160h643v-160h-813v1434h170v-1274z" glyph-name="L" horiz-adv-x="1017" unicode="L"/><glyph d="M1640 1434v-1434h-170v1096h-10l-516 -1096h-125l-516 1096h-10v-1096h-170v1434h188l572 -1215l571 1215h186z" glyph-name="M" horiz-adv-x="1763" unicode="M"/><glyph d="M123 0v1434h170l821 -1147h14v1147h170v-1434h-170l-821 1147h-14v-1147h-170z" glyph-name="N" horiz-adv-x="1421" unicode="N"/><glyph d="M825 1454q291 0 512.5 -210t221.5 -527.5t-221.5 -527t-512.5 -209.5q-293 0 -513 209.5t-220 527t220 527.5t513 210zM825 141q219 0 388 164t169 412t-169 411.5t-388 163.5q-221 0 -389 -163.5t-168 -411.5t168 -412t389 -164z" glyph-name="O" horiz-adv-x="1650" unicode="O"/><glyph d="M590 1434q236 0 372 -129t136 -334q0 -203 -135.5 -329t-372.5 -126h-297v-516h-170v1434h467zM586 668q158 0 250 78.5t92 224t-92.5 224.5t-249.5 79h-293v-606h293z" glyph-name="P" horiz-adv-x="1169" unicode="P"/><glyph d="M1559 717q0 -330 -238 -543l139 -174h-200l-66 80q-174 -100 -369 -100q-293 0 -513 209.5t-220 527t220 527.5t513 210q291 0 512.5 -210t221.5 -527zM825 141q137 0 265 70l-318 393h201l241 -299q168 168 168 412q0 248 -169 411.5t-388 163.5q-221 0 -389 -163.5 t-168 -411.5t168 -412t389 -164z" glyph-name="Q" horiz-adv-x="1650" unicode="Q"/><glyph d="M1176 0h-185l-362 516h-39h-297v-516h-170v1434h467q236 0 372 -129t136 -334q0 -156 -81 -268.5t-226 -157.5zM293 1274v-606h293q158 0 250 78.5t92 224t-92.5 224.5t-249.5 79h-293z" glyph-name="R" horiz-adv-x="1236" unicode="R"/><glyph d="M561 1454q164 0 282 -87t169 -214l-129 -70q-109 217 -322 217q-117 0 -190.5 -59t-73.5 -160q0 -156 229 -243l105 -39q215 -80 317.5 -169t102.5 -241q0 -184 -143.5 -296.5t-338.5 -112.5q-180 0 -318 98t-179 254l137 65q39 -119 133 -190.5t227 -71.5 q129 0 217 69.5t88 186.5q0 100 -66.5 152.5t-217.5 109.5l-109 41q-174 68 -264 160t-90 231q0 164 124 266.5t310 102.5z" glyph-name="S" horiz-adv-x="1122" unicode="S"/><glyph d="M1049 1434v-160h-398v-1274h-170v1274h-399v160h967z" glyph-name="T" horiz-adv-x="1130" unicode="T"/><glyph d="M993 1434h170v-906q0 -258 -146.5 -403t-373.5 -145t-373.5 145t-146.5 403v906h170v-904q0 -193 98 -291t252 -98t252 98.5t98 290.5v904z" glyph-name="U" horiz-adv-x="1286" unicode="U"/><glyph d="M1247 1434h183l-617 -1434h-156l-616 1434h180l514 -1213z" glyph-name="V" horiz-adv-x="1470" unicode="V"/><glyph d="M1989 1434l-463 -1434h-111l-395 1133l-393 -1133h-111l-465 1434h176l351 -1104l383 1104h118l383 -1104l353 1104h174z" glyph-name="W" horiz-adv-x="2039" unicode="W"/><glyph d="M1284 0h-201l-415 592l-416 -592h-201l516 735l-489 699h201l389 -555l389 555h200l-489 -699z" glyph-name="X" horiz-adv-x="1335" unicode="X"/><glyph d="M1290 1434l-534 -807v-627h-170v627l-535 807h195l424 -648l426 648h194z" glyph-name="Y" horiz-adv-x="1341" unicode="Y"/><glyph d="M1147 1434l-817 -1284h825v-150h-1104l817 1286h-770v148h1049z" glyph-name="Z" horiz-adv-x="1206" unicode="Z"/><glyph d="M436 1526v-148h-174v-1495h174v-149h-344v1792h344z" glyph-name="bracketleft" horiz-adv-x="528" unicode="["/><glyph d="M82 1526h172l696 -1792h-172z" glyph-name="backslash" horiz-adv-x="1032" unicode="\"/><glyph d="M92 1526h344v-1792h-344v149h174v1495h-174v148z" glyph-name="bracketright" horiz-adv-x="528" unicode="]"/><glyph d="M549 1434l342 -461h-135l-262 301l-267 -301h-135l342 461h115z" glyph-name="asciicircum" horiz-adv-x="983" unicode="^"/><glyph d="M1116 0v-150h-1024v150h1024z" glyph-name="underscore" horiz-adv-x="1208" unicode="_"/><glyph d="M0 1516h199l129 -326h-123z" glyph-name="grave" horiz-adv-x="327" unicode="`"/><glyph d="M598 -20q-203 0 -367.5 147t-164.5 405.5t164.5 405.5t367.5 147q133 0 238.5 -65.5t148.5 -157.5h12v203h166v-1065h-166v203h-12q-43 -92 -148.5 -157.5t-238.5 -65.5zM616.5 129q151.5 0 268 106.5t116.5 297t-116.5 297t-268 106.5t-269.5 -106.5t-118 -297t118 -297 t269.5 -106.5z" glyph-name="a" unicode="a"/><glyph d="M684 1085q203 0 368 -147t165 -405.5t-165 -405.5t-368 -147q-133 0 -238.5 65.5t-148.5 157.5h-12v-203h-166v815h-2v633h168v-586h12q43 92 148.5 157.5t238.5 65.5zM665.5 129q151.5 0 269.5 106.5t118 297t-118 297t-269.5 106.5t-268 -106.5t-116.5 -297t116.5 -297 t268 -106.5z" glyph-name="b" unicode="b"/><glyph d="M612 1085q147 0 266 -66.5t189 -193.5l-135 -57q-106 168 -318 168q-147 0 -266 -107.5t-119 -298.5q0 -188 119 -294.5t266 -106.5q213 0 318 166l135 -57q-141 -258 -455 -258q-127 0 -248.5 58t-209.5 188t-88 304q0 133 51 243t132 175.5t175 101t188 35.5z" glyph-name="c" horiz-adv-x="1128" unicode="c"/><glyph d="M1151 1448v-633h-2v-815h-166v203h-12q-43 -92 -148.5 -157.5t-238.5 -65.5q-203 0 -368 147t-165 405.5t165 405.5t368 147q133 0 238.5 -65.5t148.5 -157.5h12v586h168zM602.5 129q151.5 0 268 106.5t116.5 297t-116.5 297t-268 106.5t-269.5 -106.5t-118 -297 t118 -297t269.5 -106.5z" glyph-name="d" horiz-adv-x="1267" unicode="d"/><glyph d="M602 1085q96 0 190.5 -36.5t176.5 -107.5t126 -194.5t29 -277.5h-893q18 -166 131 -256t267 -90q197 0 319 119l99 -90q-143 -172 -422 -172q-141 0 -265 58t-209 187t-85 305q0 133 50 243t129 175.5t172 101t185 35.5zM602 940q-129 0 -238.5 -91t-132.5 -253h744 q-12 160 -126 252t-247 92z" glyph-name="e" horiz-adv-x="1196" unicode="e"/><glyph d="M502 1327q-176 0 -176 -190v-72h297v-141h-297v-924h-168v924h-117v141h117v78q0 100 29.5 169.5t79.5 102.5t99.5 45.5t104.5 12.5q135 0 231 -64l-55 -117q-65 35 -145 35z" glyph-name="f" horiz-adv-x="753" unicode="f"/><glyph d="M997 1065h166v-1065q0 -115 -46 -201t-120.5 -132t-155.5 -67.5t-165 -21.5q-211 0 -318 80v143q106 -80 318 -80q141 0 231 74t90 205v203h-12q-43 -92 -148.5 -157.5t-238.5 -65.5q-203 0 -367.5 147t-164.5 405.5t164.5 405.5t367.5 147q133 0 238.5 -65.5 t148.5 -157.5h12v203zM616.5 129q151.5 0 268 106.5t116.5 297t-116.5 297t-268 106.5t-269.5 -106.5t-118 -297t118 -297t269.5 -106.5z" glyph-name="g" unicode="g"/><glyph d="M670 1085q168 0 285.5 -117.5t117.5 -349.5v-618h-168v614q0 160 -82 242t-205 82q-141 0 -230 -95t-103 -196v-647h-168v1448h168v-621q10 31 35.5 69t69.5 83t118 75.5t162 30.5z" glyph-name="h" horiz-adv-x="1175" unicode="h"/><glyph d="M285 1448v-164h-168v164h168zM285 1065v-1065h-168v1065h168z" glyph-name="i" horiz-adv-x="401" unicode="i"/><glyph d="M354 1448v-164h-168v164h168zM-74 -395h-49v155h47q131 0 196.5 58.5t65.5 216.5v1030h168v-1045q0 -229 -107.5 -322t-320.5 -93z" glyph-name="j" horiz-adv-x="471" unicode="j"/><glyph d="M889 0l-459 475l-145 -153v-322h-168v1448h168v-920l503 537h203l-454 -477l550 -588h-198z" glyph-name="k" horiz-adv-x="1128" unicode="k"/><glyph d="M285 1448v-1448h-168v1448h168z" glyph-name="l" horiz-adv-x="401" unicode="l"/><glyph d="M1391 1085q164 0 279.5 -112.5t115.5 -347.5v-625h-166v629q0 152 -73.5 230.5t-194.5 78.5q-129 0 -211 -88t-107 -213v-637h-166v629q0 150 -77.5 229.5t-194.5 79.5q-131 0 -212 -90t-99 -211v-637h-168v1065h168v-242q10 78 101 170t243 92q119 0 223 -67.5 t152 -198.5q33 100 135 183t252 83z" glyph-name="m" horiz-adv-x="1888" unicode="m"/><glyph d="M670 1085q168 0 285.5 -117.5t117.5 -349.5v-618h-168v614q0 160 -82 242t-205 82q-141 0 -230 -95t-103 -196v-647h-168v1065h168v-238q10 31 35.5 69t69.5 83t118 75.5t162 30.5z" glyph-name="n" horiz-adv-x="1175" unicode="n"/><glyph d="M614.5 1085q94.5 0 188.5 -35.5t175 -101t132 -175t51 -243.5q0 -256 -171 -403t-376 -147q-94 0 -189 34.5t-176 101t-132 174t-51 241t51 243t132 175t176 101t189.5 35.5zM614 936q-147 0 -266 -107.5t-119 -298.5q0 -188 119 -294.5t266 -106.5q145 0 264 107.5 t119 293.5q0 190 -119 298t-264 108z" glyph-name="o" horiz-adv-x="1226" unicode="o"/><glyph d="M684 1085q203 0 368 -147t165 -405.5t-165 -405.5t-368 -147q-133 0 -238.5 65.5t-148.5 157.5h-12v-592h-168v668h2v786h166v-203h12q43 92 148.5 157.5t238.5 65.5zM665.5 129q151.5 0 269.5 106.5t118 297t-118 297t-269.5 106.5t-268 -106.5t-116.5 -297t116.5 -297 t268 -106.5z" glyph-name="p" unicode="p"/><glyph d="M1149 279h2v-668h-168v592h-12q-43 -92 -148.5 -157.5t-238.5 -65.5q-203 0 -368 147t-165 405.5t165 405.5t368 147q133 0 238.5 -65.5t148.5 -157.5h12v203h166v-786zM602.5 129q151.5 0 268 106.5t116.5 297t-116.5 297t-268 106.5t-269.5 -106.5t-118 -297t118 -297 t269.5 -106.5z" glyph-name="q" horiz-adv-x="1267" unicode="q"/><glyph d="M680 1081q35 0 51 -4v-157q-16 4 -49 4q-156 0 -266.5 -104.5t-130.5 -280.5v-539h-168v1065h168v-281q31 125 137 211t258 86z" glyph-name="r" horiz-adv-x="792" unicode="r"/><glyph d="M635 809q-66 139 -207 139q-78 0 -126 -41t-48 -106q0 -109 147 -162l107 -37q154 -55 230.5 -121.5t76.5 -189.5q0 -147 -111.5 -229t-267.5 -82q-150 0 -253 75.5t-132 208.5l135 39q25 -86 93.5 -136t158.5 -50q88 0 151.5 45t63.5 125q0 117 -176 178l-119 43 q-266 94 -266 295q0 125 95.5 203.5t236.5 78.5q125 0 215 -63.5t135 -171.5z" glyph-name="s" horiz-adv-x="876" unicode="s"/><glyph d="M594 924h-225v-686q0 -100 100 -101q57 0 123 27v-139q-74 -37 -166 -37q-223 0 -223 211v725h-148v141h148v272h166v-272h225v-141z" glyph-name="t" horiz-adv-x="669" unicode="t"/><glyph d="M498 -20q-168 0 -286 117.5t-118 348.5v619h168v-614q0 -160 82 -242t205 -82q141 0 230 95t104 196v647h168v-1065h-168v238q-10 -31 -36 -69t-70 -83t-117.5 -75.5t-161.5 -30.5z" glyph-name="u" horiz-adv-x="1167" unicode="u"/><glyph d="M1126 1065l-467 -1065h-141l-467 1065h172l365 -850l364 850h174z" glyph-name="v" horiz-adv-x="1177" unicode="v"/><glyph d="M1686 1065h165l-407 -1065h-146l-346 874l-346 -874h-145l-410 1065h168l318 -846l340 846h151l340 -846z" glyph-name="w" horiz-adv-x="1902" unicode="w"/><glyph d="M877 0l-314 420l-311 -420h-197l414 545l-387 520h190l291 -397l293 397h191l-388 -520l412 -545h-194z" glyph-name="x" horiz-adv-x="1128" unicode="x"/><glyph d="M952 1065h174l-467 -1065l-176 -389h-168l189 420l-453 1034h172l365 -850z" glyph-name="y" horiz-adv-x="1177" unicode="y"/><glyph d="M1001 1065l-671 -915h651v-150h-930l672 918h-614v147h892z" glyph-name="z" horiz-adv-x="1052" unicode="z"/><glyph d="M498 1526v-148h-72q-33 0 -52.5 -18.5t-19.5 -50.5v-543l-92 -139l92 -135v-541q0 -68 72 -68h72v-149h-136q-74 0 -126 46t-52 134v567l-92 146l92 149v570q0 88 52.5 134t125.5 46h136z" glyph-name="braceleft" horiz-adv-x="589" unicode="{"/><glyph d="M303 1638v-2027h-149v2027h149z" glyph-name="bar" horiz-adv-x="456" unicode="|"/><glyph d="M92 1526h135q74 0 126.5 -46t52.5 -134v-570l92 -149l-92 -146v-567q0 -88 -52.5 -134t-126.5 -46h-135v149h72q72 0 72 68v541l92 135l-92 139v543q0 33 -19.5 51t-52.5 18h-72v148z" glyph-name="braceright" horiz-adv-x="589" unicode="}"/><glyph d="M319 727q92 0 207 -71.5t187 -71.5q51 0 81.5 24.5t30.5 55.5h78q0 -98 -59.5 -155.5t-161.5 -57.5q-90 0 -209 76.5t-194 76.5q-51 0 -82 -30.5t-29 -63.5h-76q0 100 62.5 158.5t164.5 58.5z" glyph-name="asciitilde" horiz-adv-x="995" unicode="~"/><glyph d="M223 1085q43 0 72 -28.5t29 -71.5t-29 -71.5t-72 -28.5t-71.5 28.5t-28.5 71.5t28.5 71.5t71.5 28.5zM317 -369h-188v1031h188v-1031z" glyph-name="exclamdown" horiz-adv-x="399" unicode="¡"/><glyph d="M651 283q184 12 281 159l135 -55q-131 -236 -416 -252v-217h-98v219q-193 23 -340 163t-147 373.5t147 375t340 163.5v222h98v-220q283 -16 416 -251l-135 -56q-98 150 -281 162v-786zM229 674q0 -164 95.5 -265.5t228.5 -123.5v780q-133 -23 -228.5 -124t-95.5 -267z " glyph-name="cent" horiz-adv-x="1128" unicode="¢"/><glyph d="M1063 971h-166v39q0 133 -81 215t-212 82q-125 0 -207 -76t-82 -201q0 -23 2 -44t9.5 -46t12.5 -41t16.5 -44t16.5 -39t20.5 -43t19.5 -40h356v-129h-305q18 -57 18 -119q0 -96 -47 -188t-129 -156h739v-141h-952v141q227 162 227 348q0 53 -20 115h-193v129h138 q-92 197 -92 309q0 182 130 297t326 115q201 0 328 -120t127 -324v-39z" glyph-name="sterling" horiz-adv-x="1155" unicode="£"/><glyph d="M993 975q0 -135 -73 -248l94 -94l-119 -119l-90 90q-121 -88 -270 -88q-147 0 -271 86l-88 -88l-121 119l95 92q-74 113 -74 250q0 135 76 254l-97 94l121 117l92 -92q115 86 267 86q145 0 268 -86l92 92l119 -117l-96 -96q75 -115 75 -252zM221 975q0 -121 88 -216 t226 -95q135 0 224 95t89 216q0 119 -89 215t-224 96q-137 0 -225.5 -96t-88.5 -215z" glyph-name="currency" horiz-adv-x="1126" unicode="¤"/><glyph d="M756 627v-70h276v-119h-276v-116h276v-119h-276v-203h-170v203h-277v119h277v116h-277v119h277v70l-535 807h195l424 -648l426 648h194z" glyph-name="yen" horiz-adv-x="1341" unicode="¥"/><glyph d="M303 1638v-573h-149v573h149zM303 184v-573h-149v573h149z" glyph-name="brokenbar" horiz-adv-x="456" unicode="¦"/><glyph d="M883 279q127 -104 127 -275q0 -188 -139.5 -290.5t-364.5 -102.5q-154 0 -274.5 57.5t-159.5 118.5v276h155v-186q18 -35 97 -74t184 -39q143 0 234.5 65t91.5 177q0 111 -66 166t-205 107l-141 51q-344 123 -344 391q0 170 135 272q-135 106 -135 281q0 166 126 265 t322 99q141 0 261 -54t153 -109v-279h-154v188q-20 31 -92.5 66t-167.5 35q-125 0 -202.5 -57.5t-77.5 -157.5q0 -164 225 -246l147 -53q190 -72 291 -163t101 -251q0 -174 -127 -278zM471 471l147 -53q70 -27 109 -45q106 66 107 186q0 111 -66 166t-205 106l-141 52 l-49 18q-127 -57 -127 -184q0 -164 225 -246z" glyph-name="section" horiz-adv-x="1081" unicode="§"/><glyph d="M160 1436v-154h-160v154h160zM616 1436v-154h-159v154h159z" glyph-name="dieresis" horiz-adv-x="616" unicode="¨"/><glyph d="M809 1448q279 0 497 -209t218 -522.5t-218.5 -522t-496.5 -208.5q-180 0 -343 90t-268.5 261t-105.5 380t105.5 380t268.5 261t343 90zM809 137q219 0 390 165t171 415t-171 414.5t-390 164.5q-221 0 -392 -164.5t-171 -414.5t171 -415t392 -165zM827 436q115 0 189 78 l90 -104q-113 -119 -283 -119q-168 0 -292.5 120.5t-124.5 305t124.5 305.5t292.5 121q170 0 283 -119l-90 -104q-74 78 -189 77q-106 0 -189 -80.5t-83 -199.5t83 -200t189 -81z" glyph-name="copyright" horiz-adv-x="1615" unicode="©"/><glyph d="M362 1452q274 0 275 -309v-197q0 -61 10 -90t41 -72h-131q-27 33 -35 95q-78 -100 -203 -101q-115 0 -184 54.5t-69 152.5q0 174 260 199l184 18q-2 68 -42 103.5t-106 35.5q-117 0 -208 -81l-64 73q96 119 272 119zM510 1102l-184 -23q-135 -14 -136 -94q0 -45 34 -71.5 t95 -26.5q68 0 119 41t72 84v90z" glyph-name="ordfeminine" horiz-adv-x="804" unicode="ª"/><glyph d="M82 637l301 299l57 -62l-241 -278l241 -281l-57 -59l-301 299v82zM406 637l301 299l57 -62l-242 -278l242 -281l-57 -59l-301 299v82z" glyph-name="guillemotleft" horiz-adv-x="815" unicode="«"/><glyph d="M915 618v-337h-170v200h-653v137h823z" glyph-name="logicalnot" horiz-adv-x="1007" unicode="¬"/><glyph d="M727 641v-137h-635v137h635z" glyph-name="uni00AD" horiz-adv-x="819" unicode="­"/><glyph d="M809 1448q279 0 497 -209t218 -522.5t-218.5 -522t-496.5 -208.5q-180 0 -343 90t-268.5 261t-105.5 380t105.5 380t268.5 261t343 90zM809 137q219 0 390 165t171 415t-171 414.5t-390 164.5q-221 0 -392 -164.5t-171 -414.5t171 -415t392 -165zM797 1110 q133 0 213 -68.5t80 -173.5q0 -180 -177 -237l217 -291h-135l-202 285h-131v-285h-119v770h254zM807 1006h-148v-281h148q162 0 162 139q0 66 -43 104t-119 38z" glyph-name="registered" horiz-adv-x="1615" unicode="®"/><glyph d="M754 1434v-142h-754v142h754z" glyph-name="macron" horiz-adv-x="753" unicode="¯"/><glyph d="M393 1454q125 0 213 -88t88 -211q0 -125 -88 -213t-213 -88t-213 88t-88 213q0 123 88 211t213 88zM393 1327q-76 0 -123 -52t-47 -120t47 -120t123 -52t123 52t47 120t-47 120t-123 52z" glyph-name="degree" horiz-adv-x="786" unicode="°"/><glyph d="M489 711h293v-140h-293v-290h-137v290h-291v140h291v288h137v-288zM92 2v137h686v-137h-686z" glyph-name="plusminus" horiz-adv-x="856" unicode="±"/><glyph d="M264 1442q70 0 121 -46t51 -108q0 -53 -29.5 -96t-109.5 -125l-96 -100h241v-66h-344v66l140 141q57 59 74.5 78.5t31.5 46.5t14 55q0 37 -28.5 63.5t-65.5 26.5q-39 0 -67.5 -26.5t-28.5 -75.5v-29h-76v29q0 72 50 119t122 47z" glyph-name="uni00B2" horiz-adv-x="534" unicode="²"/><glyph d="M268 1440q66 0 115 -42t49 -98q0 -66 -61 -108q86 -37 86 -135q0 -70 -56.5 -117t-132.5 -47q-84 0 -137 55.5t-49 130.5h78q-4 -49 27.5 -85t80.5 -36q45 0 78 28t33 71q0 109 -152 94v61q129 6 129 88q0 31 -25.5 53.5t-62.5 22.5q-45 0 -70.5 -30.5t-23.5 -83.5h-78 q-4 78 46 128t126 50z" glyph-name="uni00B3" horiz-adv-x="538" unicode="³"/><glyph d="M328 1516l-205 -326h-123l129 326h199z" glyph-name="acute" horiz-adv-x="327" unicode="´"/><glyph d="M881 1065h168v-1065h-168v238q-10 -31 -36 -69t-70 -83t-117.5 -75.5t-161.5 -30.5q-129 0 -230 69v-438h-166v725q-8 47 -8 110v619h174v-692q20 -123 97 -184.5t184 -61.5q141 0 230 95t104 196v647z" glyph-name="uni00B5" horiz-adv-x="1165" unicode="µ"/><glyph d="M170 971q0 205 136 334t372 129h467v-1434h-170v516h-297q-238 0 -373 126t-135 329zM1288 1434h170v-1434h-170v1434zM975 1274h-293q-158 0 -250 -79t-92 -224.5t92 -224t250 -78.5h293v606z" glyph-name="paragraph" horiz-adv-x="1601" unicode="¶"/><glyph d="M172 457q-43 0 -71.5 28.5t-28.5 71.5t28.5 71.5t71.5 28.5t71.5 -28.5t28.5 -71.5t-28.5 -71.5t-71.5 -28.5z" glyph-name="periodcentered" horiz-adv-x="399" unicode="·"/><glyph d="M172 -92q74 -4 129 -50t55 -118q0 -106 -105.5 -155.5t-250.5 -16.5l20 55q88 -14 142.5 23t54.5 94q0 53 -47 83t-107 -1l-55 55l88 123h170z" glyph-name="cedilla" horiz-adv-x="356" unicode="¸"/><glyph d="M264 1436v-535h-76v453l-34 -23l-37 64l71 41h76z" glyph-name="uni00B9" horiz-adv-x="423" unicode="¹"/><glyph d="M387 1444q121 0 220.5 -90t99.5 -239.5t-99.5 -241t-220.5 -91.5q-123 0 -222 91.5t-99 241t99 239.5t222 90zM387 1323q-78 0 -138.5 -56.5t-60.5 -152.5t60.5 -153.5t138.5 -57.5t138.5 57.5t60.5 153.5t-60.5 152.5t-138.5 56.5z" glyph-name="ordmasculine" horiz-adv-x="772" unicode="º"/><glyph d="M410 637v-82l-301 -299l-58 59l242 281l-242 278l58 62zM733 637v-82l-301 -299l-57 59l241 281l-241 278l57 62z" glyph-name="guillemotright" horiz-adv-x="815" unicode="»"/><glyph d="M205 1436v-535h-76v453l-35 -23l-37 64l72 41h76zM1030 1434l-880 -1434h-99l893 1434h86zM1059 535v-316h55v-63h-55v-156h-76v156h-270l270 379h76zM983 414l-133 -195h133v195z" glyph-name="onequarter" horiz-adv-x="1165" unicode="¼"/><glyph d="M205 1436v-535h-76v453l-35 -23l-37 64l72 41h76zM1030 1434l-880 -1434h-99l893 1434h86zM885 541q70 0 121 -46t51 -108q0 -53 -30 -96t-109 -125l-97 -100h242v-66h-344v66l139 141q57 59 74.5 78.5t32 46t14.5 55.5q0 37 -28.5 63.5t-65.5 26.5q-39 0 -68 -26.5 t-29 -75.5v-29h-75v29q0 72 50 119t122 47z" glyph-name="onehalf" horiz-adv-x="1114" unicode="½"/><glyph d="M238 1440q66 0 114.5 -42t48.5 -98q0 -66 -61 -108q86 -37 86 -135q0 -70 -56.5 -117t-131.5 -47q-84 0 -137.5 55.5t-49.5 130.5h78q-4 -49 27.5 -85t81.5 -36q45 0 77.5 28t32.5 71q0 109 -151 94v61q129 6 129 88q0 31 -26 53.5t-62 22.5q-45 0 -71 -30.5t-24 -83.5 h-77q-4 78 46 128t126 50zM1087 1434l-880 -1434h-98l892 1434h86zM1096 535v-316h55v-63h-55v-156h-76v156h-270l270 379h76zM1020 414l-133 -195h133v195z" glyph-name="threequarters" horiz-adv-x="1202" unicode="¾"/><glyph d="M539 1085q43 0 71.5 -28.5t28.5 -71.5t-28.5 -71.5t-71.5 -28.5t-72 28.5t-29 71.5t29 71.5t72 28.5zM526 -389q-197 0 -320.5 110.5t-123.5 290.5q0 80 27.5 143.5t68.5 103.5t89 80t89 73.5t69 85t28 112.5v56h170v-50q0 -80 -28 -143t-69 -100t-89 -77t-89 -73 t-68.5 -86t-27.5 -119q0 -113 71.5 -185.5t200.5 -72.5q133 0 207 81t74 225h170q0 -215 -121 -335t-328 -120z" glyph-name="questiondown" horiz-adv-x="1056" unicode="¿"/><glyph d="M809 1559h-123l-205 325h199zM1247 0l-143 338h-739l-144 -338h-180l616 1434h156l617 -1434h-183zM426 481h618l-309 731z" glyph-name="Agrave" horiz-adv-x="1470" unicode="À"/><glyph d="M1001 1884l-204 -325h-123l129 325h198zM1247 0l-143 338h-739l-144 -338h-180l616 1434h156l617 -1434h-183zM426 481h618l-309 731z" glyph-name="Aacute" horiz-adv-x="1470" unicode="Á"/><glyph d="M735 1810l-235 -241l-60 55l254 311h82l254 -311l-59 -55zM1247 0l-143 338h-739l-144 -338h-180l616 1434h156l617 -1434h-183zM426 481h618l-309 731z" glyph-name="Acircumflex" horiz-adv-x="1470" unicode="Â"/><glyph d="M553 1741q-49 0 -79 -30t-28 -62h-75q0 96 59 155.5t148 59.5q84 0 185 -70t148 -70q49 0 80 24t31 54h78q0 -96 -57.5 -154.5t-145.5 -58.5q-66 0 -126 38t-114.5 76t-103.5 38zM1247 0l-143 338h-739l-144 -338h-180l616 1434h156l617 -1434h-183zM426 481h618 l-309 731z" glyph-name="Atilde" horiz-adv-x="1470" unicode="Ã"/><glyph d="M588 1804v-153h-160v153h160zM1044 1804v-153h-159v153h159zM1247 0l-143 338h-739l-144 -338h-180l616 1434h156l617 -1434h-183zM426 481h618l-309 731z" glyph-name="Adieresis" horiz-adv-x="1470" unicode="Ä"/><glyph d="M737 1585q-80 0 -135 55.5t-55 131.5q0 78 55 132t135 54q76 0 131.5 -55.5t55.5 -131t-55.5 -131t-131.5 -55.5zM735 1847q-31 0 -52 -21.5t-21 -52t21.5 -52t51.5 -21.5q29 0 51.5 21.5t22.5 52t-22.5 52t-51.5 21.5zM1247 0l-143 338h-739l-144 -338h-180l616 1434 h156l617 -1434h-183zM426 481h618l-309 731z" glyph-name="Aring" horiz-adv-x="1470" unicode="Å"/><glyph d="M1200 160h682v-160h-852v440h-495l-302 -440h-192l981 1434h842v-160h-664v-475h516v-156h-516v-483zM635 588h395v579z" glyph-name="AE" horiz-adv-x="1974" unicode="Æ"/><glyph d="M797 -92q74 -4 129 -50t55 -118q0 -106 -105.5 -155.5t-250.5 -16.5l20 55q88 -14 142.5 23t54.5 94q0 53 -48.5 83t-105.5 -1l-55 55l80 111q-258 43 -439.5 244.5t-181.5 484.5q0 315 221.5 526t511.5 211q272 0 475 -170l-104 -119q-160 127 -358 127 q-227 0 -398.5 -164.5t-171.5 -410.5t171 -411t399 -165q203 0 362 131l107 -118q-188 -160 -437 -172z" glyph-name="Ccedilla" horiz-adv-x="1378" unicode="Ç"/><glyph d="M631 1559h-123l-205 325h199zM293 160h682v-160h-852v1434h833v-160h-663v-475h516v-156h-516v-483z" glyph-name="Egrave" horiz-adv-x="1067" unicode="È"/><glyph d="M823 1884l-205 -325h-122l129 325h198zM293 160h682v-160h-852v1434h833v-160h-663v-475h516v-156h-516v-483z" glyph-name="Eacute" horiz-adv-x="1067" unicode="É"/><glyph d="M557 1810l-235 -241l-60 55l254 311h82l254 -311l-59 -55zM293 160h682v-160h-852v1434h833v-160h-663v-475h516v-156h-516v-483z" glyph-name="Ecircumflex" horiz-adv-x="1067" unicode="Ê"/><glyph d="M410 1804v-153h-160v153h160zM866 1804v-153h-159v153h159zM293 160h682v-160h-852v1434h833v-160h-663v-475h516v-156h-516v-483z" glyph-name="Edieresis" horiz-adv-x="1067" unicode="Ë"/><glyph d="M-45 1884h199l129 -325h-123zM293 1434v-1434h-170v1434h170z" glyph-name="Igrave" horiz-adv-x="415" unicode="Ì"/><glyph d="M475 1884l-205 -325h-123l129 325h199zM293 1434v-1434h-170v1434h170z" glyph-name="Iacute" horiz-adv-x="415" unicode="Í"/><glyph d="M250 1935l254 -311l-60 -55l-235 241l-236 -241l-59 55l254 311h82zM293 1434v-1434h-170v1434h170z" glyph-name="Icircumflex" horiz-adv-x="415" unicode="Î"/><glyph d="M61 1804v-153h-159v153h159zM518 1804v-153h-160v153h160zM293 1434v-1434h-170v1434h170z" glyph-name="Idieresis" horiz-adv-x="415" unicode="Ï"/><glyph d="M623 1434q311 0 518 -208t207 -509t-207 -509t-518 -208h-426v643h-119v137h119v654h426zM621 162q250 0 401.5 158.5t151.5 396t-152 396.5t-401 159h-254v-492h346v-137h-346v-481h254z" glyph-name="Eth" horiz-adv-x="1427" unicode="Ð"/><glyph d="M553 1864q84 0 185.5 -70t148.5 -70q49 0 79.5 24t30.5 54h78q0 -96 -57 -154.5t-146 -58.5q-66 0 -126 38t-114 76t-103.5 38t-79 -30t-27.5 -62h-76q0 96 59.5 155.5t147.5 59.5zM123 0v1434h170l821 -1147h14v1147h170v-1434h-170l-821 1147h-14v-1147h-170z" glyph-name="Ntilde" horiz-adv-x="1421" unicode="Ñ"/><glyph d="M569 1884h199l129 -325h-123zM825 1454q291 0 512.5 -210t221.5 -527.5t-221.5 -527t-512.5 -209.5q-293 0 -513 209.5t-220 527t220 527.5t513 210zM825 141q219 0 388 164t169 412t-169 411.5t-388 163.5q-221 0 -389 -163.5t-168 -411.5t168 -412t389 -164z" glyph-name="Ograve" horiz-adv-x="1650" unicode="Ò"/><glyph d="M1090 1884l-205 -325h-123l129 325h199zM825 1454q291 0 512.5 -210t221.5 -527.5t-221.5 -527t-512.5 -209.5q-293 0 -513 209.5t-220 527t220 527.5t513 210zM825 141q219 0 388 164t169 412t-169 411.5t-388 163.5q-221 0 -389 -163.5t-168 -411.5t168 -412t389 -164z " glyph-name="Oacute" horiz-adv-x="1650" unicode="Ó"/><glyph d="M864 1935l254 -311l-59 -55l-236 241l-235 -241l-60 55l254 311h82zM825 1454q291 0 512.5 -210t221.5 -527.5t-221.5 -527t-512.5 -209.5q-293 0 -513 209.5t-220 527t220 527.5t513 210zM825 141q219 0 388 164t169 412t-169 411.5t-388 163.5q-221 0 -389 -163.5 t-168 -411.5t168 -412t389 -164z" glyph-name="Ocircumflex" horiz-adv-x="1650" unicode="Ô"/><glyph d="M666 1864q84 0 185 -70t148 -70q49 0 80 24t31 54h78q0 -96 -57.5 -154.5t-145.5 -58.5q-66 0 -126 38t-114.5 76t-103.5 38t-79 -30t-27 -62h-76q0 96 59.5 155.5t147.5 59.5zM825 1454q291 0 512.5 -210t221.5 -527.5t-221.5 -527t-512.5 -209.5q-293 0 -513 209.5 t-220 527t220 527.5t513 210zM825 141q219 0 388 164t169 412t-169 411.5t-388 163.5q-221 0 -389 -163.5t-168 -411.5t168 -412t389 -164z" glyph-name="Otilde" horiz-adv-x="1650" unicode="Õ"/><glyph d="M676 1804v-153h-160v153h160zM1133 1804v-153h-160v153h160zM825 1454q291 0 512.5 -210t221.5 -527.5t-221.5 -527t-512.5 -209.5q-293 0 -513 209.5t-220 527t220 527.5t513 210zM825 141q219 0 388 164t169 412t-169 411.5t-388 163.5q-221 0 -389 -163.5t-168 -411.5 t168 -412t389 -164z" glyph-name="Odieresis" horiz-adv-x="1650" unicode="Ö"/><glyph d="M682 381l-98 -98l-207 206l-205 -204l-96 96l205 205l-205 207l98 98l205 -207l205 205l96 -96l-205 -205z" glyph-name="multiply" horiz-adv-x="768" unicode="×"/><glyph d="M1221 1337q154 -100 246 -261t92 -359q0 -317 -221.5 -527t-512.5 -210q-115 0 -235 38l-58 -120h-186l92 192q-158 98 -252 261t-94 366q0 317 220 527t513 210q127 0 244 -43l55 115h187zM268 717q0 -150 65.5 -274t178.5 -201l487 1022q-90 29 -174 28 q-221 0 -389 -163.5t-168 -411.5zM825 141q219 0 388 164t169 412q0 147 -63.5 268t-171.5 199l-485 -1016q77 -27 163 -27z" glyph-name="Oslash" horiz-adv-x="1650" unicode="Ø"/><glyph d="M389 1884h199l129 -325h-123zM993 1434h170v-906q0 -258 -146.5 -403t-373.5 -145t-373.5 145t-146.5 403v906h170v-904q0 -193 98 -291t252 -98t252 98.5t98 290.5v904z" glyph-name="Ugrave" horiz-adv-x="1286" unicode="Ù"/><glyph d="M909 1884l-204 -325h-123l129 325h198zM993 1434h170v-906q0 -258 -146.5 -403t-373.5 -145t-373.5 145t-146.5 403v906h170v-904q0 -193 98 -291t252 -98t252 98.5t98 290.5v904z" glyph-name="Uacute" horiz-adv-x="1286" unicode="Ú"/><glyph d="M684 1935l254 -311l-59 -55l-236 241l-235 -241l-60 55l254 311h82zM993 1434h170v-906q0 -258 -146.5 -403t-373.5 -145t-373.5 145t-146.5 403v906h170v-904q0 -193 98 -291t252 -98t252 98.5t98 290.5v904z" glyph-name="Ucircumflex" horiz-adv-x="1286" unicode="Û"/><glyph d="M496 1804v-153h-160v153h160zM952 1804v-153h-159v153h159zM993 1434h170v-906q0 -258 -146.5 -403t-373.5 -145t-373.5 145t-146.5 403v906h170v-904q0 -193 98 -291t252 -98t252 98.5t98 290.5v904z" glyph-name="Udieresis" horiz-adv-x="1286" unicode="Ü"/><glyph d="M936 1884l-205 -325h-123l129 325h199zM1290 1434l-534 -807v-627h-170v627l-535 807h195l424 -648l426 648h194z" glyph-name="Yacute" horiz-adv-x="1341" unicode="Ý"/><glyph d="M629 1157q246 0 392 -121t146 -315q0 -207 -144 -321.5t-394 -114.5h-336v-285h-170v1434h170v-277h336zM633 434q178 0 271 64.5t93 222.5q0 147 -96 218t-268 71h-340v-576h340z" glyph-name="Thorn" horiz-adv-x="1239" unicode="Þ"/><glyph d="M600 1434q217 0 349 -95.5t132 -265.5q0 -115 -59 -188.5t-164 -98.5q150 -29 227.5 -126t77.5 -238q0 -422 -547 -422h-163v150h168q373 0 372 278q0 139 -104.5 209t-290.5 70h-145v139h145q162 0 237.5 51t75.5 172q0 104 -84 160.5t-227 56.5q-160 0 -235.5 -63.5 t-75.5 -196.5v-1026h-166v1026q0 199 124 303.5t353 104.5z" glyph-name="germandbls" horiz-adv-x="1234" unicode="ß"/><glyph d="M367 1516h198l129 -326h-123zM598 -20q-203 0 -367.5 147t-164.5 405.5t164.5 405.5t367.5 147q133 0 238.5 -65.5t148.5 -157.5h12v203h166v-1065h-166v203h-12q-43 -92 -148.5 -157.5t-238.5 -65.5zM616.5 129q151.5 0 268 106.5t116.5 297t-116.5 297t-268 106.5 t-269.5 -106.5t-118 -297t118 -297t269.5 -106.5z" glyph-name="agrave" unicode="à"/><glyph d="M887 1516l-205 -326h-123l129 326h199zM598 -20q-203 0 -367.5 147t-164.5 405.5t164.5 405.5t367.5 147q133 0 238.5 -65.5t148.5 -157.5h12v203h166v-1065h-166v203h-12q-43 -92 -148.5 -157.5t-238.5 -65.5zM616.5 129q151.5 0 268 106.5t116.5 297t-116.5 297 t-268 106.5t-269.5 -106.5t-118 -297t118 -297t269.5 -106.5z" glyph-name="aacute" unicode="á"/><glyph d="M662 1567l253 -312l-59 -55l-235 242l-236 -242l-59 55l254 312h82zM598 -20q-203 0 -367.5 147t-164.5 405.5t164.5 405.5t367.5 147q133 0 238.5 -65.5t148.5 -157.5h12v203h166v-1065h-166v203h-12q-43 -92 -148.5 -157.5t-238.5 -65.5zM616.5 129q151.5 0 268 106.5 t116.5 297t-116.5 297t-268 106.5t-269.5 -106.5t-118 -297t118 -297t269.5 -106.5z" glyph-name="acircumflex" unicode="â"/><glyph d="M463 1495q84 0 185.5 -69.5t148.5 -69.5q49 0 79.5 23.5t30.5 54.5h78q0 -96 -57.5 -154.5t-145.5 -58.5q-66 0 -126 37.5t-114.5 75.5t-103.5 38t-78.5 -29.5t-27.5 -62.5h-76q0 96 59.5 155.5t147.5 59.5zM598 -20q-203 0 -367.5 147t-164.5 405.5t164.5 405.5 t367.5 147q133 0 238.5 -65.5t148.5 -157.5h12v203h166v-1065h-166v203h-12q-43 -92 -148.5 -157.5t-238.5 -65.5zM616.5 129q151.5 0 268 106.5t116.5 297t-116.5 297t-268 106.5t-269.5 -106.5t-118 -297t118 -297t269.5 -106.5z" glyph-name="atilde" unicode="ã"/><glyph d="M473 1436v-154h-160v154h160zM930 1436v-154h-160v154h160zM598 -20q-203 0 -367.5 147t-164.5 405.5t164.5 405.5t367.5 147q133 0 238.5 -65.5t148.5 -157.5h12v203h166v-1065h-166v203h-12q-43 -92 -148.5 -157.5t-238.5 -65.5zM616.5 129q151.5 0 268 106.5 t116.5 297t-116.5 297t-268 106.5t-269.5 -106.5t-118 -297t118 -297t269.5 -106.5z" glyph-name="adieresis" unicode="ä"/><glyph d="M623 1589q76 0 131 -55t55 -131t-55.5 -131t-130.5 -55q-80 0 -135.5 55t-55.5 131q0 78 55.5 132t135.5 54zM621 1479q-31 0 -52.5 -21.5t-21.5 -52.5t21.5 -52.5t52.5 -21.5q29 0 51 21.5t22 52.5t-22 52.5t-51 21.5zM598 -20q-203 0 -367.5 147t-164.5 405.5 t164.5 405.5t367.5 147q133 0 238.5 -65.5t148.5 -157.5h12v203h166v-1065h-166v203h-12q-43 -92 -148.5 -157.5t-238.5 -65.5zM616.5 129q151.5 0 268 106.5t116.5 297t-116.5 297t-268 106.5t-269.5 -106.5t-118 -297t118 -297t269.5 -106.5z" glyph-name="aring" unicode="å"/><glyph d="M1538 1085q96 0 190.5 -36.5t176.5 -107.5t126 -194.5t29 -277.5h-893q18 -166 131 -256t267 -90q197 0 319 119l98 -90q-143 -172 -421 -172q-233 0 -398 151v-131h-166v203h-12q-43 -92 -148.5 -157.5t-238.5 -65.5q-203 0 -367.5 147t-164.5 405.5t164.5 405.5 t367.5 147q133 0 238.5 -65.5t148.5 -157.5h12v203h166v-133q160 153 375 153zM1538 940q-129 0 -238.5 -91t-132.5 -253h744q-12 160 -126 252t-247 92zM616.5 129q151.5 0 268 106.5t116.5 297t-116.5 297t-268 106.5t-269.5 -106.5t-118 -297t118 -297t269.5 -106.5z" glyph-name="ae" horiz-adv-x="2131" unicode="æ"/><glyph d="M614 129q213 0 318 166l135 -57q-121 -225 -385 -254l-76 -74q74 -4 129.5 -50t55.5 -118q0 -106 -105.5 -155.5t-251.5 -16.5l21 55q88 -14 142 23t54 94q0 53 -47 83t-106 -1l-56 55l78 109q-184 33 -319 174t-135 368q0 133 51 243t132 175.5t175 101t188 35.5 q147 0 266 -66.5t189 -193.5l-135 -57q-106 168 -318 168q-147 0 -266 -107.5t-119 -298.5q0 -188 119 -294.5t266 -106.5z" glyph-name="ccedilla" horiz-adv-x="1128" unicode="ç"/><glyph d="M676 1190h-123l-205 326h199zM602 1085q96 0 190.5 -36.5t176.5 -107.5t126 -194.5t29 -277.5h-893q18 -166 131 -256t267 -90q197 0 319 119l99 -90q-143 -172 -422 -172q-141 0 -265 58t-209 187t-85 305q0 133 50 243t129 175.5t172 101t185 35.5zM602 940 q-129 0 -238.5 -91t-132.5 -253h744q-12 160 -126 252t-247 92z" glyph-name="egrave" horiz-adv-x="1196" unicode="è"/><glyph d="M868 1516l-204 -326h-123l129 326h198zM602 1085q96 0 190.5 -36.5t176.5 -107.5t126 -194.5t29 -277.5h-893q18 -166 131 -256t267 -90q197 0 319 119l99 -90q-143 -172 -422 -172q-141 0 -265 58t-209 187t-85 305q0 133 50 243t129 175.5t172 101t185 35.5zM602 940 q-129 0 -238.5 -91t-132.5 -253h744q-12 160 -126 252t-247 92z" glyph-name="eacute" horiz-adv-x="1196" unicode="é"/><glyph d="M602 1442l-235 -242l-60 55l254 312h82l254 -312l-59 -55zM602 1085q96 0 190.5 -36.5t176.5 -107.5t126 -194.5t29 -277.5h-893q18 -166 131 -256t267 -90q197 0 319 119l99 -90q-143 -172 -422 -172q-141 0 -265 58t-209 187t-85 305q0 133 50 243t129 175.5t172 101 t185 35.5zM602 940q-129 0 -238.5 -91t-132.5 -253h744q-12 160 -126 252t-247 92z" glyph-name="ecircumflex" horiz-adv-x="1196" unicode="ê"/><glyph d="M455 1436v-154h-160v154h160zM911 1436v-154h-159v154h159zM602 1085q96 0 190.5 -36.5t176.5 -107.5t126 -194.5t29 -277.5h-893q18 -166 131 -256t267 -90q197 0 319 119l99 -90q-143 -172 -422 -172q-141 0 -265 58t-209 187t-85 305q0 133 50 243t129 175.5t172 101 t185 35.5zM602 940q-129 0 -238.5 -91t-132.5 -253h744q-12 160 -126 252t-247 92z" glyph-name="edieresis" horiz-adv-x="1196" unicode="ë"/><glyph d="M-53 1516h198l129 -326h-122zM285 1065v-1065h-168v1065h168z" glyph-name="igrave" horiz-adv-x="401" unicode="ì"/><glyph d="M467 1516l-205 -326h-123l129 326h199zM285 1065v-1065h-168v1065h168z" glyph-name="iacute" horiz-adv-x="401" unicode="í"/><glyph d="M242 1567l254 -312l-60 -55l-235 242l-236 -242l-59 55l254 312h82zM285 1065v-1065h-168v1065h168z" glyph-name="icircumflex" horiz-adv-x="401" unicode="î"/><glyph d="M53 1436v-154h-159v154h159zM510 1436v-154h-160v154h160zM285 1065v-1065h-168v1065h168z" glyph-name="idieresis" horiz-adv-x="401" unicode="ï"/><glyph d="M842 1198q131 -180 195.5 -339t64.5 -343q0 -252 -152.5 -394t-376.5 -142q-207 0 -357 143t-150 393q0 260 139 404.5t368 144.5q154 0 228 -72l-133 178l-203 -30v90l141 20l-135 183h188l121 -156l183 27v-88zM573 129q154 0 256.5 98.5t102.5 288.5q0 205 -96.5 302 t-262.5 97q-156 0 -246.5 -97t-90.5 -302q0 -188 100 -287.5t237 -99.5z" glyph-name="eth" horiz-adv-x="1218" unicode="ð"/><glyph d="M451 1495q84 0 185 -69.5t148 -69.5q49 0 80 23.5t31 54.5h78q0 -96 -57.5 -154.5t-145.5 -58.5q-66 0 -126 37.5t-114.5 75.5t-103.5 38t-79 -29.5t-28 -62.5h-75q0 96 59.5 155.5t147.5 59.5zM670 1085q168 0 285.5 -117.5t117.5 -349.5v-618h-168v614q0 160 -82 242 t-205 82q-141 0 -230 -95t-103 -196v-647h-168v1065h168v-238q10 31 35.5 69t69.5 83t118 75.5t162 30.5z" glyph-name="ntilde" horiz-adv-x="1175" unicode="ñ"/><glyph d="M360 1516h199l129 -326h-123zM614.5 1085q94.5 0 188.5 -35.5t175 -101t132 -175t51 -243.5q0 -256 -171 -403t-376 -147q-94 0 -189 34.5t-176 101t-132 174t-51 241t51 243t132 175t176 101t189.5 35.5zM614 936q-147 0 -266 -107.5t-119 -298.5q0 -188 119 -294.5 t266 -106.5q145 0 264 107.5t119 293.5q0 190 -119 298t-264 108z" glyph-name="ograve" horiz-adv-x="1226" unicode="ò"/><glyph d="M881 1516l-205 -326h-123l129 326h199zM614.5 1085q94.5 0 188.5 -35.5t175 -101t132 -175t51 -243.5q0 -256 -171 -403t-376 -147q-94 0 -189 34.5t-176 101t-132 174t-51 241t51 243t132 175t176 101t189.5 35.5zM614 936q-147 0 -266 -107.5t-119 -298.5 q0 -188 119 -294.5t266 -106.5q145 0 264 107.5t119 293.5q0 190 -119 298t-264 108z" glyph-name="oacute" horiz-adv-x="1226" unicode="ó"/><glyph d="M655 1567l254 -312l-59 -55l-236 242l-235 -242l-60 55l254 312h82zM614.5 1085q94.5 0 188.5 -35.5t175 -101t132 -175t51 -243.5q0 -256 -171 -403t-376 -147q-94 0 -189 34.5t-176 101t-132 174t-51 241t51 243t132 175t176 101t189.5 35.5zM614 936 q-147 0 -266 -107.5t-119 -298.5q0 -188 119 -294.5t266 -106.5q145 0 264 107.5t119 293.5q0 190 -119 298t-264 108z" glyph-name="ocircumflex" horiz-adv-x="1226" unicode="ô"/><glyph d="M457 1495q84 0 185 -69.5t149 -69.5q49 0 79.5 23.5t30.5 54.5h78q0 -96 -57.5 -154.5t-145.5 -58.5q-66 0 -126 37.5t-114.5 75.5t-103.5 38t-78.5 -29.5t-27.5 -62.5h-76q0 96 59.5 155.5t147.5 59.5zM614.5 1085q94.5 0 188.5 -35.5t175 -101t132 -175t51 -243.5 q0 -256 -171 -403t-376 -147q-94 0 -189 34.5t-176 101t-132 174t-51 241t51 243t132 175t176 101t189.5 35.5zM614 936q-147 0 -266 -107.5t-119 -298.5q0 -188 119 -294.5t266 -106.5q145 0 264 107.5t119 293.5q0 190 -119 298t-264 108z" glyph-name="otilde" horiz-adv-x="1226" unicode="õ"/><glyph d="M467 1436v-154h-160v154h160zM924 1436v-154h-160v154h160zM614.5 1085q94.5 0 188.5 -35.5t175 -101t132 -175t51 -243.5q0 -256 -171 -403t-376 -147q-94 0 -189 34.5t-176 101t-132 174t-51 241t51 243t132 175t176 101t189.5 35.5zM614 936q-147 0 -266 -107.5 t-119 -298.5q0 -188 119 -294.5t266 -106.5q145 0 264 107.5t119 293.5q0 190 -119 298t-264 108z" glyph-name="odieresis" horiz-adv-x="1226" unicode="ö"/><glyph d="M420 760q-43 0 -72 28.5t-29 71.5t29 72t72 29t71.5 -29t28.5 -72t-28.5 -71.5t-71.5 -28.5zM778 641v-137h-686v137h686zM420 150q-43 0 -72 28.5t-29 71.5t29 71.5t72 28.5t71.5 -28.5t28.5 -71.5t-28.5 -71.5t-71.5 -28.5z" glyph-name="divide" horiz-adv-x="870" unicode="÷"/><glyph d="M915 995q246 -162 246 -465q0 -256 -171 -403t-376 -147q-82 0 -172 28l-53 -110h-160l82 172q-246 158 -245 460q0 133 51 243t132 175.5t176 101t189 35.5q80 0 170 -28l62 127h160zM229 530q0 -205 150 -321l340 711q-55 16 -105 16q-147 0 -266 -108t-119 -298z M614 129q145 0 264 107.5t119 293.5q0 209 -149 324l-340 -709q55 -16 106 -16z" glyph-name="oslash" horiz-adv-x="1226" unicode="ø"/><glyph d="M326 1516h198l129 -326h-123zM498 -20q-168 0 -286 117.5t-118 348.5v619h168v-614q0 -160 82 -242t205 -82q141 0 230 95t104 196v647h168v-1065h-168v238q-10 -31 -36 -69t-70 -83t-117.5 -75.5t-161.5 -30.5z" glyph-name="ugrave" horiz-adv-x="1167" unicode="ù"/><glyph d="M846 1516l-205 -326h-123l129 326h199zM498 -20q-168 0 -286 117.5t-118 348.5v619h168v-614q0 -160 82 -242t205 -82q141 0 230 95t104 196v647h168v-1065h-168v238q-10 -31 -36 -69t-70 -83t-117.5 -75.5t-161.5 -30.5z" glyph-name="uacute" horiz-adv-x="1167" unicode="ú"/><glyph d="M621 1567l253 -312l-59 -55l-235 242l-236 -242l-59 55l254 312h82zM498 -20q-168 0 -286 117.5t-118 348.5v619h168v-614q0 -160 82 -242t205 -82q141 0 230 95t104 196v647h168v-1065h-168v238q-10 -31 -36 -69t-70 -83t-117.5 -75.5t-161.5 -30.5z" glyph-name="ucircumflex" horiz-adv-x="1167" unicode="û"/><glyph d="M432 1436v-154h-160v154h160zM889 1436v-154h-160v154h160zM498 -20q-168 0 -286 117.5t-118 348.5v619h168v-614q0 -160 82 -242t205 -82q141 0 230 95t104 196v647h168v-1065h-168v238q-10 -31 -36 -69t-70 -83t-117.5 -75.5t-161.5 -30.5z" glyph-name="udieresis" horiz-adv-x="1167" unicode="ü"/><glyph d="M860 1516l-205 -326h-123l130 326h198zM952 1065h174l-467 -1065l-176 -389h-168l189 420l-453 1034h172l365 -850z" glyph-name="yacute" horiz-adv-x="1177" unicode="ý"/><glyph d="M684 1085q203 0 368 -147t165 -405.5t-165 -405.5t-368 -147q-133 0 -238.5 65.5t-148.5 157.5h-12v-592h-168v668h2v536h-2v633h168v-586h12q43 92 148.5 157.5t238.5 65.5zM665.5 129q151.5 0 269.5 106.5t118 297t-118 297t-269.5 106.5t-268 -106.5t-116.5 -297 t116.5 -297t268 -106.5z" glyph-name="thorn" horiz-adv-x="1267" unicode="þ"/><glyph d="M446 1436v-154h-159v154h159zM903 1436v-154h-160v154h160zM952 1065h174l-467 -1065l-176 -389h-168l189 420l-453 1034h172l365 -850z" glyph-name="ydieresis" horiz-adv-x="1177" unicode="ÿ"/><glyph d="M1112 1802v-141h-754v141h754zM1247 0l-143 338h-739l-144 -338h-180l616 1434h156l617 -1434h-183zM426 481h618l-309 731z" glyph-name="Amacron" horiz-adv-x="1470" unicode="Ā"/><glyph d="M997 1434v-142h-753v142h753zM598 -20q-203 0 -367.5 147t-164.5 405.5t164.5 405.5t367.5 147q133 0 238.5 -65.5t148.5 -157.5h12v203h166v-1065h-166v203h-12q-43 -92 -148.5 -157.5t-238.5 -65.5zM616.5 129q151.5 0 268 106.5t116.5 297t-116.5 297t-268 106.5 t-269.5 -106.5t-118 -297t118 -297t269.5 -106.5z" glyph-name="amacron" unicode="ā"/><glyph d="M735.5 1571q-141.5 0 -218.5 89t-79 204h109q10 -72 58 -121t130 -49q84 0 131 49t58 121h110q-2 -115 -79.5 -204t-219 -89zM1247 0l-143 338h-739l-144 -338h-180l616 1434h156l617 -1434h-183zM426 481h618l-309 731z" glyph-name="Abreve" horiz-adv-x="1470" unicode="Ă"/><glyph d="M920 1495q-2 -115 -80 -204t-219.5 -89t-218 89t-78.5 204h108q10 -72 58.5 -121t130.5 -49q84 0 131 49t57 121h111zM598 -20q-203 0 -367.5 147t-164.5 405.5t164.5 405.5t367.5 147q133 0 238.5 -65.5t148.5 -157.5h12v203h166v-1065h-166v203h-12 q-43 -92 -148.5 -157.5t-238.5 -65.5zM616.5 129q151.5 0 268 106.5t116.5 297t-116.5 297t-268 106.5t-269.5 -106.5t-118 -297t118 -297t269.5 -106.5z" glyph-name="abreve" unicode="ă"/><glyph d="M1171 -238q0 -57 54.5 -82.5t115.5 -3.5l37 -82q-41 -20 -102.5 -25t-120.5 9t-101 58.5t-42 113.5q0 168 270 250h-35l-143 338h-739l-144 -338h-180l616 1434h156l617 -1434h32q-291 -105 -291 -238zM426 481h618l-309 731z" glyph-name="Aogonek" horiz-adv-x="1503" unicode="Ą"/><glyph d="M997 1065h166v-1065h-6q-156 -57 -215 -108.5t-59 -118.5q0 -61 52 -89t116 -8l36 -82q-41 -20 -102 -25t-120.5 9t-101.5 58.5t-42 109.5q0 90 75.5 156.5t192.5 97.5h8v203h-12q-43 -92 -148.5 -157.5t-238.5 -65.5q-203 0 -367.5 147t-164.5 405.5t164.5 405.5 t367.5 147q133 0 238.5 -65.5t148.5 -157.5h12v203zM616.5 129q151.5 0 268 106.5t116.5 297t-116.5 297t-268 106.5t-269.5 -106.5t-118 -297t118 -297t269.5 -106.5z" glyph-name="aogonek" horiz-adv-x="1273" unicode="ą"/><glyph d="M1028 1884l-205 -325h-123l129 325h199zM1307 154q-203 -174 -482 -174q-291 0 -512 210.5t-221 526t221.5 526.5t511.5 211q272 0 475 -170l-104 -119q-160 127 -358 127q-227 0 -398.5 -164.5t-171.5 -410.5t171 -411t399 -165q203 0 362 131z" glyph-name="Cacute" horiz-adv-x="1378" unicode="Ć"/><glyph d="M856 1516l-205 -326h-123l129 326h199zM612 1085q147 0 266 -66.5t189 -193.5l-135 -57q-106 168 -318 168q-147 0 -266 -107.5t-119 -298.5q0 -188 119 -294.5t266 -106.5q213 0 318 166l135 -57q-141 -258 -455 -258q-127 0 -248.5 58t-209.5 188t-88 304q0 133 51 243 t132 175.5t175 101t188 35.5z" glyph-name="cacute" horiz-adv-x="1128" unicode="ć"/><glyph d="M842 1804v-153h-160v153h160zM1307 154q-203 -174 -482 -174q-291 0 -512 210.5t-221 526t221.5 526.5t511.5 211q272 0 475 -170l-104 -119q-160 127 -358 127q-227 0 -398.5 -164.5t-171.5 -410.5t171 -411t399 -165q203 0 362 131z" glyph-name="Cdotaccent" horiz-adv-x="1378" unicode="Ċ"/><glyph d="M670 1436v-154h-160v154h160zM612 1085q147 0 266 -66.5t189 -193.5l-135 -57q-106 168 -318 168q-147 0 -266 -107.5t-119 -298.5q0 -188 119 -294.5t266 -106.5q213 0 318 166l135 -57q-141 -258 -455 -258q-127 0 -248.5 58t-209.5 188t-88 304q0 133 51 243 t132 175.5t175 101t188 35.5z" glyph-name="cdotaccent" horiz-adv-x="1128" unicode="ċ"/><glyph d="M803 1569h-82l-254 311l59 55l236 -241l235 241l60 -55zM1307 154q-203 -174 -482 -174q-291 0 -512 210.5t-221 526t221.5 526.5t511.5 211q272 0 475 -170l-104 -119q-160 127 -358 127q-227 0 -398.5 -164.5t-171.5 -410.5t171 -411t399 -165q203 0 362 131z" glyph-name="Ccaron" horiz-adv-x="1378" unicode="Č"/><glyph d="M631 1200h-82l-254 311l59 56l236 -242l235 242l60 -56zM612 1085q147 0 266 -66.5t189 -193.5l-135 -57q-106 168 -318 168q-147 0 -266 -107.5t-119 -298.5q0 -188 119 -294.5t266 -106.5q213 0 318 166l135 -57q-141 -258 -455 -258q-127 0 -248.5 58t-209.5 188 t-88 304q0 133 51 243t132 175.5t175 101t188 35.5z" glyph-name="ccaron" horiz-adv-x="1128" unicode="č"/><glyph d="M723 1569h-82l-254 311l59 55l236 -241l236 241l59 -55zM549 1434q311 0 518 -208t207 -509t-207 -509t-518 -208h-426v1434h426zM547 162q250 0 401.5 158.5t151.5 396t-151.5 396.5t-401.5 159h-254v-1110h254z" glyph-name="Dcaron" horiz-adv-x="1355" unicode="Ď"/><glyph d="M995 1448h168v-633h-2v-815h-166v203h-12q-43 -92 -148.5 -157.5t-238.5 -65.5q-203 0 -368 147t-165 405.5t165 405.5t368 147q133 0 238.5 -65.5t148.5 -157.5h12v586zM1358 1448h198l-204 -326h-123zM614.5 129q151.5 0 268 106.5t116.5 297t-116.5 297t-268 106.5 t-269.5 -106.5t-118 -297t118 -297t269.5 -106.5z" glyph-name="dcaron" horiz-adv-x="1564" unicode="ď"/><glyph d="M623 1434q311 0 518 -208t207 -509t-207 -509t-518 -208h-426v643h-119v137h119v654h426zM621 162q250 0 401.5 158.5t151.5 396t-152 396.5t-401 159h-254v-492h346v-137h-346v-481h254z" glyph-name="Dcroat" horiz-adv-x="1427" unicode="Đ"/><glyph d="M1305 1317v-135h-142v-367h-2v-815h-166v203h-12q-43 -92 -148.5 -157.5t-238.5 -65.5q-203 0 -368 147t-165 405.5t165 405.5t368 147q133 0 238.5 -65.5t148.5 -157.5h12v320h-379v135h379v131h168v-131h142zM614.5 129q151.5 0 268 106.5t116.5 297t-116.5 297 t-268 106.5t-269.5 -106.5t-118 -297t118 -297t269.5 -106.5z" glyph-name="dcroat" horiz-adv-x="1312" unicode="đ"/><glyph d="M934 1802v-141h-754v141h754zM293 160h682v-160h-852v1434h833v-160h-663v-475h516v-156h-516v-483z" glyph-name="Emacron" horiz-adv-x="1067" unicode="Ē"/><glyph d="M979 1434v-142h-754v142h754zM602 1085q96 0 190.5 -36.5t176.5 -107.5t126 -194.5t29 -277.5h-893q18 -166 131 -256t267 -90q197 0 319 119l99 -90q-143 -172 -422 -172q-141 0 -265 58t-209 187t-85 305q0 133 50 243t129 175.5t172 101t185 35.5zM602 940 q-129 0 -238.5 -91t-132.5 -253h744q-12 160 -126 252t-247 92z" glyph-name="emacron" horiz-adv-x="1196" unicode="ē"/><glyph d="M637 1804v-153h-160v153h160zM293 160h682v-160h-852v1434h833v-160h-663v-475h516v-156h-516v-483z" glyph-name="Edotaccent" horiz-adv-x="1067" unicode="Ė"/><glyph d="M682 1436v-154h-160v154h160zM602 1085q96 0 190.5 -36.5t176.5 -107.5t126 -194.5t29 -277.5h-893q18 -166 131 -256t267 -90q197 0 319 119l99 -90q-143 -172 -422 -172q-141 0 -265 58t-209 187t-85 305q0 133 50 243t129 175.5t172 101t185 35.5zM602 940 q-129 0 -238.5 -91t-132.5 -253h744q-12 160 -126 252t-247 92z" glyph-name="edotaccent" horiz-adv-x="1196" unicode="ė"/><glyph d="M975 0q-279 -102 -279 -238q0 -57 54.5 -82.5t115.5 -3.5l37 -82q-41 -20 -102.5 -25t-120.5 9t-101 58.5t-42 113.5q0 166 278 250h-692v1434h833v-160h-663v-475h516v-156h-516v-483h682v-160z" glyph-name="Eogonek" horiz-adv-x="1067" unicode="Ę"/><glyph d="M602 1085q96 0 190.5 -36.5t176.5 -107.5t126 -194.5t29 -277.5h-893q18 -166 131 -256t267 -90q197 0 319 119l99 -90q-92 -111 -246 -152h4q-156 -57 -214.5 -107.5t-58.5 -119.5q0 -61 52.5 -89t113.5 -8l39 -82q-41 -20 -102.5 -25t-120.5 9t-101 58.5t-42 109.5 q0 78 57 139.5t152 96.5q-209 14 -361.5 158.5t-152.5 389.5q0 133 50 243t129 175.5t172 101t185 35.5zM602 940q-129 0 -238.5 -91t-132.5 -253h744q-12 160 -126 252t-247 92z" glyph-name="eogonek" horiz-adv-x="1196" unicode="ę"/><glyph d="M598 1569h-82l-254 311l60 55l235 -241l236 241l59 -55zM293 160h682v-160h-852v1434h833v-160h-663v-475h516v-156h-516v-483z" glyph-name="Ecaron" horiz-adv-x="1067" unicode="Ě"/><glyph d="M643 1200h-82l-254 311l60 56l235 -242l236 242l59 -56zM602 1085q96 0 190.5 -36.5t176.5 -107.5t126 -194.5t29 -277.5h-893q18 -166 131 -256t267 -90q197 0 319 119l99 -90q-143 -172 -422 -172q-141 0 -265 58t-209 187t-85 305q0 133 50 243t129 175.5t172 101 t185 35.5zM602 940q-129 0 -238.5 -91t-132.5 -253h744q-12 160 -126 252t-247 92z" glyph-name="ecaron" horiz-adv-x="1196" unicode="ě"/><glyph d="M837.5 1571q-141.5 0 -218 89t-78.5 204h108q10 -72 58.5 -121t130.5 -49q84 0 131 49t57 121h111q-2 -115 -80 -204t-219.5 -89zM1481 727q25 -336 -169 -541.5t-487 -205.5q-295 0 -514 209.5t-219 527.5q0 315 221.5 526t511.5 211q270 0 473 -170l-104 -119 q-160 127 -358 127q-227 0 -397.5 -164.5t-170.5 -410.5q0 -248 166 -412t395 -164q197 0 332 112t162 329h-420v145h578z" glyph-name="Gbreve" horiz-adv-x="1574" unicode="Ğ"/><glyph d="M618.5 1202q-141.5 0 -218 89t-78.5 204h108q10 -72 58.5 -121t129.5 -49q84 0 131.5 49t57.5 121h111q-2 -115 -80 -204t-219.5 -89zM997 1065h166v-1065q0 -115 -46 -201t-120.5 -132t-155.5 -67.5t-165 -21.5q-211 0 -318 80v143q106 -80 318 -80q141 0 231 74t90 205 v203h-12q-43 -92 -148.5 -157.5t-238.5 -65.5q-203 0 -367.5 147t-164.5 405.5t164.5 405.5t367.5 147q133 0 238.5 -65.5t148.5 -157.5h12v203zM616.5 129q151.5 0 268 106.5t116.5 297t-116.5 297t-268 106.5t-269.5 -106.5t-118 -297t118 -297t269.5 -106.5z" glyph-name="gbreve" unicode="ğ"/><glyph d="M918 1804v-153h-160v153h160zM1481 727q25 -336 -169 -541.5t-487 -205.5q-295 0 -514 209.5t-219 527.5q0 315 221.5 526t511.5 211q270 0 473 -170l-104 -119q-160 127 -358 127q-227 0 -397.5 -164.5t-170.5 -410.5q0 -248 166 -412t395 -164q197 0 332 112t162 329 h-420v145h578z" glyph-name="Gdotaccent" horiz-adv-x="1574" unicode="Ġ"/><glyph d="M698 1436v-154h-159v154h159zM997 1065h166v-1065q0 -115 -46 -201t-120.5 -132t-155.5 -67.5t-165 -21.5q-211 0 -318 80v143q106 -80 318 -80q141 0 231 74t90 205v203h-12q-43 -92 -148.5 -157.5t-238.5 -65.5q-203 0 -367.5 147t-164.5 405.5t164.5 405.5t367.5 147 q133 0 238.5 -65.5t148.5 -157.5h12v203zM616.5 129q151.5 0 268 106.5t116.5 297t-116.5 297t-268 106.5t-269.5 -106.5t-118 -297t118 -297t269.5 -106.5z" glyph-name="gdotaccent" unicode="ġ"/><glyph d="M1481 727q25 -336 -169 -541.5t-487 -205.5q-295 0 -514 209.5t-219 527.5q0 315 221.5 526t511.5 211q270 0 473 -170l-104 -119q-160 127 -358 127q-227 0 -397.5 -164.5t-170.5 -410.5q0 -248 166 -412t395 -164q197 0 332 112t162 329h-420v145h578zM569 -475 l129 407h226l-207 -407h-148z" glyph-name="Gcommaaccent" horiz-adv-x="1574" unicode="Ģ"/><glyph d="M887 1638l-207 -407h-148l130 407h225zM997 1065h166v-1065q0 -115 -46 -201t-120.5 -132t-155.5 -67.5t-165 -21.5q-211 0 -318 80v143q106 -80 318 -80q141 0 231 74t90 205v203h-12q-43 -92 -148.5 -157.5t-238.5 -65.5q-203 0 -367.5 147t-164.5 405.5t164.5 405.5 t367.5 147q133 0 238.5 -65.5t148.5 -157.5h12v203zM616.5 129q151.5 0 268 106.5t116.5 297t-116.5 297t-268 106.5t-269.5 -106.5t-118 -297t118 -297t269.5 -106.5z" glyph-name="gcommaaccent" unicode="ģ"/><glyph d="M1022 1434h170v-1434h-170v627h-729v-627h-170v1434h170v-271h729v271zM293 786h729v218h-729v-218z" glyph-name="Hbar" horiz-adv-x="1314" unicode="Ħ"/><glyph d="M692 1085q168 0 286 -117.5t118 -349.5v-618h-168v614q0 160 -82 242t-205 82q-141 0 -230 -95t-104 -196v-647h-168v1169h-139v101h139v178h168v-178h252v-101h-252v-342q10 31 36 69t70 83t117.5 75.5t161.5 30.5z" glyph-name="hbar" horiz-adv-x="1198" unicode="ħ"/><glyph d="M586 1802v-141h-754v141h754zM293 1434v-1434h-170v1434h170z" glyph-name="Imacron" horiz-adv-x="415" unicode="Ī"/><glyph d="M578 1434v-142h-754v142h754zM285 1065v-1065h-168v1065h168z" glyph-name="imacron" horiz-adv-x="401" unicode="ī"/><glyph d="M295 0q-152 -55 -217.5 -112.5t-65.5 -125.5q0 -57 53.5 -82.5t114.5 -3.5l39 -82q-43 -20 -104.5 -25t-121 9t-101.5 58.5t-42 113.5q0 166 275 250v1434h170v-1434z" glyph-name="Iogonek" horiz-adv-x="417" unicode="Į"/><glyph d="M260 1436v-154h-160v154h160zM117 1065h168v-1065h-6q-279 -102 -279 -238q0 -57 54.5 -82.5t115.5 -3.5l37 -82q-41 -20 -102.5 -25t-121 9t-101.5 58.5t-42 113.5q0 166 279 250h-2v1065z" glyph-name="iogonek" horiz-adv-x="401" unicode="į"/><glyph d="M289 1804v-153h-160v153h160zM293 1434v-1434h-170v1434h170z" glyph-name="Idotaccent" horiz-adv-x="415" unicode="İ"/><glyph d="M285 1065v-1065h-168v1065h168z" glyph-name="dotlessi" horiz-adv-x="401" unicode="ı"/><glyph d="M293 1434v-1434h-170v1434h170zM1309 1434v-963q0 -254 -125 -372.5t-320 -118.5q-262 0 -387 198l111 109q102 -143 276 -144q274 0 275 344v947h170z" glyph-name="IJ" horiz-adv-x="1431" unicode="Ĳ"/><glyph d="M285 1448v-164h-168v164h168zM756 1448v-164h-168v164h168zM285 1065v-1065h-168v1065h168zM328 -395h-49v155h47q131 0 196.5 58.5t65.5 216.5v1030h168v-1045q0 -229 -107.5 -322t-320.5 -93z" glyph-name="ij" horiz-adv-x="872" unicode="ĳ"/><glyph d="M608 784l649 -784h-200l-555 668l-209 -226v-442h-170v1434h170v-768l698 768h213zM461 -475l129 407h225l-207 -407h-147z" glyph-name="Kcommaaccent" horiz-adv-x="1308" unicode="Ķ"/><glyph d="M537 588l550 -588h-198l-459 475l-145 -153v-322h-168v1448h168v-920l503 537h203zM328 -475l129 407h225l-207 -407h-147z" glyph-name="kcommaaccent" horiz-adv-x="1128" unicode="ķ"/><glyph d="M496 1880l-205 -326h-123l129 326h199zM293 160h643v-160h-813v1434h170v-1274z" glyph-name="Lacute" horiz-adv-x="1017" unicode="Ĺ"/><glyph d="M467 1898l-205 -325h-123l129 325h199zM285 1448v-1448h-168v1448h168z" glyph-name="lacute" horiz-adv-x="401" unicode="ĺ"/><glyph d="M293 160h643v-160h-813v1434h170v-1274zM287 -475l129 407h225l-207 -407h-147z" glyph-name="Lcommaaccent" horiz-adv-x="1017" unicode="Ļ"/><glyph d="M285 1448v-1448h-168v1448h168zM-39 -475l129 407h225l-206 -407h-148z" glyph-name="lcommaaccent" horiz-adv-x="401" unicode="ļ"/><glyph d="M827 1460l-163 -456h-148l160 456h151zM293 160h643v-160h-813v1434h170v-1274z" glyph-name="Lcaron" horiz-adv-x="1017" unicode="Ľ"/><glyph d="M285 1448v-1448h-168v1448h168zM426 977l160 457h151l-164 -457h-147z" glyph-name="lcaron" horiz-adv-x="796" unicode="ľ"/><glyph d="M293 160h643v-160h-813v1434h170v-1274zM686 635q-43 0 -71.5 28.5t-28.5 71.5t28.5 72t71.5 29t71.5 -29t28.5 -72t-28.5 -71.5t-71.5 -28.5z" glyph-name="Ldot" horiz-adv-x="1017" unicode="Ŀ"/><glyph d="M285 1448v-1448h-168v1448h168zM524 631q-43 0 -71.5 28.5t-28.5 71.5t28.5 71.5t71.5 28.5t72 -28.5t29 -71.5t-29 -71.5t-72 -28.5z" glyph-name="ldot" horiz-adv-x="679" unicode="ŀ"/><glyph d="M408 160h643v-160h-813v467l-125 -131v190l125 131v777h170v-596l256 270h2v-190l-258 -273v-485z" glyph-name="Lslash" horiz-adv-x="1132" unicode="Ł"/><glyph d="M596 1100v-191l-182 -192v-717h-168v541l-185 -195v193l185 194v715h168v-539l180 191h2z" glyph-name="lslash" horiz-adv-x="657" unicode="ł"/><glyph d="M977 1884l-205 -325h-123l129 325h199zM123 0v1434h170l821 -1147h14v1147h170v-1434h-170l-821 1147h-14v-1147h-170z" glyph-name="Nacute" horiz-adv-x="1421" unicode="Ń"/><glyph d="M874 1516l-204 -326h-123l129 326h198zM670 1085q168 0 285.5 -117.5t117.5 -349.5v-618h-168v614q0 160 -82 242t-205 82q-141 0 -230 -95t-103 -196v-647h-168v1065h168v-238q10 31 35.5 69t69.5 83t118 75.5t162 30.5z" glyph-name="nacute" horiz-adv-x="1175" unicode="ń"/><glyph d="M123 0v1434h170l821 -1147h14v1147h170v-1434h-170l-821 1147h-14v-1147h-170zM471 -475l129 407h225l-207 -407h-147z" glyph-name="Ncommaaccent" horiz-adv-x="1421" unicode="Ņ"/><glyph d="M670 1085q168 0 285.5 -117.5t117.5 -349.5v-618h-168v614q0 160 -82 242t-205 82q-141 0 -230 -95t-103 -196v-647h-168v1065h168v-238q10 31 35.5 69t69.5 83t118 75.5t162 30.5zM369 -475l129 407h225l-207 -407h-147z" glyph-name="ncommaaccent" horiz-adv-x="1175" unicode="ņ"/><glyph d="M752 1569h-82l-254 311l59 55l236 -241l235 241l60 -55zM123 0v1434h170l821 -1147h14v1147h170v-1434h-170l-821 1147h-14v-1147h-170z" glyph-name="Ncaron" horiz-adv-x="1421" unicode="Ň"/><glyph d="M649 1200h-82l-254 311l60 56l235 -242l236 242l59 -56zM670 1085q168 0 285.5 -117.5t117.5 -349.5v-618h-168v614q0 160 -82 242t-205 82q-141 0 -230 -95t-103 -196v-647h-168v1065h168v-238q10 31 35.5 69t69.5 83t118 75.5t162 30.5z" glyph-name="ncaron" horiz-adv-x="1175" unicode="ň"/><glyph d="M1120 1434h172v-1368q0 -254 -125 -373t-319 -119q-262 0 -387 199l110 108q102 -143 277 -143q262 0 274 313l-829 1069v-1120h-170v1434h131l868 -1125z" glyph-name="Eng" horiz-adv-x="1415" unicode="Ŋ"/><glyph d="M670 1085q168 0 285.5 -117.5t117.5 -349.5v-618q-4 -217 -112.5 -306t-315.5 -89h-49v155h47q131 0 196.5 58.5t65.5 216.5v579q0 160 -82 242t-205 82q-141 0 -230 -95t-103 -196v-647h-168v1065h168v-238q10 31 35.5 69t69.5 83t118 75.5t162 30.5z" glyph-name="eng" horiz-adv-x="1175" unicode="ŋ"/><glyph d="M1200 1802v-141h-754v141h754zM825 1454q291 0 512.5 -210t221.5 -527.5t-221.5 -527t-512.5 -209.5q-293 0 -513 209.5t-220 527t220 527.5t513 210zM825 141q219 0 388 164t169 412t-169 411.5t-388 163.5q-221 0 -389 -163.5t-168 -411.5t168 -412t389 -164z" glyph-name="Omacron" horiz-adv-x="1650" unicode="Ō"/><glyph d="M991 1434v-142h-753v142h753zM614.5 1085q94.5 0 188.5 -35.5t175 -101t132 -175t51 -243.5q0 -256 -171 -403t-376 -147q-94 0 -189 34.5t-176 101t-132 174t-51 241t51 243t132 175t176 101t189.5 35.5zM614 936q-147 0 -266 -107.5t-119 -298.5q0 -188 119 -294.5 t266 -106.5q145 0 264 107.5t119 293.5q0 190 -119 298t-264 108z" glyph-name="omacron" horiz-adv-x="1226" unicode="ō"/><glyph d="M907 1884l-205 -325h-122l129 325h198zM1247 1884l-205 -325h-122l129 325h198zM825 1454q291 0 512.5 -210t221.5 -527.5t-221.5 -527t-512.5 -209.5q-293 0 -513 209.5t-220 527t220 527.5t513 210zM825 141q219 0 388 164t169 412t-169 411.5t-388 163.5 q-221 0 -389 -163.5t-168 -411.5t168 -412t389 -164z" glyph-name="Ohungarumlaut" horiz-adv-x="1650" unicode="Ő"/><glyph d="M698 1516l-204 -326h-123l129 326h198zM1038 1516l-204 -326h-123l129 326h198zM614.5 1085q94.5 0 188.5 -35.5t175 -101t132 -175t51 -243.5q0 -256 -171 -403t-376 -147q-94 0 -189 34.5t-176 101t-132 174t-51 241t51 243t132 175t176 101t189.5 35.5zM614 936 q-147 0 -266 -107.5t-119 -298.5q0 -188 119 -294.5t266 -106.5q145 0 264 107.5t119 293.5q0 190 -119 298t-264 108z" glyph-name="ohungarumlaut" horiz-adv-x="1226" unicode="ő"/><glyph d="M1554 160h682v-160h-852v240q-104 -123 -252.5 -191.5t-306.5 -68.5q-293 0 -513 209.5t-220 527t220 527.5t513 210q158 0 306.5 -68.5t252.5 -191.5v240h834v-160h-664v-475h517v-156h-517v-6v-477zM825 141q219 0 388 164t169 412t-169 411.5t-388 163.5 q-221 0 -389 -163.5t-168 -411.5t168 -412t389 -164z" glyph-name="OE" horiz-adv-x="2326" unicode="Œ"/><glyph d="M1532 1085q96 0 190.5 -36.5t176 -107.5t125.5 -194.5t30 -277.5h-893q18 -166 131 -256t267 -90q197 0 319 119l98 -90q-145 -172 -422 -172q-143 0 -272 64.5t-205 184.5q-78 -121 -205 -185t-258 -64q-94 0 -189 34.5t-176 101t-132 174t-51 241t51 243t132 175 t176 101t189 35.5q131 0 259 -65.5t204 -185.5q76 121 201 186t254 65zM1532 940q-129 0 -238.5 -91t-132.5 -253h744q-12 160 -126 252t-247 92zM614 129q137 0 253 97.5t128 269.5v34v35q-12 174 -126.5 272.5t-254.5 98.5q-147 0 -266 -107.5t-119 -298.5 q0 -188 119 -294.5t266 -106.5z" glyph-name="oe" horiz-adv-x="2123" unicode="œ"/><glyph d="M866 1884l-204 -325h-123l129 325h198zM1176 0h-185l-362 516h-39h-297v-516h-170v1434h467q236 0 372 -129t136 -334q0 -156 -81 -268.5t-226 -157.5zM293 1274v-606h293q158 0 250 78.5t92 224t-92.5 224.5t-249.5 79h-293z" glyph-name="Racute" horiz-adv-x="1236" unicode="Ŕ"/><glyph d="M664 1516l-205 -326h-123l129 326h199zM680 1081q35 0 51 -4v-157q-16 4 -49 4q-156 0 -266.5 -104.5t-130.5 -280.5v-539h-168v1065h168v-281q31 125 137 211t258 86z" glyph-name="racute" horiz-adv-x="792" unicode="ŕ"/><glyph d="M791 545l385 -545h-185l-362 516h-39h-297v-516h-170v1434h467q236 0 372 -129t136 -334q0 -156 -81 -268.5t-226 -157.5zM293 1274v-606h293q158 0 250 78.5t92 224t-92.5 224.5t-249.5 79h-293zM377 -475l129 407h225l-207 -407h-147z" glyph-name="Rcommaaccent" horiz-adv-x="1236" unicode="Ŗ"/><glyph d="M680 1081q35 0 51 -4v-157q-16 4 -49 4q-156 0 -266.5 -104.5t-130.5 -280.5v-539h-168v1065h168v-281q31 125 137 211t258 86zM-41 -475l129 407h225l-207 -407h-147z" glyph-name="rcommaaccent" horiz-adv-x="792" unicode="ŗ"/><glyph d="M641 1569h-82l-254 311l60 55l235 -241l236 241l59 -55zM1176 0h-185l-362 516h-39h-297v-516h-170v1434h467q236 0 372 -129t136 -334q0 -156 -81 -268.5t-226 -157.5zM293 1274v-606h293q158 0 250 78.5t92 224t-92.5 224.5t-249.5 79h-293z" glyph-name="Rcaron" horiz-adv-x="1236" unicode="Ř"/><glyph d="M438 1200h-82l-254 311l60 56l235 -242l236 242l59 -56zM680 1081q35 0 51 -4v-157q-16 4 -49 4q-156 0 -266.5 -104.5t-130.5 -280.5v-539h-168v1065h168v-281q31 125 137 211t258 86z" glyph-name="rcaron" horiz-adv-x="792" unicode="ř"/><glyph d="M829 1884l-204 -325h-123l129 325h198zM561 1454q164 0 282 -87t169 -214l-129 -70q-109 217 -322 217q-117 0 -190.5 -59t-73.5 -160q0 -156 229 -243l105 -39q215 -80 317.5 -169t102.5 -241q0 -184 -143.5 -296.5t-338.5 -112.5q-180 0 -318 98t-179 254l137 65 q39 -119 133 -190.5t227 -71.5q129 0 217 69.5t88 186.5q0 100 -66.5 152.5t-217.5 109.5l-109 41q-174 68 -264 160t-90 231q0 164 124 266.5t310 102.5z" glyph-name="Sacute" horiz-adv-x="1122" unicode="Ś"/><glyph d="M692 1516l-205 -326h-122l129 326h198zM635 809q-66 139 -207 139q-78 0 -126 -41t-48 -106q0 -109 147 -162l107 -37q154 -55 230.5 -121.5t76.5 -189.5q0 -147 -111.5 -229t-267.5 -82q-150 0 -253 75.5t-132 208.5l135 39q25 -86 93.5 -136t158.5 -50q88 0 151.5 45 t63.5 125q0 117 -176 178l-119 43q-266 94 -266 295q0 125 95.5 203.5t236.5 78.5q125 0 215 -63.5t135 -171.5z" glyph-name="sacute" horiz-adv-x="876" unicode="ś"/><glyph d="M1051 389q0 -168 -119 -276.5t-291 -128.5l-78 -76q74 -4 129.5 -50t55.5 -118q0 -106 -105.5 -155.5t-251.5 -16.5l21 55q88 -14 142 23t54 94q0 53 -48 83t-105 -1l-56 55l78 109q-150 25 -259 118t-146 228l137 65q39 -119 133 -190.5t227 -71.5q129 0 217 69.5 t88 186.5q0 100 -66.5 152.5t-217.5 109.5l-109 41q-174 68 -264 160t-90 231q0 164 124 266.5t310 102.5q164 0 282 -87t169 -214l-129 -70q-109 217 -322 217q-117 0 -190.5 -59t-73.5 -160q0 -156 229 -243l105 -39q215 -80 317.5 -169t102.5 -241z" glyph-name="Scedilla" horiz-adv-x="1122" unicode="Ş"/><glyph d="M815 291q0 -129 -88 -209t-219 -98l-76 -74q74 -4 129 -50t55 -118q0 -106 -105 -155.5t-251 -16.5l21 55q88 -14 142 23t54 94q0 53 -48 83t-105 -1l-56 55l78 109q-115 20 -192.5 92t-102.5 184l135 39q25 -86 93.5 -136t158.5 -50q88 0 151.5 45t63.5 125 q0 117 -176 178l-119 43q-266 94 -266 295q0 125 95.5 203.5t236.5 78.5q125 0 215 -63.5t135 -171.5l-139 -41q-66 139 -207 139q-78 0 -126 -41t-48 -106q0 -109 147 -162l107 -37q154 -55 230.5 -121.5t76.5 -189.5z" glyph-name="scedilla" horiz-adv-x="876" unicode="ş"/><glyph d="M604 1569h-82l-254 311l60 55l235 -241l236 241l59 -55zM561 1454q164 0 282 -87t169 -214l-129 -70q-109 217 -322 217q-117 0 -190.5 -59t-73.5 -160q0 -156 229 -243l105 -39q215 -80 317.5 -169t102.5 -241q0 -184 -143.5 -296.5t-338.5 -112.5q-180 0 -318 98 t-179 254l137 65q39 -119 133 -190.5t227 -71.5q129 0 217 69.5t88 186.5q0 100 -66.5 152.5t-217.5 109.5l-109 41q-174 68 -264 160t-90 231q0 164 124 266.5t310 102.5z" glyph-name="Scaron" horiz-adv-x="1122" unicode="Š"/><glyph d="M467 1200h-82l-254 311l59 56l236 -242l236 242l59 -56zM635 809q-66 139 -207 139q-78 0 -126 -41t-48 -106q0 -109 147 -162l107 -37q154 -55 230.5 -121.5t76.5 -189.5q0 -147 -111.5 -229t-267.5 -82q-150 0 -253 75.5t-132 208.5l135 39q25 -86 93.5 -136t158.5 -50 q88 0 151.5 45t63.5 125q0 117 -176 178l-119 43q-266 94 -266 295q0 125 95.5 203.5t236.5 78.5q125 0 215 -63.5t135 -171.5z" glyph-name="scaron" horiz-adv-x="876" unicode="š"/><glyph d="M651 0h-6l-94 -92q74 -4 129 -50t55 -118q0 -106 -105.5 -155.5t-250.5 -16.5l20 55q88 -14 142.5 23t54.5 94q0 53 -48 83t-106 -1l-55 55l88 123h6v1274h-399v160h967v-160h-398v-1274z" glyph-name="Tcommaaccent" horiz-adv-x="1130" unicode="Ţ"/><glyph d="M412 -92q74 -4 129 -50t55 -118q0 -106 -105.5 -155.5t-250.5 -16.5l20 55q88 -14 142.5 23t54.5 94q0 53 -48.5 83t-105.5 -1l-55 55l88 121q-133 37 -133 201v725h-148v141h148v272h166v-272h225v-141h-225v-686q0 -100 100 -101q57 0 123 27v-139q-39 -20 -92 -31z " glyph-name="tcommaaccent" horiz-adv-x="669" unicode="ţ"/><glyph d="M606 1569h-82l-254 311l60 55l235 -241l236 241l59 -55zM1049 1434v-160h-398v-1274h-170v1274h-399v160h967z" glyph-name="Tcaron" horiz-adv-x="1130" unicode="Ť"/><glyph d="M788 1516l-204 -326h-123l129 326h198zM369 1337v-272h225v-141h-225v-686q0 -100 100 -101q57 0 123 27v-139q-74 -37 -166 -37q-223 0 -223 211v725h-148v141h148v272h166z" glyph-name="tcaron" horiz-adv-x="864" unicode="ť"/><glyph d="M1049 1274h-398v-219h291v-160h-291v-895h-170v895h-293v160h293v219h-399v160h967v-160z" glyph-name="Tbar" horiz-adv-x="1130" unicode="Ŧ"/><glyph d="M596 621h-227v-383q0 -100 100 -101q57 0 123 27v-139q-74 -37 -166 -37q-223 0 -223 211v422h-142v141h142v162h-148v141h148v272h166v-272h225v-141h-225v-162h227v-141z" glyph-name="tbar" horiz-adv-x="673" unicode="ŧ"/><glyph d="M485 1864q84 0 185.5 -70t148.5 -70q49 0 80 24t31 54h78q0 -96 -57.5 -154.5t-145.5 -58.5q-66 0 -126.5 38t-114.5 76t-103 38t-79 -30t-28 -62h-75q0 96 59 155.5t147 59.5zM993 1434h170v-906q0 -258 -146.5 -403t-373.5 -145t-373.5 145t-146.5 403v906h170v-904 q0 -193 98 -291t252 -98t252 98.5t98 290.5v904z" glyph-name="Utilde" horiz-adv-x="1286" unicode="Ũ"/><glyph d="M422 1495q84 0 185.5 -69.5t148.5 -69.5q49 0 79.5 23.5t30.5 54.5h78q0 -96 -57.5 -154.5t-145.5 -58.5q-66 0 -126 37.5t-114.5 75.5t-103.5 38t-78.5 -29.5t-27.5 -62.5h-76q0 96 59.5 155.5t147.5 59.5zM498 -20q-168 0 -286 117.5t-118 348.5v619h168v-614 q0 -160 82 -242t205 -82q141 0 230 95t104 196v647h168v-1065h-168v238q-10 -31 -36 -69t-70 -83t-117.5 -75.5t-161.5 -30.5z" glyph-name="utilde" horiz-adv-x="1167" unicode="ũ"/><glyph d="M1020 1802v-141h-754v141h754zM993 1434h170v-906q0 -258 -146.5 -403t-373.5 -145t-373.5 145t-146.5 403v906h170v-904q0 -193 98 -291t252 -98t252 98.5t98 290.5v904z" glyph-name="Umacron" horiz-adv-x="1286" unicode="Ū"/><glyph d="M956 1434v-142h-753v142h753zM498 -20q-168 0 -286 117.5t-118 348.5v619h168v-614q0 -160 82 -242t205 -82q141 0 230 95t104 196v647h168v-1065h-168v238q-10 -31 -36 -69t-70 -83t-117.5 -75.5t-161.5 -30.5z" glyph-name="umacron" horiz-adv-x="1167" unicode="ū"/><glyph d="M942 1864q-2 -115 -80 -204t-219 -89t-218 89t-79 204h109q10 -72 58 -121t130 -49q84 0 131 49t57 121h111zM993 1434h170v-906q0 -258 -146.5 -403t-373.5 -145t-373.5 145t-146.5 403v906h170v-904q0 -193 98 -291t252 -98t252 98.5t98 290.5v904z" glyph-name="Ubreve" horiz-adv-x="1286" unicode="Ŭ"/><glyph d="M879 1495q-2 -115 -80 -204t-219.5 -89t-218 89t-78.5 204h108q10 -72 58.5 -121t130.5 -49q84 0 131 49t57 121h111zM498 -20q-168 0 -286 117.5t-118 348.5v619h168v-614q0 -160 82 -242t205 -82q141 0 230 95t104 196v647h168v-1065h-168v238q-10 -31 -36 -69t-70 -83 t-117.5 -75.5t-161.5 -30.5z" glyph-name="ubreve" horiz-adv-x="1167" unicode="ŭ"/><glyph d="M645 1958q76 0 131 -55.5t55 -131t-55 -131t-131 -55.5q-80 0 -135 55.5t-55 131.5q0 78 55 132t135 54zM643 1847q-31 0 -52.5 -21.5t-21.5 -52t21.5 -52t52.5 -21.5q29 0 51.5 21.5t22.5 52t-22.5 52t-51.5 21.5zM993 1434h170v-906q0 -258 -146.5 -403t-373.5 -145 t-373.5 145t-146.5 403v906h170v-904q0 -193 98 -291t252 -98t252 98.5t98 290.5v904z" glyph-name="Uring" horiz-adv-x="1286" unicode="Ů"/><glyph d="M582 1589q76 0 131 -55t55 -131t-55.5 -131t-130.5 -55q-80 0 -135.5 55t-55.5 131q0 78 55.5 132t135.5 54zM580 1479q-31 0 -52.5 -21.5t-21.5 -52.5t21.5 -52.5t52.5 -21.5q29 0 51 21.5t22 52.5t-22 52.5t-51 21.5zM498 -20q-168 0 -286 117.5t-118 348.5v619h168 v-614q0 -160 82 -242t205 -82q141 0 230 95t104 196v647h168v-1065h-168v238q-10 -31 -36 -69t-70 -83t-117.5 -75.5t-161.5 -30.5z" glyph-name="uring" horiz-adv-x="1167" unicode="ů"/><glyph d="M727 1884l-205 -325h-123l129 325h199zM1067 1884l-205 -325h-123l129 325h199zM993 1434h170v-906q0 -258 -146.5 -403t-373.5 -145t-373.5 145t-146.5 403v906h170v-904q0 -193 98 -291t252 -98t252 98.5t98 290.5v904z" glyph-name="Uhungarumlaut" horiz-adv-x="1286" unicode="Ű"/><glyph d="M664 1516l-205 -326h-123l129 326h199zM1004 1516l-205 -326h-123l129 326h199zM498 -20q-168 0 -286 117.5t-118 348.5v619h168v-614q0 -160 82 -242t205 -82q141 0 230 95t104 196v647h168v-1065h-168v238q-10 -31 -36 -69t-70 -83t-117.5 -75.5t-161.5 -30.5z" glyph-name="uhungarumlaut" horiz-adv-x="1167" unicode="ű"/><glyph d="M993 1434h170v-906q0 -211 -98 -347t-264 -181h30q-279 -102 -278 -238q0 -57 54.5 -82.5t115.5 -3.5l37 -82q-41 -20 -102.5 -25t-121 9t-101.5 58.5t-42 113.5q0 145 219 230q-215 10 -352 154.5t-137 393.5v906h170v-904q0 -193 98 -291t252 -98t252 98.5t98 290.5 v904z" glyph-name="Uogonek" horiz-adv-x="1286" unicode="Ų"/><glyph d="M799 -227.5q0 -65.5 53 -94t117 -8.5l39 -76q-41 -20 -103.5 -23t-122 13.5t-101.5 62.5t-42 113q0 88 71.5 150.5t188.5 89.5h-16v238q-10 -31 -36 -69t-70 -83t-117.5 -75.5t-161.5 -30.5q-168 0 -286 117.5t-118 348.5v619h168v-614q0 -160 82 -242t205 -82 q141 0 230 95t104 196v647h168v-1065h18q-154 -61 -212 -111.5t-58 -116z" glyph-name="uogonek" horiz-adv-x="1208" unicode="ų"/><glyph d="M1061 1935l254 -311l-60 -55l-235 241l-236 -241l-59 55l254 311h82zM1989 1434l-463 -1434h-111l-395 1133l-393 -1133h-111l-465 1434h176l351 -1104l383 1104h118l383 -1104l353 1104h174z" glyph-name="Wcircumflex" horiz-adv-x="2039" unicode="Ŵ"/><glyph d="M952 1442l-235 -242l-60 55l254 312h82l254 -312l-59 -55zM1686 1065h165l-407 -1065h-146l-346 874l-346 -874h-145l-410 1065h168l318 -846l340 846h151l340 -846z" glyph-name="wcircumflex" horiz-adv-x="1902" unicode="ŵ"/><glyph d="M711 1935l254 -311l-60 -55l-235 241l-236 -241l-59 55l254 311h82zM1290 1434l-534 -807v-627h-170v627l-535 807h195l424 -648l426 648h194z" glyph-name="Ycircumflex" horiz-adv-x="1341" unicode="Ŷ"/><glyph d="M594 1442l-236 -242l-59 55l254 312h82l254 -312l-60 -55zM952 1065h174l-467 -1065l-176 -389h-168l189 420l-453 1034h172l365 -850z" glyph-name="ycircumflex" horiz-adv-x="1177" unicode="ŷ"/><glyph d="M522 1804v-153h-160v153h160zM979 1804v-153h-160v153h160zM1290 1434l-534 -807v-627h-170v627l-535 807h195l424 -648l426 648h194z" glyph-name="Ydieresis" horiz-adv-x="1341" unicode="Ÿ"/><glyph d="M850 1884l-205 -325h-123l129 325h199zM1147 1434l-817 -1284h825v-150h-1104l817 1286h-770v148h1049z" glyph-name="Zacute" horiz-adv-x="1206" unicode="Ź"/><glyph d="M809 1516l-205 -326h-123l129 326h199zM1001 1065l-671 -915h651v-150h-930l672 918h-614v147h892z" glyph-name="zacute" horiz-adv-x="1052" unicode="ź"/><glyph d="M664 1804v-153h-160v153h160zM1147 1434l-817 -1284h825v-150h-1104l817 1286h-770v148h1049z" glyph-name="Zdotaccent" horiz-adv-x="1206" unicode="Ż"/><glyph d="M623 1436v-154h-160v154h160zM1001 1065l-671 -915h651v-150h-930l672 918h-614v147h892z" glyph-name="zdotaccent" horiz-adv-x="1052" unicode="ż"/><glyph d="M625 1569h-82l-254 311l59 55l236 -241l235 241l60 -55zM1147 1434l-817 -1284h825v-150h-1104l817 1286h-770v148h1049z" glyph-name="Zcaron" horiz-adv-x="1206" unicode="Ž"/><glyph d="M584 1200h-82l-254 311l59 56l236 -242l235 242l60 -56zM1001 1065l-671 -915h651v-150h-930l672 918h-614v147h892z" glyph-name="zcaron" horiz-adv-x="1052" unicode="ž"/><glyph d="M555 1315q-100 0 -136 -47t-36 -168v-35h172v-145h-172v-981q0 -188 -80 -258t-262 -70v147q100 0 136 42t36 161v959h-160v145h160v57q0 190 81 265t261 75v-147z" glyph-name="florin" horiz-adv-x="606" unicode="ƒ"/><glyph d="M776 1569h-82l-254 311l60 55l235 -241l236 241l59 -55zM1247 0l-143 338h-739l-144 -338h-180l616 1434h156l617 -1434h-183zM426 481h618l-309 731z" glyph-name="uni01CD" horiz-adv-x="1470" unicode="Ǎ"/><glyph d="M662 1200h-82l-254 311l59 56l236 -242l235 242l59 -56zM598 -20q-203 0 -367.5 147t-164.5 405.5t164.5 405.5t367.5 147q133 0 238.5 -65.5t148.5 -157.5h12v203h166v-1065h-166v203h-12q-43 -92 -148.5 -157.5t-238.5 -65.5zM616.5 129q151.5 0 268 106.5t116.5 297 t-116.5 297t-268 106.5t-269.5 -106.5t-118 -297t118 -297t269.5 -106.5z" glyph-name="uni01CE" unicode="ǎ"/><glyph d="M250 1569h-82l-254 311l59 55l236 -241l235 241l60 -55zM293 1434v-1434h-170v1434h170z" glyph-name="uni01CF" horiz-adv-x="415" unicode="Ǐ"/><glyph d="M242 1200h-82l-254 311l59 56l236 -242l235 242l60 -56zM285 1065v-1065h-168v1065h168z" glyph-name="uni01D0" horiz-adv-x="401" unicode="ǐ"/><glyph d="M864 1569h-82l-254 311l60 55l235 -241l236 241l59 -55zM825 1454q291 0 512.5 -210t221.5 -527.5t-221.5 -527t-512.5 -209.5q-293 0 -513 209.5t-220 527t220 527.5t513 210zM825 141q219 0 388 164t169 412t-169 411.5t-388 163.5q-221 0 -389 -163.5t-168 -411.5 t168 -412t389 -164z" glyph-name="uni01D1" horiz-adv-x="1650" unicode="Ǒ"/><glyph d="M655 1200h-82l-254 311l60 56l235 -242l236 242l59 -56zM614.5 1085q94.5 0 188.5 -35.5t175 -101t132 -175t51 -243.5q0 -256 -171 -403t-376 -147q-94 0 -189 34.5t-176 101t-132 174t-51 241t51 243t132 175t176 101t189.5 35.5zM614 936q-147 0 -266 -107.5 t-119 -298.5q0 -188 119 -294.5t266 -106.5q145 0 264 107.5t119 293.5q0 190 -119 298t-264 108z" glyph-name="uni01D2" horiz-adv-x="1226" unicode="ǒ"/><glyph d="M684 1569h-82l-254 311l60 55l235 -241l236 241l59 -55zM993 1434h170v-906q0 -258 -146.5 -403t-373.5 -145t-373.5 145t-146.5 403v906h170v-904q0 -193 98 -291t252 -98t252 98.5t98 290.5v904z" glyph-name="uni01D3" horiz-adv-x="1286" unicode="Ǔ"/><glyph d="M621 1200h-82l-254 311l59 56l236 -242l235 242l59 -56zM498 -20q-168 0 -286 117.5t-118 348.5v619h168v-614q0 -160 82 -242t205 -82q141 0 230 95t104 196v647h168v-1065h-168v238q-10 -31 -36 -69t-70 -83t-117.5 -75.5t-161.5 -30.5z" glyph-name="uni01D4" horiz-adv-x="1167" unicode="ǔ"/><glyph d="M985 -2q-145 -55 -208.5 -111.5t-63.5 -124.5q0 -57 54 -82.5t116 -3.5l37 -82q-41 -20 -102.5 -25t-121 9t-101.5 58.5t-42 113.5q0 145 223 232q-279 18 -481.5 224t-202.5 511q0 317 220 527t513 210q291 0 512.5 -210t221.5 -527q0 -270 -166 -467t-408 -252z M268 717q0 -248 168 -412t389 -164q219 0 388 164t169 412t-169 411.5t-388 163.5q-221 0 -389 -163.5t-168 -411.5z" glyph-name="uni01EA" horiz-adv-x="1650" unicode="Ǫ"/><glyph d="M760 0q-279 -102 -279 -238q0 -57 54.5 -82.5t115.5 -3.5l37 -82q-41 -20 -102.5 -25t-120.5 9t-101 58.5t-42 113.5q0 150 229 234q-193 25 -339 168t-146 378q0 133 51 243t132 175.5t176 101t189.5 35.5t188.5 -35.5t175 -101t132 -175t51 -243.5q0 -209 -115.5 -346 t-285.5 -184zM229 530q0 -188 119 -294.5t266 -106.5q145 0 264 107.5t119 293.5q0 190 -118.5 298t-264.5 108q-147 0 -266 -108t-119 -298z" glyph-name="uni01EB" horiz-adv-x="1226" unicode="ǫ"/><glyph d="M561 1454q164 0 282 -87t169 -214l-129 -70q-109 217 -322 217q-117 0 -190.5 -59t-73.5 -160q0 -156 229 -243l105 -39q215 -80 317.5 -169t102.5 -241q0 -184 -143.5 -296.5t-338.5 -112.5q-180 0 -318 98t-179 254l137 65q39 -119 133 -190.5t227 -71.5 q129 0 217 69.5t88 186.5q0 100 -66.5 152.5t-217.5 109.5l-109 41q-174 68 -264 160t-90 231q0 164 124 266.5t310 102.5zM328 -475l129 407h225l-207 -407h-147z" glyph-name="Scommaaccent" horiz-adv-x="1122" unicode="Ș"/><glyph d="M635 809q-66 139 -207 139q-78 0 -126 -41t-48 -106q0 -109 147 -162l107 -37q154 -55 230.5 -121.5t76.5 -189.5q0 -147 -111.5 -229t-267.5 -82q-150 0 -253 75.5t-132 208.5l135 39q25 -86 93.5 -136t158.5 -50q88 0 151.5 45t63.5 125q0 117 -176 178l-119 43 q-266 94 -266 295q0 125 95.5 203.5t236.5 78.5q125 0 215 -63.5t135 -171.5zM197 -475l129 407h225l-207 -407h-147z" glyph-name="scommaaccent" horiz-adv-x="876" unicode="ș"/><glyph d="M82 1434h967v-160h-398v-1274h-170v1274h-399v160zM328 -475l129 407h225l-207 -407h-147z" glyph-name="uni021A" horiz-adv-x="1130" unicode="Ț"/><glyph d="M594 924h-225v-686q0 -100 100 -101q57 0 123 27v-139q-74 -37 -166 -37q-223 0 -223 211v725h-148v141h148v272h166v-272h225v-141zM176 -475l129 407h225l-206 -407h-148z" glyph-name="uni021B" horiz-adv-x="669" unicode="ț"/><glyph d="M-74 -395h-49v155h47q131 0 196.5 58.5t65.5 216.5v1030h168v-1045q0 -229 -107.5 -322t-320.5 -93z" glyph-name="uni0237" horiz-adv-x="471" unicode="ȷ"/><glyph d="M336 1567l254 -312l-60 -55l-235 242l-236 -242l-59 55l254 312h82z" glyph-name="circumflex" horiz-adv-x="589" unicode="ˆ"/><glyph d="M336 1200h-82l-254 311l59 56l236 -242l235 242l60 -56z" glyph-name="caron" horiz-adv-x="589" unicode="ˇ"/><glyph d="M596 1495q-2 -115 -80 -204t-219 -89t-218 89t-79 204h109q10 -72 58 -121t130 -49q84 0 131 49t57 121h111z" glyph-name="breve" horiz-adv-x="595" unicode="˘"/><glyph d="M160 1436v-154h-160v154h160z" glyph-name="dotaccent" horiz-adv-x="159" unicode="˙"/><glyph d="M190 1589q76 0 131.5 -55t55.5 -131t-55.5 -131t-131.5 -55q-80 0 -135 55t-55 131q0 78 55 132t135 54zM188 1479q-31 0 -52 -21.5t-21 -52.5t21.5 -52.5t51.5 -21.5q29 0 51.5 21.5t22.5 52.5t-22.5 52.5t-51.5 21.5z" glyph-name="ring" horiz-adv-x="376" unicode="˚"/><glyph d="M438 0q-279 -102 -278 -238q0 -57 54 -82.5t116 -3.5l37 -82q-41 -20 -102.5 -25t-121 9t-101.5 58.5t-42 113.5q0 166 279 250h159z" glyph-name="ogonek" horiz-adv-x="438" unicode="˛"/><glyph d="M207 1495q84 0 185.5 -69.5t148.5 -69.5q49 0 79.5 23.5t30.5 54.5h78q0 -96 -57.5 -154.5t-145.5 -58.5q-66 0 -126 37.5t-114.5 75.5t-103.5 38t-78.5 -29.5t-27.5 -62.5h-76q0 96 59.5 155.5t147.5 59.5z" glyph-name="tilde" horiz-adv-x="729" unicode="˜"/><glyph d="M328 1516l-205 -326h-123l129 326h199zM668 1516l-205 -326h-123l129 326h199z" glyph-name="hungarumlaut" horiz-adv-x="667" unicode="˝"/><glyph d="M-406 -440l130 407h225l-207 -407h-148z" glyph-name="uni0326" horiz-adv-x="0" unicode="̦"/><glyph d="M774 1434l625 -1434h-1297l625 1434h47zM752 1149l-426 -999h850z" glyph-name="Delta" horiz-adv-x="1501" unicode="Δ"/><glyph d="M1513 729q0 -336 -307 -567h256v-162h-426v236l82 63q223 174 223 430q0 242 -162.5 398.5t-375.5 156.5t-375 -155.5t-162 -399.5q0 -258 221 -430l82 -63v-236h-426v162h256q-307 231 -307 567q0 305 217 512t493.5 207t493.5 -207t217 -512z" glyph-name="Omega" horiz-adv-x="1605" unicode="Ω"/><glyph d="M881 1065h168v-1065h-168v238q-10 -31 -36 -69t-70 -83t-117.5 -75.5t-161.5 -30.5q-129 0 -230 69v-438h-166v725q-8 47 -8 110v619h174v-692q20 -123 97 -184.5t184 -61.5q141 0 230 95t104 196v647z" glyph-name="mu" horiz-adv-x="1165" unicode="μ"/><glyph d="M1153 137q66 0 139 37v-149q-74 -37 -172 -37q-94 0 -158.5 48t-64.5 157v725h-420v-918h-170v918h-205v147h1168v-147h-203v-668q0 -68 19.5 -90.5t66.5 -22.5z" glyph-name="pi" horiz-adv-x="1384" unicode="π"/><glyph d="M387 1804v-153h-160v153h160zM844 1804v-153h-160v153h160zM293 160h682v-160h-852v1434h833v-160h-663v-475h516v-156h-516v-483z" glyph-name="afii10023" horiz-adv-x="1067" unicode="Ё"/><glyph d="M831 1884l-204 -325h-123l129 325h198zM979 1434v-160h-686v-1274h-170v1434h856z" glyph-name="afii10052" horiz-adv-x="1050" unicode="Ѓ"/><glyph d="M1200 272l107 -118q-203 -174 -482 -174q-291 0 -512 210.5t-221 526t221.5 526.5t511.5 211q272 0 475 -170l-104 -119q-160 127 -358 127q-207 0 -372 -140t-194 -359h414v-150h-414q27 -219 192 -360.5t374 -141.5q202 0 362 131z" glyph-name="afii10053" horiz-adv-x="1378" unicode="Є"/><glyph d="M293 1434v-1434h-170v1434h170z" glyph-name="afii10055" horiz-adv-x="415" unicode="І"/><glyph d="M61 1804v-153h-159v153h159zM518 1804v-153h-160v153h160zM293 1434v-1434h-170v1434h170z" glyph-name="afii10056" horiz-adv-x="415" unicode="Ї"/><glyph d="M1247 0l-143 338h-739l-144 -338h-180l616 1434h156l617 -1434h-183zM426 481h618l-309 731z" glyph-name="afii10017" horiz-adv-x="1470" unicode="А"/><glyph d="M590 918q238 0 373 -126t135 -329q0 -205 -136.5 -334t-371.5 -129h-467v1434h874v-160h-704v-356h297zM586 160q158 0 250 78.5t92 224t-92.5 224.5t-249.5 79h-293v-606h293z" glyph-name="afii10018" horiz-adv-x="1169" unicode="Б"/><glyph d="M795 786q145 -33 230 -136t85 -255q0 -184 -129 -289.5t-387 -105.5h-471v1434h475q205 0 311.5 -99.5t106.5 -247.5q0 -106 -57.5 -185t-163.5 -116zM586 1282h-293v-446h289q127 0 196.5 63.5t69.5 167.5q0 102 -66.5 158.5t-195.5 56.5zM588 152q352 0 352 268 q0 131 -88 205.5t-260 74.5h-299v-548h295z" glyph-name="afii10019" horiz-adv-x="1181" unicode="В"/><glyph d="M979 1434v-160h-686v-1274h-170v1434h856z" glyph-name="afii10020" horiz-adv-x="1050" unicode="Г"/><glyph d="M1376 160h189v-301h-170v141h-1143v-141h-170v301h147q39 90 58.5 248.5t22.5 299t3 439.5v287h1063v-1274zM395 160h811v1114h-723v-127q0 -299 -3 -439.5t-23.5 -299t-61.5 -248.5z" glyph-name="afii10021" horiz-adv-x="1646" unicode="Д"/><glyph d="M293 160h682v-160h-852v1434h833v-160h-663v-475h516v-156h-516v-483z" glyph-name="afii10022" horiz-adv-x="1067" unicode="Е"/><glyph d="M1950 0l-555 668l-205 -222v-446h-174v446l-205 222l-555 -668h-201l650 784l-596 650h213l694 -764v764h174v-764l694 764h213l-596 -650l649 -784h-200z" glyph-name="afii10024" horiz-adv-x="2201" unicode="Ж"/><glyph d="M590 1448q188 0 318 -105.5t130 -265.5q0 -109 -73.5 -195.5t-196.5 -117.5q137 -18 238.5 -113.5t101.5 -242.5q0 -197 -149.5 -312.5t-368.5 -115.5q-221 0 -364.5 124.5t-143.5 313.5h176q0 -123 99.5 -200t232.5 -77q141 0 242.5 70t101.5 203q0 127 -107.5 198.5 t-291.5 75.5v129q168 8 248.5 80t80.5 172q0 96 -79.5 156.5t-194.5 60.5q-121 0 -204 -70.5t-83 -199.5h-176q0 197 132 314.5t331 117.5z" glyph-name="afii10025" horiz-adv-x="1189" unicode="З"/><glyph d="M1298 0h-170v1147h-14l-821 -1147h-170v1434h170v-1147h14l821 1147h170v-1434z" glyph-name="afii10026" horiz-adv-x="1421" unicode="И"/><glyph d="M1057 1864q-2 -115 -80 -204t-219.5 -89t-218 89t-78.5 204h108q10 -72 58.5 -121t130.5 -49q84 0 131 49t57 121h111zM1298 0h-170v1147h-14l-821 -1147h-170v1434h170v-1147h14l821 1147h170v-1434z" glyph-name="afii10027" horiz-adv-x="1421" unicode="Й"/><glyph d="M1057 0l-555 668l-209 -226v-442h-170v1434h170v-768l698 768h213l-596 -650l649 -784h-200z" glyph-name="afii10028" horiz-adv-x="1308" unicode="К"/><glyph d="M1346 1434v-1434h-170v1274h-730v-1055q0 -231 -210 -231q-111 0 -185 37v149q78 -39 139 -39q86 0 86 98v1201h1070z" glyph-name="afii10029" horiz-adv-x="1468" unicode="Л"/><glyph d="M1640 1434v-1434h-170v1096h-10l-516 -1096h-125l-516 1096h-10v-1096h-170v1434h188l572 -1215l571 1215h186z" glyph-name="afii10030" horiz-adv-x="1763" unicode="М"/><glyph d="M1022 1434h170v-1434h-170v627h-729v-627h-170v1434h170v-648h729v648z" glyph-name="afii10031" horiz-adv-x="1314" unicode="Н"/><glyph d="M825 1454q291 0 512.5 -210t221.5 -527.5t-221.5 -527t-512.5 -209.5q-293 0 -513 209.5t-220 527t220 527.5t513 210zM825 141q219 0 388 164t169 412t-169 411.5t-388 163.5q-221 0 -389 -163.5t-168 -411.5t168 -412t389 -164z" glyph-name="afii10032" horiz-adv-x="1650" unicode="О"/><glyph d="M1194 1434v-1434h-170v1274h-731v-1274h-170v1434h1071z" glyph-name="afii10033" horiz-adv-x="1316" unicode="П"/><glyph d="M590 1434q236 0 372 -129t136 -334q0 -203 -135.5 -329t-372.5 -126h-297v-516h-170v1434h467zM586 668q158 0 250 78.5t92 224t-92.5 224.5t-249.5 79h-293v-606h293z" glyph-name="afii10034" horiz-adv-x="1169" unicode="Р"/><glyph d="M1307 154q-203 -174 -482 -174q-291 0 -512 210.5t-221 526t221.5 526.5t511.5 211q272 0 475 -170l-104 -119q-160 127 -358 127q-227 0 -398.5 -164.5t-171.5 -410.5t171 -411t399 -165q203 0 362 131z" glyph-name="afii10035" horiz-adv-x="1378" unicode="С"/><glyph d="M1049 1434v-160h-398v-1274h-170v1274h-399v160h967z" glyph-name="afii10036" horiz-adv-x="1130" unicode="Т"/><glyph d="M1100 1434h186l-786 -1434h-187l262 479l-524 955h187l432 -785z" glyph-name="afii10037" horiz-adv-x="1347" unicode="У"/><glyph d="M1704 717q0 -256 -202 -420t-525 -164v-133h-170v133q-324 2 -524.5 166t-200.5 418t200.5 417.5t524.5 165.5v134h170v-134q324 0 525.5 -163.5t201.5 -419.5zM252 716.5q0 -190.5 139 -311t416 -122.5v870q-276 -2 -415.5 -124t-139.5 -312.5zM977 283 q276 0 416.5 121.5t140.5 312t-140.5 313.5t-416.5 123v-870z" glyph-name="afii10038" horiz-adv-x="1785" unicode="Ф"/><glyph d="M1284 0h-201l-415 592l-416 -592h-201l516 735l-489 699h201l389 -555l389 555h200l-489 -699z" glyph-name="afii10039" horiz-adv-x="1335" unicode="Х"/><glyph d="M1364 160v-301h-170v141h-1071v1434h170v-1274h731v1274h170v-1274h170z" glyph-name="afii10040" horiz-adv-x="1423" unicode="Ц"/><glyph d="M948 1434h170v-1434h-170v678q-33 -74 -135 -148.5t-248 -74.5q-197 0 -324.5 109.5t-127.5 328.5v541h170v-541q0 -135 85 -208t218 -73q135 0 229 79t133 173v570z" glyph-name="afii10041" horiz-adv-x="1241" unicode="Ч"/><glyph d="M1925 1434h170v-1434h-1972v1434h170v-1274h731v1274h170v-1274h731v1274z" glyph-name="afii10042" horiz-adv-x="2220" unicode="Ш"/><glyph d="M2265 160v-301h-168v141h-1974v1434h170v-1274h731v1274h170v-1274h731v1274h170v-1274h170z" glyph-name="afii10043" horiz-adv-x="2324" unicode="Щ"/><glyph d="M788 918q238 0 373 -126t135 -329q0 -205 -136 -334t-372 -129h-466v1274h-261v160h431v-516h296zM784 160q158 0 250 78.5t92 224t-92 224.5t-250 79h-292v-606h292z" glyph-name="afii10044" horiz-adv-x="1368" unicode="Ъ"/><glyph d="M590 918q238 0 373 -126t135 -329q0 -205 -136.5 -334t-371.5 -129h-467v1434h170v-516h297zM1323 1434h170v-1434h-170v1434zM586 160q158 0 250 78.5t92 224t-92.5 224.5t-249.5 79h-293v-606h293z" glyph-name="afii10045" horiz-adv-x="1615" unicode="Ы"/><glyph d="M590 918q238 0 373 -126t135 -329q0 -205 -136.5 -334t-371.5 -129h-467v1434h170v-516h297zM586 160q158 0 250 78.5t92 224t-92.5 224.5t-249.5 79h-293v-606h293z" glyph-name="afii10046" horiz-adv-x="1169" unicode="Ь"/><glyph d="M573 1454q291 0 512.5 -211t221.5 -526.5t-221.5 -526t-512.5 -210.5q-279 0 -481 174l107 118q160 -131 362 -131q209 0 374 141.5t191 360.5h-413v150h413q-29 219 -193.5 359t-371.5 140q-199 0 -358 -127l-105 119q203 170 475 170z" glyph-name="afii10047" horiz-adv-x="1378" unicode="Э"/><glyph d="M1241 1454q291 0 512 -210t221 -527.5t-221 -527t-512 -209.5q-274 0 -488 186t-241 477h-219v-643h-170v1434h170v-641h219q29 291 243 476t486 185zM1241 141q219 0 388 164t169 412t-169 411.5t-388 163.5q-221 0 -389 -163.5t-168 -411.5t168 -412t389 -164z" glyph-name="afii10048" horiz-adv-x="2064" unicode="Ю"/><glyph d="M647 1434h467v-1434h-170v516h-297h-39l-362 -516h-185l385 545q-145 45 -226 157.5t-81 268.5q0 205 136 334t372 129zM651 668h293v606h-293q-158 0 -250 -79t-92 -224.5t92 -224t250 -78.5z" glyph-name="afii10049" horiz-adv-x="1236" unicode="Я"/><glyph d="M598 -20q-203 0 -367.5 147t-164.5 405.5t164.5 405.5t367.5 147q133 0 238.5 -65.5t148.5 -157.5h12v203h166v-1065h-166v203h-12q-43 -92 -148.5 -157.5t-238.5 -65.5zM616.5 129q151.5 0 268 106.5t116.5 297t-116.5 297t-268 106.5t-269.5 -106.5t-118 -297t118 -297 t269.5 -106.5z" glyph-name="afii10065" unicode="а"/><glyph d="M676 1085q203 0 367.5 -147t164.5 -405.5t-164.5 -405.5t-367.5 -147q-133 0 -238.5 65.5t-148.5 157.5h-13v-203h-165v1065h6q0 190 91 279.5t302 89.5h205q72 0 102.5 7t48.5 34h162q-41 -100 -104.5 -141.5t-200.5 -41.5h-203q-125 0 -180 -53t-55 -174v-203h4 q43 92 148.5 157.5t238.5 65.5zM657.5 129q151.5 0 269 106.5t117.5 297t-117.5 297t-269 106.5t-268.5 -106.5t-117 -297t117 -297t268.5 -106.5z" glyph-name="afii10066" horiz-adv-x="1273" unicode="б"/><glyph d="M836 590q223 -76 223 -281q0 -152 -115 -230.5t-334 -78.5h-493v1065h493q172 0 269.5 -71.5t97.5 -198.5q0 -148 -141 -205zM610 924h-325v-285h327q197 0 197 145q0 61 -49.5 100.5t-149.5 39.5zM610 141q160 0 219.5 47.5t59.5 128.5q0 188 -277 189h-327v-365h325z " glyph-name="afii10067" horiz-adv-x="1130" unicode="в"/><glyph d="M901 1065v-147h-616v-918h-168v1065h784z" glyph-name="afii10068" horiz-adv-x="983" unicode="г"/><glyph d="M1137 150h114v-281h-168v131h-856v-131h-166v281h91q59 86 72.5 234t13.5 476v205h899v-915zM313 150h658v768h-565v-58q0 -324 -16 -474t-77 -236z" glyph-name="afii10069" horiz-adv-x="1312" unicode="д"/><glyph d="M602 1085q96 0 190.5 -36.5t176.5 -107.5t126 -194.5t29 -277.5h-893q18 -166 131 -256t267 -90q197 0 319 119l99 -90q-143 -172 -422 -172q-141 0 -265 58t-209 187t-85 305q0 133 50 243t129 175.5t172 101t185 35.5zM602 940q-129 0 -238.5 -91t-132.5 -253h744 q-12 160 -126 252t-247 92z" glyph-name="afii10070" horiz-adv-x="1196" unicode="е"/><glyph d="M1556 0l-456 461l-107 -109v-352h-168v352l-106 109l-457 -461h-221l567 571l-491 494h213l495 -492v492h168v-492l496 492h213l-492 -494l568 -571h-222z" glyph-name="afii10072" horiz-adv-x="1820" unicode="ж"/><glyph d="M508 1083q166 0 272.5 -85t106.5 -203q0 -170 -195 -226q100 -14 179 -82.5t79 -179.5q0 -147 -129 -237t-307 -90q-188 0 -310 102t-122 262h160q0 -96 80.5 -160.5t193.5 -64.5q111 0 190.5 52t79.5 142q0 92 -84 141.5t-223 49.5v119q244 6 244 161q0 68 -58.5 113 t-154.5 45q-94 0 -158.5 -50t-64.5 -126h-160q0 137 105.5 227t275.5 90z" glyph-name="afii10073" horiz-adv-x="1032" unicode="з"/><glyph d="M1051 1065v-1065h-166v745l-742 -745h-26v1065h168v-746l741 746h25z" glyph-name="afii10074" horiz-adv-x="1167" unicode="и"/><glyph d="M885 1495q-2 -115 -80 -204t-219.5 -89t-218 89t-78.5 204h108q10 -72 58.5 -121t130.5 -49q84 0 131 49t57 121h111zM1051 1065v-1065h-166v745l-742 -745h-26v1065h168v-746l741 746h25z" glyph-name="afii10075" horiz-adv-x="1167" unicode="й"/><glyph d="M848 0l-457 461l-106 -109v-352h-168v1065h168v-492l495 492h213l-491 -494l567 -571h-221z" glyph-name="afii10076" horiz-adv-x="1110" unicode="к"/><glyph d="M1186 1065v-1065h-166v918h-582v-699q0 -231 -211 -231q-102 0 -176 37v141q72 -31 133 -31q47 0 67.5 21.5t20.5 70.5v838h914z" glyph-name="afii10077" horiz-adv-x="1302" unicode="л"/><glyph d="M1327 1065v-1065h-166v647l-438 -647l-438 647v-647h-168v1065h35l571 -823l571 823h33z" glyph-name="afii10078" horiz-adv-x="1443" unicode="м"/><glyph d="M868 1065h166v-1065h-166v446h-583v-446h-168v1065h168v-469h583v469z" glyph-name="afii10079" horiz-adv-x="1150" unicode="н"/><glyph d="M614.5 1085q94.5 0 188.5 -35.5t175 -101t132 -175t51 -243.5q0 -256 -171 -403t-376 -147q-94 0 -189 34.5t-176 101t-132 174t-51 241t51 243t132 175t176 101t189.5 35.5zM614 936q-147 0 -266 -107.5t-119 -298.5q0 -188 119 -294.5t266 -106.5q145 0 264 107.5 t119 293.5q0 190 -119 298t-264 108z" glyph-name="afii10080" horiz-adv-x="1226" unicode="о"/><glyph d="M1038 1065v-1065h-166v918h-587v-918h-168v1065h921z" glyph-name="afii10081" horiz-adv-x="1157" unicode="п"/><glyph d="M684 1085q203 0 368 -147t165 -405.5t-165 -405.5t-368 -147q-133 0 -238.5 65.5t-148.5 157.5h-12v-592h-168v668h2v786h166v-203h12q43 92 148.5 157.5t238.5 65.5zM665.5 129q151.5 0 269.5 106.5t118 297t-118 297t-269.5 106.5t-268 -106.5t-116.5 -297t116.5 -297 t268 -106.5z" glyph-name="afii10082" unicode="р"/><glyph d="M612 1085q147 0 266 -66.5t189 -193.5l-135 -57q-106 168 -318 168q-147 0 -266 -107.5t-119 -298.5q0 -188 119 -294.5t266 -106.5q213 0 318 166l135 -57q-141 -258 -455 -258q-127 0 -248.5 58t-209.5 188t-88 304q0 133 51 243t132 175.5t175 101t188 35.5z" glyph-name="afii10083" horiz-adv-x="1128" unicode="с"/><glyph d="M850 1065v-147h-311v-918h-166v918h-312v147h789z" glyph-name="afii10084" horiz-adv-x="911" unicode="т"/><glyph d="M952 1065h174l-467 -1065l-176 -389h-168l189 420l-453 1034h172l365 -850z" glyph-name="afii10085" horiz-adv-x="1177" unicode="у"/><glyph d="M1550 1085q203 0 368 -147t165 -405.5t-165 -405.5t-368 -147q-133 0 -238.5 65.5t-148.5 157.5h-12v-592h-168v592h-12q-43 -92 -148.5 -157.5t-238.5 -65.5q-203 0 -368 147t-165 405.5t165 405.5t368 147q133 0 238.5 -65.5t148.5 -157.5h12v592h168v-592h12 q43 92 148.5 157.5t238.5 65.5zM602 129q141 0 254 94t129 262v95q-16 168 -129 262t-254 94q-152 0 -269.5 -106.5t-117.5 -297t117.5 -297t269.5 -106.5zM1532 129q152 0 269.5 106.5t117.5 297t-118 297t-269 106.5q-141 0 -254 -94t-129 -262v-95q16 -168 129 -262 t254 -94z" glyph-name="afii10086" horiz-adv-x="2134" unicode="ф"/><glyph d="M877 0l-314 420l-311 -420h-197l414 545l-387 520h190l291 -397l293 397h191l-388 -520l412 -545h-194z" glyph-name="afii10087" horiz-adv-x="1128" unicode="х"/><glyph d="M1153 150v-291h-166v141h-870v1065h168v-918h587v918h166v-915h115z" glyph-name="afii10088" horiz-adv-x="1214" unicode="ц"/><glyph d="M838 1065h168v-1065h-168v518q-23 -66 -119 -141.5t-248 -75.5q-158 0 -268.5 93t-110.5 300v371h166v-373q0 -117 62.5 -179t175.5 -62q125 0 216 79.5t126 182.5v352z" glyph-name="afii10089" horiz-adv-x="1122" unicode="ч"/><glyph d="M1483 1065v-1065h-1366v1065h168v-915h432v915h166v-915h432v915h168z" glyph-name="afii10090" horiz-adv-x="1599" unicode="ш"/><glyph d="M1595 150v-291h-165v141h-1313v1065h168v-915h432v915h166v-915h432v915h168v-915h112z" glyph-name="afii10091" horiz-adv-x="1656" unicode="щ"/><glyph d="M721 637q201 0 310.5 -85t109.5 -234.5t-109.5 -233.5t-310.5 -84h-522v918h-158v147h326v-428h354zM723 150q254 0 254 167q0 170 -254 170h-356v-337h356z" glyph-name="afii10092" horiz-adv-x="1206" unicode="ъ"/><glyph d="M639 637q201 0 310.5 -85t109.5 -234.5t-109.5 -233.5t-310.5 -84h-522v1065h168v-428h354zM1243 1065h166v-1065h-166v1065zM641 150q254 0 254 167q0 170 -254 170h-356v-337h356z" glyph-name="afii10093" horiz-adv-x="1525" unicode="ы"/><glyph d="M639 637q201 0 310.5 -85t109.5 -234.5t-109.5 -233.5t-310.5 -84h-522v1065h168v-428h354zM641 150q254 0 254 167q0 170 -254 170h-356v-337h356z" glyph-name="afii10094" horiz-adv-x="1124" unicode="ь"/><glyph d="M520 1085q94 0 188.5 -35.5t175.5 -101t132 -175t51 -243.5q0 -174 -88 -304t-210 -188t-249 -58q-313 0 -454 258l135 57q104 -166 317 -166q133 0 246 89t135 249h-344v123h344q-18 162 -133 254t-248 92q-211 0 -317 -168l-135 57q70 127 188.5 193.5t265.5 66.5z" glyph-name="afii10095" horiz-adv-x="1132" unicode="э"/><glyph d="M1014 1085q94 0 188 -35.5t175 -101t132.5 -175t51.5 -243.5q0 -256 -171 -403t-376 -147q-119 0 -232.5 50t-204 161.5t-108.5 261.5h-184v-453h-168v1065h168v-459h184q27 223 192 351t353 128zM1014 129q145 0 264 107.5t119 293.5q0 190 -119 298t-264 108 q-147 0 -266 -107.5t-119 -298.5q0 -188 119 -294.5t266 -106.5z" glyph-name="afii10096" horiz-adv-x="1644" unicode="ю"/><glyph d="M1028 1065v-1065h-166v387h-252l-354 -387h-195l361 395q-150 25 -234 113t-84 219q0 154 114 246t310 92h500zM862 537v381h-336q-133 0 -195.5 -53.5t-62.5 -137.5q0 -86 61.5 -138t196.5 -52h336z" glyph-name="afii10097" horiz-adv-x="1144" unicode="я"/><glyph d="M463 1436v-154h-160v154h160zM920 1436v-154h-160v154h160zM602 1085q96 0 190.5 -36.5t176.5 -107.5t126 -194.5t29 -277.5h-893q18 -166 131 -256t267 -90q197 0 319 119l99 -90q-143 -172 -422 -172q-141 0 -265 58t-209 187t-85 305q0 133 50 243t129 175.5t172 101 t185 35.5zM602 940q-129 0 -238.5 -91t-132.5 -253h744q-12 160 -126 252t-247 92z" glyph-name="afii10071" horiz-adv-x="1196" unicode="ё"/><glyph d="M786 1516l-204 -326h-123l129 326h198zM901 1065v-147h-616v-918h-168v1065h784z" glyph-name="afii10100" horiz-adv-x="983" unicode="ѓ"/><glyph d="M614 129q213 0 318 166l135 -57q-141 -258 -455 -258q-127 0 -248.5 58t-209.5 188t-88 304q0 133 51 243t132 175.5t175 101t188 35.5q147 0 266 -66.5t189 -193.5l-135 -57q-106 168 -318 168q-133 0 -247.5 -92t-133.5 -254h345v-123h-345q23 -160 135.5 -249 t245.5 -89z" glyph-name="afii10101" horiz-adv-x="1128" unicode="є"/><glyph d="M285 1448v-164h-168v164h168zM285 1065v-1065h-168v1065h168z" glyph-name="afii10103" horiz-adv-x="401" unicode="і"/><glyph d="M53 1436v-154h-159v154h159zM510 1436v-154h-160v154h160zM285 1065v-1065h-168v1065h168z" glyph-name="afii10104" horiz-adv-x="401" unicode="ї"/><glyph d="M809 1530h170v-256h-686v-1274h-170v1434h686v96z" glyph-name="afii10050" horiz-adv-x="1050" unicode="Ґ"/><glyph d="M735 1159h166v-241h-616v-918h-168v1065h618v94z" glyph-name="afii10098" horiz-adv-x="983" unicode="ґ"/><glyph d="M766 1884h199l129 -325h-123zM1989 1434l-463 -1434h-111l-395 1133l-393 -1133h-111l-465 1434h176l351 -1104l383 1104h118l383 -1104l353 1104h174z" glyph-name="Wgrave" horiz-adv-x="2039" unicode="Ẁ"/><glyph d="M1026 1190h-123l-205 326h199zM1686 1065h165l-407 -1065h-146l-346 874l-346 -874h-145l-410 1065h168l318 -846l340 846h151l340 -846z" glyph-name="wgrave" horiz-adv-x="1902" unicode="ẁ"/><glyph d="M1286 1884l-205 -325h-123l129 325h199zM1989 1434l-463 -1434h-111l-395 1133l-393 -1133h-111l-465 1434h176l351 -1104l383 1104h118l383 -1104l353 1104h174z" glyph-name="Wacute" horiz-adv-x="2039" unicode="Ẃ"/><glyph d="M1219 1516l-205 -326h-123l129 326h199zM1686 1065h165l-407 -1065h-146l-346 874l-346 -874h-145l-410 1065h168l318 -846l340 846h151l340 -846z" glyph-name="wacute" horiz-adv-x="1902" unicode="ẃ"/><glyph d="M872 1804v-153h-159v153h159zM1329 1804v-153h-160v153h160zM1989 1434l-463 -1434h-111l-395 1133l-393 -1133h-111l-465 1434h176l351 -1104l383 1104h118l383 -1104l353 1104h174z" glyph-name="Wdieresis" horiz-adv-x="2039" unicode="Ẅ"/><glyph d="M805 1436v-154h-160v154h160zM1262 1436v-154h-160v154h160zM1686 1065h165l-407 -1065h-146l-346 874l-346 -874h-145l-410 1065h168l318 -846l340 846h151l340 -846z" glyph-name="wdieresis" horiz-adv-x="1902" unicode="ẅ"/><glyph d="M416 1884h198l129 -325h-122zM1290 1434l-534 -807v-627h-170v627l-535 807h195l424 -648l426 648h194z" glyph-name="Ygrave" horiz-adv-x="1341" unicode="Ỳ"/><glyph d="M668 1190h-123l-205 326h199zM952 1065h174l-467 -1065l-176 -389h-168l189 420l-453 1034h172l365 -850z" glyph-name="ygrave" horiz-adv-x="1177" unicode="ỳ"/><glyph d="M1137 641v-137h-1045v137h1045z" glyph-name="endash" horiz-adv-x="1228" unicode="–"/><glyph d="M1260 641v-137h-1168v137h1168z" glyph-name="emdash" horiz-adv-x="1351" unicode="—"/><glyph d="M362 1434l-159 -457h-152l164 457h147z" glyph-name="quoteleft" horiz-adv-x="413" unicode="‘"/><glyph d="M51 977l160 457h151l-163 -457h-148z" glyph-name="quoteright" horiz-adv-x="413" unicode="’"/><glyph d="M51 -266l160 456h151l-163 -456h-148z" glyph-name="quotesinglbase" horiz-adv-x="428" unicode="‚"/><glyph d="M362 1434l-159 -457h-152l164 457h147zM631 1434l-160 -457h-152l164 457h148z" glyph-name="quotedblleft" horiz-adv-x="681" unicode="“"/><glyph d="M51 977l160 457h151l-163 -457h-148zM319 977l160 457h152l-164 -457h-148z" glyph-name="quotedblright" horiz-adv-x="681" unicode="”"/><glyph d="M51 -266l160 456h151l-163 -456h-148zM319 -266l160 456h152l-164 -456h-148z" glyph-name="quotedblbase" horiz-adv-x="679" unicode="„"/><glyph d="M578 1149v-115h-181l-20 -395h-72l-20 395h-183v115h177l-17 285h158l-17 -285h175z" glyph-name="dagger" horiz-adv-x="679" unicode="†"/><glyph d="M401 1149h177v-115h-185l-16 -268h-72l-16 268h-187v115h179l-19 285h158zM377 668l16 -269h185v-114h-177l19 -285h-158l19 285h-179v114h187l16 269h72z" glyph-name="daggerdbl" horiz-adv-x="679" unicode="‡"/><glyph d="M203 483q-43 0 -72 29t-29 72t29 71.5t72 28.5t71.5 -28.5t28.5 -71.5t-28.5 -72t-71.5 -29z" glyph-name="bullet" horiz-adv-x="405" unicode="•"/><glyph d="M172 -20q-43 0 -71.5 28.5t-28.5 71.5t28.5 71.5t71.5 28.5t71.5 -28.5t28.5 -71.5t-28.5 -71.5t-71.5 -28.5zM678 -20q-43 0 -71.5 28.5t-28.5 71.5t28.5 71.5t71.5 28.5t71.5 -28.5t28.5 -71.5t-28.5 -71.5t-71.5 -28.5zM1184 -20q-43 0 -72 28.5t-29 71.5t29 71.5 t72 28.5t71.5 -28.5t28.5 -71.5t-28.5 -71.5t-71.5 -28.5z" glyph-name="ellipsis" horiz-adv-x="1355" unicode="…"/><glyph d="M325.5 1444q106.5 0 180.5 -73t74 -179.5t-74 -179t-180.5 -72.5t-180 72.5t-73.5 179t73.5 179.5t180 73zM1096 1438l125 -84l-899 -1354l-129 82zM325.5 1327q-57.5 0 -96.5 -39t-39 -96t39 -96t96.5 -39t96.5 39t39 96t-39 96t-96.5 39zM1103.5 494q106.5 0 180.5 -73 t74 -179.5t-74 -179t-180.5 -72.5t-180 72.5t-73.5 179t73.5 179.5t180 73zM1769.5 494q106.5 0 180 -73t73.5 -179.5t-73.5 -179t-180 -72.5t-180 72.5t-73.5 179t73.5 179.5t180 73zM1104 377q-57 0 -96 -39t-39 -96.5t39 -96.5t96 -39t96 39t39 96.5t-39 96.5t-96 39z M1769.5 377q-57.5 0 -96.5 -39t-39 -96.5t39 -96.5t96.5 -39t96.5 39t39 96.5t-39 96.5t-96.5 39z" glyph-name="perthousand" horiz-adv-x="2095" unicode="‰"/><glyph d="M82 637l301 299l57 -62l-241 -278l241 -281l-57 -59l-301 299v82z" glyph-name="guilsinglleft" horiz-adv-x="491" unicode="‹"/><glyph d="M410 637v-82l-301 -299l-58 59l242 281l-242 278l58 62z" glyph-name="guilsinglright" horiz-adv-x="491" unicode="›"/><glyph d="M590 1434l-881 -1434h-98l893 1434h86z" glyph-name="fraction" horiz-adv-x="221" unicode="⁄"/><glyph d="M1294 272l107 -118q-203 -174 -481 -174q-242 0 -445 153.5t-266 396.5h-158v117h139q-4 45 -4 70q0 31 2 45h-137v115h152q55 254 261 415.5t456 161.5q272 0 475 -170l-105 -119q-160 127 -358 127q-186 0 -341 -115.5t-206 -299.5h440v-115h-460q-2 -14 -3 -45 q0 -25 5 -70h458v-117h-432q57 -174 209 -281.5t330 -107.5q202 0 362 131z" glyph-name="Euro" horiz-adv-x="1472" unicode="€"/><glyph d="M483 1434v-72h-135v-297h-80v297h-135v72h350zM1008 1434v-369h-82v225l-113 -225h-63l-113 225v-225h-82v369h82l143 -277l146 277h82z" glyph-name="trademark" horiz-adv-x="1140" unicode="™"/><glyph d="M205 1436v-535h-76v453l-35 -23l-37 64l72 41h76zM1030 1434l-880 -1434h-99l893 1434h86zM899 539q74 0 118 -41t44 -97q0 -70 -62 -108q88 -43 88 -135q0 -70 -55 -116t-133 -46q-76 0 -131 46t-55 116q0 92 88 135q-61 39 -62 108q0 53 44 95.5t116 42.5zM899 475 q-41 0 -62.5 -21.5t-21.5 -52t25.5 -55t58.5 -24.5q35 0 59.5 23.5t24.5 55.5q0 74 -84 74zM899 258q-45 0 -78 -28.5t-33 -71.5q0 -41 33 -70t78 -29q49 0 80 27t31 72t-31 72.5t-80 27.5z" glyph-name="oneeighth" horiz-adv-x="1138" unicode="⅛"/><glyph d="M238 1440q66 0 114.5 -42t48.5 -98q0 -66 -61 -108q86 -37 86 -135q0 -70 -56.5 -117t-131.5 -47q-84 0 -137.5 55.5t-49.5 130.5h78q-4 -49 27.5 -85t81.5 -36q45 0 77.5 28t32.5 71q0 109 -151 94v61q129 6 129 88q0 31 -26 53.5t-62 22.5q-45 0 -71 -30.5t-24 -83.5 h-77q-4 78 46 128t126 50zM1071 1434l-881 -1434h-98l893 1434h86zM936 539q74 0 118 -41t44 -97q0 -70 -62 -108q88 -43 88 -135q0 -70 -55 -116t-133 -46q-76 0 -131 46t-55 116q0 92 88 135q-61 39 -62 108q0 53 44 95.5t116 42.5zM936 475q-41 0 -62.5 -21.5t-21.5 -52 t25.5 -55t58.5 -24.5q35 0 59.5 23.5t24.5 55.5q0 74 -84 74zM936 258q-45 0 -78 -28.5t-33 -71.5q0 -41 33 -70t78 -29q49 0 80 27t31 72t-31 72.5t-80 27.5z" glyph-name="threeeighths" horiz-adv-x="1175" unicode="⅜"/><glyph d="M381 1436v-66h-213l-16 -119q45 20 92 21q72 0 129 -54.5t57 -134t-57.5 -135t-136.5 -55.5q-68 0 -120.5 38t-64.5 89l68 39q4 -41 35.5 -71t81.5 -30q47 0 81.5 36t34.5 89q0 51 -33.5 87t-74.5 36q-72 0 -117 -59l-66 16l37 273h283zM1071 1434l-881 -1434h-98 l893 1434h86zM940 539q74 0 118 -41t44 -97q0 -70 -62 -108q88 -43 88 -135q0 -70 -55 -116t-133 -46q-76 0 -131 46t-55 116q0 92 88 135q-61 39 -62 108q0 53 44 95.5t116 42.5zM940 475q-41 0 -62.5 -21.5t-21.5 -52t25.5 -55t58.5 -24.5q35 0 59.5 23.5t24.5 55.5 q0 74 -84 74zM940 258q-45 0 -78 -28.5t-33 -71.5q0 -41 33 -70t78 -29q49 0 80 27t31 72t-31 72.5t-80 27.5z" glyph-name="fiveeighths" horiz-adv-x="1179" unicode="⅝"/><glyph d="M410 1436l-209 -535h-80l182 469h-248v66h355zM1030 1434l-880 -1434h-99l893 1434h86zM899 539q74 0 118 -41t44 -97q0 -70 -62 -108q88 -43 88 -135q0 -70 -55 -116t-133 -46q-76 0 -131 46t-55 116q0 92 88 135q-61 39 -62 108q0 53 44 95.5t116 42.5zM899 475 q-41 0 -62.5 -21.5t-21.5 -52t25.5 -55t58.5 -24.5q35 0 59.5 23.5t24.5 55.5q0 74 -84 74zM899 258q-45 0 -78 -28.5t-33 -71.5q0 -41 33 -70t78 -29q49 0 80 27t31 72t-31 72.5t-80 27.5z" glyph-name="seveneighths" horiz-adv-x="1138" unicode="⅞"/><glyph d="M274 1434h181l333 -459q2 -2 36 -48t41 -57.5t37 -56.5t40 -66.5t30.5 -65.5t29 -78t15.5 -78t7 -87q0 -199 -139.5 -328.5t-331.5 -129.5q-195 0 -333 129t-138 323q0 188 138 320.5t321 132.5q102 0 174 -51zM553 735q-125 0 -218 -84t-93 -217q0 -135 92 -220t219 -85 q129 0 220 85t91 220t-86 218t-225 83z" glyph-name="partialdiff" horiz-adv-x="1105" unicode="∂"/><glyph d="M92 1638h1211v-2027h-160v1870h-891v-1870h-160v2027z" glyph-name="product" horiz-adv-x="1394" unicode="∏"/><glyph d="M1270 1638v-159h-899l475 -854l-475 -854h899v-160h-1178l563 1014l-563 1013h1178z" glyph-name="summation" horiz-adv-x="1361" unicode="∑"/><glyph d="M778 641v-137h-686v137h686z" glyph-name="minus" horiz-adv-x="870" unicode="−"/><glyph d="M1386 1638l-528 -2027h-188l-348 934h-230v180h344l320 -883l465 1796h165z" glyph-name="radical" horiz-adv-x="1478" unicode="√"/><glyph d="M1217 877q147 0 246.5 -98.5t99.5 -241.5q0 -147 -98.5 -247t-247.5 -100q-197 0 -390 234q-193 -233 -387 -234q-150 0 -249 99.5t-99 247.5q0 143 99.5 241.5t248.5 98.5q195 0 387 -230q193 230 390 230zM444 332q154 0 295 205q-141 201 -295 200q-88 0 -147 -58 t-59 -142q0 -86 59 -145.5t147 -59.5zM1210 332q88 0 147.5 59.5t59.5 145.5q0 84 -59.5 142t-147.5 58q-156 0 -297 -200q66 -94 144.5 -149.5t152.5 -55.5z" glyph-name="infinity" horiz-adv-x="1654" unicode="∞"/><glyph d="M555 1638v-147q-100 0 -136 -47t-36 -168v-1337q0 -188 -80 -258t-262 -70v147q100 0 136 42t36 161v1337q0 190 81 265t261 75z" glyph-name="integral" horiz-adv-x="606" unicode="∫"/><glyph d="M319 868q92 0 207 -71.5t187 -71.5q51 0 81.5 24.5t30.5 55.5h78q0 -98 -59.5 -155.5t-161.5 -57.5q-90 0 -209 76.5t-194 76.5q-51 0 -82 -30.5t-29 -63.5h-76q0 100 62.5 158.5t164.5 58.5zM319 537q92 0 207 -72t187 -72q51 0 81.5 24.5t30.5 55.5h78 q0 -98 -59.5 -155.5t-161.5 -57.5q-90 0 -209 77t-194 77q-51 0 -82 -31t-29 -64h-76q0 100 62.5 159t164.5 59z" glyph-name="approxequal" horiz-adv-x="995" unicode="≈"/><glyph d="M778 668h-233l-74 -191h307v-137h-360l-133 -340h-146l133 340h-180v137h234l73 191h-307v137h361l133 344h145l-133 -344h180v-137z" glyph-name="notequal" horiz-adv-x="870" unicode="≠"/><glyph d="M795 1214v-145l-510 -301l510 -297v-149l-703 417v58zM795 139v-137h-686v137h686z" glyph-name="lessequal" horiz-adv-x="876" unicode="≤"/><glyph d="M94 1214l703 -417v-58l-703 -417v149l510 297l-510 301v145zM94 139h686v-137h-686v137z" glyph-name="greaterequal" horiz-adv-x="888" unicode="≥"/><glyph d="M639 1434l317 -717l-317 -717h-229l-318 717l318 717h229zM524 133l258 584l-258 583l-258 -583z" glyph-name="lozenge" horiz-adv-x="1048" unicode="◊"/><glyph d="M1606 1434l123 -1434h-175l-94 1122l-471 -1122h-137l-471 1122l-94 -1122h-174l123 1434h170l516 -1201l514 1201h170z" glyph-name="M.aalt" horiz-adv-x="1841"/><glyph d="M276 1436v-154h-159v154h159zM301 1065v-1065h-168v1065h168z" glyph-name="i.aalt" horiz-adv-x="417"/><glyph d="M1225 924h-226v-686q0 -100 101 -101q57 0 123 27v-139q-74 -37 -166 -37q-223 0 -223 211v725h-508v-924h-168v924h-117v141h117v78q0 100 29.5 169.5t79.5 102.5t99.5 45.5t104.5 12.5q135 0 231 -64l-55 -117q-66 35 -145 35q-176 0 -176 -190v-72h508v272h165v-272 h226v-141z" glyph-name="f_t.dlig" horiz-adv-x="1300"/><glyph d="M1251 924h-225v-686q0 -100 100 -101q57 0 123 27v-139q-74 -37 -166 -37q-223 0 -223 211v725h-491v-686q0 -100 100 -101q57 0 123 27v-139q-74 -37 -166 -37q-223 0 -223 211v725h-148v141h148v272h166v-272h491v272h166v-272h225v-141z" glyph-name="t_t.dlig" horiz-adv-x="1327"/><glyph d="M657.5 1454q247.5 0 405.5 -196.5t158 -540.5t-158 -540.5t-405.5 -196.5t-406.5 196.5t-159 540.5t159 540.5t406.5 196.5zM657 1305q-188 0 -292.5 -163t-104.5 -425t104.5 -424t292.5 -162q186 0 291 162t105 424t-105 425t-291 163z" glyph-name="zero.salt" horiz-adv-x="1312"/><glyph d="M717 1454q248 0 406.5 -196.5t158.5 -540.5t-158.5 -540.5t-406.5 -196.5t-406.5 196.5t-158.5 540.5t158.5 540.5t406.5 196.5zM716.5 1305q-186.5 0 -292 -164t-105.5 -424q0 -262 104.5 -424t293 -162t293 162t104.5 424q0 260 -105.5 424t-292 164z" glyph-name="zero.tnum" horiz-adv-x="1433"/><glyph d="M805 1434v-1434h-166v1276h-207v158h373z" glyph-name="one.tnum" horiz-adv-x="1433"/><glyph d="M705 1454q197 0 323.5 -121t126.5 -299q0 -49 -14.5 -97t-28.5 -83t-59 -96.5t-71 -92t-98.5 -116.5t-107.5 -129l-227 -270h606v-150h-899v35l375 444q233 274 274 336q78 115 78 215q0 129 -82 199.5t-196.5 70.5t-196.5 -75.5t-82 -216.5v-35h-172v35q0 195 126 320.5 t325 125.5z" glyph-name="two.tnum" horiz-adv-x="1433"/><glyph d="M344 360q47 -109 137 -170t211 -61q133 0 234.5 81t101.5 236q0 176 -135 259t-336 45l338 536h-619v148h869l-361 -562q170 -4 292 -120.5t122 -305.5q0 -213 -146.5 -339.5t-359.5 -126.5q-174 0 -301 85t-180 224z" glyph-name="three.tnum" horiz-adv-x="1433"/><glyph d="M1180 522v-147h-154v-375h-170v375h-633v147l633 912h170v-912h154zM399 522h457v674z" glyph-name="four.tnum" horiz-adv-x="1433"/><glyph d="M1061 1434v-148h-572l-61 -426q106 111 299 111t339 -139.5t146 -354.5q0 -219 -147 -358t-365 -139q-174 0 -301 82.5t-182 211.5l135 72q37 -88 126 -151.5t220 -63.5q143 0 244.5 93t101.5 253q0 158 -102 253t-242 95q-172 0 -297 -141l-145 41l96 709h707z" glyph-name="five.tnum" horiz-adv-x="1433"/><glyph d="M997 1434l-440 -600q72 51 174 51q182 0 320.5 -132t138.5 -321q0 -195 -138.5 -323.5t-332.5 -128.5q-193 0 -332 130t-139 328q0 43 7 87t15.5 78t28.5 78t30.5 65.5t40 66.5t37 56.5t41 57.5t35.5 48l334 459h180zM719 735q-139 0 -225 -83t-86 -218t91 -220t220 -85 q127 0 219 85t92 220q0 133 -93 217t-218 84z" glyph-name="six.tnum" horiz-adv-x="1433"/><glyph d="M1165 1434l-569 -1434h-168l516 1286h-647v148h868z" glyph-name="seven.tnum" horiz-adv-x="1433"/><glyph d="M930 805q115 -51 185.5 -151.5t70.5 -231.5q0 -197 -142.5 -319.5t-337 -122.5t-337 122.5t-142.5 319.5q0 131 71 231.5t185 151.5q-168 104 -168 295q0 147 107.5 250.5t284 103.5t284 -103.5t107.5 -250.5q0 -191 -168 -295zM473 1090q0 -94 66.5 -160t167 -66 t167 65.5t66.5 160.5q0 88 -64.5 151.5t-169 63.5t-169 -63.5t-64.5 -151.5zM707 133q129 0 218 80t89 209q0 131 -89 213t-218 82t-218.5 -82t-89.5 -213q0 -129 89.5 -209t218.5 -80z" glyph-name="eight.tnum" horiz-adv-x="1433"/><glyph d="M424 0l440 600q-72 -51 -174 -51q-182 0 -320.5 132t-138.5 320q0 195 138.5 324t332.5 129q193 0 332.5 -130t139.5 -329q0 -43 -7.5 -87t-15.5 -77.5t-28.5 -77.5t-31 -65.5t-40 -67t-36.5 -56.5t-41 -57t-36 -48l-334 -459h-180zM702 698q139 0 225.5 83t86.5 218.5 t-91.5 220.5t-220.5 85q-127 0 -219 -85t-92 -221q0 -133 93 -217t218 -84z" glyph-name="nine.tnum" horiz-adv-x="1433"/><glyph d="M266 539q96 0 155.5 -72t59.5 -186v-27q0 -115 -59.5 -186.5t-155.5 -71.5q-92 0 -153.5 71.5t-61.5 186.5v27q0 115 61.5 186.5t153.5 71.5zM266 475q-59 0 -99 -52t-40 -142v-27q0 -90 40 -142.5t99 -52.5q63 0 101.5 51.5t38.5 143.5v27q0 92 -38.5 143t-101.5 51z " glyph-name="zero.dnom" horiz-adv-x="532"/><glyph d="M199 535v-535h-76v453l-35 -23l-37 64l72 41h76z" glyph-name="one.dnom" horiz-adv-x="249"/><glyph d="M223 541q70 0 121 -46t51 -108q0 -53 -29.5 -96t-109.5 -125l-96 -100h241v-66h-344v66l140 141q57 59 74.5 78.5t31.5 46t14 55.5q0 37 -28.5 63.5t-65.5 26.5q-39 0 -67.5 -26.5t-28.5 -75.5v-29h-76v29q0 72 50 119t122 47z" glyph-name="two.dnom" horiz-adv-x="452"/><glyph d="M238 539q66 0 114.5 -42t48.5 -98q0 -66 -61 -108q86 -37 86 -135q0 -70 -56.5 -117t-131.5 -47q-84 0 -137.5 55t-49.5 131h78q-4 -49 27.5 -85t81.5 -36q45 0 77.5 28t32.5 71q0 109 -151 94v61q129 6 129 88q0 31 -26 53.5t-62 22.5q-45 0 -71 -30.5t-24 -84.5h-77 q-4 78 46 128.5t126 50.5z" glyph-name="three.dnom" horiz-adv-x="477"/><glyph d="M397 535v-316h56v-63h-56v-156h-75v156h-271l271 379h75zM322 414l-134 -195h134v195z" glyph-name="four.dnom" horiz-adv-x="503"/><glyph d="M381 535v-66h-213l-16 -119q45 20 92 21q72 0 129 -54.5t57 -134.5t-57.5 -135t-136.5 -55q-68 0 -120.5 38t-64.5 89l68 39q4 -41 35.5 -71t81.5 -30q47 0 81.5 36t34.5 89q0 51 -33.5 87t-74.5 36q-72 0 -117 -59l-66 16l37 273h283z" glyph-name="five.dnom" horiz-adv-x="481"/><glyph d="M356 535l-139 -197h12q70 0 123.5 -51t53.5 -121q0 -72 -53.5 -123t-123 -51t-124 51t-54.5 123q0 33 11.5 64.5t20.5 47t36.5 51.5t34.5 44l116 162h86zM229 272q-45 0 -73.5 -28.5t-28.5 -77.5q0 -47 31.5 -78t70.5 -31q37 0 69 31t32 78t-31 76.5t-70 29.5z" glyph-name="six.dnom" horiz-adv-x="456"/><glyph d="M406 535l-209 -535h-80l182 469h-248v66h355z" glyph-name="seven.dnom" horiz-adv-x="456"/><glyph d="M238 539q74 0 117.5 -41t43.5 -97q0 -70 -61 -108q88 -43 88 -135q0 -70 -55.5 -116t-132.5 -46q-76 0 -131.5 46t-55.5 116q0 92 88 135q-61 39 -61 108q0 53 44 95.5t116 42.5zM238 475q-41 0 -62.5 -21.5t-21.5 -52t25.5 -55t58.5 -24.5q37 0 60.5 23.5t23.5 55.5 q0 74 -84 74zM238 258q-45 0 -78 -28.5t-33 -71.5q0 -41 33 -70t78 -29q49 0 79.5 27t30.5 72t-30.5 72.5t-79.5 27.5z" glyph-name="eight.dnom" horiz-adv-x="477"/><glyph d="M229.5 541q69.5 0 124 -50.5t54.5 -121.5q0 -27 -5.5 -49.5t-18.5 -46t-21.5 -37t-30 -40t-29.5 -36.5l-115 -160h-88l140 195h-11q-72 0 -125 52t-53 122q0 72 54.5 122t124 50zM229 475q-39 0 -70.5 -30.5t-31.5 -75.5q0 -47 31.5 -78t70.5 -31q45 0 73 29.5t28 79.5 q0 45 -32 75.5t-69 30.5z" glyph-name="nine.dnom" horiz-adv-x="458"/><glyph d="M266 1440q96 0 155.5 -72t59.5 -186v-27q0 -115 -59.5 -186.5t-155.5 -71.5q-92 0 -153.5 71.5t-61.5 186.5v27q0 115 61.5 186.5t153.5 71.5zM266 1376q-59 0 -99 -52t-40 -142v-27q0 -90 40 -142t99 -52q63 0 101.5 51t38.5 143v27q0 92 -38.5 143t-101.5 51z" glyph-name="zero.numr" horiz-adv-x="532"/><glyph d="M199 1436v-535h-76v453l-35 -23l-37 64l72 41h76z" glyph-name="one.numr" horiz-adv-x="249"/><glyph d="M223 1442q70 0 121 -46t51 -108q0 -53 -29.5 -96t-109.5 -125l-96 -100h241v-66h-344v66l140 141q57 59 74.5 78.5t31.5 46.5t14 55q0 37 -28.5 63.5t-65.5 26.5q-39 0 -67.5 -26.5t-28.5 -75.5v-29h-76v29q0 72 50 119t122 47z" glyph-name="two.numr" horiz-adv-x="452"/><glyph d="M238 1440q66 0 114.5 -42t48.5 -98q0 -66 -61 -108q86 -37 86 -135q0 -70 -56.5 -117t-131.5 -47q-84 0 -137.5 55.5t-49.5 130.5h78q-4 -49 27.5 -85t81.5 -36q45 0 77.5 28t32.5 71q0 109 -151 94v61q129 6 129 88q0 31 -26 53.5t-62 22.5q-45 0 -71 -30.5t-24 -83.5 h-77q-4 78 46 128t126 50z" glyph-name="three.numr" horiz-adv-x="477"/><glyph d="M397 1436v-316h56v-63h-56v-156h-75v156h-271l271 379h75zM322 1315l-134 -195h134v195z" glyph-name="four.numr" horiz-adv-x="503"/><glyph d="M381 1436v-66h-213l-16 -119q45 20 92 21q72 0 129 -54.5t57 -134t-57.5 -135t-136.5 -55.5q-68 0 -120.5 38t-64.5 89l68 39q4 -41 35.5 -71t81.5 -30q47 0 81.5 36t34.5 89q0 51 -33.5 87t-74.5 36q-72 0 -117 -59l-66 16l37 273h283z" glyph-name="five.numr" horiz-adv-x="481"/><glyph d="M356 1436l-139 -197h12q70 0 123.5 -51t53.5 -121q0 -72 -53.5 -123t-123 -51t-124 51t-54.5 123q0 33 11.5 64.5t20.5 47t36.5 51.5t34.5 44l116 162h86zM229 1174q-45 0 -73.5 -29t-28.5 -78q0 -47 31.5 -78t70.5 -31q37 0 69 31t32 78t-31 77t-70 30z" glyph-name="six.numr" horiz-adv-x="456"/><glyph d="M406 1436l-209 -535h-80l182 469h-248v66h355z" glyph-name="seven.numr" horiz-adv-x="456"/><glyph d="M238 1440q74 0 117.5 -41t43.5 -96q0 -70 -61 -109q88 -43 88 -135q0 -70 -55.5 -116t-132.5 -46q-76 0 -131.5 46t-55.5 116q0 92 88 135q-61 39 -61 109q0 53 44 95t116 42zM238 1376q-41 0 -62.5 -21.5t-21.5 -52t25.5 -55t58.5 -24.5q37 0 60.5 23.5t23.5 56.5 q0 73 -84 73zM238 1159q-45 0 -78 -28.5t-33 -71.5q0 -41 33 -69.5t78 -28.5q49 0 79.5 26.5t30.5 71.5t-30.5 72.5t-79.5 27.5z" glyph-name="eight.numr" horiz-adv-x="477"/><glyph d="M229.5 1442q69.5 0 124 -50.5t54.5 -121.5q0 -27 -5.5 -49.5t-18.5 -46t-21.5 -37t-30 -40t-29.5 -36.5l-115 -160h-88l140 195h-11q-72 0 -125 52t-53 122q0 72 54.5 122t124 50zM229 1376q-39 0 -70.5 -30.5t-31.5 -75.5q0 -47 31.5 -78t70.5 -31q45 0 73 30t28 79 q0 45 -32 75.5t-69 30.5z" glyph-name="nine.numr" horiz-adv-x="458"/></font>
</defs>
</svg>
