<svg height="464pt" viewBox="0 -11 464 463" width="464pt" xmlns="http://www.w3.org/2000/svg">
    <path d="m440 360.5h24v-32h-464v32zm0 0" fill="#787680" />
    <path d="m16 296.5h128v32h-128zm0 0" fill="#898890" />
    <path d="m152 216.5h-144l8 80h128zm0 0" fill="#acabb1" />
    <path d="m440 296.5h-16c-4.417969 0-8-3.582031-8-8v-24c0-44.183594-35.816406-80-80-80h-16v144h120c8.835938 0 16-7.164062 16-16s-7.164062-16-16-16zm0 0" fill="#5aaae7" />
    <path d="m304 184.5c-44.183594 0-80 35.816406-80 80v24c0 4.417969-3.582031 8-8 8h-16c-8.835938 0-16 7.164062-16 16s7.164062 16 16 16h120v-144zm0 0" fill="#5aaae7" />
    <path d="m336 184.5v-19.375c14.566406-6.359375 23.984375-20.734375 24-36.625v-16c0-22.089844-17.910156-40-40-40s-40 17.910156-40 40v16c.015625 15.890625 9.433594 30.265625 24 36.625v19.375zm0 0" fill="#ffdaaa" />
    <path d="m184 72.5c0 39.765625-32.234375 72-72 72s-72-32.234375-72-72 32.234375-72 72-72 72 32.234375 72 72zm0 0" fill="#ffa733" />
    <path d="m24 360.5h416v80h-416zm0 0" fill="#acabb1" />
    <path d="m24 360.5h416v16h-416zm0 0" fill="#898890" />
    <path d="m312 184.5h16v144h-16zm0 0" fill="#1e81ce" />
    <path d="m248 240.5h16v88h-16zm0 0" fill="#3d9ae2" />
    <path d="m376 240.5h16v88h-16zm0 0" fill="#3d9ae2" />
    <g fill="#ff5023">
        <path d="m120 104.5v-56c0-4.417969-3.582031-8-8-8h-24v16h16v48h-16v16h48v-16zm0 0" />
        <path d="m106.320312 30.179688c3.15625 3.09375 8.203126 3.09375 11.359376 0 .703124-.777344 1.273437-1.671876 1.679687-2.640626.851563-1.9375.851563-4.140624 0-6.078124-.386719-.980469-.957031-1.875-1.679687-2.640626-.394532-.363281-.820313-.683593-1.28125-.960937-.40625-.316406-.867188-.558594-1.359376-.71875-.476562-.242187-.996093-.40625-1.527343-.480469-2.609375-.523437-5.308594.285156-7.199219 2.160156-.722656.765626-1.292969 1.660157-1.679688 2.640626-.855468 1.9375-.855468 4.140624 0 6.078124.410157.96875.980469 1.863282 1.6875 2.640626zm0 0" />
    </g>
</svg>
