<svg height="464pt" viewBox="0 0 464 464" width="464pt" xmlns="http://www.w3.org/2000/svg">
    <path d="m80 96h64c8.835938 0 16-7.164062 16-16s-7.164062-16-16-16h-120l-24 8v16l24 8zm0 0" fill="#e6e7e8" />
    <g fill="#d1d3d4">
        <path d="m24 96-24-8v48h16zm0 0" />
        <path d="m16 24h-16v48l24-8zm0 0" />
        <path d="m112 96-16 64h-16v-64zm0 0" />
        <path d="m112 64h-32v-64h16zm0 0" />
    </g>
    <path d="m464 360c0 40-56 104-56 104s-56-64-56-104c0-30.929688 25.070312-56 56-56s56 25.070312 56 56zm0 0" fill="#ff6243" />
    <path d="m432 360c0 13.253906-10.746094 24-24 24s-24-10.746094-24-24 10.746094-24 24-24 24 10.746094 24 24zm0 0" fill="#ff9811" />
    <path d="m320 408h-14.847656v-16h14.847656zm-30.847656 0h-16v-16h16zm-32 0h-16v-16h16zm-32 0h-16v-16h16zm-32 0h-16v-16h16zm-32.65625-.320312c-5.851563-.492188-11.640625-1.5625-17.28125-3.199219l4.503906-15.359375c4.605469 1.347656 9.332031 2.226562 14.113281 2.632812zm-33.601563-9.832032c-5.183593-2.746094-10.082031-6.003906-14.621093-9.71875l10.140624-12.375c3.726563 3.042969 7.746094 5.707032 12 7.949219zm-27.046875-22.144531c-3.707031-4.539063-6.957031-9.4375-9.703125-14.613281l14.136719-7.496094c2.261719 4.253906 4.941406 8.273438 8 12zm-16.3125-30.902344c-1.632812-5.636719-2.703125-11.417969-3.199218-17.265625l15.9375-1.359375c.40625 4.78125 1.292968 9.511719 2.636718 14.121094zm12.929688-33.007812-15.898438-1.800781c.664063-5.835938 1.910156-11.589844 3.722656-17.175782l15.199219 4.945313c-1.476562 4.558593-2.488281 9.257812-3.023437 14.023437zm8.800781-27.199219-13.9375-7.875c2.90625-5.097656 6.3125-9.894531 10.167969-14.320312l12.089844 10.480468c-3.148438 3.621094-5.921876 7.550782-8.289063 11.722656zm18.75-21.601562-9.769531-12.671876c4.652344-3.597656 9.648437-6.714843 14.921875-9.3125l7.054687 14.398438c-4.300781 2.105469-8.382812 4.644531-12.175781 7.570312zm25.601563-12.632813-4.015626-15.496094c5.675782-1.480469 11.492188-2.394531 17.351563-2.71875l.886719 16c-4.78125.257813-9.523438.996094-14.160156 2.199219zm173.808593-2.359375h-16v-16h16zm-32 0h-16v-16h16zm-32 0h-16v-16h16zm-32 0h-16v-16h16zm-32 0h-16v-16h16zm145.078125-.878906-2.265625-15.839844c4.757813-.679688 9.429688-1.835938 13.953125-3.449219l5.375 15.070313c-5.53125 1.976562-11.246094 3.386718-17.0625 4.21875zm32.960938-11.761719-8.296875-13.679687c4.109375-2.496094 7.964843-5.386719 11.511719-8.632813l10.816406 11.753906c-4.316406 3.972657-9.019532 7.511719-14.03125 10.558594zm25.734375-23.632813-12.953125-9.390624c2.828125-3.890626 5.261718-8.050782 7.265625-12.425782l14.550781 6.664063c-2.445312 5.332031-5.414062 10.40625-8.863281 15.152343zm14.535156-31.796874-15.589844-3.601563c1.085938-4.683594 1.707031-9.464844 1.855469-14.273437l16 .457031c-.179688 5.867187-.9375 11.699219-2.265625 17.417969zm-14.78125-32.21875c-.816406-4.726563-2.101563-9.359376-3.839844-13.832032l14.902344-5.816406c2.132813 5.476562 3.710937 11.152344 4.703125 16.945312zm-10.402344-26.632813c-2.59375-4.039063-5.589843-7.804687-8.941406-11.246094l11.46875-11.160156c4.089844 4.210937 7.753906 8.816406 10.929687 13.753906zm-19.949219-20.527344c-3.960937-2.714843-8.179687-5.023437-12.601562-6.894531l6.230469-14.734375c5.417969 2.289063 10.59375 5.117187 15.449219 8.4375zm-26.328124-11.125c-4.699219-.949219-9.480469-1.425781-14.273438-1.425781v-16c5.863281 0 11.714844.582031 17.464844 1.734375zm-30.273438-1.425781h-16v-16h16zm-32 0h-16v-16h16zm-32 0h-16v-16h16zm-32 0h-16v-16h16zm0 0" fill="#ff9811" />
    <path d="m112 96-2 8h-30v-8zm0 0" fill="#bcbec0" />
    <path d="m112 64h-32v-8h30zm0 0" fill="#bcbec0" />
</svg>
