<svg height="472pt" viewBox="-96 0 472 472" width="472pt" xmlns="http://www.w3.org/2000/svg">
    <path d="m257.679688 192-169.679688-169.679688c-46.882812 46.84375-46.882812 122.835938 0 169.679688 1.761719 1.761719 3.519531 3.441406 5.359375 5.039062 47.492187 42.03125 119.496094 39.824219 164.320313-5.039062zm0 0" fill="#ffa733" />
    <path d="m224 72c0 8.835938-7.164062 16-16 16s-16-7.164062-16-16 7.164062-16 16-16 16 7.164062 16 16zm0 0" fill="#ff9811" />
    <path d="m176 227.121094v196.878906h-128l3.199219-16 42.160156-210.960938c22.722656 20.167969 52.273437 30.921876 82.640625 30.082032zm0 0" fill="#ee8700" />
    <path d="m0 424v48h240v-48zm0 0" fill="#57565c" />
    <path d="m176 408v16h-128l3.199219-16zm0 0" fill="#cc7400" />
    <path d="m167.199219 101.492188 22.628906-22.628907 11.3125 11.316407-22.628906 22.625zm0 0" fill="#898890" />
    <path d="m208 96c-11.449219-.003906-21.300781-8.097656-23.53125-19.332031-2.226562-11.230469 3.789062-22.472657 14.371094-26.847657 10.582031-4.375 22.78125-.664062 29.136718 8.859376 6.355469 9.527343 5.09375 22.214843-3.007812 30.304687-4.496094 4.503906-10.605469 7.027344-16.96875 7.015625zm0-32c-3.816406.003906-7.101562 2.703125-7.839844 6.445312-.742187 3.746094 1.265625 7.492188 4.792969 8.949219s7.59375.21875 9.710937-2.957031c2.117188-3.175781 1.695313-7.40625-1.007812-10.101562-1.5-1.496094-3.535156-2.335938-5.65625-2.335938zm0 0" fill="#ff5023" />
    <g fill="#ff9811">
        <path d="m229.417969 39.265625 22.628906-22.628906 11.3125 11.3125-22.628906 22.628906zm0 0" />
        <path d="m200 0h16v32h-16zm0 0" />
        <path d="m248 64h32v16h-32zm0 0" />
    </g>
</svg>
