<svg height="424pt" viewBox="0 -8 424.64266 424" width="424pt" xmlns="http://www.w3.org/2000/svg"><path d="m336.863281 168.484375c.144531 89.894531-70.332031 164.058594-160.113281 168.496094-89.785156 4.4375-167.230469-62.414063-175.957031-151.882813-8.722657-89.46875 54.351562-170.019531 143.304687-183.007812 88.949219-12.988282 172.421875 46.164062 189.644532 134.394531.640624 3.199219 1.121093 5.917969 1.441406 8 .398437 2.640625.71875 5.277344.960937 8 .238281 2.71875.398438 5.4375.480469 8.160156.160156 2.558594.238281 5.199219.238281 7.839844zm0 0" fill="#ffeb99"/><path d="m307.78125 302.710938 11.3125-11.316407 36.285156 36.285157-11.316406 11.3125zm0 0" fill="#787680"/><path d="m336.625 160.644531-31.761719 31.839844h-56l-24-24v-48l-16-16v-24l32.402344-63.601563c47.953125 23.0625 82.226563 67.386719 92.476563 119.601563.640624 3.199219 1.121093 5.917969 1.441406 8 .480468 3.039063.800781 5.757813.960937 8 .238281 2.71875.398438 5.4375.480469 8.160156zm0 0" fill="#1db794"/><path d="m.863281 168.484375c.015625 10.738281 1.035157 21.449219 3.039063 32l60.960937 40 8 40h16l16-24v-40l48-32v-24l-24-24 24-24v-32l-24-32-47.511719-23.433594c-50 30.511719-80.496093 84.859375-80.488281 143.433594zm0 0" fill="#1db794"/><path d="m321.421875 305.042969c-14.988281 15.019531-35.335937 23.460937-56.558594 23.460937-21.21875 0-41.570312-8.441406-56.558593-23.460937-2.429688-2.386719-4.675782-4.953125-6.722657-7.679688-25.539062-33.402343-20.863281-80.878906 10.707031-108.65625 31.570313-27.777343 79.253907-26.371093 109.132813 3.214844.722656.722656 1.441406 1.519531 2.160156 2.242187 29.234375 31.519532 28.28125 80.523438-2.160156 110.878907zm0 0" fill="#ffde55"/><path d="m349.71875 355.964844 39.59375 39.597656c6.25 6.25 16.382812 6.25 22.632812 0s6.25-16.382812 0-22.632812l-39.601562-39.589844c-6.277344-6.0625-16.257812-5.976563-22.429688.195312-6.171874 6.171875-6.257812 16.148438-.195312 22.429688zm0 0" fill="#ffa733"/><path d="m203.542969 266.8125c-6.078125-20.328125-1.691407-42.351562 11.722656-58.792969l12.390625 10.128907c-10.0625 12.328124-13.359375 28.847656-8.800781 44.09375zm0 0" fill="#e6e7e8"/><path d="m400.632812 408.25c-6.375.019531-12.488281-2.515625-16.976562-7.039062l-39.59375-39.589844c-9.375-9.375-9.375-24.574219 0-33.945313 9.503906-9.058593 24.441406-9.058593 33.945312 0l39.601563 39.597657c6.867187 6.863281 8.921875 17.191406 5.207031 26.160156s-12.46875 14.820312-22.175781 14.816406zm-39.601562-71.597656c-3.234375-.003906-6.15625 1.945312-7.394531 4.933594-1.242188 2.988281-.558594 6.433593 1.730469 8.722656l39.609374 39.597656c3.160157 3.03125 8.148438 3.03125 11.3125 0 1.5-1.5 2.34375-3.535156 2.34375-5.660156 0-2.121094-.84375-4.160156-2.34375-5.660156l-39.601562-39.597657c-1.5-1.5-3.535156-2.339843-5.65625-2.335937zm0 0" fill="#898890"/><path d="m321.421875 305.042969c-14.988281 15.019531-35.335937 23.460937-56.558594 23.460937-21.21875 0-41.570312-8.441406-56.558593-23.460937-2.429688-2.386719-4.675782-4.953125-6.722657-7.679688 35.921875-16.398437 87.839844-48 122-103.199219 29.234375 31.519532 28.28125 80.523438-2.160156 110.878907zm0 0" fill="#ffd422"/></svg>